<?xml version="1.0" encoding="utf-8"?>
<svg xmlns="http://www.w3.org/2000/svg" xmlns:xlink="http://www.w3.org/1999/xlink" width="600" height="400" viewBox="0 0 600 400">
<defs>
  <clipPath id="clip3600">
    <rect x="0" y="0" width="600" height="400"/>
  </clipPath>
</defs>
<polygon clip-path="url(#clip3600)" points="
0,400 600,400 600,0 0,0 
  " fill="#ffffff" fill-opacity="1"/>
<defs>
  <clipPath id="clip3601">
    <rect x="120" y="0" width="421" height="400"/>
  </clipPath>
</defs>
<polygon clip-path="url(#clip3600)" points="
54.9131,360.121 580.315,360.121 580.315,31.4961 54.9131,31.4961 
  " fill="#ffffff" fill-opacity="1"/>
<defs>
  <clipPath id="clip3602">
    <rect x="54" y="31" width="526" height="330"/>
  </clipPath>
</defs>
<polyline clip-path="url(#clip3602)" style="stroke:#000000; stroke-width:0.5; stroke-opacity:0.1; fill:none" points="
  68.5513,360.121 68.5513,31.4961 
  "/>
<polyline clip-path="url(#clip3602)" style="stroke:#000000; stroke-width:0.5; stroke-opacity:0.1; fill:none" points="
  189.796,360.121 189.796,31.4961 
  "/>
<polyline clip-path="url(#clip3602)" style="stroke:#000000; stroke-width:0.5; stroke-opacity:0.1; fill:none" points="
  311.042,360.121 311.042,31.4961 
  "/>
<polyline clip-path="url(#clip3602)" style="stroke:#000000; stroke-width:0.5; stroke-opacity:0.1; fill:none" points="
  432.287,360.121 432.287,31.4961 
  "/>
<polyline clip-path="url(#clip3602)" style="stroke:#000000; stroke-width:0.5; stroke-opacity:0.1; fill:none" points="
  553.532,360.121 553.532,31.4961 
  "/>
<polyline clip-path="url(#clip3602)" style="stroke:#000000; stroke-width:0.5; stroke-opacity:0.1; fill:none" points="
  54.9131,350.82 580.315,350.82 
  "/>
<polyline clip-path="url(#clip3602)" style="stroke:#000000; stroke-width:0.5; stroke-opacity:0.1; fill:none" points="
  54.9131,272.832 580.315,272.832 
  "/>
<polyline clip-path="url(#clip3602)" style="stroke:#000000; stroke-width:0.5; stroke-opacity:0.1; fill:none" points="
  54.9131,194.844 580.315,194.844 
  "/>
<polyline clip-path="url(#clip3602)" style="stroke:#000000; stroke-width:0.5; stroke-opacity:0.1; fill:none" points="
  54.9131,116.856 580.315,116.856 
  "/>
<polyline clip-path="url(#clip3602)" style="stroke:#000000; stroke-width:0.5; stroke-opacity:0.1; fill:none" points="
  54.9131,38.8687 580.315,38.8687 
  "/>
<polyline clip-path="url(#clip3600)" style="stroke:#000000; stroke-width:1; stroke-opacity:1; fill:none" points="
  54.9131,360.121 580.315,360.121 
  "/>
<polyline clip-path="url(#clip3600)" style="stroke:#000000; stroke-width:1; stroke-opacity:1; fill:none" points="
  54.9131,360.121 54.9131,31.4961 
  "/>
<polyline clip-path="url(#clip3600)" style="stroke:#000000; stroke-width:1; stroke-opacity:1; fill:none" points="
  68.5513,360.121 68.5513,355.191 
  "/>
<polyline clip-path="url(#clip3600)" style="stroke:#000000; stroke-width:1; stroke-opacity:1; fill:none" points="
  189.796,360.121 189.796,355.191 
  "/>
<polyline clip-path="url(#clip3600)" style="stroke:#000000; stroke-width:1; stroke-opacity:1; fill:none" points="
  311.042,360.121 311.042,355.191 
  "/>
<polyline clip-path="url(#clip3600)" style="stroke:#000000; stroke-width:1; stroke-opacity:1; fill:none" points="
  432.287,360.121 432.287,355.191 
  "/>
<polyline clip-path="url(#clip3600)" style="stroke:#000000; stroke-width:1; stroke-opacity:1; fill:none" points="
  553.532,360.121 553.532,355.191 
  "/>
<polyline clip-path="url(#clip3600)" style="stroke:#000000; stroke-width:1; stroke-opacity:1; fill:none" points="
  54.9131,350.82 62.7941,350.82 
  "/>
<polyline clip-path="url(#clip3600)" style="stroke:#000000; stroke-width:1; stroke-opacity:1; fill:none" points="
  54.9131,272.832 62.7941,272.832 
  "/>
<polyline clip-path="url(#clip3600)" style="stroke:#000000; stroke-width:1; stroke-opacity:1; fill:none" points="
  54.9131,194.844 62.7941,194.844 
  "/>
<polyline clip-path="url(#clip3600)" style="stroke:#000000; stroke-width:1; stroke-opacity:1; fill:none" points="
  54.9131,116.856 62.7941,116.856 
  "/>
<polyline clip-path="url(#clip3600)" style="stroke:#000000; stroke-width:1; stroke-opacity:1; fill:none" points="
  54.9131,38.8687 62.7941,38.8687 
  "/>
<g clip-path="url(#clip3600)">
<text style="fill:#000000; fill-opacity:1; font-family:Arial,Helvetica Neue,Helvetica,sans-serif; font-size:12; text-anchor:middle;" transform="rotate(0, 68.5513, 373.921)" x="68.5513" y="373.921">0</text>
</g>
<g clip-path="url(#clip3600)">
<text style="fill:#000000; fill-opacity:1; font-family:Arial,Helvetica Neue,Helvetica,sans-serif; font-size:12; text-anchor:middle;" transform="rotate(0, 189.796, 373.921)" x="189.796" y="373.921">500</text>
</g>
<g clip-path="url(#clip3600)">
<text style="fill:#000000; fill-opacity:1; font-family:Arial,Helvetica Neue,Helvetica,sans-serif; font-size:12; text-anchor:middle;" transform="rotate(0, 311.042, 373.921)" x="311.042" y="373.921">1000</text>
</g>
<g clip-path="url(#clip3600)">
<text style="fill:#000000; fill-opacity:1; font-family:Arial,Helvetica Neue,Helvetica,sans-serif; font-size:12; text-anchor:middle;" transform="rotate(0, 432.287, 373.921)" x="432.287" y="373.921">1500</text>
</g>
<g clip-path="url(#clip3600)">
<text style="fill:#000000; fill-opacity:1; font-family:Arial,Helvetica Neue,Helvetica,sans-serif; font-size:12; text-anchor:middle;" transform="rotate(0, 553.532, 373.921)" x="553.532" y="373.921">2000</text>
</g>
<g clip-path="url(#clip3600)">
<text style="fill:#000000; fill-opacity:1; font-family:Arial,Helvetica Neue,Helvetica,sans-serif; font-size:12; text-anchor:end;" transform="rotate(0, 48.9131, 355.32)" x="48.9131" y="355.32">0.00</text>
</g>
<g clip-path="url(#clip3600)">
<text style="fill:#000000; fill-opacity:1; font-family:Arial,Helvetica Neue,Helvetica,sans-serif; font-size:12; text-anchor:end;" transform="rotate(0, 48.9131, 277.332)" x="48.9131" y="277.332">0.02</text>
</g>
<g clip-path="url(#clip3600)">
<text style="fill:#000000; fill-opacity:1; font-family:Arial,Helvetica Neue,Helvetica,sans-serif; font-size:12; text-anchor:end;" transform="rotate(0, 48.9131, 199.344)" x="48.9131" y="199.344">0.04</text>
</g>
<g clip-path="url(#clip3600)">
<text style="fill:#000000; fill-opacity:1; font-family:Arial,Helvetica Neue,Helvetica,sans-serif; font-size:12; text-anchor:end;" transform="rotate(0, 48.9131, 121.356)" x="48.9131" y="121.356">0.06</text>
</g>
<g clip-path="url(#clip3600)">
<text style="fill:#000000; fill-opacity:1; font-family:Arial,Helvetica Neue,Helvetica,sans-serif; font-size:12; text-anchor:end;" transform="rotate(0, 48.9131, 43.3687)" x="48.9131" y="43.3687">0.08</text>
</g>
<g clip-path="url(#clip3600)">
<text style="fill:#000000; fill-opacity:1; font-family:Arial,Helvetica Neue,Helvetica,sans-serif; font-size:21; text-anchor:middle;" transform="rotate(0, 317.614, 18)" x="317.614" y="18">Distrbution for Binomial Model with 100 periods </text>
</g>
<g clip-path="url(#clip3600)">
<text style="fill:#000000; fill-opacity:1; font-family:Arial,Helvetica Neue,Helvetica,sans-serif; font-size:21; text-anchor:middle;" transform="rotate(0, 317.614, 40.68)" x="317.614" y="40.68"> S = 100.0, r = 0.08, sigma = 0.3</text>
</g>
<g clip-path="url(#clip3600)">
<text style="fill:#000000; fill-opacity:1; font-family:Arial,Helvetica Neue,Helvetica,sans-serif; font-size:16; text-anchor:middle;" transform="rotate(0, 317.614, 397.6)" x="317.614" y="397.6">Stock Price</text>
</g>
<g clip-path="url(#clip3600)">
<text style="fill:#000000; fill-opacity:1; font-family:Arial,Helvetica Neue,Helvetica,sans-serif; font-size:16; text-anchor:middle;" transform="rotate(-90, 14.4, 195.808)" x="14.4" y="195.808">Probability</text>
</g>
<circle clip-path="url(#clip3602)" style="fill:#000000; stroke:none; fill-opacity:1" cx="565.445" cy="350.82" r="4"/>
<circle clip-path="url(#clip3602)" style="fill:#009af9; stroke:none; fill-opacity:1" cx="565.445" cy="350.82" r="3"/>
<circle clip-path="url(#clip3602)" style="fill:#000000; stroke:none; fill-opacity:1" cx="536.508" cy="350.82" r="4"/>
<circle clip-path="url(#clip3602)" style="fill:#009af9; stroke:none; fill-opacity:1" cx="536.508" cy="350.82" r="3"/>
<circle clip-path="url(#clip3602)" style="fill:#000000; stroke:none; fill-opacity:1" cx="509.257" cy="350.82" r="4"/>
<circle clip-path="url(#clip3602)" style="fill:#009af9; stroke:none; fill-opacity:1" cx="509.257" cy="350.82" r="3"/>
<circle clip-path="url(#clip3602)" style="fill:#000000; stroke:none; fill-opacity:1" cx="483.592" cy="350.82" r="4"/>
<circle clip-path="url(#clip3602)" style="fill:#009af9; stroke:none; fill-opacity:1" cx="483.592" cy="350.82" r="3"/>
<circle clip-path="url(#clip3602)" style="fill:#000000; stroke:none; fill-opacity:1" cx="459.422" cy="350.82" r="4"/>
<circle clip-path="url(#clip3602)" style="fill:#009af9; stroke:none; fill-opacity:1" cx="459.422" cy="350.82" r="3"/>
<circle clip-path="url(#clip3602)" style="fill:#000000; stroke:none; fill-opacity:1" cx="436.659" cy="350.82" r="4"/>
<circle clip-path="url(#clip3602)" style="fill:#009af9; stroke:none; fill-opacity:1" cx="436.659" cy="350.82" r="3"/>
<circle clip-path="url(#clip3602)" style="fill:#000000; stroke:none; fill-opacity:1" cx="415.222" cy="350.82" r="4"/>
<circle clip-path="url(#clip3602)" style="fill:#009af9; stroke:none; fill-opacity:1" cx="415.222" cy="350.82" r="3"/>
<circle clip-path="url(#clip3602)" style="fill:#000000; stroke:none; fill-opacity:1" cx="395.034" cy="350.82" r="4"/>
<circle clip-path="url(#clip3602)" style="fill:#009af9; stroke:none; fill-opacity:1" cx="395.034" cy="350.82" r="3"/>
<circle clip-path="url(#clip3602)" style="fill:#000000; stroke:none; fill-opacity:1" cx="376.021" cy="350.82" r="4"/>
<circle clip-path="url(#clip3602)" style="fill:#009af9; stroke:none; fill-opacity:1" cx="376.021" cy="350.82" r="3"/>
<circle clip-path="url(#clip3602)" style="fill:#000000; stroke:none; fill-opacity:1" cx="358.115" cy="350.82" r="4"/>
<circle clip-path="url(#clip3602)" style="fill:#009af9; stroke:none; fill-opacity:1" cx="358.115" cy="350.82" r="3"/>
<circle clip-path="url(#clip3602)" style="fill:#000000; stroke:none; fill-opacity:1" cx="341.252" cy="350.82" r="4"/>
<circle clip-path="url(#clip3602)" style="fill:#009af9; stroke:none; fill-opacity:1" cx="341.252" cy="350.82" r="3"/>
<circle clip-path="url(#clip3602)" style="fill:#000000; stroke:none; fill-opacity:1" cx="325.372" cy="350.82" r="4"/>
<circle clip-path="url(#clip3602)" style="fill:#009af9; stroke:none; fill-opacity:1" cx="325.372" cy="350.82" r="3"/>
<circle clip-path="url(#clip3602)" style="fill:#000000; stroke:none; fill-opacity:1" cx="310.415" cy="350.82" r="4"/>
<circle clip-path="url(#clip3602)" style="fill:#009af9; stroke:none; fill-opacity:1" cx="310.415" cy="350.82" r="3"/>
<circle clip-path="url(#clip3602)" style="fill:#000000; stroke:none; fill-opacity:1" cx="296.33" cy="350.82" r="4"/>
<circle clip-path="url(#clip3602)" style="fill:#009af9; stroke:none; fill-opacity:1" cx="296.33" cy="350.82" r="3"/>
<circle clip-path="url(#clip3602)" style="fill:#000000; stroke:none; fill-opacity:1" cx="283.066" cy="350.82" r="4"/>
<circle clip-path="url(#clip3602)" style="fill:#009af9; stroke:none; fill-opacity:1" cx="283.066" cy="350.82" r="3"/>
<circle clip-path="url(#clip3602)" style="fill:#000000; stroke:none; fill-opacity:1" cx="270.573" cy="350.82" r="4"/>
<circle clip-path="url(#clip3602)" style="fill:#009af9; stroke:none; fill-opacity:1" cx="270.573" cy="350.82" r="3"/>
<circle clip-path="url(#clip3602)" style="fill:#000000; stroke:none; fill-opacity:1" cx="258.808" cy="350.82" r="4"/>
<circle clip-path="url(#clip3602)" style="fill:#009af9; stroke:none; fill-opacity:1" cx="258.808" cy="350.82" r="3"/>
<circle clip-path="url(#clip3602)" style="fill:#000000; stroke:none; fill-opacity:1" cx="247.729" cy="350.82" r="4"/>
<circle clip-path="url(#clip3602)" style="fill:#009af9; stroke:none; fill-opacity:1" cx="247.729" cy="350.82" r="3"/>
<circle clip-path="url(#clip3602)" style="fill:#000000; stroke:none; fill-opacity:1" cx="237.294" cy="350.82" r="4"/>
<circle clip-path="url(#clip3602)" style="fill:#009af9; stroke:none; fill-opacity:1" cx="237.294" cy="350.82" r="3"/>
<circle clip-path="url(#clip3602)" style="fill:#000000; stroke:none; fill-opacity:1" cx="227.467" cy="350.82" r="4"/>
<circle clip-path="url(#clip3602)" style="fill:#009af9; stroke:none; fill-opacity:1" cx="227.467" cy="350.82" r="3"/>
<circle clip-path="url(#clip3602)" style="fill:#000000; stroke:none; fill-opacity:1" cx="218.213" cy="350.82" r="4"/>
<circle clip-path="url(#clip3602)" style="fill:#009af9; stroke:none; fill-opacity:1" cx="218.213" cy="350.82" r="3"/>
<circle clip-path="url(#clip3602)" style="fill:#000000; stroke:none; fill-opacity:1" cx="209.497" cy="350.82" r="4"/>
<circle clip-path="url(#clip3602)" style="fill:#009af9; stroke:none; fill-opacity:1" cx="209.497" cy="350.82" r="3"/>
<circle clip-path="url(#clip3602)" style="fill:#000000; stroke:none; fill-opacity:1" cx="201.289" cy="350.82" r="4"/>
<circle clip-path="url(#clip3602)" style="fill:#009af9; stroke:none; fill-opacity:1" cx="201.289" cy="350.82" r="3"/>
<circle clip-path="url(#clip3602)" style="fill:#000000; stroke:none; fill-opacity:1" cx="193.559" cy="350.82" r="4"/>
<circle clip-path="url(#clip3602)" style="fill:#009af9; stroke:none; fill-opacity:1" cx="193.559" cy="350.82" r="3"/>
<circle clip-path="url(#clip3602)" style="fill:#000000; stroke:none; fill-opacity:1" cx="186.279" cy="350.82" r="4"/>
<circle clip-path="url(#clip3602)" style="fill:#009af9; stroke:none; fill-opacity:1" cx="186.279" cy="350.82" r="3"/>
<circle clip-path="url(#clip3602)" style="fill:#000000; stroke:none; fill-opacity:1" cx="179.423" cy="350.819" r="4"/>
<circle clip-path="url(#clip3602)" style="fill:#009af9; stroke:none; fill-opacity:1" cx="179.423" cy="350.819" r="3"/>
<circle clip-path="url(#clip3602)" style="fill:#000000; stroke:none; fill-opacity:1" cx="172.967" cy="350.817" r="4"/>
<circle clip-path="url(#clip3602)" style="fill:#009af9; stroke:none; fill-opacity:1" cx="172.967" cy="350.817" r="3"/>
<circle clip-path="url(#clip3602)" style="fill:#000000; stroke:none; fill-opacity:1" cx="166.886" cy="350.812" r="4"/>
<circle clip-path="url(#clip3602)" style="fill:#009af9; stroke:none; fill-opacity:1" cx="166.886" cy="350.812" r="3"/>
<circle clip-path="url(#clip3602)" style="fill:#000000; stroke:none; fill-opacity:1" cx="161.159" cy="350.8" r="4"/>
<circle clip-path="url(#clip3602)" style="fill:#009af9; stroke:none; fill-opacity:1" cx="161.159" cy="350.8" r="3"/>
<circle clip-path="url(#clip3602)" style="fill:#000000; stroke:none; fill-opacity:1" cx="155.766" cy="350.771" r="4"/>
<circle clip-path="url(#clip3602)" style="fill:#009af9; stroke:none; fill-opacity:1" cx="155.766" cy="350.771" r="3"/>
<circle clip-path="url(#clip3602)" style="fill:#000000; stroke:none; fill-opacity:1" cx="150.687" cy="350.706" r="4"/>
<circle clip-path="url(#clip3602)" style="fill:#009af9; stroke:none; fill-opacity:1" cx="150.687" cy="350.706" r="3"/>
<circle clip-path="url(#clip3602)" style="fill:#000000; stroke:none; fill-opacity:1" cx="145.904" cy="350.566" r="4"/>
<circle clip-path="url(#clip3602)" style="fill:#009af9; stroke:none; fill-opacity:1" cx="145.904" cy="350.566" r="3"/>
<circle clip-path="url(#clip3602)" style="fill:#000000; stroke:none; fill-opacity:1" cx="141.399" cy="350.282" r="4"/>
<circle clip-path="url(#clip3602)" style="fill:#009af9; stroke:none; fill-opacity:1" cx="141.399" cy="350.282" r="3"/>
<circle clip-path="url(#clip3602)" style="fill:#000000; stroke:none; fill-opacity:1" cx="137.157" cy="349.727" r="4"/>
<circle clip-path="url(#clip3602)" style="fill:#009af9; stroke:none; fill-opacity:1" cx="137.157" cy="349.727" r="3"/>
<circle clip-path="url(#clip3602)" style="fill:#000000; stroke:none; fill-opacity:1" cx="133.162" cy="348.696" r="4"/>
<circle clip-path="url(#clip3602)" style="fill:#009af9; stroke:none; fill-opacity:1" cx="133.162" cy="348.696" r="3"/>
<circle clip-path="url(#clip3602)" style="fill:#000000; stroke:none; fill-opacity:1" cx="129.399" cy="346.868" r="4"/>
<circle clip-path="url(#clip3602)" style="fill:#009af9; stroke:none; fill-opacity:1" cx="129.399" cy="346.868" r="3"/>
<circle clip-path="url(#clip3602)" style="fill:#000000; stroke:none; fill-opacity:1" cx="125.856" cy="343.777" r="4"/>
<circle clip-path="url(#clip3602)" style="fill:#009af9; stroke:none; fill-opacity:1" cx="125.856" cy="343.777" r="3"/>
<circle clip-path="url(#clip3602)" style="fill:#000000; stroke:none; fill-opacity:1" cx="122.518" cy="338.788" r="4"/>
<circle clip-path="url(#clip3602)" style="fill:#009af9; stroke:none; fill-opacity:1" cx="122.518" cy="338.788" r="3"/>
<circle clip-path="url(#clip3602)" style="fill:#000000; stroke:none; fill-opacity:1" cx="119.376" cy="331.109" r="4"/>
<circle clip-path="url(#clip3602)" style="fill:#009af9; stroke:none; fill-opacity:1" cx="119.376" cy="331.109" r="3"/>
<circle clip-path="url(#clip3602)" style="fill:#000000; stroke:none; fill-opacity:1" cx="116.416" cy="319.845" r="4"/>
<circle clip-path="url(#clip3602)" style="fill:#009af9; stroke:none; fill-opacity:1" cx="116.416" cy="319.845" r="3"/>
<circle clip-path="url(#clip3602)" style="fill:#000000; stroke:none; fill-opacity:1" cx="113.628" cy="304.111" r="4"/>
<circle clip-path="url(#clip3602)" style="fill:#009af9; stroke:none; fill-opacity:1" cx="113.628" cy="304.111" r="3"/>
<circle clip-path="url(#clip3602)" style="fill:#000000; stroke:none; fill-opacity:1" cx="111.003" cy="283.206" r="4"/>
<circle clip-path="url(#clip3602)" style="fill:#009af9; stroke:none; fill-opacity:1" cx="111.003" cy="283.206" r="3"/>
<circle clip-path="url(#clip3602)" style="fill:#000000; stroke:none; fill-opacity:1" cx="108.531" cy="256.843" r="4"/>
<circle clip-path="url(#clip3602)" style="fill:#009af9; stroke:none; fill-opacity:1" cx="108.531" cy="256.843" r="3"/>
<circle clip-path="url(#clip3602)" style="fill:#000000; stroke:none; fill-opacity:1" cx="106.203" cy="225.369" r="4"/>
<circle clip-path="url(#clip3602)" style="fill:#009af9; stroke:none; fill-opacity:1" cx="106.203" cy="225.369" r="3"/>
<circle clip-path="url(#clip3602)" style="fill:#000000; stroke:none; fill-opacity:1" cx="104.01" cy="189.949" r="4"/>
<circle clip-path="url(#clip3602)" style="fill:#009af9; stroke:none; fill-opacity:1" cx="104.01" cy="189.949" r="3"/>
<circle clip-path="url(#clip3602)" style="fill:#000000; stroke:none; fill-opacity:1" cx="101.945" cy="152.616" r="4"/>
<circle clip-path="url(#clip3602)" style="fill:#009af9; stroke:none; fill-opacity:1" cx="101.945" cy="152.616" r="3"/>
<circle clip-path="url(#clip3602)" style="fill:#000000; stroke:none; fill-opacity:1" cx="100.001" cy="116.161" r="4"/>
<circle clip-path="url(#clip3602)" style="fill:#009af9; stroke:none; fill-opacity:1" cx="100.001" cy="116.161" r="3"/>
<circle clip-path="url(#clip3602)" style="fill:#000000; stroke:none; fill-opacity:1" cx="98.1691" cy="83.8266" r="4"/>
<circle clip-path="url(#clip3602)" style="fill:#009af9; stroke:none; fill-opacity:1" cx="98.1691" cy="83.8266" r="3"/>
<circle clip-path="url(#clip3602)" style="fill:#000000; stroke:none; fill-opacity:1" cx="96.4443" cy="58.8511" r="4"/>
<circle clip-path="url(#clip3602)" style="fill:#009af9; stroke:none; fill-opacity:1" cx="96.4443" cy="58.8511" r="3"/>
<circle clip-path="url(#clip3602)" style="fill:#000000; stroke:none; fill-opacity:1" cx="94.82" cy="43.9421" r="4"/>
<circle clip-path="url(#clip3602)" style="fill:#009af9; stroke:none; fill-opacity:1" cx="94.82" cy="43.9421" r="3"/>
<circle clip-path="url(#clip3602)" style="fill:#000000; stroke:none; fill-opacity:1" cx="93.2902" cy="40.7968" r="4"/>
<circle clip-path="url(#clip3602)" style="fill:#009af9; stroke:none; fill-opacity:1" cx="93.2902" cy="40.7968" r="3"/>
<circle clip-path="url(#clip3602)" style="fill:#000000; stroke:none; fill-opacity:1" cx="91.8495" cy="49.7858" r="4"/>
<circle clip-path="url(#clip3602)" style="fill:#009af9; stroke:none; fill-opacity:1" cx="91.8495" cy="49.7858" r="3"/>
<circle clip-path="url(#clip3602)" style="fill:#000000; stroke:none; fill-opacity:1" cx="90.4927" cy="69.8823" r="4"/>
<circle clip-path="url(#clip3602)" style="fill:#009af9; stroke:none; fill-opacity:1" cx="90.4927" cy="69.8823" r="3"/>
<circle clip-path="url(#clip3602)" style="fill:#000000; stroke:none; fill-opacity:1" cx="89.215" cy="98.8534" r="4"/>
<circle clip-path="url(#clip3602)" style="fill:#009af9; stroke:none; fill-opacity:1" cx="89.215" cy="98.8534" r="3"/>
<circle clip-path="url(#clip3602)" style="fill:#000000; stroke:none; fill-opacity:1" cx="88.0116" cy="133.666" r="4"/>
<circle clip-path="url(#clip3602)" style="fill:#009af9; stroke:none; fill-opacity:1" cx="88.0116" cy="133.666" r="3"/>
<circle clip-path="url(#clip3602)" style="fill:#000000; stroke:none; fill-opacity:1" cx="86.8783" cy="171.007" r="4"/>
<circle clip-path="url(#clip3602)" style="fill:#009af9; stroke:none; fill-opacity:1" cx="86.8783" cy="171.007" r="3"/>
<circle clip-path="url(#clip3602)" style="fill:#000000; stroke:none; fill-opacity:1" cx="85.811" cy="207.79" r="4"/>
<circle clip-path="url(#clip3602)" style="fill:#009af9; stroke:none; fill-opacity:1" cx="85.811" cy="207.79" r="3"/>
<circle clip-path="url(#clip3602)" style="fill:#000000; stroke:none; fill-opacity:1" cx="84.8059" cy="241.551" r="4"/>
<circle clip-path="url(#clip3602)" style="fill:#009af9; stroke:none; fill-opacity:1" cx="84.8059" cy="241.551" r="3"/>
<circle clip-path="url(#clip3602)" style="fill:#000000; stroke:none; fill-opacity:1" cx="83.8593" cy="270.666" r="4"/>
<circle clip-path="url(#clip3602)" style="fill:#009af9; stroke:none; fill-opacity:1" cx="83.8593" cy="270.666" r="3"/>
<circle clip-path="url(#clip3602)" style="fill:#000000; stroke:none; fill-opacity:1" cx="82.9678" cy="294.38" r="4"/>
<circle clip-path="url(#clip3602)" style="fill:#009af9; stroke:none; fill-opacity:1" cx="82.9678" cy="294.38" r="3"/>
<circle clip-path="url(#clip3602)" style="fill:#000000; stroke:none; fill-opacity:1" cx="82.1283" cy="312.683" r="4"/>
<circle clip-path="url(#clip3602)" style="fill:#009af9; stroke:none; fill-opacity:1" cx="82.1283" cy="312.683" r="3"/>
<circle clip-path="url(#clip3602)" style="fill:#000000; stroke:none; fill-opacity:1" cx="81.3376" cy="326.1" r="4"/>
<circle clip-path="url(#clip3602)" style="fill:#009af9; stroke:none; fill-opacity:1" cx="81.3376" cy="326.1" r="3"/>
<circle clip-path="url(#clip3602)" style="fill:#000000; stroke:none; fill-opacity:1" cx="80.593" cy="335.456" r="4"/>
<circle clip-path="url(#clip3602)" style="fill:#009af9; stroke:none; fill-opacity:1" cx="80.593" cy="335.456" r="3"/>
<circle clip-path="url(#clip3602)" style="fill:#000000; stroke:none; fill-opacity:1" cx="79.8918" cy="341.667" r="4"/>
<circle clip-path="url(#clip3602)" style="fill:#009af9; stroke:none; fill-opacity:1" cx="79.8918" cy="341.667" r="3"/>
<circle clip-path="url(#clip3602)" style="fill:#000000; stroke:none; fill-opacity:1" cx="79.2313" cy="345.596" r="4"/>
<circle clip-path="url(#clip3602)" style="fill:#009af9; stroke:none; fill-opacity:1" cx="79.2313" cy="345.596" r="3"/>
<circle clip-path="url(#clip3602)" style="fill:#000000; stroke:none; fill-opacity:1" cx="78.6094" cy="347.965" r="4"/>
<circle clip-path="url(#clip3602)" style="fill:#009af9; stroke:none; fill-opacity:1" cx="78.6094" cy="347.965" r="3"/>
<circle clip-path="url(#clip3602)" style="fill:#000000; stroke:none; fill-opacity:1" cx="78.0236" cy="349.327" r="4"/>
<circle clip-path="url(#clip3602)" style="fill:#009af9; stroke:none; fill-opacity:1" cx="78.0236" cy="349.327" r="3"/>
<circle clip-path="url(#clip3602)" style="fill:#000000; stroke:none; fill-opacity:1" cx="77.472" cy="350.073" r="4"/>
<circle clip-path="url(#clip3602)" style="fill:#009af9; stroke:none; fill-opacity:1" cx="77.472" cy="350.073" r="3"/>
<circle clip-path="url(#clip3602)" style="fill:#000000; stroke:none; fill-opacity:1" cx="76.9525" cy="350.463" r="4"/>
<circle clip-path="url(#clip3602)" style="fill:#009af9; stroke:none; fill-opacity:1" cx="76.9525" cy="350.463" r="3"/>
<circle clip-path="url(#clip3602)" style="fill:#000000; stroke:none; fill-opacity:1" cx="76.4633" cy="350.657" r="4"/>
<circle clip-path="url(#clip3602)" style="fill:#009af9; stroke:none; fill-opacity:1" cx="76.4633" cy="350.657" r="3"/>
<circle clip-path="url(#clip3602)" style="fill:#000000; stroke:none; fill-opacity:1" cx="76.0025" cy="350.749" r="4"/>
<circle clip-path="url(#clip3602)" style="fill:#009af9; stroke:none; fill-opacity:1" cx="76.0025" cy="350.749" r="3"/>
<circle clip-path="url(#clip3602)" style="fill:#000000; stroke:none; fill-opacity:1" cx="75.5686" cy="350.791" r="4"/>
<circle clip-path="url(#clip3602)" style="fill:#009af9; stroke:none; fill-opacity:1" cx="75.5686" cy="350.791" r="3"/>
<circle clip-path="url(#clip3602)" style="fill:#000000; stroke:none; fill-opacity:1" cx="75.1599" cy="350.808" r="4"/>
<circle clip-path="url(#clip3602)" style="fill:#009af9; stroke:none; fill-opacity:1" cx="75.1599" cy="350.808" r="3"/>
<circle clip-path="url(#clip3602)" style="fill:#000000; stroke:none; fill-opacity:1" cx="74.7751" cy="350.816" r="4"/>
<circle clip-path="url(#clip3602)" style="fill:#009af9; stroke:none; fill-opacity:1" cx="74.7751" cy="350.816" r="3"/>
<circle clip-path="url(#clip3602)" style="fill:#000000; stroke:none; fill-opacity:1" cx="74.4126" cy="350.818" r="4"/>
<circle clip-path="url(#clip3602)" style="fill:#009af9; stroke:none; fill-opacity:1" cx="74.4126" cy="350.818" r="3"/>
<circle clip-path="url(#clip3602)" style="fill:#000000; stroke:none; fill-opacity:1" cx="74.0713" cy="350.819" r="4"/>
<circle clip-path="url(#clip3602)" style="fill:#009af9; stroke:none; fill-opacity:1" cx="74.0713" cy="350.819" r="3"/>
<circle clip-path="url(#clip3602)" style="fill:#000000; stroke:none; fill-opacity:1" cx="73.7498" cy="350.82" r="4"/>
<circle clip-path="url(#clip3602)" style="fill:#009af9; stroke:none; fill-opacity:1" cx="73.7498" cy="350.82" r="3"/>
<circle clip-path="url(#clip3602)" style="fill:#000000; stroke:none; fill-opacity:1" cx="73.4471" cy="350.82" r="4"/>
<circle clip-path="url(#clip3602)" style="fill:#009af9; stroke:none; fill-opacity:1" cx="73.4471" cy="350.82" r="3"/>
<circle clip-path="url(#clip3602)" style="fill:#000000; stroke:none; fill-opacity:1" cx="73.162" cy="350.82" r="4"/>
<circle clip-path="url(#clip3602)" style="fill:#009af9; stroke:none; fill-opacity:1" cx="73.162" cy="350.82" r="3"/>
<circle clip-path="url(#clip3602)" style="fill:#000000; stroke:none; fill-opacity:1" cx="72.8935" cy="350.82" r="4"/>
<circle clip-path="url(#clip3602)" style="fill:#009af9; stroke:none; fill-opacity:1" cx="72.8935" cy="350.82" r="3"/>
<circle clip-path="url(#clip3602)" style="fill:#000000; stroke:none; fill-opacity:1" cx="72.6406" cy="350.82" r="4"/>
<circle clip-path="url(#clip3602)" style="fill:#009af9; stroke:none; fill-opacity:1" cx="72.6406" cy="350.82" r="3"/>
<circle clip-path="url(#clip3602)" style="fill:#000000; stroke:none; fill-opacity:1" cx="72.4025" cy="350.82" r="4"/>
<circle clip-path="url(#clip3602)" style="fill:#009af9; stroke:none; fill-opacity:1" cx="72.4025" cy="350.82" r="3"/>
<circle clip-path="url(#clip3602)" style="fill:#000000; stroke:none; fill-opacity:1" cx="72.1782" cy="350.82" r="4"/>
<circle clip-path="url(#clip3602)" style="fill:#009af9; stroke:none; fill-opacity:1" cx="72.1782" cy="350.82" r="3"/>
<circle clip-path="url(#clip3602)" style="fill:#000000; stroke:none; fill-opacity:1" cx="71.967" cy="350.82" r="4"/>
<circle clip-path="url(#clip3602)" style="fill:#009af9; stroke:none; fill-opacity:1" cx="71.967" cy="350.82" r="3"/>
<circle clip-path="url(#clip3602)" style="fill:#000000; stroke:none; fill-opacity:1" cx="71.7681" cy="350.82" r="4"/>
<circle clip-path="url(#clip3602)" style="fill:#009af9; stroke:none; fill-opacity:1" cx="71.7681" cy="350.82" r="3"/>
<circle clip-path="url(#clip3602)" style="fill:#000000; stroke:none; fill-opacity:1" cx="71.5807" cy="350.82" r="4"/>
<circle clip-path="url(#clip3602)" style="fill:#009af9; stroke:none; fill-opacity:1" cx="71.5807" cy="350.82" r="3"/>
<circle clip-path="url(#clip3602)" style="fill:#000000; stroke:none; fill-opacity:1" cx="71.4043" cy="350.82" r="4"/>
<circle clip-path="url(#clip3602)" style="fill:#009af9; stroke:none; fill-opacity:1" cx="71.4043" cy="350.82" r="3"/>
<circle clip-path="url(#clip3602)" style="fill:#000000; stroke:none; fill-opacity:1" cx="71.2382" cy="350.82" r="4"/>
<circle clip-path="url(#clip3602)" style="fill:#009af9; stroke:none; fill-opacity:1" cx="71.2382" cy="350.82" r="3"/>
<circle clip-path="url(#clip3602)" style="fill:#000000; stroke:none; fill-opacity:1" cx="71.0817" cy="350.82" r="4"/>
<circle clip-path="url(#clip3602)" style="fill:#009af9; stroke:none; fill-opacity:1" cx="71.0817" cy="350.82" r="3"/>
<circle clip-path="url(#clip3602)" style="fill:#000000; stroke:none; fill-opacity:1" cx="70.9343" cy="350.82" r="4"/>
<circle clip-path="url(#clip3602)" style="fill:#009af9; stroke:none; fill-opacity:1" cx="70.9343" cy="350.82" r="3"/>
<circle clip-path="url(#clip3602)" style="fill:#000000; stroke:none; fill-opacity:1" cx="70.7956" cy="350.82" r="4"/>
<circle clip-path="url(#clip3602)" style="fill:#009af9; stroke:none; fill-opacity:1" cx="70.7956" cy="350.82" r="3"/>
<circle clip-path="url(#clip3602)" style="fill:#000000; stroke:none; fill-opacity:1" cx="70.6649" cy="350.82" r="4"/>
<circle clip-path="url(#clip3602)" style="fill:#009af9; stroke:none; fill-opacity:1" cx="70.6649" cy="350.82" r="3"/>
<circle clip-path="url(#clip3602)" style="fill:#000000; stroke:none; fill-opacity:1" cx="70.5418" cy="350.82" r="4"/>
<circle clip-path="url(#clip3602)" style="fill:#009af9; stroke:none; fill-opacity:1" cx="70.5418" cy="350.82" r="3"/>
<circle clip-path="url(#clip3602)" style="fill:#000000; stroke:none; fill-opacity:1" cx="70.4259" cy="350.82" r="4"/>
<circle clip-path="url(#clip3602)" style="fill:#009af9; stroke:none; fill-opacity:1" cx="70.4259" cy="350.82" r="3"/>
<circle clip-path="url(#clip3602)" style="fill:#000000; stroke:none; fill-opacity:1" cx="70.3167" cy="350.82" r="4"/>
<circle clip-path="url(#clip3602)" style="fill:#009af9; stroke:none; fill-opacity:1" cx="70.3167" cy="350.82" r="3"/>
<circle clip-path="url(#clip3602)" style="fill:#000000; stroke:none; fill-opacity:1" cx="70.2139" cy="350.82" r="4"/>
<circle clip-path="url(#clip3602)" style="fill:#009af9; stroke:none; fill-opacity:1" cx="70.2139" cy="350.82" r="3"/>
<circle clip-path="url(#clip3602)" style="fill:#000000; stroke:none; fill-opacity:1" cx="70.1171" cy="350.82" r="4"/>
<circle clip-path="url(#clip3602)" style="fill:#009af9; stroke:none; fill-opacity:1" cx="70.1171" cy="350.82" r="3"/>
<circle clip-path="url(#clip3602)" style="fill:#000000; stroke:none; fill-opacity:1" cx="70.0259" cy="350.82" r="4"/>
<circle clip-path="url(#clip3602)" style="fill:#009af9; stroke:none; fill-opacity:1" cx="70.0259" cy="350.82" r="3"/>
<circle clip-path="url(#clip3602)" style="fill:#000000; stroke:none; fill-opacity:1" cx="69.94" cy="350.82" r="4"/>
<circle clip-path="url(#clip3602)" style="fill:#009af9; stroke:none; fill-opacity:1" cx="69.94" cy="350.82" r="3"/>
<circle clip-path="url(#clip3602)" style="fill:#000000; stroke:none; fill-opacity:1" cx="69.8591" cy="350.82" r="4"/>
<circle clip-path="url(#clip3602)" style="fill:#009af9; stroke:none; fill-opacity:1" cx="69.8591" cy="350.82" r="3"/>
<circle clip-path="url(#clip3602)" style="fill:#000000; stroke:none; fill-opacity:1" cx="69.783" cy="350.82" r="4"/>
<circle clip-path="url(#clip3602)" style="fill:#009af9; stroke:none; fill-opacity:1" cx="69.783" cy="350.82" r="3"/>
</svg>
