<?xml version="1.0" encoding="utf-8"?>
<svg xmlns="http://www.w3.org/2000/svg" xmlns:xlink="http://www.w3.org/1999/xlink" width="600" height="400" viewBox="0 0 600 400">
<defs>
  <clipPath id="clip8200">
    <rect x="0" y="0" width="600" height="400"/>
  </clipPath>
</defs>
<polygon clip-path="url(#clip8200)" points="
0,400 600,400 600,0 0,0 
  " fill="#ffffff" fill-opacity="1"/>
<defs>
  <clipPath id="clip8201">
    <rect x="120" y="0" width="421" height="400"/>
  </clipPath>
</defs>
<polygon clip-path="url(#clip8200)" points="
47.376,375.869 580.315,375.869 580.315,11.811 47.376,11.811 
  " fill="#ffffff" fill-opacity="1"/>
<defs>
  <clipPath id="clip8202">
    <rect x="47" y="11" width="534" height="365"/>
  </clipPath>
</defs>
<polyline clip-path="url(#clip8202)" style="stroke:#000000; stroke-width:0.5; stroke-opacity:0.1; fill:none" points="
  59.9453,375.869 59.9453,11.811 
  "/>
<polyline clip-path="url(#clip8202)" style="stroke:#000000; stroke-width:0.5; stroke-opacity:0.1; fill:none" points="
  185.638,375.869 185.638,11.811 
  "/>
<polyline clip-path="url(#clip8202)" style="stroke:#000000; stroke-width:0.5; stroke-opacity:0.1; fill:none" points="
  311.332,375.869 311.332,11.811 
  "/>
<polyline clip-path="url(#clip8202)" style="stroke:#000000; stroke-width:0.5; stroke-opacity:0.1; fill:none" points="
  437.025,375.869 437.025,11.811 
  "/>
<polyline clip-path="url(#clip8202)" style="stroke:#000000; stroke-width:0.5; stroke-opacity:0.1; fill:none" points="
  562.718,375.869 562.718,11.811 
  "/>
<polyline clip-path="url(#clip8202)" style="stroke:#000000; stroke-width:0.5; stroke-opacity:0.1; fill:none" points="
  47.376,331.606 580.315,331.606 
  "/>
<polyline clip-path="url(#clip8202)" style="stroke:#000000; stroke-width:0.5; stroke-opacity:0.1; fill:none" points="
  47.376,279.197 580.315,279.197 
  "/>
<polyline clip-path="url(#clip8202)" style="stroke:#000000; stroke-width:0.5; stroke-opacity:0.1; fill:none" points="
  47.376,226.788 580.315,226.788 
  "/>
<polyline clip-path="url(#clip8202)" style="stroke:#000000; stroke-width:0.5; stroke-opacity:0.1; fill:none" points="
  47.376,174.379 580.315,174.379 
  "/>
<polyline clip-path="url(#clip8202)" style="stroke:#000000; stroke-width:0.5; stroke-opacity:0.1; fill:none" points="
  47.376,121.97 580.315,121.97 
  "/>
<polyline clip-path="url(#clip8202)" style="stroke:#000000; stroke-width:0.5; stroke-opacity:0.1; fill:none" points="
  47.376,69.5611 580.315,69.5611 
  "/>
<polyline clip-path="url(#clip8202)" style="stroke:#000000; stroke-width:0.5; stroke-opacity:0.1; fill:none" points="
  47.376,17.1521 580.315,17.1521 
  "/>
<polyline clip-path="url(#clip8200)" style="stroke:#000000; stroke-width:1; stroke-opacity:1; fill:none" points="
  47.376,375.869 580.315,375.869 
  "/>
<polyline clip-path="url(#clip8200)" style="stroke:#000000; stroke-width:1; stroke-opacity:1; fill:none" points="
  47.376,375.869 47.376,11.811 
  "/>
<polyline clip-path="url(#clip8200)" style="stroke:#000000; stroke-width:1; stroke-opacity:1; fill:none" points="
  59.9453,375.869 59.9453,370.408 
  "/>
<polyline clip-path="url(#clip8200)" style="stroke:#000000; stroke-width:1; stroke-opacity:1; fill:none" points="
  185.638,375.869 185.638,370.408 
  "/>
<polyline clip-path="url(#clip8200)" style="stroke:#000000; stroke-width:1; stroke-opacity:1; fill:none" points="
  311.332,375.869 311.332,370.408 
  "/>
<polyline clip-path="url(#clip8200)" style="stroke:#000000; stroke-width:1; stroke-opacity:1; fill:none" points="
  437.025,375.869 437.025,370.408 
  "/>
<polyline clip-path="url(#clip8200)" style="stroke:#000000; stroke-width:1; stroke-opacity:1; fill:none" points="
  562.718,375.869 562.718,370.408 
  "/>
<polyline clip-path="url(#clip8200)" style="stroke:#000000; stroke-width:1; stroke-opacity:1; fill:none" points="
  47.376,331.606 55.3701,331.606 
  "/>
<polyline clip-path="url(#clip8200)" style="stroke:#000000; stroke-width:1; stroke-opacity:1; fill:none" points="
  47.376,279.197 55.3701,279.197 
  "/>
<polyline clip-path="url(#clip8200)" style="stroke:#000000; stroke-width:1; stroke-opacity:1; fill:none" points="
  47.376,226.788 55.3701,226.788 
  "/>
<polyline clip-path="url(#clip8200)" style="stroke:#000000; stroke-width:1; stroke-opacity:1; fill:none" points="
  47.376,174.379 55.3701,174.379 
  "/>
<polyline clip-path="url(#clip8200)" style="stroke:#000000; stroke-width:1; stroke-opacity:1; fill:none" points="
  47.376,121.97 55.3701,121.97 
  "/>
<polyline clip-path="url(#clip8200)" style="stroke:#000000; stroke-width:1; stroke-opacity:1; fill:none" points="
  47.376,69.5611 55.3701,69.5611 
  "/>
<polyline clip-path="url(#clip8200)" style="stroke:#000000; stroke-width:1; stroke-opacity:1; fill:none" points="
  47.376,17.1521 55.3701,17.1521 
  "/>
<g clip-path="url(#clip8200)">
<text style="fill:#000000; fill-opacity:1; font-family:Arial,Helvetica Neue,Helvetica,sans-serif; font-size:12; text-anchor:middle;" transform="rotate(0, 59.9453, 389.669)" x="59.9453" y="389.669">0</text>
</g>
<g clip-path="url(#clip8200)">
<text style="fill:#000000; fill-opacity:1; font-family:Arial,Helvetica Neue,Helvetica,sans-serif; font-size:12; text-anchor:middle;" transform="rotate(0, 185.638, 389.669)" x="185.638" y="389.669">50</text>
</g>
<g clip-path="url(#clip8200)">
<text style="fill:#000000; fill-opacity:1; font-family:Arial,Helvetica Neue,Helvetica,sans-serif; font-size:12; text-anchor:middle;" transform="rotate(0, 311.332, 389.669)" x="311.332" y="389.669">100</text>
</g>
<g clip-path="url(#clip8200)">
<text style="fill:#000000; fill-opacity:1; font-family:Arial,Helvetica Neue,Helvetica,sans-serif; font-size:12; text-anchor:middle;" transform="rotate(0, 437.025, 389.669)" x="437.025" y="389.669">150</text>
</g>
<g clip-path="url(#clip8200)">
<text style="fill:#000000; fill-opacity:1; font-family:Arial,Helvetica Neue,Helvetica,sans-serif; font-size:12; text-anchor:middle;" transform="rotate(0, 562.718, 389.669)" x="562.718" y="389.669">200</text>
</g>
<g clip-path="url(#clip8200)">
<text style="fill:#000000; fill-opacity:1; font-family:Arial,Helvetica Neue,Helvetica,sans-serif; font-size:12; text-anchor:end;" transform="rotate(0, 41.376, 336.106)" x="41.376" y="336.106">-2.5</text>
</g>
<g clip-path="url(#clip8200)">
<text style="fill:#000000; fill-opacity:1; font-family:Arial,Helvetica Neue,Helvetica,sans-serif; font-size:12; text-anchor:end;" transform="rotate(0, 41.376, 283.697)" x="41.376" y="283.697">0.0</text>
</g>
<g clip-path="url(#clip8200)">
<text style="fill:#000000; fill-opacity:1; font-family:Arial,Helvetica Neue,Helvetica,sans-serif; font-size:12; text-anchor:end;" transform="rotate(0, 41.376, 231.288)" x="41.376" y="231.288">2.5</text>
</g>
<g clip-path="url(#clip8200)">
<text style="fill:#000000; fill-opacity:1; font-family:Arial,Helvetica Neue,Helvetica,sans-serif; font-size:12; text-anchor:end;" transform="rotate(0, 41.376, 178.879)" x="41.376" y="178.879">5.0</text>
</g>
<g clip-path="url(#clip8200)">
<text style="fill:#000000; fill-opacity:1; font-family:Arial,Helvetica Neue,Helvetica,sans-serif; font-size:12; text-anchor:end;" transform="rotate(0, 41.376, 126.47)" x="41.376" y="126.47">7.5</text>
</g>
<g clip-path="url(#clip8200)">
<text style="fill:#000000; fill-opacity:1; font-family:Arial,Helvetica Neue,Helvetica,sans-serif; font-size:12; text-anchor:end;" transform="rotate(0, 41.376, 74.0611)" x="41.376" y="74.0611">10.0</text>
</g>
<g clip-path="url(#clip8200)">
<text style="fill:#000000; fill-opacity:1; font-family:Arial,Helvetica Neue,Helvetica,sans-serif; font-size:12; text-anchor:end;" transform="rotate(0, 41.376, 21.6521)" x="41.376" y="21.6521">12.5</text>
</g>
<polyline clip-path="url(#clip8202)" style="stroke:#009af9; stroke-width:3; stroke-opacity:1; fill:none" points="
  62.4592,279.197 64.9731,287.53 67.4869,277.443 70.0008,289.139 72.5147,277.795 75.0285,286.13 77.5424,268.389 80.0562,227.506 82.5701,257.726 85.084,250.881 
  87.5978,276.593 90.1117,291.738 92.6256,266.525 95.1394,291.669 97.6533,267.531 100.167,273.155 102.681,294.841 105.195,291.452 107.709,242.315 110.223,278.655 
  112.736,242.995 115.25,274.66 117.764,245.758 120.278,255.125 122.792,270.798 125.306,299.717 127.82,302.59 130.334,280.525 132.847,268.124 135.361,276.349 
  137.875,298.062 140.389,271.055 142.903,265.679 145.417,291.155 147.931,292.387 150.444,284.835 152.958,286.94 155.472,285.534 157.986,279.304 160.5,304.894 
  163.014,217.055 165.528,298.059 168.041,270.639 170.555,264.345 173.069,291.578 175.583,291.831 178.097,268.386 180.611,293.162 183.125,231.772 185.638,273.941 
  188.152,261.686 190.666,268.053 193.18,232.079 195.694,295.893 198.208,302.789 200.722,312.217 203.236,305.856 205.749,300.154 208.263,304.748 210.777,264.301 
  213.291,264.738 215.805,258.116 218.319,289.4 220.833,282.763 223.346,252.312 225.86,271.076 228.374,277.22 230.888,246.848 233.402,302.175 235.916,293.322 
  238.43,240.257 240.943,270.689 243.457,261.962 245.971,263.496 248.485,290.293 250.999,261.183 253.513,278.887 256.027,262.406 258.541,277.139 261.054,269.68 
  263.568,271.037 266.082,258.219 268.596,275.779 271.11,237.372 273.624,303.643 276.138,270.871 278.651,280.68 281.165,261.692 283.679,259.793 286.193,301.595 
  288.707,306.187 291.221,240.088 293.735,262.848 296.248,286.907 298.762,241.305 301.276,278.933 303.79,250.744 306.304,293.927 308.818,286.925 311.332,306.907 
  313.845,294.631 316.359,260.575 318.873,253.501 321.387,281.186 323.901,316.121 326.415,260.485 328.929,268.761 331.443,259.577 333.956,304.869 336.47,281.639 
  338.984,316.258 341.498,290.598 344.012,258.408 346.526,280.869 349.04,249.352 351.553,335.565 354.067,255.45 356.581,278.654 359.095,281.361 361.609,296.691 
  364.123,267.472 366.637,270.218 369.15,268.319 371.664,262.652 374.178,258.36 376.692,270.96 379.206,286.286 381.72,307.816 384.234,314.933 386.748,315.67 
  389.261,272.486 391.775,283.54 394.289,228.973 396.803,249.252 399.317,303.157 401.831,307.323 404.345,275.399 406.858,267.468 409.372,277.295 411.886,276.733 
  414.4,295.308 416.914,283.12 419.428,280.49 421.942,269.164 424.455,268.955 426.969,248.285 429.483,226.52 431.997,254.726 434.511,270.627 437.025,311.857 
  439.539,308.881 442.053,305.014 444.566,273.987 447.08,282.94 449.594,286.239 452.108,286.678 454.622,262.095 457.136,270.829 459.65,288.7 462.163,300.763 
  464.677,261.036 467.191,270.971 469.705,310.632 472.219,237.785 474.733,231.87 477.247,295.533 479.76,329.629 482.274,299.007 484.788,262.238 487.302,286.096 
  489.816,297.875 492.33,292.709 494.844,291.558 497.357,256.198 499.871,260.981 502.385,257.613 504.899,279.399 507.413,273.492 509.927,274.308 512.441,273.879 
  514.955,280.844 517.468,263.05 519.982,287.208 522.496,284.4 525.01,282.246 527.524,247.463 530.038,273.12 532.552,251.715 535.065,272.411 537.579,267.121 
  540.093,314.327 542.607,282.712 545.121,290.341 547.635,258.777 550.149,314.594 552.662,283.277 555.176,293.326 557.69,287.441 560.204,272.328 562.718,292.239 
  565.232,291.96 
  "/>
<polyline clip-path="url(#clip8202)" style="stroke:#e26f46; stroke-width:3; stroke-opacity:1; fill:none" points="
  62.4592,279.197 64.9731,264.28 67.4869,276.052 70.0008,258.488 72.5147,251.661 75.0285,242.095 77.5424,293.694 80.0562,255.96 82.5701,295.473 85.084,286.384 
  87.5978,276.608 90.1117,288.773 92.6256,268.586 95.1394,276.363 97.6533,303.813 100.167,320.527 102.681,306.87 105.195,271.64 107.709,299.498 110.223,301.552 
  112.736,298.249 115.25,285.296 117.764,273.908 120.278,266.336 122.792,295.729 125.306,284.691 127.82,275.85 130.334,266.836 132.847,272.779 135.361,265.331 
  137.875,240.112 140.389,242.277 142.903,245.727 145.417,262.871 147.931,265.021 150.444,262.758 152.958,278.819 155.472,265.996 157.986,264.591 160.5,303.243 
  163.014,262.612 165.528,274.216 168.041,259.875 170.555,263.243 173.069,263.918 175.583,297.339 178.097,303.628 180.611,250.364 183.125,246.979 185.638,252.351 
  188.152,257.811 190.666,261.98 193.18,261.085 195.694,292.489 198.208,272.285 200.722,235.162 203.236,261.271 205.749,253.402 208.263,271.097 210.777,256.75 
  213.291,297.9 215.805,270.144 218.319,307.14 220.833,317.675 223.346,291.278 225.86,257.248 228.374,258.461 230.888,263.43 233.402,284.059 235.916,311.456 
  238.43,306.118 240.943,261.555 243.457,271.761 245.971,285.801 248.485,245.137 250.999,251.939 253.513,271.795 256.027,254.672 258.541,290.129 261.054,302.327 
  263.568,303.353 266.082,239.142 268.596,255.904 271.11,249.709 273.624,237.028 276.138,253.253 278.651,278.244 281.165,268.548 283.679,257.882 286.193,273.304 
  288.707,292.135 291.221,297.487 293.735,320.821 296.248,319.124 298.762,281.249 301.276,262.328 303.79,239.744 306.304,270.623 308.818,285.508 311.332,273.699 
  313.845,300.327 316.359,294.82 318.873,288.4 321.387,291.977 323.901,276.993 326.415,274.01 328.929,279.673 331.443,270.72 333.956,271.552 336.47,255.037 
  338.984,268.994 341.498,279.396 344.012,287.144 346.526,287.502 349.04,299.743 351.553,318.345 354.067,315.139 356.581,264.431 359.095,216.821 361.609,291.436 
  364.123,275.733 366.637,279.969 369.15,283.611 371.664,290.791 374.178,228.411 376.692,257.169 379.206,286.633 381.72,263.693 384.234,256.738 386.748,297.475 
  389.261,318.187 391.775,293.141 394.289,306.522 396.803,285.867 399.317,279.994 401.831,277.241 404.345,273.784 406.858,290.046 409.372,267.779 411.886,277.855 
  414.4,206.194 416.914,215.525 419.428,272.92 421.942,247.946 424.455,264.802 426.969,248.523 429.483,255.203 431.997,278.289 434.511,310.52 437.025,259.09 
  439.539,252.795 442.053,285.029 444.566,263.8 447.08,254.626 449.594,273.243 452.108,272.812 454.622,245.79 457.136,246.138 459.65,236.11 462.163,254.173 
  464.677,283.06 467.191,290.526 469.705,297.92 472.219,245.471 474.733,273.495 477.247,312.803 479.76,291.616 482.274,232.829 484.788,269.98 487.302,270.377 
  489.816,272.221 492.33,273.727 494.844,258.326 497.357,245.661 499.871,256.239 502.385,270.505 504.899,298.151 507.413,283.361 509.927,251.735 512.441,286.355 
  514.955,264.17 517.468,279.912 519.982,317.356 522.496,292.123 525.01,283.158 527.524,274.864 530.038,269.75 532.552,280.447 535.065,280.309 537.579,258.826 
  540.093,280.489 542.607,287.986 545.121,269.541 547.635,265.735 550.149,311.368 552.662,314.94 555.176,268.303 557.69,289.184 560.204,273.145 562.718,258.703 
  565.232,277.959 
  "/>
<polyline clip-path="url(#clip8202)" style="stroke:#3da44d; stroke-width:3; stroke-opacity:1; fill:none" points="
  62.4592,279.197 64.9731,274.93 67.4869,280.963 70.0008,287.09 72.5147,286.514 75.0285,315.703 77.5424,288.559 80.0562,265.177 82.5701,264.847 85.084,284.531 
  87.5978,324.51 90.1117,289.227 92.6256,287.137 95.1394,255.476 97.6533,265.107 100.167,256.314 102.681,310.94 105.195,309.342 107.709,301.504 110.223,317.078 
  112.736,304.953 115.25,295.061 117.764,282.654 120.278,304.101 122.792,314.371 125.306,335.304 127.82,321.968 130.334,365.565 132.847,348.278 135.361,359.68 
  137.875,330.593 140.389,308.018 142.903,316.726 145.417,330.546 147.931,360.349 150.444,316.049 152.958,301.477 155.472,275.125 157.986,218.851 160.5,225.408 
  163.014,225.439 165.528,231.643 168.041,266.747 170.555,256.935 173.069,221.629 175.583,217.105 178.097,196.126 180.611,211.827 183.125,242.166 185.638,291.932 
  188.152,286.268 190.666,264.713 193.18,265.975 195.694,280.425 198.208,267.338 200.722,261.324 203.236,292.02 205.749,294.284 208.263,256.034 210.777,255.928 
  213.291,291.811 215.805,268.752 218.319,290.378 220.833,301.186 223.346,313.742 225.86,318.591 228.374,296.475 230.888,284.48 233.402,261.393 235.916,257.048 
  238.43,253.516 240.943,255.163 243.457,269.11 245.971,271.982 248.485,264.861 250.999,286.8 253.513,287.874 256.027,271.124 258.541,259.313 261.054,259.379 
  263.568,259.622 266.082,283.339 268.596,258.467 271.11,229.627 273.624,195.506 276.138,198.461 278.651,205.114 281.165,192.988 283.679,223.748 286.193,229.551 
  288.707,227.339 291.221,200.495 293.735,212.915 296.248,212.497 298.762,207.526 301.276,207.983 303.79,194.819 306.304,186.574 308.818,204.538 311.332,197.794 
  313.845,182.381 316.359,179.948 318.873,161.774 321.387,137.537 323.901,141.825 326.415,188.297 328.929,185.124 331.443,170.453 333.956,162.005 336.47,205.467 
  338.984,246.312 341.498,267.753 344.012,269.587 346.526,236.977 349.04,250.985 351.553,264.888 354.067,258.176 356.581,303.214 359.095,301.47 361.609,297.94 
  364.123,322.815 366.637,315.782 369.15,330.079 371.664,360.842 374.178,350.494 376.692,304.774 379.206,328.165 381.72,301.73 384.234,326.187 386.748,302.967 
  389.261,240.454 391.775,258.911 394.289,275.908 396.803,236.122 399.317,210.469 401.831,160.859 404.345,163.046 406.858,154.306 409.372,185.637 411.886,193.396 
  414.4,190.274 416.914,212.532 419.428,188.621 421.942,158.419 424.455,190.859 426.969,188.285 429.483,215.683 431.997,230.74 434.511,217.768 437.025,200.318 
  439.539,225.439 442.053,201.172 444.566,221.285 447.08,207.659 449.594,186.911 452.108,183.149 454.622,179.528 457.136,174.82 459.65,218.777 462.163,238.419 
  464.677,162.235 467.191,138.369 469.705,130.223 472.219,146.195 474.733,116.351 477.247,115.614 479.76,148.658 482.274,138.83 484.788,148.395 487.302,123.077 
  489.816,102.638 492.33,92.0193 494.844,90.7781 497.357,67.2892 499.871,37.0505 502.385,22.1145 504.899,42.0287 507.413,75.2432 509.927,81.8889 512.441,93.1972 
  514.955,68.8296 517.468,77.5581 519.982,101.371 522.496,122.873 525.01,141.861 527.524,174.533 530.038,164.974 532.552,173.837 535.065,178.623 537.579,197.96 
  540.093,152.268 542.607,169.859 545.121,182.824 547.635,122.081 550.149,124.463 552.662,95.1489 555.176,85.3567 557.69,89.0253 560.204,65.5142 562.718,65.1107 
  565.232,44.5459 
  "/>
<polygon clip-path="url(#clip8200)" points="
435.746,93.171 562.315,93.171 562.315,32.691 435.746,32.691 
  " fill="#ffffff" fill-opacity="1"/>
<polyline clip-path="url(#clip8200)" style="stroke:#000000; stroke-width:1; stroke-opacity:1; fill:none" points="
  435.746,93.171 562.315,93.171 562.315,32.691 435.746,32.691 435.746,93.171 
  "/>
<polyline clip-path="url(#clip8200)" style="stroke:#009af9; stroke-width:3; stroke-opacity:1; fill:none" points="
  441.746,47.811 477.746,47.811 
  "/>
<g clip-path="url(#clip8200)">
<text style="fill:#000000; fill-opacity:1; font-family:Arial,Helvetica Neue,Helvetica,sans-serif; font-size:12; text-anchor:start;" transform="rotate(0, 483.746, 52.311)" x="483.746" y="52.311">alpha = 0.0</text>
</g>
<polyline clip-path="url(#clip8200)" style="stroke:#e26f46; stroke-width:3; stroke-opacity:1; fill:none" points="
  441.746,62.931 477.746,62.931 
  "/>
<g clip-path="url(#clip8200)">
<text style="fill:#000000; fill-opacity:1; font-family:Arial,Helvetica Neue,Helvetica,sans-serif; font-size:12; text-anchor:start;" transform="rotate(0, 483.746, 67.431)" x="483.746" y="67.431">alpha = 0.5</text>
</g>
<polyline clip-path="url(#clip8200)" style="stroke:#3da44d; stroke-width:3; stroke-opacity:1; fill:none" points="
  441.746,78.051 477.746,78.051 
  "/>
<g clip-path="url(#clip8200)">
<text style="fill:#000000; fill-opacity:1; font-family:Arial,Helvetica Neue,Helvetica,sans-serif; font-size:12; text-anchor:start;" transform="rotate(0, 483.746, 82.551)" x="483.746" y="82.551">alpha = 0.98</text>
</g>
</svg>
