<?xml version="1.0" encoding="utf-8"?>
<svg xmlns="http://www.w3.org/2000/svg" xmlns:xlink="http://www.w3.org/1999/xlink" width="600" height="400" viewBox="0 0 600 400">
<defs>
  <clipPath id="clip2400">
    <rect x="0" y="0" width="600" height="400"/>
  </clipPath>
</defs>
<polygon clip-path="url(#clip2400)" points="
0,400 600,400 600,0 0,0 
  " fill="#ffffff" fill-opacity="1"/>
<defs>
  <clipPath id="clip2401">
    <rect x="120" y="0" width="421" height="400"/>
  </clipPath>
</defs>
<polygon clip-path="url(#clip2400)" points="
29.4661,375.869 580.315,375.869 580.315,11.811 29.4661,11.811 
  " fill="#ffffff" fill-opacity="1"/>
<defs>
  <clipPath id="clip2402">
    <rect x="29" y="11" width="552" height="365"/>
  </clipPath>
</defs>
<polyline clip-path="url(#clip2402)" style="stroke:#000000; stroke-width:0.5; stroke-opacity:0.1; fill:none" points="
  164.424,375.869 164.424,11.811 
  "/>
<polyline clip-path="url(#clip2402)" style="stroke:#000000; stroke-width:0.5; stroke-opacity:0.1; fill:none" points="
  302.136,375.869 302.136,11.811 
  "/>
<polyline clip-path="url(#clip2402)" style="stroke:#000000; stroke-width:0.5; stroke-opacity:0.1; fill:none" points="
  439.849,375.869 439.849,11.811 
  "/>
<polyline clip-path="url(#clip2402)" style="stroke:#000000; stroke-width:0.5; stroke-opacity:0.1; fill:none" points="
  577.561,375.869 577.561,11.811 
  "/>
<polyline clip-path="url(#clip2402)" style="stroke:#000000; stroke-width:0.5; stroke-opacity:0.1; fill:none" points="
  29.4661,330.586 580.315,330.586 
  "/>
<polyline clip-path="url(#clip2402)" style="stroke:#000000; stroke-width:0.5; stroke-opacity:0.1; fill:none" points="
  29.4661,250.698 580.315,250.698 
  "/>
<polyline clip-path="url(#clip2402)" style="stroke:#000000; stroke-width:0.5; stroke-opacity:0.1; fill:none" points="
  29.4661,170.81 580.315,170.81 
  "/>
<polyline clip-path="url(#clip2402)" style="stroke:#000000; stroke-width:0.5; stroke-opacity:0.1; fill:none" points="
  29.4661,90.9216 580.315,90.9216 
  "/>
<polyline clip-path="url(#clip2400)" style="stroke:#000000; stroke-width:1; stroke-opacity:1; fill:none" points="
  29.4661,375.869 580.315,375.869 
  "/>
<polyline clip-path="url(#clip2400)" style="stroke:#000000; stroke-width:1; stroke-opacity:1; fill:none" points="
  29.4661,375.869 29.4661,11.811 
  "/>
<polyline clip-path="url(#clip2400)" style="stroke:#000000; stroke-width:1; stroke-opacity:1; fill:none" points="
  164.424,375.869 164.424,370.408 
  "/>
<polyline clip-path="url(#clip2400)" style="stroke:#000000; stroke-width:1; stroke-opacity:1; fill:none" points="
  302.136,375.869 302.136,370.408 
  "/>
<polyline clip-path="url(#clip2400)" style="stroke:#000000; stroke-width:1; stroke-opacity:1; fill:none" points="
  439.849,375.869 439.849,370.408 
  "/>
<polyline clip-path="url(#clip2400)" style="stroke:#000000; stroke-width:1; stroke-opacity:1; fill:none" points="
  577.561,375.869 577.561,370.408 
  "/>
<polyline clip-path="url(#clip2400)" style="stroke:#000000; stroke-width:1; stroke-opacity:1; fill:none" points="
  29.4661,330.586 37.7289,330.586 
  "/>
<polyline clip-path="url(#clip2400)" style="stroke:#000000; stroke-width:1; stroke-opacity:1; fill:none" points="
  29.4661,250.698 37.7289,250.698 
  "/>
<polyline clip-path="url(#clip2400)" style="stroke:#000000; stroke-width:1; stroke-opacity:1; fill:none" points="
  29.4661,170.81 37.7289,170.81 
  "/>
<polyline clip-path="url(#clip2400)" style="stroke:#000000; stroke-width:1; stroke-opacity:1; fill:none" points="
  29.4661,90.9216 37.7289,90.9216 
  "/>
<g clip-path="url(#clip2400)">
<text style="fill:#000000; fill-opacity:1; font-family:Arial,Helvetica Neue,Helvetica,sans-serif; font-size:12; text-anchor:middle;" transform="rotate(0, 164.424, 389.669)" x="164.424" y="389.669">50</text>
</g>
<g clip-path="url(#clip2400)">
<text style="fill:#000000; fill-opacity:1; font-family:Arial,Helvetica Neue,Helvetica,sans-serif; font-size:12; text-anchor:middle;" transform="rotate(0, 302.136, 389.669)" x="302.136" y="389.669">100</text>
</g>
<g clip-path="url(#clip2400)">
<text style="fill:#000000; fill-opacity:1; font-family:Arial,Helvetica Neue,Helvetica,sans-serif; font-size:12; text-anchor:middle;" transform="rotate(0, 439.849, 389.669)" x="439.849" y="389.669">150</text>
</g>
<g clip-path="url(#clip2400)">
<text style="fill:#000000; fill-opacity:1; font-family:Arial,Helvetica Neue,Helvetica,sans-serif; font-size:12; text-anchor:middle;" transform="rotate(0, 577.561, 389.669)" x="577.561" y="389.669">200</text>
</g>
<g clip-path="url(#clip2400)">
<text style="fill:#000000; fill-opacity:1; font-family:Arial,Helvetica Neue,Helvetica,sans-serif; font-size:12; text-anchor:end;" transform="rotate(0, 23.4661, 335.086)" x="23.4661" y="335.086">-9</text>
</g>
<g clip-path="url(#clip2400)">
<text style="fill:#000000; fill-opacity:1; font-family:Arial,Helvetica Neue,Helvetica,sans-serif; font-size:12; text-anchor:end;" transform="rotate(0, 23.4661, 255.198)" x="23.4661" y="255.198">-6</text>
</g>
<g clip-path="url(#clip2400)">
<text style="fill:#000000; fill-opacity:1; font-family:Arial,Helvetica Neue,Helvetica,sans-serif; font-size:12; text-anchor:end;" transform="rotate(0, 23.4661, 175.31)" x="23.4661" y="175.31">-3</text>
</g>
<g clip-path="url(#clip2400)">
<text style="fill:#000000; fill-opacity:1; font-family:Arial,Helvetica Neue,Helvetica,sans-serif; font-size:12; text-anchor:end;" transform="rotate(0, 23.4661, 95.4216)" x="23.4661" y="95.4216">0</text>
</g>
<polyline clip-path="url(#clip2402)" style="stroke:#009af9; stroke-width:3; stroke-opacity:1; fill:none" points="
  29.4661,90.9216 32.2204,74.8384 34.9746,113.384 37.7289,69.5288 40.4831,102.977 43.2374,118.756 45.9916,93.3085 48.7458,99.103 51.5001,85.9944 54.2543,86.3983 
  57.0086,68.319 59.7628,98.6552 62.5171,100.192 65.2713,72.0632 68.0256,77.6576 70.7798,61.5435 73.534,70.7715 76.2883,74.936 79.0425,74.0936 81.7968,99.8303 
  84.551,59.2533 87.3053,77.6721 90.0595,62.3961 92.8138,131.55 95.568,83.3197 98.3222,114.997 101.076,94.0513 103.831,52.7542 106.585,94.4316 109.339,69.9863 
  112.093,110.121 114.848,106.288 117.602,69.9848 120.356,73.0515 123.11,45.3208 125.865,106 128.619,39.34 131.373,92.2155 134.127,110.497 136.882,64.6463 
  139.636,88.102 142.39,63.9069 145.144,120.401 147.899,94.5303 150.653,54.3749 153.407,111.691 156.161,61.2438 158.916,149.109 161.67,101.796 164.424,64.0964 
  167.178,92.6685 169.933,89.0065 172.687,111.247 175.441,48.4307 178.195,111.694 180.95,62.798 183.704,113.977 186.458,68.7634 189.212,111.902 191.967,114.701 
  194.721,95.485 197.475,74.4355 200.229,58.5803 202.984,102.122 205.738,61.1842 208.492,82.6819 211.246,91.9984 214,103.753 216.755,48.3454 219.509,133.548 
  222.263,70.3623 225.017,129.405 227.772,132.144 230.526,51.173 233.28,123.383 236.034,86.138 238.789,90.4571 241.543,38.2339 244.297,84.3403 247.051,67.475 
  249.806,76.7849 252.56,79.7891 255.314,112.081 258.068,103.022 260.823,145.639 263.577,101.764 266.331,62.0752 269.085,138.994 271.84,65.3688 274.594,84.0484 
  277.348,74.237 280.102,112.645 282.857,108.174 285.611,45.345 288.365,120.158 291.119,109.235 293.874,122.043 296.628,33.1778 299.382,136.882 302.136,68.3509 
  304.891,113.483 307.645,60.489 310.399,112.47 313.153,86.7239 315.908,122.414 318.662,65.1642 321.416,44.4402 324.17,60.9734 326.925,123.28 329.679,103.107 
  332.433,100.658 335.187,22.9876 337.941,49.7435 340.696,91.4188 343.45,85.1499 346.204,146.615 348.958,121.745 351.713,124.458 354.467,104.38 357.221,63.5663 
  359.975,82.1373 362.73,105.013 365.484,104.845 368.238,109.737 370.992,111.154 373.747,70.8605 376.501,82.4199 379.255,116.046 382.009,68.7766 384.764,54.9404 
  387.518,67.4762 390.272,126 393.026,110.048 395.781,135.181 398.535,69.1236 401.289,79.6241 404.043,73.1757 406.798,79.8868 409.552,92.0902 412.306,96.8044 
  415.06,79.977 417.815,87.7086 420.569,70.7524 423.323,113.39 426.077,96.8518 428.832,80.6017 431.586,106.085 434.34,87.7253 437.094,77.3872 439.849,72.2264 
  442.603,55.7353 445.357,78.402 448.111,49.8293 450.865,75.5711 453.62,101.814 456.374,104.383 459.128,96.3096 461.882,127.891 464.637,81.0575 467.391,81.2721 
  470.145,96.829 472.899,94.9627 475.654,40.1105 478.408,62.7778 481.162,130.647 483.916,106.899 486.671,89.5284 489.425,100.883 492.179,144.948 494.933,73.3968 
  497.688,73.9133 500.442,81.9809 503.196,131.679 505.95,48.9965 508.705,58.1014 511.459,110.101 514.213,127.953 516.967,98.3562 519.722,123.537 522.476,75.342 
  525.23,97.292 527.984,80.7034 530.739,86.211 533.493,162.637 536.247,142.145 539.001,56.4214 541.756,121.502 544.51,100.876 547.264,42.086 550.018,29.4374 
  552.773,95.8904 555.527,114.019 558.281,63.9902 561.035,98.2616 563.789,112.844 566.544,114.569 569.298,56.849 572.052,127.092 574.806,51.3155 577.561,66.6216 
  580.315,71.9841 
  "/>
<polyline clip-path="url(#clip2402)" style="stroke:#e26f46; stroke-width:3; stroke-opacity:1; fill:none" points="
  29.4661,90.9216 32.2204,69.8508 34.9746,120.27 37.7289,84.4354 40.4831,62.2625 43.2374,89.2572 45.9916,58.0517 48.7458,38.2878 51.5001,77.1195 54.2543,121.046 
  57.0086,136.433 59.7628,126.554 62.5171,138.788 65.2713,110.05 68.0256,104.431 70.7798,95.7983 73.534,56.0622 76.2883,120.708 79.0425,75.0308 81.7968,83.963 
  84.551,63.9874 87.3053,68.5911 90.0595,99.0751 92.8138,66.9969 95.568,76.1659 98.3222,41.7405 101.076,49.7105 103.831,61.8625 106.585,66.4829 109.339,108.563 
  112.093,108.805 114.848,61.3873 117.602,67.4931 120.356,123.898 123.11,118.849 125.865,105.414 128.619,82.08 131.373,91.7631 134.127,66.0644 136.882,67.0624 
  139.636,44.0848 142.39,75.4402 145.144,97.9524 147.899,32.5077 150.653,94.5535 153.407,95.8074 156.161,99.9213 158.916,131.097 161.67,110.871 164.424,95.1148 
  167.178,59.6813 169.933,81.8225 172.687,111.773 175.441,117.88 178.195,105.589 180.95,104.363 183.704,122.415 186.458,161.632 189.212,113.457 191.967,57.2643 
  194.721,87.5924 197.475,96.9449 200.229,119.872 202.984,113.648 205.738,82.3295 208.492,113.697 211.246,165.458 214,132.608 216.755,96.2756 219.509,86.7932 
  222.263,91.6544 225.017,59.9259 227.772,107.756 230.526,120.17 233.28,38.0515 236.034,60.2668 238.789,66.3968 241.543,89.1225 244.297,95.6449 247.051,102.371 
  249.806,79.9252 252.56,104.424 255.314,148.949 258.068,103.836 260.823,81.7198 263.577,74.4994 266.331,107.327 269.085,119.431 271.84,113.721 274.594,118.176 
  277.348,97.707 280.102,93.3413 282.857,79.1967 285.611,72.0099 288.365,74.3469 291.119,128.567 293.874,111.418 296.628,94.1328 299.382,139.309 302.136,163.73 
  304.891,113.144 307.645,133.038 310.399,133.518 313.153,138.11 315.908,71.8489 318.662,90.4914 321.416,32.6805 324.17,41.5045 326.925,81.5477 329.679,41.2316 
  332.433,11.811 335.187,42.0681 337.941,108.578 340.696,127.056 343.45,100.801 346.204,47.654 348.958,91.148 351.713,92.9388 354.467,94.9267 357.221,118.804 
  359.975,75.8026 362.73,93.6967 365.484,98.5323 368.238,159.297 370.992,136.876 373.747,115.746 376.501,139.274 379.255,159.686 382.009,119.944 384.764,113.561 
  387.518,124.737 390.272,88.119 393.026,109.042 395.781,97.8283 398.535,63.3085 401.289,64.498 404.043,100.054 406.798,133.108 409.552,87.2789 412.306,96.147 
  415.06,102.287 417.815,131.938 420.569,97.7409 423.323,153.803 426.077,131.023 428.832,103.729 431.586,85.7443 434.34,100.926 437.094,126.553 439.849,143.403 
  442.603,133.099 445.357,108.087 448.111,125.25 450.865,117.597 453.62,108.012 456.374,84.2428 459.128,97.4556 461.882,100.171 464.637,94.216 467.391,138.461 
  470.145,132.262 472.899,98.9608 475.654,71.1556 478.408,134.283 481.162,153.342 483.916,93.2958 486.671,94.7707 489.425,79.7273 492.179,76.9563 494.933,77.4999 
  497.688,81.0032 500.442,102.314 503.196,80.2608 505.95,104.981 508.705,115.803 511.459,123.928 514.213,124.794 516.967,77.3343 519.722,103.015 522.476,80.6747 
  525.23,87.6815 527.984,78.5629 530.739,61.2053 533.493,110.542 536.247,78.443 539.001,70.0345 541.756,79.0275 544.51,115.595 547.264,94.0852 550.018,97.4418 
  552.773,83.5164 555.527,37.7995 558.281,25.5215 561.035,30.4181 563.789,66.4302 566.544,45.5251 569.298,82.6906 572.052,113.129 574.806,72.9223 577.561,105.642 
  580.315,80.0513 
  "/>
<polyline clip-path="url(#clip2402)" style="stroke:#3da44d; stroke-width:3; stroke-opacity:1; fill:none" points="
  29.4661,90.9216 32.2204,114.409 34.9746,121.829 37.7289,103.93 40.4831,133.941 43.2374,94.4258 45.9916,87.537 48.7458,154.994 51.5001,151.827 54.2543,124.864 
  57.0086,138.818 59.7628,96.309 62.5171,63.4747 65.2713,75.2974 68.0256,97.7916 70.7798,146.543 73.534,84.1139 76.2883,91.7088 79.0425,107.799 81.7968,79.392 
  84.551,92.0973 87.3053,113.881 90.0595,132.054 92.8138,173.888 95.568,201.253 98.3222,202.478 101.076,230.452 103.831,202.929 106.585,209.046 109.339,155.857 
  112.093,177.783 114.848,206.766 117.602,232.188 120.356,232.867 123.11,183.4 125.865,174.991 128.619,175.414 131.373,191.316 134.127,211.203 136.882,193.67 
  139.636,150.979 142.39,183.875 145.144,201.187 147.899,179.887 150.653,166.329 153.407,214.251 156.161,220.264 158.916,183.755 161.67,195.4 164.424,157.108 
  167.178,176.616 169.933,183.241 172.687,211.651 175.441,171.419 178.195,171.986 180.95,197.657 183.704,190.426 186.458,160.558 189.212,110.593 191.967,95.0368 
  194.721,86.7294 197.475,81.9838 200.229,82.7776 202.984,114.739 205.738,170.986 208.492,129.014 211.246,156.517 214,165.022 216.755,183.952 219.509,180.047 
  222.263,210.084 225.017,212.844 227.772,216.837 230.526,198.553 233.28,209.182 236.034,216.409 238.789,212.613 241.543,209.853 244.297,224.171 247.051,239.599 
  249.806,270.063 252.56,296.161 255.314,310.116 258.068,265.487 260.823,270.51 263.577,257.931 266.331,235.006 269.085,214.811 271.84,197.206 274.594,181.962 
  277.348,208.547 280.102,231.947 282.857,194.216 285.611,174.369 288.365,181.224 291.119,191.438 293.874,107.545 296.628,63.6626 299.382,89.7014 302.136,97.8105 
  304.891,118.42 307.645,150.466 310.399,95.5891 313.153,96.4354 315.908,114.366 318.662,138.513 321.416,154.621 324.17,153.331 326.925,138.692 329.679,182.653 
  332.433,145.235 335.187,100.143 337.941,99.6592 340.696,96.5196 343.45,109.82 346.204,102.827 348.958,107.44 351.713,100.489 354.467,119.308 357.221,164.98 
  359.975,159.362 362.73,145.03 365.484,117.125 368.238,121.702 370.992,107.957 373.747,144.344 376.501,147.295 379.255,159.258 382.009,130.233 384.764,127.118 
  387.518,155.393 390.272,118.676 393.026,90.112 395.781,120.712 398.535,129.598 401.289,169.835 404.043,176.986 406.798,157.322 409.552,146.475 412.306,151.765 
  415.06,129.925 417.815,192.572 420.569,195.146 423.323,207.272 426.077,201.1 428.832,187.415 431.586,241.508 434.34,230.875 437.094,249.817 439.849,213.837 
  442.603,195.051 445.357,213.598 448.111,242.998 450.865,197.242 453.62,189.099 456.374,195.429 459.128,195.548 461.882,240.266 464.637,247.799 467.391,237.914 
  470.145,197.102 472.899,214.445 475.654,233.548 478.408,203.526 481.162,235.543 483.916,255.106 486.671,243.998 489.425,280.025 492.179,338.57 494.933,284.285 
  497.688,300.045 500.442,281.854 503.196,286.29 505.95,332.904 508.705,351.968 511.459,301.073 514.213,342.446 516.967,373.532 519.722,375.869 522.476,301.953 
  525.23,287.779 527.984,316.92 530.739,301.833 533.493,299.877 536.247,298.33 539.001,305.194 541.756,325.523 544.51,329.691 547.264,303.521 550.018,332.397 
  552.773,339.36 555.527,358.095 558.281,357.684 561.035,357.395 563.789,341.716 566.544,303.874 569.298,339.783 572.052,302.672 574.806,284.258 577.561,312.313 
  580.315,287.028 
  "/>
<polygon clip-path="url(#clip2400)" points="
435.746,93.171 562.315,93.171 562.315,32.691 435.746,32.691 
  " fill="#ffffff" fill-opacity="1"/>
<polyline clip-path="url(#clip2400)" style="stroke:#000000; stroke-width:1; stroke-opacity:1; fill:none" points="
  435.746,93.171 562.315,93.171 562.315,32.691 435.746,32.691 435.746,93.171 
  "/>
<polyline clip-path="url(#clip2400)" style="stroke:#009af9; stroke-width:3; stroke-opacity:1; fill:none" points="
  441.746,47.811 477.746,47.811 
  "/>
<g clip-path="url(#clip2400)">
<text style="fill:#000000; fill-opacity:1; font-family:Arial,Helvetica Neue,Helvetica,sans-serif; font-size:12; text-anchor:start;" transform="rotate(0, 483.746, 52.311)" x="483.746" y="52.311">alpha = 0.0</text>
</g>
<polyline clip-path="url(#clip2400)" style="stroke:#e26f46; stroke-width:3; stroke-opacity:1; fill:none" points="
  441.746,62.931 477.746,62.931 
  "/>
<g clip-path="url(#clip2400)">
<text style="fill:#000000; fill-opacity:1; font-family:Arial,Helvetica Neue,Helvetica,sans-serif; font-size:12; text-anchor:start;" transform="rotate(0, 483.746, 67.431)" x="483.746" y="67.431">alpha = 0.5</text>
</g>
<polyline clip-path="url(#clip2400)" style="stroke:#3da44d; stroke-width:3; stroke-opacity:1; fill:none" points="
  441.746,78.051 477.746,78.051 
  "/>
<g clip-path="url(#clip2400)">
<text style="fill:#000000; fill-opacity:1; font-family:Arial,Helvetica Neue,Helvetica,sans-serif; font-size:12; text-anchor:start;" transform="rotate(0, 483.746, 82.551)" x="483.746" y="82.551">alpha = 0.98</text>
</g>
</svg>
