<?xml version="1.0" encoding="utf-8"?>
<svg xmlns="http://www.w3.org/2000/svg" xmlns:xlink="http://www.w3.org/1999/xlink" width="600" height="400" viewBox="0 0 600 400">
<defs>
  <clipPath id="clip1500">
    <rect x="0" y="0" width="600" height="400"/>
  </clipPath>
</defs>
<polygon clip-path="url(#clip1500)" points="
0,400 600,400 600,0 0,0 
  " fill="#ffffff" fill-opacity="1"/>
<defs>
  <clipPath id="clip1501">
    <rect x="120" y="0" width="421" height="400"/>
  </clipPath>
</defs>
<polygon clip-path="url(#clip1500)" points="
119.348,375.869 483.406,375.869 483.406,11.811 119.348,11.811 
  " fill="#ffffff" fill-opacity="1"/>
<defs>
  <clipPath id="clip1502">
    <rect x="119" y="11" width="365" height="365"/>
  </clipPath>
</defs>
<polyline clip-path="url(#clip1500)" style="stroke:#ededed; stroke-width:0.5; stroke-opacity:0.1; fill:none" points="
  137.977,356.099 271.231,291.581 
  "/>
<polyline clip-path="url(#clip1500)" style="stroke:#ededed; stroke-width:0.5; stroke-opacity:0.1; fill:none" points="
  271.231,291.581 271.231,13.5468 
  "/>
<polyline clip-path="url(#clip1500)" style="stroke:#cccccc; stroke-width:0.5; stroke-opacity:0.1; fill:none" points="
  168.218,358.916 301.473,294.398 
  "/>
<polyline clip-path="url(#clip1500)" style="stroke:#cccccc; stroke-width:0.5; stroke-opacity:0.1; fill:none" points="
  301.473,294.398 301.473,16.3647 
  "/>
<polyline clip-path="url(#clip1500)" style="stroke:#ededed; stroke-width:0.5; stroke-opacity:0.1; fill:none" points="
  198.46,361.734 331.714,297.216 
  "/>
<polyline clip-path="url(#clip1500)" style="stroke:#ededed; stroke-width:0.5; stroke-opacity:0.1; fill:none" points="
  331.714,297.216 331.714,19.1826 
  "/>
<polyline clip-path="url(#clip1500)" style="stroke:#cccccc; stroke-width:0.5; stroke-opacity:0.1; fill:none" points="
  228.701,364.552 361.956,300.034 
  "/>
<polyline clip-path="url(#clip1500)" style="stroke:#cccccc; stroke-width:0.5; stroke-opacity:0.1; fill:none" points="
  361.956,300.034 361.956,22.0004 
  "/>
<polyline clip-path="url(#clip1500)" style="stroke:#ededed; stroke-width:0.5; stroke-opacity:0.1; fill:none" points="
  258.943,367.37 392.197,302.852 
  "/>
<polyline clip-path="url(#clip1500)" style="stroke:#ededed; stroke-width:0.5; stroke-opacity:0.1; fill:none" points="
  392.197,302.852 392.197,24.8183 
  "/>
<polyline clip-path="url(#clip1500)" style="stroke:#cccccc; stroke-width:0.5; stroke-opacity:0.1; fill:none" points="
  289.184,370.188 422.439,305.67 
  "/>
<polyline clip-path="url(#clip1500)" style="stroke:#cccccc; stroke-width:0.5; stroke-opacity:0.1; fill:none" points="
  422.439,305.67 422.439,27.6362 
  "/>
<polyline clip-path="url(#clip1500)" style="stroke:#ededed; stroke-width:0.5; stroke-opacity:0.1; fill:none" points="
  319.426,373.006 452.68,308.488 
  "/>
<polyline clip-path="url(#clip1500)" style="stroke:#ededed; stroke-width:0.5; stroke-opacity:0.1; fill:none" points="
  452.68,308.488 452.68,30.4541 
  "/>
<polyline clip-path="url(#clip1500)" style="stroke:#cccccc; stroke-width:0.5; stroke-opacity:0.1; fill:none" points="
  349.667,375.824 482.922,311.306 
  "/>
<polyline clip-path="url(#clip1500)" style="stroke:#cccccc; stroke-width:0.5; stroke-opacity:0.1; fill:none" points="
  482.922,311.306 482.922,33.2719 
  "/>
<polyline clip-path="url(#clip1500)" style="stroke:#ededed; stroke-width:0.5; stroke-opacity:0.1; fill:none" points="
  123.119,352.537 353.923,374.043 
  "/>
<polyline clip-path="url(#clip1500)" style="stroke:#ededed; stroke-width:0.5; stroke-opacity:0.1; fill:none" points="
  123.119,352.537 123.119,74.503 
  "/>
<polyline clip-path="url(#clip1500)" style="stroke:#cccccc; stroke-width:0.5; stroke-opacity:0.1; fill:none" points="
  144.426,342.22 375.23,363.726 
  "/>
<polyline clip-path="url(#clip1500)" style="stroke:#cccccc; stroke-width:0.5; stroke-opacity:0.1; fill:none" points="
  144.426,342.22 144.426,64.1867 
  "/>
<polyline clip-path="url(#clip1500)" style="stroke:#ededed; stroke-width:0.5; stroke-opacity:0.1; fill:none" points="
  165.733,331.904 396.537,353.41 
  "/>
<polyline clip-path="url(#clip1500)" style="stroke:#ededed; stroke-width:0.5; stroke-opacity:0.1; fill:none" points="
  165.733,331.904 165.733,53.8705 
  "/>
<polyline clip-path="url(#clip1500)" style="stroke:#cccccc; stroke-width:0.5; stroke-opacity:0.1; fill:none" points="
  187.04,321.588 417.844,343.094 
  "/>
<polyline clip-path="url(#clip1500)" style="stroke:#cccccc; stroke-width:0.5; stroke-opacity:0.1; fill:none" points="
  187.04,321.588 187.04,43.5542 
  "/>
<polyline clip-path="url(#clip1500)" style="stroke:#ededed; stroke-width:0.5; stroke-opacity:0.1; fill:none" points="
  208.348,311.272 439.151,332.778 
  "/>
<polyline clip-path="url(#clip1500)" style="stroke:#ededed; stroke-width:0.5; stroke-opacity:0.1; fill:none" points="
  208.348,311.272 208.348,33.2379 
  "/>
<polyline clip-path="url(#clip1500)" style="stroke:#cccccc; stroke-width:0.5; stroke-opacity:0.1; fill:none" points="
  229.655,300.955 460.458,322.461 
  "/>
<polyline clip-path="url(#clip1500)" style="stroke:#cccccc; stroke-width:0.5; stroke-opacity:0.1; fill:none" points="
  229.655,300.955 229.655,22.9216 
  "/>
<polyline clip-path="url(#clip1500)" style="stroke:#ededed; stroke-width:0.5; stroke-opacity:0.1; fill:none" points="
  250.962,290.639 481.765,312.145 
  "/>
<polyline clip-path="url(#clip1500)" style="stroke:#ededed; stroke-width:0.5; stroke-opacity:0.1; fill:none" points="
  250.962,290.639 250.962,12.6054 
  "/>
<polyline clip-path="url(#clip1500)" style="stroke:#ededed; stroke-width:0.5; stroke-opacity:0.1; fill:none" points="
  119.348,308.024 252.602,243.506 
  "/>
<polyline clip-path="url(#clip1500)" style="stroke:#ededed; stroke-width:0.5; stroke-opacity:0.1; fill:none" points="
  252.602,243.506 483.406,265.012 
  "/>
<polyline clip-path="url(#clip1500)" style="stroke:#cccccc; stroke-width:0.5; stroke-opacity:0.1; fill:none" points="
  119.348,261.685 252.602,197.167 
  "/>
<polyline clip-path="url(#clip1500)" style="stroke:#cccccc; stroke-width:0.5; stroke-opacity:0.1; fill:none" points="
  252.602,197.167 483.406,218.673 
  "/>
<polyline clip-path="url(#clip1500)" style="stroke:#ededed; stroke-width:0.5; stroke-opacity:0.1; fill:none" points="
  119.348,215.346 252.602,150.828 
  "/>
<polyline clip-path="url(#clip1500)" style="stroke:#ededed; stroke-width:0.5; stroke-opacity:0.1; fill:none" points="
  252.602,150.828 483.406,172.334 
  "/>
<polyline clip-path="url(#clip1500)" style="stroke:#cccccc; stroke-width:0.5; stroke-opacity:0.1; fill:none" points="
  119.348,169.007 252.602,104.489 
  "/>
<polyline clip-path="url(#clip1500)" style="stroke:#cccccc; stroke-width:0.5; stroke-opacity:0.1; fill:none" points="
  252.602,104.489 483.406,125.995 
  "/>
<polyline clip-path="url(#clip1500)" style="stroke:#ededed; stroke-width:0.5; stroke-opacity:0.1; fill:none" points="
  119.348,122.668 252.602,58.15 
  "/>
<polyline clip-path="url(#clip1500)" style="stroke:#ededed; stroke-width:0.5; stroke-opacity:0.1; fill:none" points="
  252.602,58.15 483.406,79.656 
  "/>
<polyline clip-path="url(#clip1500)" style="stroke:#cccccc; stroke-width:0.5; stroke-opacity:0.1; fill:none" points="
  119.348,76.329 252.602,11.811 
  "/>
<polyline clip-path="url(#clip1500)" style="stroke:#cccccc; stroke-width:0.5; stroke-opacity:0.1; fill:none" points="
  252.602,11.811 483.406,33.317 
  "/>
<polyline clip-path="url(#clip1500)" style="stroke:#000000; stroke-width:1; stroke-opacity:1; fill:none" points="
  112.171,261.957 112.838,261.223 113.838,259.504 113.838,268.144 
  "/>
<polyline clip-path="url(#clip1500)" style="stroke:#000000; stroke-width:1; stroke-opacity:1; fill:none" points="
  111.505,170.013 111.505,169.602 111.838,168.618 112.171,168.045 112.838,167.311 114.171,166.665 114.838,166.754 115.171,167.004 115.504,167.665 115.504,168.488 
  115.171,169.472 114.504,171.029 111.172,176.757 115.838,174.498 
  "/>
<polyline clip-path="url(#clip1500)" style="stroke:#000000; stroke-width:1; stroke-opacity:1; fill:none" points="
  111.838,75.1168 115.504,73.3417 113.505,77.6014 114.504,77.1173 115.171,77.2059 115.504,77.456 115.838,78.5289 115.838,79.3518 115.504,80.7474 114.838,81.893 
  113.838,82.7886 112.838,83.2727 111.838,83.3454 111.505,83.0953 111.172,82.4338 
  "/>
<polyline clip-path="url(#clip1500)" style="stroke:#000000; stroke-width:1; stroke-opacity:1; fill:none" points="
  119.348,354.363 119.348,354.363 116.683,355.653 119.348,354.363 119.348,308.024 118.015,308.669 119.348,308.024 119.348,261.685 116.683,262.975 119.348,261.685 
  119.348,215.346 118.015,215.991 119.348,215.346 119.348,169.007 116.683,170.297 119.348,169.007 119.348,122.668 118.015,123.313 119.348,122.668 119.348,76.329 
  116.683,77.6193 119.348,76.329 
  "/>
<polyline clip-path="url(#clip1500)" style="stroke:#000000; stroke-width:1; stroke-opacity:1; fill:none" points="
  165.266,363.069 161.187,362.689 160.779,366.354 161.187,365.981 162.411,365.683 163.635,365.797 164.858,366.323 165.674,367.222 166.082,368.494 166.082,369.317 
  165.674,370.513 164.858,371.26 163.635,371.557 162.411,371.443 161.187,370.918 160.779,370.468 160.371,369.608 
  "/>
<polyline clip-path="url(#clip1500)" style="stroke:#000000; stroke-width:1; stroke-opacity:1; fill:none" points="
  226.157,369.977 225.749,369.117 224.525,368.591 223.71,368.515 222.486,368.812 221.67,369.971 221.262,371.99 221.262,374.047 221.67,375.731 222.486,376.63 
  223.71,377.155 224.118,377.193 225.341,376.896 226.157,376.149 226.565,374.953 226.565,374.541 226.157,373.269 225.341,372.37 224.118,371.844 223.71,371.806 
  222.486,372.104 221.67,372.851 221.262,374.047 
  "/>
<polyline clip-path="url(#clip1500)" style="stroke:#000000; stroke-width:1; stroke-opacity:1; fill:none" points="
  287.048,374.417 282.969,382.677 
  "/>
<polyline clip-path="url(#clip1500)" style="stroke:#000000; stroke-width:1; stroke-opacity:1; fill:none" points="
  281.338,373.885 287.048,374.417 
  "/>
<polyline clip-path="url(#clip1500)" style="stroke:#000000; stroke-width:1; stroke-opacity:1; fill:none" points="
  343.86,379.711 342.636,380.008 342.228,380.793 342.228,381.616 342.636,382.476 343.452,382.964 345.084,383.527 346.307,384.053 347.123,384.952 347.531,385.813 
  347.531,387.047 347.123,387.832 346.715,388.205 345.492,388.503 343.86,388.351 342.636,387.825 342.228,387.376 341.821,386.515 341.821,385.28 342.228,384.496 
  343.044,383.749 344.268,383.451 345.899,383.192 346.715,382.857 347.123,382.072 347.123,381.249 346.715,380.388 345.492,379.863 343.86,379.711 
  "/>
<polyline clip-path="url(#clip1500)" style="stroke:#000000; stroke-width:1; stroke-opacity:1; fill:none" points="
  119.348,354.363 137.977,356.099 136.644,356.744 137.977,356.099 168.218,358.916 165.553,360.207 168.218,358.916 198.46,361.734 197.127,362.379 198.46,361.734 
  228.701,364.552 226.036,365.842 228.701,364.552 258.943,367.37 257.61,368.015 258.943,367.37 289.184,370.188 286.519,371.478 289.184,370.188 319.426,373.006 
  318.093,373.651 319.426,373.006 349.667,375.824 347.002,377.114 349.667,375.824 350.151,375.869 
  "/>
<polyline clip-path="url(#clip1500)" style="stroke:#000000; stroke-width:1; stroke-opacity:1; fill:none" points="
  384.823,368.4 384.823,367.988 385.156,367.004 385.489,366.431 386.156,365.697 387.489,365.052 388.156,365.14 388.489,365.39 388.822,366.052 388.822,366.875 
  388.489,367.859 387.822,369.416 384.489,375.144 389.156,372.885 
  "/>
<polyline clip-path="url(#clip1500)" style="stroke:#000000; stroke-width:1; stroke-opacity:1; fill:none" points="
  430.437,344.258 427.104,351.631 432.103,349.211 
  "/>
<polyline clip-path="url(#clip1500)" style="stroke:#000000; stroke-width:1; stroke-opacity:1; fill:none" points="
  430.437,344.258 430.437,352.898 
  "/>
<polyline clip-path="url(#clip1500)" style="stroke:#000000; stroke-width:1; stroke-opacity:1; fill:none" points="
  474.051,324.375 473.717,323.714 472.717,323.787 472.051,324.109 471.051,325.005 470.384,326.562 470.051,328.78 470.051,330.838 470.384,332.322 471.051,332.822 
  472.051,332.749 472.384,332.588 473.384,331.692 474.051,330.547 474.384,329.151 474.384,328.74 474.051,327.667 473.384,327.167 472.384,327.239 472.051,327.401 
  471.051,328.296 470.384,329.442 470.051,330.838 
  "/>
<polyline clip-path="url(#clip1500)" style="stroke:#000000; stroke-width:1; stroke-opacity:1; fill:none" points="
  350.151,375.869 353.923,374.043 356.231,374.258 353.923,374.043 375.23,363.726 379.846,364.157 375.23,363.726 396.537,353.41 398.845,353.625 396.537,353.41 
  417.844,343.094 422.46,343.524 417.844,343.094 439.151,332.778 441.459,332.993 439.151,332.778 460.458,322.461 465.074,322.891 460.458,322.461 481.765,312.145 
  484.073,312.36 481.765,312.145 483.406,311.351 
  "/>
<circle clip-path="url(#clip1502)" style="fill:#000000; stroke:none; fill-opacity:1" cx="186.561" cy="334.992" r="4"/>
<circle clip-path="url(#clip1502)" style="fill:#e26f46; stroke:none; fill-opacity:1" cx="186.561" cy="334.992" r="3"/>
<circle clip-path="url(#clip1502)" style="fill:#000000; stroke:none; fill-opacity:1" cx="174.464" cy="333.865" r="4"/>
<circle clip-path="url(#clip1502)" style="fill:#e26f46; stroke:none; fill-opacity:1" cx="174.464" cy="333.865" r="3"/>
<circle clip-path="url(#clip1502)" style="fill:#000000; stroke:none; fill-opacity:1" cx="160.237" cy="333.769" r="4"/>
<circle clip-path="url(#clip1502)" style="fill:#e26f46; stroke:none; fill-opacity:1" cx="160.237" cy="333.769" r="3"/>
<circle clip-path="url(#clip1502)" style="fill:#000000; stroke:none; fill-opacity:1" cx="158.45" cy="331.142" r="4"/>
<circle clip-path="url(#clip1502)" style="fill:#e26f46; stroke:none; fill-opacity:1" cx="158.45" cy="331.142" r="3"/>
<circle clip-path="url(#clip1502)" style="fill:#000000; stroke:none; fill-opacity:1" cx="180.512" cy="334.428" r="4"/>
<circle clip-path="url(#clip1502)" style="fill:#e26f46; stroke:none; fill-opacity:1" cx="180.512" cy="334.428" r="3"/>
<circle clip-path="url(#clip1502)" style="fill:#000000; stroke:none; fill-opacity:1" cx="211.098" cy="315.052" r="4"/>
<circle clip-path="url(#clip1502)" style="fill:#e26f46; stroke:none; fill-opacity:1" cx="211.098" cy="315.052" r="3"/>
<circle clip-path="url(#clip1502)" style="fill:#000000; stroke:none; fill-opacity:1" cx="156.319" cy="322.906" r="4"/>
<circle clip-path="url(#clip1502)" style="fill:#e26f46; stroke:none; fill-opacity:1" cx="156.319" cy="322.906" r="3"/>
<circle clip-path="url(#clip1502)" style="fill:#000000; stroke:none; fill-opacity:1" cx="182.643" cy="333.397" r="4"/>
<circle clip-path="url(#clip1502)" style="fill:#e26f46; stroke:none; fill-opacity:1" cx="182.643" cy="333.397" r="3"/>
<circle clip-path="url(#clip1502)" style="fill:#000000; stroke:none; fill-opacity:1" cx="144.223" cy="331.047" r="4"/>
<circle clip-path="url(#clip1502)" style="fill:#e26f46; stroke:none; fill-opacity:1" cx="144.223" cy="331.047" r="3"/>
<circle clip-path="url(#clip1502)" style="fill:#000000; stroke:none; fill-opacity:1" cx="176.595" cy="342.101" r="4"/>
<circle clip-path="url(#clip1502)" style="fill:#e26f46; stroke:none; fill-opacity:1" cx="176.595" cy="342.101" r="3"/>
<circle clip-path="url(#clip1502)" style="fill:#000000; stroke:none; fill-opacity:1" cx="206.836" cy="335.651" r="4"/>
<circle clip-path="url(#clip1502)" style="fill:#e26f46; stroke:none; fill-opacity:1" cx="206.836" cy="335.651" r="3"/>
<circle clip-path="url(#clip1502)" style="fill:#000000; stroke:none; fill-opacity:1" cx="172.677" cy="331.238" r="4"/>
<circle clip-path="url(#clip1502)" style="fill:#e26f46; stroke:none; fill-opacity:1" cx="172.677" cy="331.238" r="3"/>
<circle clip-path="url(#clip1502)" style="fill:#000000; stroke:none; fill-opacity:1" cx="168.416" cy="342.569" r="4"/>
<circle clip-path="url(#clip1502)" style="fill:#e26f46; stroke:none; fill-opacity:1" cx="168.416" cy="342.569" r="3"/>
<circle clip-path="url(#clip1502)" style="fill:#000000; stroke:none; fill-opacity:1" cx="131.782" cy="342.846" r="4"/>
<circle clip-path="url(#clip1502)" style="fill:#e26f46; stroke:none; fill-opacity:1" cx="131.782" cy="342.846" r="3"/>
<circle clip-path="url(#clip1502)" style="fill:#000000; stroke:none; fill-opacity:1" cx="224.637" cy="341" r="4"/>
<circle clip-path="url(#clip1502)" style="fill:#e26f46; stroke:none; fill-opacity:1" cx="224.637" cy="341" r="3"/>
<circle clip-path="url(#clip1502)" style="fill:#000000; stroke:none; fill-opacity:1" cx="224.981" cy="318.806" r="4"/>
<circle clip-path="url(#clip1502)" style="fill:#e26f46; stroke:none; fill-opacity:1" cx="224.981" cy="318.806" r="3"/>
<circle clip-path="url(#clip1502)" style="fill:#000000; stroke:none; fill-opacity:1" cx="202.575" cy="319.179" r="4"/>
<circle clip-path="url(#clip1502)" style="fill:#e26f46; stroke:none; fill-opacity:1" cx="202.575" cy="319.179" r="3"/>
<circle clip-path="url(#clip1502)" style="fill:#000000; stroke:none; fill-opacity:1" cx="186.561" cy="325.724" r="4"/>
<circle clip-path="url(#clip1502)" style="fill:#e26f46; stroke:none; fill-opacity:1" cx="186.561" cy="325.724" r="3"/>
<circle clip-path="url(#clip1502)" style="fill:#000000; stroke:none; fill-opacity:1" cx="229.243" cy="326.011" r="4"/>
<circle clip-path="url(#clip1502)" style="fill:#e26f46; stroke:none; fill-opacity:1" cx="229.243" cy="326.011" r="3"/>
<circle clip-path="url(#clip1502)" style="fill:#000000; stroke:none; fill-opacity:1" cx="188.691" cy="324.692" r="4"/>
<circle clip-path="url(#clip1502)" style="fill:#e26f46; stroke:none; fill-opacity:1" cx="188.691" cy="324.692" r="3"/>
<circle clip-path="url(#clip1502)" style="fill:#000000; stroke:none; fill-opacity:1" cx="211.098" cy="333.588" r="4"/>
<circle clip-path="url(#clip1502)" style="fill:#e26f46; stroke:none; fill-opacity:1" cx="211.098" cy="333.588" r="3"/>
<circle clip-path="url(#clip1502)" style="fill:#000000; stroke:none; fill-opacity:1" cx="188.691" cy="315.425" r="4"/>
<circle clip-path="url(#clip1502)" style="fill:#e26f46; stroke:none; fill-opacity:1" cx="188.691" cy="315.425" r="3"/>
<circle clip-path="url(#clip1502)" style="fill:#000000; stroke:none; fill-opacity:1" cx="147.796" cy="336.301" r="4"/>
<circle clip-path="url(#clip1502)" style="fill:#e26f46; stroke:none; fill-opacity:1" cx="147.796" cy="336.301" r="3"/>
<circle clip-path="url(#clip1502)" style="fill:#000000; stroke:none; fill-opacity:1" cx="192.953" cy="304.094" r="4"/>
<circle clip-path="url(#clip1502)" style="fill:#e26f46; stroke:none; fill-opacity:1" cx="192.953" cy="304.094" r="3"/>
<circle clip-path="url(#clip1502)" style="fill:#000000; stroke:none; fill-opacity:1" cx="179.069" cy="328.143" r="4"/>
<circle clip-path="url(#clip1502)" style="fill:#e26f46; stroke:none; fill-opacity:1" cx="179.069" cy="328.143" r="3"/>
<circle clip-path="url(#clip1502)" style="fill:#000000; stroke:none; fill-opacity:1" cx="184.774" cy="332.365" r="4"/>
<circle clip-path="url(#clip1502)" style="fill:#e26f46; stroke:none; fill-opacity:1" cx="184.774" cy="332.365" r="3"/>
<circle clip-path="url(#clip1502)" style="fill:#000000; stroke:none; fill-opacity:1" cx="184.774" cy="313.829" r="4"/>
<circle clip-path="url(#clip1502)" style="fill:#e26f46; stroke:none; fill-opacity:1" cx="184.774" cy="313.829" r="3"/>
<circle clip-path="url(#clip1502)" style="fill:#000000; stroke:none; fill-opacity:1" cx="194.74" cy="334.524" r="4"/>
<circle clip-path="url(#clip1502)" style="fill:#e26f46; stroke:none; fill-opacity:1" cx="194.74" cy="334.524" r="3"/>
<circle clip-path="url(#clip1502)" style="fill:#000000; stroke:none; fill-opacity:1" cx="192.609" cy="335.555" r="4"/>
<circle clip-path="url(#clip1502)" style="fill:#e26f46; stroke:none; fill-opacity:1" cx="192.609" cy="335.555" r="3"/>
<circle clip-path="url(#clip1502)" style="fill:#000000; stroke:none; fill-opacity:1" cx="166.629" cy="330.674" r="4"/>
<circle clip-path="url(#clip1502)" style="fill:#e26f46; stroke:none; fill-opacity:1" cx="166.629" cy="330.674" r="3"/>
<circle clip-path="url(#clip1502)" style="fill:#000000; stroke:none; fill-opacity:1" cx="172.677" cy="331.238" r="4"/>
<circle clip-path="url(#clip1502)" style="fill:#e26f46; stroke:none; fill-opacity:1" cx="172.677" cy="331.238" r="3"/>
<circle clip-path="url(#clip1502)" style="fill:#000000; stroke:none; fill-opacity:1" cx="206.836" cy="317.115" r="4"/>
<circle clip-path="url(#clip1502)" style="fill:#e26f46; stroke:none; fill-opacity:1" cx="206.836" cy="317.115" r="3"/>
<circle clip-path="url(#clip1502)" style="fill:#000000; stroke:none; fill-opacity:1" cx="194.74" cy="343.792" r="4"/>
<circle clip-path="url(#clip1502)" style="fill:#e26f46; stroke:none; fill-opacity:1" cx="194.74" cy="343.792" r="3"/>
<circle clip-path="url(#clip1502)" style="fill:#000000; stroke:none; fill-opacity:1" cx="210.754" cy="337.246" r="4"/>
<circle clip-path="url(#clip1502)" style="fill:#e26f46; stroke:none; fill-opacity:1" cx="210.754" cy="337.246" r="3"/>
<circle clip-path="url(#clip1502)" style="fill:#000000; stroke:none; fill-opacity:1" cx="176.595" cy="332.833" r="4"/>
<circle clip-path="url(#clip1502)" style="fill:#e26f46; stroke:none; fill-opacity:1" cx="176.595" cy="332.833" r="3"/>
<circle clip-path="url(#clip1502)" style="fill:#000000; stroke:none; fill-opacity:1" cx="176.251" cy="336.492" r="4"/>
<circle clip-path="url(#clip1502)" style="fill:#e26f46; stroke:none; fill-opacity:1" cx="176.251" cy="336.492" r="3"/>
<circle clip-path="url(#clip1502)" style="fill:#000000; stroke:none; fill-opacity:1" cx="208.623" cy="338.278" r="4"/>
<circle clip-path="url(#clip1502)" style="fill:#e26f46; stroke:none; fill-opacity:1" cx="208.623" cy="338.278" r="3"/>
<circle clip-path="url(#clip1502)" style="fill:#000000; stroke:none; fill-opacity:1" cx="174.464" cy="343.133" r="4"/>
<circle clip-path="url(#clip1502)" style="fill:#e26f46; stroke:none; fill-opacity:1" cx="174.464" cy="343.133" r="3"/>
<circle clip-path="url(#clip1502)" style="fill:#000000; stroke:none; fill-opacity:1" cx="142.092" cy="332.078" r="4"/>
<circle clip-path="url(#clip1502)" style="fill:#e26f46; stroke:none; fill-opacity:1" cx="142.092" cy="332.078" r="3"/>
<circle clip-path="url(#clip1502)" style="fill:#000000; stroke:none; fill-opacity:1" cx="188.691" cy="333.96" r="4"/>
<circle clip-path="url(#clip1502)" style="fill:#e26f46; stroke:none; fill-opacity:1" cx="188.691" cy="333.96" r="3"/>
<circle clip-path="url(#clip1502)" style="fill:#000000; stroke:none; fill-opacity:1" cx="178.382" cy="326.192" r="4"/>
<circle clip-path="url(#clip1502)" style="fill:#e26f46; stroke:none; fill-opacity:1" cx="178.382" cy="326.192" r="3"/>
<circle clip-path="url(#clip1502)" style="fill:#000000; stroke:none; fill-opacity:1" cx="148.14" cy="323.374" r="4"/>
<circle clip-path="url(#clip1502)" style="fill:#e26f46; stroke:none; fill-opacity:1" cx="148.14" cy="323.374" r="3"/>
<circle clip-path="url(#clip1502)" style="fill:#000000; stroke:none; fill-opacity:1" cx="142.092" cy="332.078" r="4"/>
<circle clip-path="url(#clip1502)" style="fill:#e26f46; stroke:none; fill-opacity:1" cx="142.092" cy="332.078" r="3"/>
<circle clip-path="url(#clip1502)" style="fill:#000000; stroke:none; fill-opacity:1" cx="184.774" cy="295.294" r="4"/>
<circle clip-path="url(#clip1502)" style="fill:#e26f46; stroke:none; fill-opacity:1" cx="184.774" cy="295.294" r="3"/>
<circle clip-path="url(#clip1502)" style="fill:#000000; stroke:none; fill-opacity:1" cx="197.214" cy="311.298" r="4"/>
<circle clip-path="url(#clip1502)" style="fill:#e26f46; stroke:none; fill-opacity:1" cx="197.214" cy="311.298" r="3"/>
<circle clip-path="url(#clip1502)" style="fill:#000000; stroke:none; fill-opacity:1" cx="168.416" cy="324.033" r="4"/>
<circle clip-path="url(#clip1502)" style="fill:#e26f46; stroke:none; fill-opacity:1" cx="168.416" cy="324.033" r="3"/>
<circle clip-path="url(#clip1502)" style="fill:#000000; stroke:none; fill-opacity:1" cx="190.822" cy="332.929" r="4"/>
<circle clip-path="url(#clip1502)" style="fill:#e26f46; stroke:none; fill-opacity:1" cx="190.822" cy="332.929" r="3"/>
<circle clip-path="url(#clip1502)" style="fill:#000000; stroke:none; fill-opacity:1" cx="156.319" cy="332.174" r="4"/>
<circle clip-path="url(#clip1502)" style="fill:#e26f46; stroke:none; fill-opacity:1" cx="156.319" cy="332.174" r="3"/>
<circle clip-path="url(#clip1502)" style="fill:#000000; stroke:none; fill-opacity:1" cx="200.788" cy="335.087" r="4"/>
<circle clip-path="url(#clip1502)" style="fill:#e26f46; stroke:none; fill-opacity:1" cx="200.788" cy="335.087" r="3"/>
<circle clip-path="url(#clip1502)" style="fill:#000000; stroke:none; fill-opacity:1" cx="180.512" cy="334.428" r="4"/>
<circle clip-path="url(#clip1502)" style="fill:#e26f46; stroke:none; fill-opacity:1" cx="180.512" cy="334.428" r="3"/>
<circle clip-path="url(#clip1502)" style="fill:#000000; stroke:none; fill-opacity:1" cx="371.792" cy="200.443" r="4"/>
<circle clip-path="url(#clip1502)" style="fill:#3da44d; stroke:none; fill-opacity:1" cx="371.792" cy="200.443" r="3"/>
<circle clip-path="url(#clip1502)" style="fill:#000000; stroke:none; fill-opacity:1" cx="331.241" cy="189.857" r="4"/>
<circle clip-path="url(#clip1502)" style="fill:#3da44d; stroke:none; fill-opacity:1" cx="331.241" cy="189.857" r="3"/>
<circle clip-path="url(#clip1502)" style="fill:#000000; stroke:none; fill-opacity:1" cx="370.005" cy="188.548" r="4"/>
<circle clip-path="url(#clip1502)" style="fill:#009af9; stroke:none; fill-opacity:1" cx="370.005" cy="188.548" r="3"/>
<circle clip-path="url(#clip1502)" style="fill:#000000; stroke:none; fill-opacity:1" cx="266.152" cy="208.478" r="4"/>
<circle clip-path="url(#clip1502)" style="fill:#3da44d; stroke:none; fill-opacity:1" cx="266.152" cy="208.478" r="3"/>
<circle clip-path="url(#clip1502)" style="fill:#000000; stroke:none; fill-opacity:1" cx="339.42" cy="189.389" r="4"/>
<circle clip-path="url(#clip1502)" style="fill:#3da44d; stroke:none; fill-opacity:1" cx="339.42" cy="189.389" r="3"/>
<circle clip-path="url(#clip1502)" style="fill:#000000; stroke:none; fill-opacity:1" cx="288.902" cy="204.447" r="4"/>
<circle clip-path="url(#clip1502)" style="fill:#3da44d; stroke:none; fill-opacity:1" cx="288.902" cy="204.447" r="3"/>
<circle clip-path="url(#clip1502)" style="fill:#000000; stroke:none; fill-opacity:1" cx="329.454" cy="177.962" r="4"/>
<circle clip-path="url(#clip1502)" style="fill:#3da44d; stroke:none; fill-opacity:1" cx="329.454" cy="177.962" r="3"/>
<circle clip-path="url(#clip1502)" style="fill:#000000; stroke:none; fill-opacity:1" cx="214.948" cy="240.121" r="4"/>
<circle clip-path="url(#clip1502)" style="fill:#3da44d; stroke:none; fill-opacity:1" cx="214.948" cy="240.121" r="3"/>
<circle clip-path="url(#clip1502)" style="fill:#000000; stroke:none; fill-opacity:1" cx="345.468" cy="208.488" r="4"/>
<circle clip-path="url(#clip1502)" style="fill:#3da44d; stroke:none; fill-opacity:1" cx="345.468" cy="208.488" r="3"/>
<circle clip-path="url(#clip1502)" style="fill:#000000; stroke:none; fill-opacity:1" cx="245.877" cy="198.551" r="4"/>
<circle clip-path="url(#clip1502)" style="fill:#3da44d; stroke:none; fill-opacity:1" cx="245.877" cy="198.551" r="3"/>
<circle clip-path="url(#clip1502)" style="fill:#000000; stroke:none; fill-opacity:1" cx="225.257" cy="238.622" r="4"/>
<circle clip-path="url(#clip1502)" style="fill:#3da44d; stroke:none; fill-opacity:1" cx="225.257" cy="238.622" r="3"/>
<circle clip-path="url(#clip1502)" style="fill:#000000; stroke:none; fill-opacity:1" cx="294.607" cy="190.134" r="4"/>
<circle clip-path="url(#clip1502)" style="fill:#3da44d; stroke:none; fill-opacity:1" cx="294.607" cy="190.134" r="3"/>
<circle clip-path="url(#clip1502)" style="fill:#000000; stroke:none; fill-opacity:1" cx="296.394" cy="239.099" r="4"/>
<circle clip-path="url(#clip1502)" style="fill:#3da44d; stroke:none; fill-opacity:1" cx="296.394" cy="239.099" r="3"/>
<circle clip-path="url(#clip1502)" style="fill:#000000; stroke:none; fill-opacity:1" cx="317.357" cy="195.37" r="4"/>
<circle clip-path="url(#clip1502)" style="fill:#3da44d; stroke:none; fill-opacity:1" cx="317.357" cy="195.37" r="3"/>
<circle clip-path="url(#clip1502)" style="fill:#000000; stroke:none; fill-opacity:1" cx="263.678" cy="213.168" r="4"/>
<circle clip-path="url(#clip1502)" style="fill:#3da44d; stroke:none; fill-opacity:1" cx="263.678" cy="213.168" r="3"/>
<circle clip-path="url(#clip1502)" style="fill:#000000; stroke:none; fill-opacity:1" cx="347.255" cy="201.847" r="4"/>
<circle clip-path="url(#clip1502)" style="fill:#3da44d; stroke:none; fill-opacity:1" cx="347.255" cy="201.847" r="3"/>
<circle clip-path="url(#clip1502)" style="fill:#000000; stroke:none; fill-opacity:1" cx="282.854" cy="185.348" r="4"/>
<circle clip-path="url(#clip1502)" style="fill:#3da44d; stroke:none; fill-opacity:1" cx="282.854" cy="185.348" r="3"/>
<circle clip-path="url(#clip1502)" style="fill:#000000; stroke:none; fill-opacity:1" cx="286.428" cy="236.941" r="4"/>
<circle clip-path="url(#clip1502)" style="fill:#3da44d; stroke:none; fill-opacity:1" cx="286.428" cy="236.941" r="3"/>
<circle clip-path="url(#clip1502)" style="fill:#000000; stroke:none; fill-opacity:1" cx="319.144" cy="188.729" r="4"/>
<circle clip-path="url(#clip1502)" style="fill:#3da44d; stroke:none; fill-opacity:1" cx="319.144" cy="188.729" r="3"/>
<circle clip-path="url(#clip1502)" style="fill:#000000; stroke:none; fill-opacity:1" cx="270.07" cy="228.609" r="4"/>
<circle clip-path="url(#clip1502)" style="fill:#3da44d; stroke:none; fill-opacity:1" cx="270.07" cy="228.609" r="3"/>
<circle clip-path="url(#clip1502)" style="fill:#000000; stroke:none; fill-opacity:1" cx="307.391" cy="156.141" r="4"/>
<circle clip-path="url(#clip1502)" style="fill:#3da44d; stroke:none; fill-opacity:1" cx="307.391" cy="156.141" r="3"/>
<circle clip-path="url(#clip1502)" style="fill:#000000; stroke:none; fill-opacity:1" cx="302.442" cy="211.86" r="4"/>
<circle clip-path="url(#clip1502)" style="fill:#3da44d; stroke:none; fill-opacity:1" cx="302.442" cy="211.86" r="3"/>
<circle clip-path="url(#clip1502)" style="fill:#000000; stroke:none; fill-opacity:1" cx="333.715" cy="185.167" r="4"/>
<circle clip-path="url(#clip1502)" style="fill:#3da44d; stroke:none; fill-opacity:1" cx="333.715" cy="185.167" r="3"/>
<circle clip-path="url(#clip1502)" style="fill:#000000; stroke:none; fill-opacity:1" cx="317.357" cy="213.906" r="4"/>
<circle clip-path="url(#clip1502)" style="fill:#3da44d; stroke:none; fill-opacity:1" cx="317.357" cy="213.906" r="3"/>
<circle clip-path="url(#clip1502)" style="fill:#000000; stroke:none; fill-opacity:1" cx="326.979" cy="210.455" r="4"/>
<circle clip-path="url(#clip1502)" style="fill:#3da44d; stroke:none; fill-opacity:1" cx="326.979" cy="210.455" r="3"/>
<circle clip-path="url(#clip1502)" style="fill:#000000; stroke:none; fill-opacity:1" cx="341.206" cy="201.283" r="4"/>
<circle clip-path="url(#clip1502)" style="fill:#3da44d; stroke:none; fill-opacity:1" cx="341.206" cy="201.283" r="3"/>
<circle clip-path="url(#clip1502)" style="fill:#000000; stroke:none; fill-opacity:1" cx="361.826" cy="198.284" r="4"/>
<circle clip-path="url(#clip1502)" style="fill:#3da44d; stroke:none; fill-opacity:1" cx="361.826" cy="198.284" r="3"/>
<circle clip-path="url(#clip1502)" style="fill:#000000; stroke:none; fill-opacity:1" cx="360.039" cy="167.854" r="4"/>
<circle clip-path="url(#clip1502)" style="fill:#009af9; stroke:none; fill-opacity:1" cx="360.039" cy="167.854" r="3"/>
<circle clip-path="url(#clip1502)" style="fill:#000000; stroke:none; fill-opacity:1" cx="307.047" cy="187.602" r="4"/>
<circle clip-path="url(#clip1502)" style="fill:#3da44d; stroke:none; fill-opacity:1" cx="307.047" cy="187.602" r="3"/>
<circle clip-path="url(#clip1502)" style="fill:#000000; stroke:none; fill-opacity:1" cx="267.595" cy="242.567" r="4"/>
<circle clip-path="url(#clip1502)" style="fill:#3da44d; stroke:none; fill-opacity:1" cx="267.595" cy="242.567" r="3"/>
<circle clip-path="url(#clip1502)" style="fill:#000000; stroke:none; fill-opacity:1" cx="261.891" cy="229.077" r="4"/>
<circle clip-path="url(#clip1502)" style="fill:#3da44d; stroke:none; fill-opacity:1" cx="261.891" cy="229.077" r="3"/>
<circle clip-path="url(#clip1502)" style="fill:#000000; stroke:none; fill-opacity:1" cx="259.76" cy="239.376" r="4"/>
<circle clip-path="url(#clip1502)" style="fill:#3da44d; stroke:none; fill-opacity:1" cx="259.76" cy="239.376" r="3"/>
<circle clip-path="url(#clip1502)" style="fill:#000000; stroke:none; fill-opacity:1" cx="282.167" cy="220.468" r="4"/>
<circle clip-path="url(#clip1502)" style="fill:#3da44d; stroke:none; fill-opacity:1" cx="282.167" cy="220.468" r="3"/>
<circle clip-path="url(#clip1502)" style="fill:#000000; stroke:none; fill-opacity:1" cx="319.832" cy="172.145" r="4"/>
<circle clip-path="url(#clip1502)" style="fill:#3da44d; stroke:none; fill-opacity:1" cx="319.832" cy="172.145" r="3"/>
<circle clip-path="url(#clip1502)" style="fill:#000000; stroke:none; fill-opacity:1" cx="270.758" cy="184.221" r="4"/>
<circle clip-path="url(#clip1502)" style="fill:#3da44d; stroke:none; fill-opacity:1" cx="270.758" cy="184.221" r="3"/>
<circle clip-path="url(#clip1502)" style="fill:#000000; stroke:none; fill-opacity:1" cx="307.047" cy="178.335" r="4"/>
<circle clip-path="url(#clip1502)" style="fill:#3da44d; stroke:none; fill-opacity:1" cx="307.047" cy="178.335" r="3"/>
<circle clip-path="url(#clip1502)" style="fill:#000000; stroke:none; fill-opacity:1" cx="353.647" cy="189.484" r="4"/>
<circle clip-path="url(#clip1502)" style="fill:#3da44d; stroke:none; fill-opacity:1" cx="353.647" cy="189.484" r="3"/>
<circle clip-path="url(#clip1502)" style="fill:#000000; stroke:none; fill-opacity:1" cx="323.062" cy="208.86" r="4"/>
<circle clip-path="url(#clip1502)" style="fill:#3da44d; stroke:none; fill-opacity:1" cx="323.062" cy="208.86" r="3"/>
<circle clip-path="url(#clip1502)" style="fill:#000000; stroke:none; fill-opacity:1" cx="274.331" cy="208.01" r="4"/>
<circle clip-path="url(#clip1502)" style="fill:#3da44d; stroke:none; fill-opacity:1" cx="274.331" cy="208.01" r="3"/>
<circle clip-path="url(#clip1502)" style="fill:#000000; stroke:none; fill-opacity:1" cx="266.152" cy="208.478" r="4"/>
<circle clip-path="url(#clip1502)" style="fill:#3da44d; stroke:none; fill-opacity:1" cx="266.152" cy="208.478" r="3"/>
<circle clip-path="url(#clip1502)" style="fill:#000000; stroke:none; fill-opacity:1" cx="274.675" cy="213.619" r="4"/>
<circle clip-path="url(#clip1502)" style="fill:#3da44d; stroke:none; fill-opacity:1" cx="274.675" cy="213.619" r="3"/>
<circle clip-path="url(#clip1502)" style="fill:#000000; stroke:none; fill-opacity:1" cx="315.226" cy="196.402" r="4"/>
<circle clip-path="url(#clip1502)" style="fill:#3da44d; stroke:none; fill-opacity:1" cx="315.226" cy="196.402" r="3"/>
<circle clip-path="url(#clip1502)" style="fill:#000000; stroke:none; fill-opacity:1" cx="284.297" cy="219.437" r="4"/>
<circle clip-path="url(#clip1502)" style="fill:#3da44d; stroke:none; fill-opacity:1" cx="284.297" cy="219.437" r="3"/>
<circle clip-path="url(#clip1502)" style="fill:#000000; stroke:none; fill-opacity:1" cx="220.996" cy="240.685" r="4"/>
<circle clip-path="url(#clip1502)" style="fill:#3da44d; stroke:none; fill-opacity:1" cx="220.996" cy="240.685" r="3"/>
<circle clip-path="url(#clip1502)" style="fill:#000000; stroke:none; fill-opacity:1" cx="276.462" cy="206.978" r="4"/>
<circle clip-path="url(#clip1502)" style="fill:#3da44d; stroke:none; fill-opacity:1" cx="276.462" cy="206.978" r="3"/>
<circle clip-path="url(#clip1502)" style="fill:#000000; stroke:none; fill-opacity:1" cx="282.51" cy="216.81" r="4"/>
<circle clip-path="url(#clip1502)" style="fill:#3da44d; stroke:none; fill-opacity:1" cx="282.51" cy="216.81" r="3"/>
<circle clip-path="url(#clip1502)" style="fill:#000000; stroke:none; fill-opacity:1" cx="282.51" cy="207.542" r="4"/>
<circle clip-path="url(#clip1502)" style="fill:#3da44d; stroke:none; fill-opacity:1" cx="282.51" cy="207.542" r="3"/>
<circle clip-path="url(#clip1502)" style="fill:#000000; stroke:none; fill-opacity:1" cx="314.883" cy="209.328" r="4"/>
<circle clip-path="url(#clip1502)" style="fill:#3da44d; stroke:none; fill-opacity:1" cx="314.883" cy="209.328" r="3"/>
<circle clip-path="url(#clip1502)" style="fill:#000000; stroke:none; fill-opacity:1" cx="220.652" cy="235.076" r="4"/>
<circle clip-path="url(#clip1502)" style="fill:#3da44d; stroke:none; fill-opacity:1" cx="220.652" cy="235.076" r="3"/>
<circle clip-path="url(#clip1502)" style="fill:#000000; stroke:none; fill-opacity:1" cx="280.38" cy="208.574" r="4"/>
<circle clip-path="url(#clip1502)" style="fill:#3da44d; stroke:none; fill-opacity:1" cx="280.38" cy="208.574" r="3"/>
<circle clip-path="url(#clip1502)" style="fill:#000000; stroke:none; fill-opacity:1" cx="357.153" cy="81.1407" r="4"/>
<circle clip-path="url(#clip1502)" style="fill:#009af9; stroke:none; fill-opacity:1" cx="357.153" cy="81.1407" r="3"/>
<circle clip-path="url(#clip1502)" style="fill:#000000; stroke:none; fill-opacity:1" cx="307.735" cy="143.214" r="4"/>
<circle clip-path="url(#clip1502)" style="fill:#3da44d; stroke:none; fill-opacity:1" cx="307.735" cy="143.214" r="3"/>
<circle clip-path="url(#clip1502)" style="fill:#000000; stroke:none; fill-opacity:1" cx="403.409" cy="123.752" r="4"/>
<circle clip-path="url(#clip1502)" style="fill:#009af9; stroke:none; fill-opacity:1" cx="403.409" cy="123.752" r="3"/>
<circle clip-path="url(#clip1502)" style="fill:#000000; stroke:none; fill-opacity:1" cx="348.63" cy="150.142" r="4"/>
<circle clip-path="url(#clip1502)" style="fill:#009af9; stroke:none; fill-opacity:1" cx="348.63" cy="150.142" r="3"/>
<circle clip-path="url(#clip1502)" style="fill:#000000; stroke:none; fill-opacity:1" cx="364.988" cy="112.135" r="4"/>
<circle clip-path="url(#clip1502)" style="fill:#009af9; stroke:none; fill-opacity:1" cx="364.988" cy="112.135" r="3"/>
<circle clip-path="url(#clip1502)" style="fill:#000000; stroke:none; fill-opacity:1" cx="448.565" cy="119.349" r="4"/>
<circle clip-path="url(#clip1502)" style="fill:#009af9; stroke:none; fill-opacity:1" cx="448.565" cy="119.349" r="3"/>
<circle clip-path="url(#clip1502)" style="fill:#000000; stroke:none; fill-opacity:1" cx="240.516" cy="162.867" r="4"/>
<circle clip-path="url(#clip1502)" style="fill:#3da44d; stroke:none; fill-opacity:1" cx="240.516" cy="162.867" r="3"/>
<circle clip-path="url(#clip1502)" style="fill:#000000; stroke:none; fill-opacity:1" cx="424.028" cy="148.556" r="4"/>
<circle clip-path="url(#clip1502)" style="fill:#009af9; stroke:none; fill-opacity:1" cx="424.028" cy="148.556" r="3"/>
<circle clip-path="url(#clip1502)" style="fill:#000000; stroke:none; fill-opacity:1" cx="377.085" cy="150.333" r="4"/>
<circle clip-path="url(#clip1502)" style="fill:#009af9; stroke:none; fill-opacity:1" cx="377.085" cy="150.333" r="3"/>
<circle clip-path="url(#clip1502)" style="fill:#000000; stroke:none; fill-opacity:1" cx="413.718" cy="85.1813" r="4"/>
<circle clip-path="url(#clip1502)" style="fill:#009af9; stroke:none; fill-opacity:1" cx="413.718" cy="85.1813" r="3"/>
<circle clip-path="url(#clip1502)" style="fill:#000000; stroke:none; fill-opacity:1" cx="350.073" cy="137.891" r="4"/>
<circle clip-path="url(#clip1502)" style="fill:#009af9; stroke:none; fill-opacity:1" cx="350.073" cy="137.891" r="3"/>
<circle clip-path="url(#clip1502)" style="fill:#000000; stroke:none; fill-opacity:1" cx="348.286" cy="144.532" r="4"/>
<circle clip-path="url(#clip1502)" style="fill:#009af9; stroke:none; fill-opacity:1" cx="348.286" cy="144.532" r="3"/>
<circle clip-path="url(#clip1502)" style="fill:#000000; stroke:none; fill-opacity:1" cx="376.741" cy="126.188" r="4"/>
<circle clip-path="url(#clip1502)" style="fill:#009af9; stroke:none; fill-opacity:1" cx="376.741" cy="126.188" r="3"/>
<circle clip-path="url(#clip1502)" style="fill:#000000; stroke:none; fill-opacity:1" cx="299.556" cy="134.415" r="4"/>
<circle clip-path="url(#clip1502)" style="fill:#3da44d; stroke:none; fill-opacity:1" cx="299.556" cy="134.415" r="3"/>
<circle clip-path="url(#clip1502)" style="fill:#000000; stroke:none; fill-opacity:1" cx="307.735" cy="96.8753" r="4"/>
<circle clip-path="url(#clip1502)" style="fill:#009af9; stroke:none; fill-opacity:1" cx="307.735" cy="96.8753" r="3"/>
<circle clip-path="url(#clip1502)" style="fill:#000000; stroke:none; fill-opacity:1" cx="348.286" cy="107.461" r="4"/>
<circle clip-path="url(#clip1502)" style="fill:#009af9; stroke:none; fill-opacity:1" cx="348.286" cy="107.461" r="3"/>
<circle clip-path="url(#clip1502)" style="fill:#000000; stroke:none; fill-opacity:1" cx="358.596" cy="152.301" r="4"/>
<circle clip-path="url(#clip1502)" style="fill:#009af9; stroke:none; fill-opacity:1" cx="358.596" cy="152.301" r="3"/>
<circle clip-path="url(#clip1502)" style="fill:#000000; stroke:none; fill-opacity:1" cx="456.744" cy="109.613" r="4"/>
<circle clip-path="url(#clip1502)" style="fill:#009af9; stroke:none; fill-opacity:1" cx="456.744" cy="109.613" r="3"/>
<circle clip-path="url(#clip1502)" style="fill:#000000; stroke:none; fill-opacity:1" cx="461.005" cy="98.2817" r="4"/>
<circle clip-path="url(#clip1502)" style="fill:#009af9; stroke:none; fill-opacity:1" cx="461.005" cy="98.2817" r="3"/>
<circle clip-path="url(#clip1502)" style="fill:#000000; stroke:none; fill-opacity:1" cx="317.701" cy="182.444" r="4"/>
<circle clip-path="url(#clip1502)" style="fill:#3da44d; stroke:none; fill-opacity:1" cx="317.701" cy="182.444" r="3"/>
<circle clip-path="url(#clip1502)" style="fill:#000000; stroke:none; fill-opacity:1" cx="387.051" cy="106.153" r="4"/>
<circle clip-path="url(#clip1502)" style="fill:#009af9; stroke:none; fill-opacity:1" cx="387.051" cy="106.153" r="3"/>
<circle clip-path="url(#clip1502)" style="fill:#000000; stroke:none; fill-opacity:1" cx="291.377" cy="134.883" r="4"/>
<circle clip-path="url(#clip1502)" style="fill:#3da44d; stroke:none; fill-opacity:1" cx="291.377" cy="134.883" r="3"/>
<circle clip-path="url(#clip1502)" style="fill:#000000; stroke:none; fill-opacity:1" cx="456.744" cy="128.148" r="4"/>
<circle clip-path="url(#clip1502)" style="fill:#009af9; stroke:none; fill-opacity:1" cx="456.744" cy="128.148" r="3"/>
<circle clip-path="url(#clip1502)" style="fill:#000000; stroke:none; fill-opacity:1" cx="333.715" cy="157.363" r="4"/>
<circle clip-path="url(#clip1502)" style="fill:#3da44d; stroke:none; fill-opacity:1" cx="333.715" cy="157.363" r="3"/>
<circle clip-path="url(#clip1502)" style="fill:#000000; stroke:none; fill-opacity:1" cx="374.954" cy="123.561" r="4"/>
<circle clip-path="url(#clip1502)" style="fill:#009af9; stroke:none; fill-opacity:1" cx="374.954" cy="123.561" r="3"/>
<circle clip-path="url(#clip1502)" style="fill:#000000; stroke:none; fill-opacity:1" cx="411.588" cy="151.087" r="4"/>
<circle clip-path="url(#clip1502)" style="fill:#009af9; stroke:none; fill-opacity:1" cx="411.588" cy="151.087" r="3"/>
<circle clip-path="url(#clip1502)" style="fill:#000000; stroke:none; fill-opacity:1" cx="325.536" cy="157.831" r="4"/>
<circle clip-path="url(#clip1502)" style="fill:#3da44d; stroke:none; fill-opacity:1" cx="325.536" cy="157.831" r="3"/>
<circle clip-path="url(#clip1502)" style="fill:#000000; stroke:none; fill-opacity:1" cx="321.618" cy="156.236" r="4"/>
<circle clip-path="url(#clip1502)" style="fill:#3da44d; stroke:none; fill-opacity:1" cx="321.618" cy="156.236" r="3"/>
<circle clip-path="url(#clip1502)" style="fill:#000000; stroke:none; fill-opacity:1" cx="354.678" cy="122.902" r="4"/>
<circle clip-path="url(#clip1502)" style="fill:#009af9; stroke:none; fill-opacity:1" cx="354.678" cy="122.902" r="3"/>
<circle clip-path="url(#clip1502)" style="fill:#000000; stroke:none; fill-opacity:1" cx="407.326" cy="171.686" r="4"/>
<circle clip-path="url(#clip1502)" style="fill:#009af9; stroke:none; fill-opacity:1" cx="407.326" cy="171.686" r="3"/>
<circle clip-path="url(#clip1502)" style="fill:#000000; stroke:none; fill-opacity:1" cx="425.815" cy="141.915" r="4"/>
<circle clip-path="url(#clip1502)" style="fill:#009af9; stroke:none; fill-opacity:1" cx="425.815" cy="141.915" r="3"/>
<circle clip-path="url(#clip1502)" style="fill:#000000; stroke:none; fill-opacity:1" cx="462.449" cy="132.37" r="4"/>
<circle clip-path="url(#clip1502)" style="fill:#009af9; stroke:none; fill-opacity:1" cx="462.449" cy="132.37" r="3"/>
<circle clip-path="url(#clip1502)" style="fill:#000000; stroke:none; fill-opacity:1" cx="354.678" cy="113.634" r="4"/>
<circle clip-path="url(#clip1502)" style="fill:#009af9; stroke:none; fill-opacity:1" cx="354.678" cy="113.634" r="3"/>
<circle clip-path="url(#clip1502)" style="fill:#000000; stroke:none; fill-opacity:1" cx="337.977" cy="183.103" r="4"/>
<circle clip-path="url(#clip1502)" style="fill:#3da44d; stroke:none; fill-opacity:1" cx="337.977" cy="183.103" r="3"/>
<circle clip-path="url(#clip1502)" style="fill:#000000; stroke:none; fill-opacity:1" cx="336.533" cy="186.086" r="4"/>
<circle clip-path="url(#clip1502)" style="fill:#009af9; stroke:none; fill-opacity:1" cx="336.533" cy="186.086" r="3"/>
<circle clip-path="url(#clip1502)" style="fill:#000000; stroke:none; fill-opacity:1" cx="443.96" cy="106.535" r="4"/>
<circle clip-path="url(#clip1502)" style="fill:#009af9; stroke:none; fill-opacity:1" cx="443.96" cy="106.535" r="3"/>
<circle clip-path="url(#clip1502)" style="fill:#000000; stroke:none; fill-opacity:1" cx="348.63" cy="94.535" r="4"/>
<circle clip-path="url(#clip1502)" style="fill:#009af9; stroke:none; fill-opacity:1" cx="348.63" cy="94.535" r="3"/>
<circle clip-path="url(#clip1502)" style="fill:#000000; stroke:none; fill-opacity:1" cx="352.548" cy="151.737" r="4"/>
<circle clip-path="url(#clip1502)" style="fill:#009af9; stroke:none; fill-opacity:1" cx="352.548" cy="151.737" r="3"/>
<circle clip-path="url(#clip1502)" style="fill:#000000; stroke:none; fill-opacity:1" cx="313.439" cy="156.704" r="4"/>
<circle clip-path="url(#clip1502)" style="fill:#3da44d; stroke:none; fill-opacity:1" cx="313.439" cy="156.704" r="3"/>
<circle clip-path="url(#clip1502)" style="fill:#000000; stroke:none; fill-opacity:1" cx="380.658" cy="127.783" r="4"/>
<circle clip-path="url(#clip1502)" style="fill:#009af9; stroke:none; fill-opacity:1" cx="380.658" cy="127.783" r="3"/>
<circle clip-path="url(#clip1502)" style="fill:#000000; stroke:none; fill-opacity:1" cx="372.823" cy="96.7893" r="4"/>
<circle clip-path="url(#clip1502)" style="fill:#009af9; stroke:none; fill-opacity:1" cx="372.823" cy="96.7893" r="3"/>
<circle clip-path="url(#clip1502)" style="fill:#000000; stroke:none; fill-opacity:1" cx="374.266" cy="112.342" r="4"/>
<circle clip-path="url(#clip1502)" style="fill:#009af9; stroke:none; fill-opacity:1" cx="374.266" cy="112.342" r="3"/>
<circle clip-path="url(#clip1502)" style="fill:#000000; stroke:none; fill-opacity:1" cx="307.735" cy="143.214" r="4"/>
<circle clip-path="url(#clip1502)" style="fill:#3da44d; stroke:none; fill-opacity:1" cx="307.735" cy="143.214" r="3"/>
<circle clip-path="url(#clip1502)" style="fill:#000000; stroke:none; fill-opacity:1" cx="385.264" cy="103.526" r="4"/>
<circle clip-path="url(#clip1502)" style="fill:#009af9; stroke:none; fill-opacity:1" cx="385.264" cy="103.526" r="3"/>
<circle clip-path="url(#clip1502)" style="fill:#000000; stroke:none; fill-opacity:1" cx="374.954" cy="86.4899" r="4"/>
<circle clip-path="url(#clip1502)" style="fill:#009af9; stroke:none; fill-opacity:1" cx="374.954" cy="86.4899" r="3"/>
<circle clip-path="url(#clip1502)" style="fill:#000000; stroke:none; fill-opacity:1" cx="364.3" cy="110.184" r="4"/>
<circle clip-path="url(#clip1502)" style="fill:#009af9; stroke:none; fill-opacity:1" cx="364.3" cy="110.184" r="3"/>
<circle clip-path="url(#clip1502)" style="fill:#000000; stroke:none; fill-opacity:1" cx="335.846" cy="147.064" r="4"/>
<circle clip-path="url(#clip1502)" style="fill:#009af9; stroke:none; fill-opacity:1" cx="335.846" cy="147.064" r="3"/>
<circle clip-path="url(#clip1502)" style="fill:#000000; stroke:none; fill-opacity:1" cx="352.204" cy="136.86" r="4"/>
<circle clip-path="url(#clip1502)" style="fill:#009af9; stroke:none; fill-opacity:1" cx="352.204" cy="136.86" r="3"/>
<circle clip-path="url(#clip1502)" style="fill:#000000; stroke:none; fill-opacity:1" cx="338.32" cy="105.303" r="4"/>
<circle clip-path="url(#clip1502)" style="fill:#009af9; stroke:none; fill-opacity:1" cx="338.32" cy="105.303" r="3"/>
<circle clip-path="url(#clip1502)" style="fill:#000000; stroke:none; fill-opacity:1" cx="313.783" cy="153.046" r="4"/>
<circle clip-path="url(#clip1502)" style="fill:#3da44d; stroke:none; fill-opacity:1" cx="313.783" cy="153.046" r="3"/>
<polygon clip-path="url(#clip1500)" points="
392.698,62.931 465.406,62.931 465.406,32.691 392.698,32.691 
  " fill="#ffffff" fill-opacity="1"/>
<polyline clip-path="url(#clip1500)" style="stroke:#000000; stroke-width:1; stroke-opacity:1; fill:none" points="
  392.698,62.931 465.406,62.931 465.406,32.691 392.698,32.691 392.698,62.931 
  "/>
<circle clip-path="url(#clip1500)" style="fill:#000000; stroke:none; fill-opacity:1" cx="419.698" cy="47.811" r="6"/>
<circle clip-path="url(#clip1500)" style="fill:#e26f46; stroke:none; fill-opacity:1" cx="419.698" cy="47.811" r="5"/>
<g clip-path="url(#clip1500)">
<text style="fill:#000000; fill-opacity:1; font-family:Arial,Helvetica Neue,Helvetica,sans-serif; font-size:12; text-anchor:start;" transform="rotate(0, 440.698, 52.311)" x="440.698" y="52.311">y1</text>
</g>
</svg>
