<?xml version="1.0" encoding="utf-8"?>
<svg xmlns="http://www.w3.org/2000/svg" xmlns:xlink="http://www.w3.org/1999/xlink" width="600" height="400" viewBox="0 0 600 400">
<defs>
  <clipPath id="clip5200">
    <rect x="0" y="0" width="600" height="400"/>
  </clipPath>
</defs>
<polygon clip-path="url(#clip5200)" points="
0,400 600,400 600,0 0,0 
  " fill="#ffffff" fill-opacity="1"/>
<defs>
  <clipPath id="clip5201">
    <rect x="120" y="0" width="421" height="400"/>
  </clipPath>
</defs>
<polygon clip-path="url(#clip5200)" points="
44.0307,360.121 580.315,360.121 580.315,11.811 44.0307,11.811 
  " fill="#ffffff" fill-opacity="1"/>
<defs>
  <clipPath id="clip5202">
    <rect x="44" y="11" width="537" height="349"/>
  </clipPath>
</defs>
<polyline clip-path="url(#clip5202)" style="stroke:#000000; stroke-width:0.5; stroke-opacity:0.1; fill:none" points="
  44.0307,360.121 44.0307,11.811 
  "/>
<polyline clip-path="url(#clip5202)" style="stroke:#000000; stroke-width:0.5; stroke-opacity:0.1; fill:none" points="
  222.792,360.121 222.792,11.811 
  "/>
<polyline clip-path="url(#clip5202)" style="stroke:#000000; stroke-width:0.5; stroke-opacity:0.1; fill:none" points="
  401.554,360.121 401.554,11.811 
  "/>
<polyline clip-path="url(#clip5202)" style="stroke:#000000; stroke-width:0.5; stroke-opacity:0.1; fill:none" points="
  580.315,360.121 580.315,11.811 
  "/>
<polyline clip-path="url(#clip5202)" style="stroke:#000000; stroke-width:0.5; stroke-opacity:0.1; fill:none" points="
  44.0307,304.845 580.315,304.845 
  "/>
<polyline clip-path="url(#clip5202)" style="stroke:#000000; stroke-width:0.5; stroke-opacity:0.1; fill:none" points="
  44.0307,223.938 580.315,223.938 
  "/>
<polyline clip-path="url(#clip5202)" style="stroke:#000000; stroke-width:0.5; stroke-opacity:0.1; fill:none" points="
  44.0307,143.03 580.315,143.03 
  "/>
<polyline clip-path="url(#clip5202)" style="stroke:#000000; stroke-width:0.5; stroke-opacity:0.1; fill:none" points="
  44.0307,62.1226 580.315,62.1226 
  "/>
<polyline clip-path="url(#clip5200)" style="stroke:#000000; stroke-width:1; stroke-opacity:1; fill:none" points="
  44.0307,360.121 580.315,360.121 
  "/>
<polyline clip-path="url(#clip5200)" style="stroke:#000000; stroke-width:1; stroke-opacity:1; fill:none" points="
  44.0307,360.121 44.0307,11.811 
  "/>
<polyline clip-path="url(#clip5200)" style="stroke:#000000; stroke-width:1; stroke-opacity:1; fill:none" points="
  44.0307,360.121 44.0307,354.896 
  "/>
<polyline clip-path="url(#clip5200)" style="stroke:#000000; stroke-width:1; stroke-opacity:1; fill:none" points="
  222.792,360.121 222.792,354.896 
  "/>
<polyline clip-path="url(#clip5200)" style="stroke:#000000; stroke-width:1; stroke-opacity:1; fill:none" points="
  401.554,360.121 401.554,354.896 
  "/>
<polyline clip-path="url(#clip5200)" style="stroke:#000000; stroke-width:1; stroke-opacity:1; fill:none" points="
  580.315,360.121 580.315,354.896 
  "/>
<polyline clip-path="url(#clip5200)" style="stroke:#000000; stroke-width:1; stroke-opacity:1; fill:none" points="
  44.0307,304.845 52.075,304.845 
  "/>
<polyline clip-path="url(#clip5200)" style="stroke:#000000; stroke-width:1; stroke-opacity:1; fill:none" points="
  44.0307,223.938 52.075,223.938 
  "/>
<polyline clip-path="url(#clip5200)" style="stroke:#000000; stroke-width:1; stroke-opacity:1; fill:none" points="
  44.0307,143.03 52.075,143.03 
  "/>
<polyline clip-path="url(#clip5200)" style="stroke:#000000; stroke-width:1; stroke-opacity:1; fill:none" points="
  44.0307,62.1226 52.075,62.1226 
  "/>
<g clip-path="url(#clip5200)">
<text style="fill:#000000; fill-opacity:1; font-family:Arial,Helvetica Neue,Helvetica,sans-serif; font-size:12; text-anchor:middle;" transform="rotate(0, 44.0307, 373.921)" x="44.0307" y="373.921">0</text>
</g>
<g clip-path="url(#clip5200)">
<text style="fill:#000000; fill-opacity:1; font-family:Arial,Helvetica Neue,Helvetica,sans-serif; font-size:12; text-anchor:middle;" transform="rotate(0, 222.792, 373.921)" x="222.792" y="373.921">5</text>
</g>
<g clip-path="url(#clip5200)">
<text style="fill:#000000; fill-opacity:1; font-family:Arial,Helvetica Neue,Helvetica,sans-serif; font-size:12; text-anchor:middle;" transform="rotate(0, 401.554, 373.921)" x="401.554" y="373.921">10</text>
</g>
<g clip-path="url(#clip5200)">
<text style="fill:#000000; fill-opacity:1; font-family:Arial,Helvetica Neue,Helvetica,sans-serif; font-size:12; text-anchor:middle;" transform="rotate(0, 580.315, 373.921)" x="580.315" y="373.921">15</text>
</g>
<g clip-path="url(#clip5200)">
<text style="fill:#000000; fill-opacity:1; font-family:Arial,Helvetica Neue,Helvetica,sans-serif; font-size:12; text-anchor:end;" transform="rotate(0, 38.0307, 309.345)" x="38.0307" y="309.345">-20</text>
</g>
<g clip-path="url(#clip5200)">
<text style="fill:#000000; fill-opacity:1; font-family:Arial,Helvetica Neue,Helvetica,sans-serif; font-size:12; text-anchor:end;" transform="rotate(0, 38.0307, 228.438)" x="38.0307" y="228.438">0</text>
</g>
<g clip-path="url(#clip5200)">
<text style="fill:#000000; fill-opacity:1; font-family:Arial,Helvetica Neue,Helvetica,sans-serif; font-size:12; text-anchor:end;" transform="rotate(0, 38.0307, 147.53)" x="38.0307" y="147.53">20</text>
</g>
<g clip-path="url(#clip5200)">
<text style="fill:#000000; fill-opacity:1; font-family:Arial,Helvetica Neue,Helvetica,sans-serif; font-size:12; text-anchor:end;" transform="rotate(0, 38.0307, 66.6226)" x="38.0307" y="66.6226">40</text>
</g>
<g clip-path="url(#clip5200)">
<text style="fill:#000000; fill-opacity:1; font-family:Arial,Helvetica Neue,Helvetica,sans-serif; font-size:16; text-anchor:middle;" transform="rotate(0, 312.173, 397.6)" x="312.173" y="397.6">t</text>
</g>
<polyline clip-path="url(#clip5202)" style="stroke:#009af9; stroke-width:3; stroke-opacity:1; fill:none" points="
  44.0307,21.6688 44.5676,21.6733 45.1044,21.6867 45.6412,21.7091 46.178,21.7404 46.7148,21.7807 47.2517,21.8299 47.7885,21.888 48.3253,21.9551 48.8621,22.0312 
  49.3989,22.1162 49.9358,22.2101 50.4726,22.313 51.0094,22.4249 51.5462,22.5457 52.0831,22.6754 52.6199,22.8141 53.1567,22.9617 53.6935,23.1183 54.2303,23.2838 
  54.7672,23.4583 55.304,23.6417 55.8408,23.834 56.3776,24.0353 56.9144,24.2456 57.4513,24.4648 57.9881,24.6929 58.5249,24.93 59.0617,25.1761 59.5985,25.4311 
  60.1354,25.695 60.6722,25.9679 61.209,26.2497 61.7458,26.5405 62.2827,26.8402 62.8195,27.1489 63.3563,27.4665 63.8931,27.7931 64.4299,28.1286 64.9668,28.4731 
  65.5036,28.8265 66.0404,29.1888 66.5772,29.5601 67.114,29.9404 67.6509,30.3296 68.1877,30.7277 68.7245,31.1348 69.2613,31.5509 69.7981,31.9758 70.335,32.4098 
  70.8718,32.8526 71.4086,33.3045 71.9454,33.7652 72.4823,34.235 73.0191,34.7136 73.5559,35.2012 74.0927,35.6978 74.6295,36.2033 75.1664,36.7178 75.7032,37.2412 
  76.24,37.7735 76.7768,38.3148 77.3136,38.8651 77.8505,39.4243 78.3873,39.9924 78.9241,40.5695 79.4609,41.1555 79.9977,41.7505 80.5346,42.3544 81.0714,42.9673 
  81.6082,43.5891 82.145,44.2199 82.6819,44.8596 83.2187,45.5082 83.7555,46.1659 84.2923,46.8324 84.8291,47.5079 85.366,48.1924 85.9028,48.8858 86.4396,49.5881 
  86.9764,50.2994 87.5132,51.0196 88.0501,51.7488 88.5869,52.4869 89.1237,53.234 89.6605,53.99 90.1973,54.755 90.7342,55.5289 91.271,56.3118 91.8078,57.1036 
  92.3446,57.9044 92.8815,58.7141 93.4183,59.5327 93.9551,60.3603 94.4919,61.1969 95.0287,62.0424 95.5656,62.8968 96.1024,63.7602 96.6392,64.6326 97.176,65.5138 
  97.7128,66.4041 98.2497,67.3032 98.7865,68.2114 99.3233,69.1284 99.8601,70.0545 100.397,70.9894 100.934,71.9333 101.471,72.8862 102.007,73.848 102.544,74.8188 
  103.081,75.7985 103.618,76.7871 104.155,77.7847 104.692,78.7912 105.228,79.8067 105.765,80.8312 106.302,81.8646 106.839,82.9069 107.376,83.9582 107.912,85.0184 
  108.449,86.0876 108.986,87.1657 109.523,88.2527 110.06,89.3488 110.597,90.4537 111.133,91.5676 111.67,92.6905 112.207,93.8223 112.744,94.963 113.281,96.1127 
  113.817,97.2714 114.354,98.439 114.891,99.6155 115.428,100.801 115.965,101.995 116.502,103.199 117.038,104.411 117.575,105.632 118.112,106.863 118.649,108.102 
  119.186,109.35 119.723,110.607 120.259,111.873 120.796,113.148 121.333,114.432 121.87,115.725 122.407,117.026 122.943,118.337 123.48,119.657 124.017,120.986 
  124.554,122.323 125.091,123.67 125.628,125.025 126.164,126.39 126.701,127.763 127.238,129.145 127.775,130.536 128.312,131.937 128.848,133.346 129.385,134.764 
  129.922,136.191 130.459,137.627 130.996,139.072 131.533,140.526 132.069,141.989 132.606,143.46 133.143,144.941 133.68,146.431 134.217,147.93 134.753,149.437 
  135.29,150.954 135.827,152.479 136.364,154.014 136.901,155.557 137.438,157.109 137.974,158.67 138.511,160.241 139.048,161.82 139.585,163.408 140.122,165.005 
  140.659,166.611 141.195,168.226 141.732,169.85 142.269,171.483 142.806,173.124 143.343,174.775 143.879,176.435 144.416,178.103 144.953,179.781 145.49,181.468 
  146.027,183.163 146.564,184.867 147.1,186.581 147.637,188.303 148.174,190.034 148.711,191.775 149.248,193.524 149.784,195.282 150.321,197.049 150.858,198.825 
  151.395,200.61 151.932,202.404 152.469,204.206 153.005,206.018 153.542,207.839 154.079,209.669 154.616,211.507 155.153,213.355 155.69,215.211 156.226,217.077 
  156.763,218.951 157.3,220.835 157.837,222.727 158.374,223.386 158.91,221.872 159.447,220.367 159.984,218.871 160.521,217.383 161.058,215.905 161.595,214.435 
  162.131,212.975 162.668,211.523 163.205,210.08 163.742,208.646 164.279,207.222 164.815,205.806 165.352,204.399 165.889,203.001 166.426,201.612 166.963,200.232 
  167.5,198.861 168.036,197.499 168.573,196.145 169.11,194.801 169.647,193.466 170.184,192.139 170.721,190.822 171.257,189.514 171.794,188.214 172.331,186.923 
  172.868,185.642 173.405,184.369 173.941,183.105 174.478,181.851 175.015,180.605 175.552,179.368 176.089,178.14 176.626,176.921 177.162,175.711 177.699,174.51 
  178.236,173.317 178.773,172.134 179.31,170.96 179.846,169.795 180.383,168.638 180.92,167.491 181.457,166.352 181.994,165.223 182.531,164.102 183.067,162.991 
  183.604,161.888 184.141,160.794 184.678,159.709 185.215,158.633 185.751,157.567 186.288,156.509 186.825,155.46 187.362,154.419 187.899,153.388 188.436,152.366 
  188.972,151.353 189.509,150.349 190.046,149.353 190.583,148.367 191.12,147.389 191.657,146.421 192.193,145.461 192.73,144.511 193.267,143.569 193.804,142.636 
  194.341,141.713 194.877,140.798 195.414,139.892 195.951,138.995 196.488,138.107 197.025,137.228 197.562,136.358 198.098,135.497 198.635,134.645 199.172,133.802 
  199.709,132.967 200.246,132.142 200.782,131.325 201.319,130.518 201.856,129.72 202.393,128.93 202.93,128.149 203.467,127.378 204.003,126.615 204.54,125.861 
  205.077,125.116 205.614,124.381 206.151,123.654 206.688,122.936 207.224,122.227 207.761,121.527 208.298,120.835 208.835,120.153 209.372,119.48 209.908,118.816 
  210.445,118.16 210.982,117.514 211.519,116.876 212.056,116.248 212.593,115.628 213.129,115.018 213.666,114.416 214.203,113.823 214.74,113.24 215.277,112.665 
  215.813,112.099 216.35,111.542 216.887,110.994 217.424,110.455 217.961,109.925 218.498,109.404 219.034,108.892 219.571,108.388 220.108,107.894 220.645,107.409 
  221.182,106.932 221.719,106.465 222.255,106.006 222.792,105.557 223.329,105.116 223.866,104.684 224.403,104.262 224.939,103.848 225.476,103.443 226.013,103.047 
  226.55,102.66 227.087,102.282 227.624,101.913 228.16,101.553 228.697,101.202 229.234,100.86 229.771,100.527 230.308,100.202 230.844,99.8869 231.381,99.5805 
  231.918,99.283 232.455,98.9945 232.992,98.7149 233.529,98.4443 234.065,98.1826 234.602,97.9299 235.139,97.6861 235.676,97.4513 236.213,97.2254 236.749,97.0084 
  237.286,96.8004 237.823,96.6014 238.36,96.4113 238.897,96.2301 239.434,96.0579 239.97,95.8947 240.507,95.7403 241.044,95.595 241.581,95.4586 242.118,95.3311 
  242.655,95.2126 243.191,95.103 243.728,95.0024 244.265,94.9107 244.802,94.8279 245.339,94.7541 245.875,94.6893 246.412,94.6334 246.949,94.5865 247.486,94.5485 
  248.023,94.5194 248.56,94.4993 249.096,94.4881 249.633,94.4859 250.17,94.4927 250.707,94.5083 251.244,94.533 251.78,94.5665 252.317,94.6091 252.854,94.6605 
  253.391,94.7209 253.928,94.7903 254.465,94.8686 255.001,94.9559 255.538,95.0521 256.075,95.1572 256.612,95.2713 257.149,95.3944 257.686,95.5264 258.222,95.6673 
  258.759,95.8172 259.296,95.976 259.833,96.1438 260.37,96.3205 260.906,96.5062 261.443,96.7008 261.98,96.9044 262.517,97.1169 263.054,97.3384 263.591,97.5688 
  264.127,97.8081 264.664,98.0564 265.201,98.3137 265.738,98.5799 266.275,98.855 266.811,99.1391 267.348,99.4322 267.885,99.7342 268.422,100.045 268.959,100.365 
  269.496,100.694 270.032,101.032 270.569,101.378 271.106,101.734 271.643,102.099 272.18,102.472 272.717,102.855 273.253,103.246 273.79,103.647 274.327,104.056 
  274.864,104.474 275.401,104.901 275.937,105.338 276.474,105.783 277.011,106.237 277.548,106.7 278.085,107.172 278.622,107.653 279.158,108.143 279.695,108.641 
  280.232,109.149 280.769,109.666 281.306,110.192 281.842,110.726 282.379,111.27 282.916,111.822 283.453,112.384 283.99,112.954 284.527,113.533 285.063,114.122 
  285.6,114.719 286.137,115.325 286.674,115.94 287.211,116.564 287.747,117.197 288.284,117.839 288.821,118.49 289.358,119.15 289.895,119.819 290.432,120.497 
  290.968,121.183 291.505,121.879 292.042,122.584 292.579,123.297 293.116,124.02 293.653,124.751 294.189,125.492 294.726,126.241 295.263,126.999 295.8,127.766 
  296.337,128.543 296.873,129.328 297.41,130.122 297.947,130.925 298.484,131.737 299.021,132.558 299.558,133.388 300.094,134.226 300.631,135.074 301.168,135.931 
  301.705,136.797 302.242,137.671 302.778,138.555 303.315,139.447 303.852,140.349 304.389,141.259 304.926,142.178 305.463,143.107 305.999,144.044 306.536,144.99 
  307.073,145.945 307.61,146.909 308.147,147.882 308.684,148.864 309.22,149.855 309.757,150.855 310.294,151.864 310.831,152.881 311.368,153.908 311.904,154.944 
  312.441,155.988 312.978,157.042 313.515,158.104 314.052,159.176 314.589,160.256 315.125,161.346 315.662,162.444 316.199,163.551 316.736,164.667 317.273,165.792 
  317.809,166.926 318.346,168.069 318.883,169.221 319.42,170.382 319.957,171.552 320.494,172.731 321.03,173.919 321.567,175.115 322.104,176.321 322.641,177.536 
  323.178,178.759 323.715,179.992 324.251,181.233 324.788,182.483 325.325,183.743 325.862,185.011 326.399,186.288 326.935,187.574 327.472,188.869 328.009,190.174 
  328.546,191.487 329.083,192.808 329.62,194.139 330.156,195.479 330.693,196.828 331.23,198.186 331.767,199.552 332.304,200.928 332.84,202.313 333.377,203.706 
  333.914,205.109 334.451,206.52 334.988,207.94 335.525,209.37 336.061,210.808 336.598,212.255 337.135,213.711 337.672,215.176 338.209,216.65 338.745,218.133 
  339.282,219.625 339.819,221.126 340.356,222.636 340.893,223.764 341.43,222.552 341.966,221.349 342.503,220.155 343.04,218.97 343.577,217.794 344.114,216.627 
  344.651,215.469 345.187,214.32 345.724,213.18 346.261,212.048 346.798,210.926 347.335,209.813 347.871,208.708 348.408,207.613 348.945,206.526 349.482,205.448 
  350.019,204.38 350.556,203.32 351.092,202.269 351.629,201.227 352.166,200.194 352.703,199.17 353.24,198.155 353.776,197.149 354.313,196.152 354.85,195.164 
  355.387,194.185 355.924,193.215 356.461,192.253 356.997,191.301 357.534,190.358 358.071,189.423 358.608,188.498 359.145,187.581 359.682,186.673 360.218,185.775 
  360.755,184.885 361.292,184.004 361.829,183.132 362.366,182.269 362.902,181.415 363.439,180.57 363.976,179.734 364.513,178.907 365.05,178.089 365.587,177.28 
  366.123,176.48 366.66,175.688 367.197,174.906 367.734,174.132 368.271,173.368 368.807,172.612 369.344,171.866 369.881,171.128 370.418,170.4 370.955,169.68 
  371.492,168.969 372.028,168.267 372.565,167.574 373.102,166.89 373.639,166.215 374.176,165.549 374.713,164.892 375.249,164.244 375.786,163.605 376.323,162.974 
  376.86,162.353 377.397,161.741 377.933,161.137 378.47,160.543 379.007,159.957 379.544,159.381 380.081,158.813 380.618,158.254 381.154,157.705 381.691,157.164 
  382.228,156.632 382.765,156.109 383.302,155.595 383.838,155.09 384.375,154.594 384.912,154.107 385.449,153.629 385.986,153.159 386.523,152.699 387.059,152.248 
  387.596,151.805 388.133,151.372 388.67,150.947 389.207,150.532 389.743,150.125 390.28,149.728 390.817,149.339 391.354,148.959 391.891,148.588 392.428,148.226 
  392.964,147.874 393.501,147.53 394.038,147.195 394.575,146.868 395.112,146.551 395.649,146.243 396.185,145.944 396.722,145.654 397.259,145.372 397.796,145.1 
  398.333,144.836 398.869,144.582 399.406,144.336 399.943,144.1 400.48,143.872 401.017,143.653 401.554,143.444 402.09,143.243 402.627,143.051 403.164,142.868 
  403.701,142.694 404.238,142.529 404.774,142.373 405.311,142.226 405.848,142.088 406.385,141.958 406.922,141.838 407.459,141.727 407.995,141.624 408.532,141.531 
  409.069,141.446 409.606,141.371 410.143,141.304 410.68,141.247 411.216,141.198 411.753,141.158 412.29,141.127 412.827,141.105 413.364,141.092 413.9,141.088 
  414.437,141.093 414.974,141.107 415.511,141.13 416.048,141.162 416.585,141.203 417.121,141.252 417.658,141.311 418.195,141.379 418.732,141.455 419.269,141.541 
  419.805,141.635 420.342,141.738 420.879,141.851 421.416,141.972 421.953,142.102 422.49,142.241 423.026,142.39 423.563,142.547 424.1,142.713 424.637,142.888 
  425.174,143.072 425.711,143.264 426.247,143.466 426.784,143.677 427.321,143.897 427.858,144.125 428.395,144.363 428.931,144.609 429.468,144.865 430.005,145.129 
  430.542,145.403 431.079,145.685 431.616,145.976 432.152,146.276 432.689,146.586 433.226,146.904 433.763,147.231 434.3,147.567 434.836,147.912 435.373,148.266 
  435.91,148.628 436.447,149 436.984,149.381 437.521,149.771 438.057,150.169 438.594,150.577 439.131,150.993 439.668,151.419 440.205,151.853 440.741,152.297 
  441.278,152.749 441.815,153.21 442.352,153.68 442.889,154.16 443.426,154.648 443.962,155.145 444.499,155.651 445.036,156.166 445.573,156.69 446.11,157.222 
  446.647,157.764 447.183,158.315 447.72,158.875 448.257,159.443 448.794,160.021 449.331,160.607 449.867,161.203 450.404,161.807 450.941,162.421 451.478,163.043 
  452.015,163.674 452.552,164.314 453.088,164.964 453.625,165.622 454.162,166.289 454.699,166.965 455.236,167.65 455.772,168.343 456.309,169.046 456.846,169.758 
  457.383,170.479 457.92,171.209 458.457,171.947 458.993,172.695 459.53,173.451 460.067,174.217 460.604,174.991 461.141,175.774 461.678,176.567 462.214,177.368 
  462.751,178.178 463.288,178.997 463.825,179.825 464.362,180.662 464.898,181.508 465.435,182.363 465.972,183.227 466.509,184.1 467.046,184.982 467.583,185.873 
  468.119,186.772 468.656,187.681 469.193,188.598 469.73,189.525 470.267,190.46 470.803,191.405 471.34,192.358 471.877,193.32 472.414,194.292 472.951,195.272 
  473.488,196.261 474.024,197.259 474.561,198.266 475.098,199.282 475.635,200.307 476.172,201.341 476.708,202.384 477.245,203.435 477.782,204.496 478.319,205.566 
  478.856,206.644 479.393,207.732 479.929,208.829 480.466,209.934 481.003,211.048 481.54,212.172 482.077,213.304 482.614,214.445 483.15,215.595 483.687,216.755 
  484.224,217.923 484.761,219.1 485.298,220.286 485.834,221.481 486.371,222.684 486.908,223.897 487.445,223 487.982,222.039 488.519,221.087 489.055,220.144 
  489.592,219.21 490.129,218.285 490.666,217.369 491.203,216.461 491.739,215.563 492.276,214.674 492.813,213.793 493.35,212.922 493.887,212.059 494.424,211.206 
  494.96,210.361 495.497,209.525 496.034,208.699 496.571,207.881 497.108,207.072 497.645,206.272 498.181,205.481 498.718,204.699 499.255,203.926 499.792,203.162 
  500.329,202.407 500.865,201.661 501.402,200.923 501.939,200.195 502.476,199.476 503.013,198.765 503.55,198.064 504.086,197.371 504.623,196.688 505.16,196.013 
  505.697,195.347 506.234,194.691 506.77,194.043 507.307,193.404 507.844,192.774 508.381,192.153 508.918,191.541 509.455,190.938 509.991,190.344 510.528,189.759 
  511.065,189.183 511.602,188.615 512.139,188.057 512.676,187.508 513.212,186.967 513.749,186.436 514.286,185.913 514.823,185.4 515.36,184.895 515.896,184.399 
  516.433,183.912 516.97,183.435 517.507,182.966 518.044,182.506 518.581,182.055 519.117,181.613 519.654,181.18 520.191,180.756 520.728,180.34 521.265,179.934 
  521.801,179.537 522.338,179.149 522.875,178.769 523.412,178.399 523.949,178.037 524.486,177.685 525.022,177.341 525.559,177.007 526.096,176.681 526.633,176.364 
  527.17,176.056 527.706,175.757 528.243,175.467 528.78,175.187 529.317,174.914 529.854,174.651 530.391,174.397 530.927,174.152 531.464,173.916 532.001,173.689 
  532.538,173.47 533.075,173.261 533.612,173.06 534.148,172.869 534.685,172.686 535.222,172.513 535.759,172.348 536.296,172.192 536.832,172.046 537.369,171.908 
  537.906,171.779 538.443,171.659 538.98,171.548 539.517,171.446 540.053,171.353 540.59,171.269 541.127,171.194 541.664,171.127 542.201,171.07 542.737,171.022 
  543.274,170.982 543.811,170.952 544.348,170.93 544.885,170.918 545.422,170.914 545.958,170.92 546.495,170.934 547.032,170.957 547.569,170.989 548.106,171.03 
  548.643,171.08 549.179,171.139 549.716,171.207 550.253,171.284 550.79,171.37 551.327,171.465 551.863,171.569 552.4,171.681 552.937,171.803 553.474,171.934 
  554.011,172.073 554.548,172.222 555.084,172.379 555.621,172.546 556.158,172.721 556.695,172.905 557.232,173.098 557.768,173.301 558.305,173.512 558.842,173.732 
  559.379,173.961 559.916,174.199 560.453,174.446 560.989,174.701 561.526,174.966 562.063,175.24 562.6,175.523 563.137,175.814 563.674,176.115 564.21,176.424 
  564.747,176.743 565.284,177.07 565.821,177.407 566.358,177.752 566.894,178.106 567.431,178.47 567.968,178.842 568.505,179.223 569.042,179.613 569.579,180.012 
  570.115,180.42 570.652,180.837 571.189,181.263 571.726,181.697 572.263,182.141 572.799,182.594 573.336,183.055 573.873,183.526 574.41,184.006 574.947,184.494 
  575.484,184.991 576.02,185.498 576.557,186.013 577.094,186.537 577.631,187.071 578.168,187.613 578.704,188.164 579.241,188.724 579.778,189.293 580.315,189.871 
  
  "/>
<polyline clip-path="url(#clip5202)" style="stroke:#e26f46; stroke-width:3; stroke-opacity:1; fill:none" points="
  44.0307,223.938 44.5676,224.534 45.1044,225.129 45.6412,225.725 46.178,226.321 46.7148,226.917 47.2517,227.513 47.7885,228.109 48.3253,228.705 48.8621,229.301 
  49.3989,229.896 49.9358,230.492 50.4726,231.088 51.0094,231.684 51.5462,232.28 52.0831,232.876 52.6199,233.472 53.1567,234.068 53.6935,234.663 54.2303,235.259 
  54.7672,235.855 55.304,236.451 55.8408,237.047 56.3776,237.643 56.9144,238.239 57.4513,238.835 57.9881,239.43 58.5249,240.026 59.0617,240.622 59.5985,241.218 
  60.1354,241.814 60.6722,242.41 61.209,243.006 61.7458,243.602 62.2827,244.197 62.8195,244.793 63.3563,245.389 63.8931,245.985 64.4299,246.581 64.9668,247.177 
  65.5036,247.773 66.0404,248.369 66.5772,248.964 67.114,249.56 67.6509,250.156 68.1877,250.752 68.7245,251.348 69.2613,251.944 69.7981,252.54 70.335,253.136 
  70.8718,253.731 71.4086,254.327 71.9454,254.923 72.4823,255.519 73.0191,256.115 73.5559,256.711 74.0927,257.307 74.6295,257.902 75.1664,258.498 75.7032,259.094 
  76.24,259.69 76.7768,260.286 77.3136,260.882 77.8505,261.478 78.3873,262.074 78.9241,262.669 79.4609,263.265 79.9977,263.861 80.5346,264.457 81.0714,265.053 
  81.6082,265.649 82.145,266.245 82.6819,266.841 83.2187,267.436 83.7555,268.032 84.2923,268.628 84.8291,269.224 85.366,269.82 85.9028,270.416 86.4396,271.012 
  86.9764,271.608 87.5132,272.203 88.0501,272.799 88.5869,273.395 89.1237,273.991 89.6605,274.587 90.1973,275.183 90.7342,275.779 91.271,276.375 91.8078,276.97 
  92.3446,277.566 92.8815,278.162 93.4183,278.758 93.9551,279.354 94.4919,279.95 95.0287,280.546 95.5656,281.142 96.1024,281.737 96.6392,282.333 97.176,282.929 
  97.7128,283.525 98.2497,284.121 98.7865,284.717 99.3233,285.313 99.8601,285.909 100.397,286.504 100.934,287.1 101.471,287.696 102.007,288.292 102.544,288.888 
  103.081,289.484 103.618,290.08 104.155,290.676 104.692,291.271 105.228,291.867 105.765,292.463 106.302,293.059 106.839,293.655 107.376,294.251 107.912,294.847 
  108.449,295.442 108.986,296.038 109.523,296.634 110.06,297.23 110.597,297.826 111.133,298.422 111.67,299.018 112.207,299.614 112.744,300.209 113.281,300.805 
  113.817,301.401 114.354,301.997 114.891,302.593 115.428,303.189 115.965,303.785 116.502,304.381 117.038,304.976 117.575,305.572 118.112,306.168 118.649,306.764 
  119.186,307.36 119.723,307.956 120.259,308.552 120.796,309.148 121.333,309.743 121.87,310.339 122.407,310.935 122.943,311.531 123.48,312.127 124.017,312.723 
  124.554,313.319 125.091,313.915 125.628,314.51 126.164,315.106 126.701,315.702 127.238,316.298 127.775,316.894 128.312,317.49 128.848,318.086 129.385,318.682 
  129.922,319.277 130.459,319.873 130.996,320.469 131.533,321.065 132.069,321.661 132.606,322.257 133.143,322.853 133.68,323.449 134.217,324.044 134.753,324.64 
  135.29,325.236 135.827,325.832 136.364,326.428 136.901,327.024 137.438,327.62 137.974,328.216 138.511,328.811 139.048,329.407 139.585,330.003 140.122,330.599 
  140.659,331.195 141.195,331.791 141.732,332.387 142.269,332.983 142.806,333.578 143.343,334.174 143.879,334.77 144.416,335.366 144.953,335.962 145.49,336.558 
  146.027,337.154 146.564,337.749 147.1,338.345 147.637,338.941 148.174,339.537 148.711,340.133 149.248,340.729 149.784,341.325 150.321,341.921 150.858,342.516 
  151.395,343.112 151.932,343.708 152.469,344.304 153.005,344.9 153.542,345.496 154.079,346.092 154.616,346.688 155.153,347.283 155.69,347.879 156.226,348.475 
  156.763,349.071 157.3,349.667 157.837,350.263 158.374,122.79 158.91,123.386 159.447,123.982 159.984,124.577 160.521,125.173 161.058,125.769 161.595,126.365 
  162.131,126.961 162.668,127.557 163.205,128.153 163.742,128.749 164.279,129.344 164.815,129.94 165.352,130.536 165.889,131.132 166.426,131.728 166.963,132.324 
  167.5,132.92 168.036,133.516 168.573,134.111 169.11,134.707 169.647,135.303 170.184,135.899 170.721,136.495 171.257,137.091 171.794,137.687 172.331,138.283 
  172.868,138.878 173.405,139.474 173.941,140.07 174.478,140.666 175.015,141.262 175.552,141.858 176.089,142.454 176.626,143.049 177.162,143.645 177.699,144.241 
  178.236,144.837 178.773,145.433 179.31,146.029 179.846,146.625 180.383,147.221 180.92,147.816 181.457,148.412 181.994,149.008 182.531,149.604 183.067,150.2 
  183.604,150.796 184.141,151.392 184.678,151.988 185.215,152.583 185.751,153.179 186.288,153.775 186.825,154.371 187.362,154.967 187.899,155.563 188.436,156.159 
  188.972,156.755 189.509,157.35 190.046,157.946 190.583,158.542 191.12,159.138 191.657,159.734 192.193,160.33 192.73,160.926 193.267,161.522 193.804,162.117 
  194.341,162.713 194.877,163.309 195.414,163.905 195.951,164.501 196.488,165.097 197.025,165.693 197.562,166.289 198.098,166.884 198.635,167.48 199.172,168.076 
  199.709,168.672 200.246,169.268 200.782,169.864 201.319,170.46 201.856,171.056 202.393,171.651 202.93,172.247 203.467,172.843 204.003,173.439 204.54,174.035 
  205.077,174.631 205.614,175.227 206.151,175.823 206.688,176.418 207.224,177.014 207.761,177.61 208.298,178.206 208.835,178.802 209.372,179.398 209.908,179.994 
  210.445,180.59 210.982,181.185 211.519,181.781 212.056,182.377 212.593,182.973 213.129,183.569 213.666,184.165 214.203,184.761 214.74,185.356 215.277,185.952 
  215.813,186.548 216.35,187.144 216.887,187.74 217.424,188.336 217.961,188.932 218.498,189.528 219.034,190.123 219.571,190.719 220.108,191.315 220.645,191.911 
  221.182,192.507 221.719,193.103 222.255,193.699 222.792,194.295 223.329,194.89 223.866,195.486 224.403,196.082 224.939,196.678 225.476,197.274 226.013,197.87 
  226.55,198.466 227.087,199.062 227.624,199.657 228.16,200.253 228.697,200.849 229.234,201.445 229.771,202.041 230.308,202.637 230.844,203.233 231.381,203.829 
  231.918,204.424 232.455,205.02 232.992,205.616 233.529,206.212 234.065,206.808 234.602,207.404 235.139,208 235.676,208.596 236.213,209.191 236.749,209.787 
  237.286,210.383 237.823,210.979 238.36,211.575 238.897,212.171 239.434,212.767 239.97,213.363 240.507,213.958 241.044,214.554 241.581,215.15 242.118,215.746 
  242.655,216.342 243.191,216.938 243.728,217.534 244.265,218.13 244.802,218.725 245.339,219.321 245.875,219.917 246.412,220.513 246.949,221.109 247.486,221.705 
  248.023,222.301 248.56,222.896 249.096,223.492 249.633,224.088 250.17,224.684 250.707,225.28 251.244,225.876 251.78,226.472 252.317,227.068 252.854,227.663 
  253.391,228.259 253.928,228.855 254.465,229.451 255.001,230.047 255.538,230.643 256.075,231.239 256.612,231.835 257.149,232.43 257.686,233.026 258.222,233.622 
  258.759,234.218 259.296,234.814 259.833,235.41 260.37,236.006 260.906,236.602 261.443,237.197 261.98,237.793 262.517,238.389 263.054,238.985 263.591,239.581 
  264.127,240.177 264.664,240.773 265.201,241.369 265.738,241.964 266.275,242.56 266.811,243.156 267.348,243.752 267.885,244.348 268.422,244.944 268.959,245.54 
  269.496,246.136 270.032,246.731 270.569,247.327 271.106,247.923 271.643,248.519 272.18,249.115 272.717,249.711 273.253,250.307 273.79,250.903 274.327,251.498 
  274.864,252.094 275.401,252.69 275.937,253.286 276.474,253.882 277.011,254.478 277.548,255.074 278.085,255.67 278.622,256.265 279.158,256.861 279.695,257.457 
  280.232,258.053 280.769,258.649 281.306,259.245 281.842,259.841 282.379,260.437 282.916,261.032 283.453,261.628 283.99,262.224 284.527,262.82 285.063,263.416 
  285.6,264.012 286.137,264.608 286.674,265.203 287.211,265.799 287.747,266.395 288.284,266.991 288.821,267.587 289.358,268.183 289.895,268.779 290.432,269.375 
  290.968,269.97 291.505,270.566 292.042,271.162 292.579,271.758 293.116,272.354 293.653,272.95 294.189,273.546 294.726,274.142 295.263,274.737 295.8,275.333 
  296.337,275.929 296.873,276.525 297.41,277.121 297.947,277.717 298.484,278.313 299.021,278.909 299.558,279.504 300.094,280.1 300.631,280.696 301.168,281.292 
  301.705,281.888 302.242,282.484 302.778,283.08 303.315,283.676 303.852,284.271 304.389,284.867 304.926,285.463 305.463,286.059 305.999,286.655 306.536,287.251 
  307.073,287.847 307.61,288.443 308.147,289.038 308.684,289.634 309.22,290.23 309.757,290.826 310.294,291.422 310.831,292.018 311.368,292.614 311.904,293.21 
  312.441,293.805 312.978,294.401 313.515,294.997 314.052,295.593 314.589,296.189 315.125,296.785 315.662,297.381 316.199,297.977 316.736,298.572 317.273,299.168 
  317.809,299.764 318.346,300.36 318.883,300.956 319.42,301.552 319.957,302.148 320.494,302.744 321.03,303.339 321.567,303.935 322.104,304.531 322.641,305.127 
  323.178,305.723 323.715,306.319 324.251,306.915 324.788,307.51 325.325,308.106 325.862,308.702 326.399,309.298 326.935,309.894 327.472,310.49 328.009,311.086 
  328.546,311.682 329.083,312.277 329.62,312.873 330.156,313.469 330.693,314.065 331.23,314.661 331.767,315.257 332.304,315.853 332.84,316.449 333.377,317.044 
  333.914,317.64 334.451,318.236 334.988,318.832 335.525,319.428 336.061,320.024 336.598,320.62 337.135,321.216 337.672,321.811 338.209,322.407 338.745,323.003 
  339.282,323.599 339.819,324.195 340.356,324.791 340.893,142.932 341.43,143.527 341.966,144.123 342.503,144.719 343.04,145.315 343.577,145.911 344.114,146.507 
  344.651,147.103 345.187,147.699 345.724,148.294 346.261,148.89 346.798,149.486 347.335,150.082 347.871,150.678 348.408,151.274 348.945,151.87 349.482,152.466 
  350.019,153.061 350.556,153.657 351.092,154.253 351.629,154.849 352.166,155.445 352.703,156.041 353.24,156.637 353.776,157.233 354.313,157.828 354.85,158.424 
  355.387,159.02 355.924,159.616 356.461,160.212 356.997,160.808 357.534,161.404 358.071,162 358.608,162.595 359.145,163.191 359.682,163.787 360.218,164.383 
  360.755,164.979 361.292,165.575 361.829,166.171 362.366,166.766 362.902,167.362 363.439,167.958 363.976,168.554 364.513,169.15 365.05,169.746 365.587,170.342 
  366.123,170.938 366.66,171.533 367.197,172.129 367.734,172.725 368.271,173.321 368.807,173.917 369.344,174.513 369.881,175.109 370.418,175.705 370.955,176.3 
  371.492,176.896 372.028,177.492 372.565,178.088 373.102,178.684 373.639,179.28 374.176,179.876 374.713,180.472 375.249,181.067 375.786,181.663 376.323,182.259 
  376.86,182.855 377.397,183.451 377.933,184.047 378.47,184.643 379.007,185.239 379.544,185.834 380.081,186.43 380.618,187.026 381.154,187.622 381.691,188.218 
  382.228,188.814 382.765,189.41 383.302,190.006 383.838,190.601 384.375,191.197 384.912,191.793 385.449,192.389 385.986,192.985 386.523,193.581 387.059,194.177 
  387.596,194.773 388.133,195.368 388.67,195.964 389.207,196.56 389.743,197.156 390.28,197.752 390.817,198.348 391.354,198.944 391.891,199.54 392.428,200.135 
  392.964,200.731 393.501,201.327 394.038,201.923 394.575,202.519 395.112,203.115 395.649,203.711 396.185,204.307 396.722,204.902 397.259,205.498 397.796,206.094 
  398.333,206.69 398.869,207.286 399.406,207.882 399.943,208.478 400.48,209.073 401.017,209.669 401.554,210.265 402.09,210.861 402.627,211.457 403.164,212.053 
  403.701,212.649 404.238,213.245 404.774,213.84 405.311,214.436 405.848,215.032 406.385,215.628 406.922,216.224 407.459,216.82 407.995,217.416 408.532,218.012 
  409.069,218.607 409.606,219.203 410.143,219.799 410.68,220.395 411.216,220.991 411.753,221.587 412.29,222.183 412.827,222.779 413.364,223.374 413.9,223.97 
  414.437,224.566 414.974,225.162 415.511,225.758 416.048,226.354 416.585,226.95 417.121,227.546 417.658,228.141 418.195,228.737 418.732,229.333 419.269,229.929 
  419.805,230.525 420.342,231.121 420.879,231.717 421.416,232.313 421.953,232.908 422.49,233.504 423.026,234.1 423.563,234.696 424.1,235.292 424.637,235.888 
  425.174,236.484 425.711,237.08 426.247,237.675 426.784,238.271 427.321,238.867 427.858,239.463 428.395,240.059 428.931,240.655 429.468,241.251 430.005,241.847 
  430.542,242.442 431.079,243.038 431.616,243.634 432.152,244.23 432.689,244.826 433.226,245.422 433.763,246.018 434.3,246.613 434.836,247.209 435.373,247.805 
  435.91,248.401 436.447,248.997 436.984,249.593 437.521,250.189 438.057,250.785 438.594,251.38 439.131,251.976 439.668,252.572 440.205,253.168 440.741,253.764 
  441.278,254.36 441.815,254.956 442.352,255.552 442.889,256.147 443.426,256.743 443.962,257.339 444.499,257.935 445.036,258.531 445.573,259.127 446.11,259.723 
  446.647,260.319 447.183,260.914 447.72,261.51 448.257,262.106 448.794,262.702 449.331,263.298 449.867,263.894 450.404,264.49 450.941,265.086 451.478,265.681 
  452.015,266.277 452.552,266.873 453.088,267.469 453.625,268.065 454.162,268.661 454.699,269.257 455.236,269.853 455.772,270.448 456.309,271.044 456.846,271.64 
  457.383,272.236 457.92,272.832 458.457,273.428 458.993,274.024 459.53,274.62 460.067,275.215 460.604,275.811 461.141,276.407 461.678,277.003 462.214,277.599 
  462.751,278.195 463.288,278.791 463.825,279.387 464.362,279.982 464.898,280.578 465.435,281.174 465.972,281.77 466.509,282.366 467.046,282.962 467.583,283.558 
  468.119,284.154 468.656,284.749 469.193,285.345 469.73,285.941 470.267,286.537 470.803,287.133 471.34,287.729 471.877,288.325 472.414,288.92 472.951,289.516 
  473.488,290.112 474.024,290.708 474.561,291.304 475.098,291.9 475.635,292.496 476.172,293.092 476.708,293.687 477.245,294.283 477.782,294.879 478.319,295.475 
  478.856,296.071 479.393,296.667 479.929,297.263 480.466,297.859 481.003,298.454 481.54,299.05 482.077,299.646 482.614,300.242 483.15,300.838 483.687,301.434 
  484.224,302.03 484.761,302.626 485.298,303.221 485.834,303.817 486.371,304.413 486.908,305.009 487.445,159.641 487.982,160.237 488.519,160.833 489.055,161.428 
  489.592,162.024 490.129,162.62 490.666,163.216 491.203,163.812 491.739,164.408 492.276,165.004 492.813,165.6 493.35,166.195 493.887,166.791 494.424,167.387 
  494.96,167.983 495.497,168.579 496.034,169.175 496.571,169.771 497.108,170.367 497.645,170.962 498.181,171.558 498.718,172.154 499.255,172.75 499.792,173.346 
  500.329,173.942 500.865,174.538 501.402,175.134 501.939,175.729 502.476,176.325 503.013,176.921 503.55,177.517 504.086,178.113 504.623,178.709 505.16,179.305 
  505.697,179.901 506.234,180.496 506.77,181.092 507.307,181.688 507.844,182.284 508.381,182.88 508.918,183.476 509.455,184.072 509.991,184.668 510.528,185.263 
  511.065,185.859 511.602,186.455 512.139,187.051 512.676,187.647 513.212,188.243 513.749,188.839 514.286,189.435 514.823,190.03 515.36,190.626 515.896,191.222 
  516.433,191.818 516.97,192.414 517.507,193.01 518.044,193.606 518.581,194.201 519.117,194.797 519.654,195.393 520.191,195.989 520.728,196.585 521.265,197.181 
  521.801,197.777 522.338,198.373 522.875,198.968 523.412,199.564 523.949,200.16 524.486,200.756 525.022,201.352 525.559,201.948 526.096,202.544 526.633,203.14 
  527.17,203.735 527.706,204.331 528.243,204.927 528.78,205.523 529.317,206.119 529.854,206.715 530.391,207.311 530.927,207.907 531.464,208.502 532.001,209.098 
  532.538,209.694 533.075,210.29 533.612,210.886 534.148,211.482 534.685,212.078 535.222,212.674 535.759,213.269 536.296,213.865 536.832,214.461 537.369,215.057 
  537.906,215.653 538.443,216.249 538.98,216.845 539.517,217.441 540.053,218.036 540.59,218.632 541.127,219.228 541.664,219.824 542.201,220.42 542.737,221.016 
  543.274,221.612 543.811,222.208 544.348,222.803 544.885,223.399 545.422,223.995 545.958,224.591 546.495,225.187 547.032,225.783 547.569,226.379 548.106,226.975 
  548.643,227.57 549.179,228.166 549.716,228.762 550.253,229.358 550.79,229.954 551.327,230.55 551.863,231.146 552.4,231.742 552.937,232.337 553.474,232.933 
  554.011,233.529 554.548,234.125 555.084,234.721 555.621,235.317 556.158,235.913 556.695,236.508 557.232,237.104 557.768,237.7 558.305,238.296 558.842,238.892 
  559.379,239.488 559.916,240.084 560.453,240.68 560.989,241.275 561.526,241.871 562.063,242.467 562.6,243.063 563.137,243.659 563.674,244.255 564.21,244.851 
  564.747,245.447 565.284,246.042 565.821,246.638 566.358,247.234 566.894,247.83 567.431,248.426 567.968,249.022 568.505,249.618 569.042,250.214 569.579,250.809 
  570.115,251.405 570.652,252.001 571.189,252.597 571.726,253.193 572.263,253.789 572.799,254.385 573.336,254.981 573.873,255.576 574.41,256.172 574.947,256.768 
  575.484,257.364 576.02,257.96 576.557,258.556 577.094,259.152 577.631,259.748 578.168,260.343 578.704,260.939 579.241,261.535 579.778,262.131 580.315,262.727 
  
  "/>
<polygon clip-path="url(#clip5200)" points="
477.574,78.051 562.315,78.051 562.315,32.691 477.574,32.691 
  " fill="#ffffff" fill-opacity="1"/>
<polyline clip-path="url(#clip5200)" style="stroke:#000000; stroke-width:1; stroke-opacity:1; fill:none" points="
  477.574,78.051 562.315,78.051 562.315,32.691 477.574,32.691 477.574,78.051 
  "/>
<polyline clip-path="url(#clip5200)" style="stroke:#009af9; stroke-width:3; stroke-opacity:1; fill:none" points="
  483.574,47.811 519.574,47.811 
  "/>
<g clip-path="url(#clip5200)">
<text style="fill:#000000; fill-opacity:1; font-family:Arial,Helvetica Neue,Helvetica,sans-serif; font-size:12; text-anchor:start;" transform="rotate(0, 525.574, 52.311)" x="525.574" y="52.311">u1(t)</text>
</g>
<polyline clip-path="url(#clip5200)" style="stroke:#e26f46; stroke-width:3; stroke-opacity:1; fill:none" points="
  483.574,62.931 519.574,62.931 
  "/>
<g clip-path="url(#clip5200)">
<text style="fill:#000000; fill-opacity:1; font-family:Arial,Helvetica Neue,Helvetica,sans-serif; font-size:12; text-anchor:start;" transform="rotate(0, 525.574, 67.431)" x="525.574" y="67.431">u2(t)</text>
</g>
</svg>
