<?xml version="1.0" encoding="utf-8"?>
<svg xmlns="http://www.w3.org/2000/svg" xmlns:xlink="http://www.w3.org/1999/xlink" width="600" height="400" viewBox="0 0 600 400">
<defs>
  <clipPath id="clip6200">
    <rect x="0" y="0" width="600" height="400"/>
  </clipPath>
</defs>
<polygon clip-path="url(#clip6200)" points="
0,400 600,400 600,0 0,0 
  " fill="#ffffff" fill-opacity="1"/>
<defs>
  <clipPath id="clip6201">
    <rect x="120" y="0" width="421" height="400"/>
  </clipPath>
</defs>
<polygon clip-path="url(#clip6200)" points="
49.5379,360.121 580.315,360.121 580.315,11.811 49.5379,11.811 
  " fill="#ffffff" fill-opacity="1"/>
<defs>
  <clipPath id="clip6202">
    <rect x="49" y="11" width="532" height="349"/>
  </clipPath>
</defs>
<polyline clip-path="url(#clip6202)" style="stroke:#000000; stroke-width:0.5; stroke-opacity:0.1; fill:none" points="
  49.5379,360.121 49.5379,11.811 
  "/>
<polyline clip-path="url(#clip6202)" style="stroke:#000000; stroke-width:0.5; stroke-opacity:0.1; fill:none" points="
  226.464,360.121 226.464,11.811 
  "/>
<polyline clip-path="url(#clip6202)" style="stroke:#000000; stroke-width:0.5; stroke-opacity:0.1; fill:none" points="
  403.389,360.121 403.389,11.811 
  "/>
<polyline clip-path="url(#clip6202)" style="stroke:#000000; stroke-width:0.5; stroke-opacity:0.1; fill:none" points="
  580.315,360.121 580.315,11.811 
  "/>
<polyline clip-path="url(#clip6202)" style="stroke:#000000; stroke-width:0.5; stroke-opacity:0.1; fill:none" points="
  49.5379,343.196 580.315,343.196 
  "/>
<polyline clip-path="url(#clip6202)" style="stroke:#000000; stroke-width:0.5; stroke-opacity:0.1; fill:none" points="
  49.5379,264.295 580.315,264.295 
  "/>
<polyline clip-path="url(#clip6202)" style="stroke:#000000; stroke-width:0.5; stroke-opacity:0.1; fill:none" points="
  49.5379,185.394 580.315,185.394 
  "/>
<polyline clip-path="url(#clip6202)" style="stroke:#000000; stroke-width:0.5; stroke-opacity:0.1; fill:none" points="
  49.5379,106.493 580.315,106.493 
  "/>
<polyline clip-path="url(#clip6202)" style="stroke:#000000; stroke-width:0.5; stroke-opacity:0.1; fill:none" points="
  49.5379,27.5913 580.315,27.5913 
  "/>
<polyline clip-path="url(#clip6200)" style="stroke:#000000; stroke-width:1; stroke-opacity:1; fill:none" points="
  49.5379,360.121 580.315,360.121 
  "/>
<polyline clip-path="url(#clip6200)" style="stroke:#000000; stroke-width:1; stroke-opacity:1; fill:none" points="
  49.5379,360.121 49.5379,11.811 
  "/>
<polyline clip-path="url(#clip6200)" style="stroke:#000000; stroke-width:1; stroke-opacity:1; fill:none" points="
  49.5379,360.121 49.5379,354.896 
  "/>
<polyline clip-path="url(#clip6200)" style="stroke:#000000; stroke-width:1; stroke-opacity:1; fill:none" points="
  226.464,360.121 226.464,354.896 
  "/>
<polyline clip-path="url(#clip6200)" style="stroke:#000000; stroke-width:1; stroke-opacity:1; fill:none" points="
  403.389,360.121 403.389,354.896 
  "/>
<polyline clip-path="url(#clip6200)" style="stroke:#000000; stroke-width:1; stroke-opacity:1; fill:none" points="
  580.315,360.121 580.315,354.896 
  "/>
<polyline clip-path="url(#clip6200)" style="stroke:#000000; stroke-width:1; stroke-opacity:1; fill:none" points="
  49.5379,343.196 57.4995,343.196 
  "/>
<polyline clip-path="url(#clip6200)" style="stroke:#000000; stroke-width:1; stroke-opacity:1; fill:none" points="
  49.5379,264.295 57.4995,264.295 
  "/>
<polyline clip-path="url(#clip6200)" style="stroke:#000000; stroke-width:1; stroke-opacity:1; fill:none" points="
  49.5379,185.394 57.4995,185.394 
  "/>
<polyline clip-path="url(#clip6200)" style="stroke:#000000; stroke-width:1; stroke-opacity:1; fill:none" points="
  49.5379,106.493 57.4995,106.493 
  "/>
<polyline clip-path="url(#clip6200)" style="stroke:#000000; stroke-width:1; stroke-opacity:1; fill:none" points="
  49.5379,27.5913 57.4995,27.5913 
  "/>
<g clip-path="url(#clip6200)">
<text style="fill:#000000; fill-opacity:1; font-family:Arial,Helvetica Neue,Helvetica,sans-serif; font-size:12; text-anchor:middle;" transform="rotate(0, 49.5379, 373.921)" x="49.5379" y="373.921">0</text>
</g>
<g clip-path="url(#clip6200)">
<text style="fill:#000000; fill-opacity:1; font-family:Arial,Helvetica Neue,Helvetica,sans-serif; font-size:12; text-anchor:middle;" transform="rotate(0, 226.464, 373.921)" x="226.464" y="373.921">5</text>
</g>
<g clip-path="url(#clip6200)">
<text style="fill:#000000; fill-opacity:1; font-family:Arial,Helvetica Neue,Helvetica,sans-serif; font-size:12; text-anchor:middle;" transform="rotate(0, 403.389, 373.921)" x="403.389" y="373.921">10</text>
</g>
<g clip-path="url(#clip6200)">
<text style="fill:#000000; fill-opacity:1; font-family:Arial,Helvetica Neue,Helvetica,sans-serif; font-size:12; text-anchor:middle;" transform="rotate(0, 580.315, 373.921)" x="580.315" y="373.921">15</text>
</g>
<g clip-path="url(#clip6200)">
<text style="fill:#000000; fill-opacity:1; font-family:Arial,Helvetica Neue,Helvetica,sans-serif; font-size:12; text-anchor:end;" transform="rotate(0, 43.5379, 347.696)" x="43.5379" y="347.696">-1000</text>
</g>
<g clip-path="url(#clip6200)">
<text style="fill:#000000; fill-opacity:1; font-family:Arial,Helvetica Neue,Helvetica,sans-serif; font-size:12; text-anchor:end;" transform="rotate(0, 43.5379, 268.795)" x="43.5379" y="268.795">-750</text>
</g>
<g clip-path="url(#clip6200)">
<text style="fill:#000000; fill-opacity:1; font-family:Arial,Helvetica Neue,Helvetica,sans-serif; font-size:12; text-anchor:end;" transform="rotate(0, 43.5379, 189.894)" x="43.5379" y="189.894">-500</text>
</g>
<g clip-path="url(#clip6200)">
<text style="fill:#000000; fill-opacity:1; font-family:Arial,Helvetica Neue,Helvetica,sans-serif; font-size:12; text-anchor:end;" transform="rotate(0, 43.5379, 110.993)" x="43.5379" y="110.993">-250</text>
</g>
<g clip-path="url(#clip6200)">
<text style="fill:#000000; fill-opacity:1; font-family:Arial,Helvetica Neue,Helvetica,sans-serif; font-size:12; text-anchor:end;" transform="rotate(0, 43.5379, 32.0913)" x="43.5379" y="32.0913">0</text>
</g>
<g clip-path="url(#clip6200)">
<text style="fill:#000000; fill-opacity:1; font-family:Arial,Helvetica Neue,Helvetica,sans-serif; font-size:16; text-anchor:middle;" transform="rotate(0, 314.926, 397.6)" x="314.926" y="397.6">t</text>
</g>
<polyline clip-path="url(#clip6202)" style="stroke:#009af9; stroke-width:3; stroke-opacity:1; fill:none" points="
  49.5379,11.811 50.0692,11.8114 50.6005,11.8124 51.1318,11.8142 51.6631,11.8166 52.1944,11.8197 52.7257,11.8236 53.2571,11.8281 53.7884,11.8334 54.3197,11.8393 
  54.851,11.8459 55.3823,11.8533 55.9136,11.8613 56.4449,11.87 56.9762,11.8794 57.5075,11.8896 58.0388,11.9004 58.5701,11.9119 59.1014,11.9241 59.6328,11.937 
  60.1641,11.9506 60.6954,11.9649 61.2267,11.9799 61.758,11.9956 62.2893,12.0121 62.8206,12.0292 63.3519,12.047 63.8832,12.0654 64.4145,12.0846 64.9458,12.1045 
  65.4771,12.1251 66.0085,12.1464 66.5398,12.1684 67.0711,12.1911 67.6024,12.2145 68.1337,12.2386 68.665,12.2633 69.1963,12.2888 69.7276,12.315 70.2589,12.3419 
  70.7902,12.3694 71.3215,12.3977 71.8528,12.4267 72.3842,12.4563 72.9155,12.4867 73.4468,12.5178 73.9781,12.5495 74.5094,12.582 75.0407,12.6151 75.572,12.649 
  76.1033,12.6835 76.6346,12.7188 77.1659,12.7547 77.6972,12.7914 78.2285,12.8287 78.7599,12.8668 79.2912,12.9055 79.8225,12.9449 80.3538,12.9851 80.8851,13.0259 
  81.4164,13.0674 81.9477,13.1097 82.479,13.1526 83.0103,13.1962 83.5416,13.2406 84.0729,13.2856 84.6042,13.3313 85.1356,13.3777 85.6669,13.4248 86.1982,13.4726 
  86.7295,13.5212 87.2608,13.5704 87.7921,13.6203 88.3234,13.6709 88.8547,13.7222 89.386,13.7742 89.9173,13.8269 90.4486,13.8803 90.9799,13.9344 91.5113,13.9892 
  92.0426,14.0447 92.5739,14.1009 93.1052,14.1577 93.6365,14.2153 94.1678,14.2736 94.6991,14.3326 95.2304,14.3923 95.7617,14.4527 96.293,14.5137 96.8243,14.5755 
  97.3556,14.638 97.887,14.7012 98.4183,14.765 98.9496,14.8296 99.4809,14.8949 100.012,14.9608 100.543,15.0275 101.075,15.0948 101.606,15.1629 102.137,15.2316 
  102.669,15.3011 103.2,15.3712 103.731,15.4421 104.263,15.5136 104.794,15.5859 105.325,15.6588 105.857,15.7325 106.388,15.8068 106.919,15.8818 107.451,15.9576 
  107.982,16.034 108.513,16.1111 109.044,16.189 109.576,16.2675 110.107,16.3467 110.638,16.4266 111.17,16.5073 111.701,16.5886 112.232,16.6706 112.764,16.7533 
  113.295,16.8367 113.826,16.9208 114.358,17.0056 114.889,17.0912 115.42,17.1774 115.951,17.2643 116.483,17.3519 117.014,17.4402 117.545,17.5292 118.077,17.6189 
  118.608,17.7092 119.139,17.8003 119.671,17.8921 120.202,17.9846 120.733,18.0778 121.265,18.1717 121.796,18.2663 122.327,18.3615 122.858,18.4575 123.39,18.5542 
  123.921,18.6516 124.452,18.7496 124.984,18.8484 125.515,18.9479 126.046,19.048 126.578,19.1489 127.109,19.2505 127.64,19.3527 128.172,19.4557 128.703,19.5593 
  129.234,19.6637 129.765,19.7687 130.297,19.8745 130.828,19.9809 131.359,20.0881 131.891,20.1959 132.422,20.3045 132.953,20.4137 133.485,20.5236 134.016,20.6343 
  134.547,20.7456 135.079,20.8576 135.61,20.9704 136.141,21.0838 136.672,21.1979 137.204,21.3127 137.735,21.4283 138.266,21.5445 138.798,21.6614 139.329,21.779 
  139.86,21.8973 140.392,22.0163 140.923,22.1361 141.454,22.2565 141.986,22.3776 142.517,22.4994 143.048,22.6219 143.579,22.7451 144.111,22.869 144.642,22.9936 
  145.173,23.1189 145.705,23.2449 146.236,23.3715 146.767,23.4989 147.299,23.627 147.83,23.7558 148.361,23.8853 148.893,24.0155 149.424,24.1463 149.955,24.2779 
  150.486,24.4102 151.018,24.5432 151.549,24.6768 152.08,24.8112 152.612,24.9463 153.143,25.082 153.674,25.2185 154.206,25.3556 154.737,25.4935 155.268,25.6321 
  155.8,25.7713 156.331,25.9113 156.862,26.0519 157.393,26.1933 157.925,26.3353 158.456,26.4781 158.987,26.6215 159.519,26.7656 160.05,26.9105 160.581,27.056 
  161.113,27.2022 161.644,27.3492 162.175,27.4968 162.707,27.6451 163.238,27.7942 163.769,27.9439 164.301,28.0943 164.832,28.2454 165.363,28.3972 165.894,28.5498 
  166.426,28.703 166.957,28.8569 167.488,29.0115 168.02,29.1668 168.551,29.3228 169.082,29.4795 169.614,29.6369 170.145,29.795 170.676,29.9538 171.208,30.1133 
  171.739,30.2735 172.27,30.4344 172.801,30.596 173.333,30.7583 173.864,30.9213 174.395,31.085 174.927,31.2493 175.458,31.4144 175.989,31.5802 176.521,31.7467 
  177.052,31.9138 177.583,32.0817 178.115,32.2503 178.646,32.4196 179.177,32.5895 179.708,32.7602 180.24,32.9315 180.771,33.1036 181.302,33.2764 181.834,33.4498 
  182.365,33.624 182.896,33.7988 183.428,33.9744 183.959,34.1506 184.49,34.3276 185.022,34.5052 185.553,34.6836 186.084,34.8626 186.615,35.0423 187.147,35.2228 
  187.678,35.4039 188.209,35.5857 188.741,35.7683 189.272,35.9515 189.803,36.1354 190.335,36.3201 190.866,36.5054 191.397,36.6914 191.929,36.8781 192.46,37.0655 
  192.991,37.2537 193.522,37.4425 194.054,37.632 194.585,37.8222 195.116,38.0131 195.648,38.2047 196.179,38.397 196.71,38.59 197.242,38.7837 197.773,38.9781 
  198.304,39.1732 198.836,39.369 199.367,39.5655 199.898,39.7627 200.429,39.9606 200.961,40.1591 201.492,40.3584 202.023,40.5584 202.555,40.7591 203.086,40.9605 
  203.617,41.1625 204.149,41.3653 204.68,41.5688 205.211,41.773 205.743,41.9778 206.274,42.1834 206.805,42.3896 207.336,42.5966 207.868,42.8043 208.399,43.0126 
  208.93,43.2217 209.462,43.4314 209.993,43.6419 210.524,43.853 211.056,44.0649 211.587,44.2774 212.118,44.4907 212.65,44.7046 213.181,44.9193 213.712,45.1346 
  214.243,45.3506 214.775,45.5674 215.306,45.7848 215.837,46.0029 216.369,46.2217 216.9,46.4413 217.431,46.6615 217.963,46.8824 218.494,47.104 219.025,47.3264 
  219.557,47.5494 220.088,47.7731 220.619,47.9975 221.15,48.2226 221.682,48.4484 222.213,48.6749 222.744,48.9021 223.276,49.13 223.807,49.3586 224.338,49.5879 
  224.87,49.8179 225.401,50.0486 225.932,50.28 226.464,50.5121 226.995,50.7449 227.526,50.9784 228.058,51.2126 228.589,51.4474 229.12,51.683 229.651,51.9193 
  230.183,52.1563 230.714,52.3939 231.245,52.6323 231.777,52.8714 232.308,53.1112 232.839,53.3516 233.371,53.5928 233.902,53.8346 234.433,54.0772 234.965,54.3205 
  235.496,54.5644 236.027,54.8091 236.558,55.0544 237.09,55.3005 237.621,55.5472 238.152,55.7947 238.684,56.0428 239.215,56.2917 239.746,56.5412 240.278,56.7914 
  240.809,57.0424 241.34,57.294 241.872,57.5463 242.403,57.7994 242.934,58.0531 243.465,58.3075 243.997,58.5626 244.528,58.8185 245.059,59.075 245.591,59.3322 
  246.122,59.5901 246.653,59.8487 247.185,60.108 247.716,60.3681 248.247,60.6288 248.779,60.8902 249.31,61.1523 249.841,61.4151 250.372,61.6786 250.904,61.9428 
  251.435,62.2077 251.966,62.4733 252.498,62.7396 253.029,63.0066 253.56,63.2742 254.092,63.5426 254.623,63.8117 255.154,64.0815 255.686,64.352 256.217,64.6232 
  256.748,64.895 257.279,65.1676 257.811,65.4409 258.342,65.7149 258.873,65.9895 259.405,66.2649 259.936,66.541 260.467,66.8177 260.999,67.0952 261.53,67.3733 
  262.061,67.6522 262.593,67.9317 263.124,68.212 263.655,68.4929 264.186,68.7746 264.718,69.0569 265.249,69.34 265.78,69.6237 266.312,69.9082 266.843,70.1933 
  267.374,70.4791 267.906,70.7657 268.437,71.0529 268.968,71.3408 269.5,71.6295 270.031,71.9188 270.562,72.2088 271.093,72.4996 271.625,72.791 272.156,73.0831 
  272.687,73.3759 273.219,73.6694 273.75,73.9636 274.281,74.2585 274.813,74.5542 275.344,74.8505 275.875,75.1475 276.407,75.4452 276.938,75.7436 277.469,76.0427 
  278,76.3425 278.532,76.643 279.063,76.9442 279.594,77.2461 280.126,77.5486 280.657,77.8519 281.188,78.1559 281.72,78.4606 282.251,78.766 282.782,79.0721 
  283.314,79.3788 283.845,79.6863 284.376,79.9945 284.908,80.3034 285.439,80.6129 285.97,80.9232 286.501,81.2342 287.033,81.5458 287.564,81.8582 288.095,82.1712 
  288.627,82.485 289.158,82.7995 289.689,83.1146 290.221,83.4305 290.752,83.747 291.283,84.0643 291.815,84.3822 292.346,84.7008 292.877,85.0202 293.408,85.3402 
  293.94,85.661 294.471,85.9824 295.002,86.3045 295.534,86.6274 296.065,86.9509 296.596,87.2751 297.128,87.6001 297.659,87.9257 298.19,88.252 298.722,88.579 
  299.253,88.9067 299.784,89.2352 300.315,89.5643 300.847,89.8941 301.378,90.2246 301.909,90.5558 302.441,90.8877 302.972,91.2203 303.503,91.5536 304.035,91.8876 
  304.566,92.2223 305.097,92.5577 305.629,92.8938 306.16,93.2306 306.691,93.5681 307.222,93.9063 307.754,94.2451 308.285,94.5847 308.816,94.925 309.348,95.266 
  309.879,95.6077 310.41,95.9501 310.942,96.2931 311.473,96.6369 312.004,96.9814 312.536,97.3265 313.067,97.6724 313.598,98.019 314.129,98.3662 314.661,98.7142 
  315.192,99.0628 315.723,99.4122 316.255,99.7623 316.786,100.113 317.317,100.464 317.849,100.817 318.38,101.169 318.911,101.523 319.443,101.877 319.974,102.232 
  320.505,102.588 321.036,102.944 321.568,103.301 322.099,103.659 322.63,104.017 323.162,104.376 323.693,104.736 324.224,105.097 324.756,105.458 325.287,105.82 
  325.818,106.183 326.35,106.546 326.881,106.91 327.412,107.275 327.943,107.64 328.475,108.006 329.006,108.373 329.537,108.74 330.069,109.109 330.6,109.478 
  331.131,109.847 331.663,110.217 332.194,110.588 332.725,110.96 333.257,111.333 333.788,111.706 334.319,112.079 334.85,112.454 335.382,112.829 335.913,113.205 
  336.444,113.582 336.976,113.959 337.507,114.337 338.038,114.715 338.57,115.095 339.101,115.475 339.632,115.856 340.164,116.237 340.695,116.619 341.226,117.002 
  341.757,117.386 342.289,117.77 342.82,118.155 343.351,118.541 343.883,118.927 344.414,119.314 344.945,119.702 345.477,120.09 346.008,120.479 346.539,120.869 
  347.071,121.26 347.602,121.651 348.133,122.043 348.665,122.436 349.196,122.829 349.727,123.223 350.258,123.618 350.79,124.013 351.321,124.409 351.852,124.806 
  352.384,125.203 352.915,125.602 353.446,126.001 353.978,126.4 354.509,126.801 355.04,127.202 355.572,127.603 356.103,128.006 356.634,128.409 357.165,128.813 
  357.697,129.217 358.228,129.622 358.759,130.028 359.291,130.435 359.822,130.842 360.353,131.25 360.885,131.659 361.416,132.068 361.947,132.478 362.479,132.889 
  363.01,133.3 363.541,133.713 364.072,134.126 364.604,134.539 365.135,134.953 365.666,135.368 366.198,135.784 366.729,136.2 367.26,136.617 367.792,137.035 
  368.323,137.454 368.854,137.873 369.386,138.293 369.917,138.713 370.448,139.134 370.979,139.556 371.511,139.979 372.042,140.402 372.573,140.826 373.105,141.251 
  373.636,141.677 374.167,142.103 374.699,142.53 375.23,142.957 375.761,143.385 376.293,143.814 376.824,144.244 377.355,144.674 377.886,145.105 378.418,145.537 
  378.949,145.969 379.48,146.403 380.012,146.836 380.543,147.271 381.074,147.706 381.606,148.142 382.137,148.579 382.668,149.016 383.2,149.454 383.731,149.893 
  384.262,150.332 384.793,150.772 385.325,151.213 385.856,151.654 386.387,152.097 386.919,152.539 387.45,152.983 387.981,153.427 388.513,153.872 389.044,154.318 
  389.575,154.764 390.107,155.211 390.638,155.659 391.169,156.108 391.7,156.557 392.232,157.007 392.763,157.457 393.294,157.909 393.826,158.361 394.357,158.813 
  394.888,159.267 395.42,159.721 395.951,160.175 396.482,160.631 397.014,161.087 397.545,161.544 398.076,162.001 398.607,162.46 399.139,162.919 399.67,163.378 
  400.201,163.839 400.733,164.3 401.264,164.761 401.795,165.224 402.327,165.687 402.858,166.151 403.389,166.615 403.921,167.081 404.452,167.546 404.983,168.013 
  405.515,168.48 406.046,168.948 406.577,169.417 407.108,169.887 407.64,170.357 408.171,170.827 408.702,171.299 409.234,171.771 409.765,172.244 410.296,172.718 
  410.828,173.192 411.359,173.667 411.89,174.143 412.422,174.619 412.953,175.096 413.484,175.574 414.015,176.052 414.547,176.532 415.078,177.012 415.609,177.492 
  416.141,177.973 416.672,178.455 417.203,178.938 417.735,179.421 418.266,179.905 418.797,180.39 419.329,180.876 419.86,181.362 420.391,181.849 420.922,182.336 
  421.454,182.825 421.985,183.314 422.516,183.803 423.048,184.294 423.579,184.785 424.11,185.276 424.642,185.769 425.173,186.262 425.704,186.756 426.236,187.25 
  426.767,187.746 427.298,188.242 427.829,188.738 428.361,189.236 428.892,189.734 429.423,190.232 429.955,190.732 430.486,191.232 431.017,191.733 431.549,192.234 
  432.08,192.736 432.611,193.239 433.143,193.743 433.674,194.247 434.205,194.752 434.736,195.258 435.268,195.764 435.799,196.271 436.33,196.779 436.862,197.288 
  437.393,197.797 437.924,198.307 438.456,198.818 438.987,199.329 439.518,199.841 440.05,200.353 440.581,200.867 441.112,201.381 441.643,201.896 442.175,202.411 
  442.706,202.927 443.237,203.444 443.769,203.962 444.3,204.48 444.831,204.999 445.363,205.519 445.894,206.039 446.425,206.56 446.957,207.082 447.488,207.604 
  448.019,208.128 448.55,208.651 449.082,209.176 449.613,209.701 450.144,210.227 450.676,210.754 451.207,211.281 451.738,211.809 452.27,212.338 452.801,212.867 
  453.332,213.398 453.864,213.928 454.395,214.46 454.926,214.992 455.457,215.525 455.989,216.059 456.52,216.593 457.051,217.128 457.583,217.664 458.114,218.2 
  458.645,218.737 459.177,219.275 459.708,219.814 460.239,220.353 460.771,220.893 461.302,221.434 461.833,221.975 462.365,222.517 462.896,223.06 463.427,223.603 
  463.958,224.147 464.49,224.692 465.021,225.237 465.552,225.784 466.084,226.33 466.615,226.878 467.146,227.426 467.678,227.975 468.209,228.525 468.74,229.075 
  469.272,229.626 469.803,230.178 470.334,230.731 470.865,231.284 471.397,231.838 471.928,232.392 472.459,232.948 472.991,233.504 473.522,234.06 474.053,234.618 
  474.585,235.176 475.116,235.734 475.647,236.294 476.179,236.854 476.71,237.415 477.241,237.976 477.772,238.539 478.304,239.102 478.835,239.665 479.366,240.23 
  479.898,240.795 480.429,241.36 480.96,241.927 481.492,242.494 482.023,243.062 482.554,243.63 483.086,244.2 483.617,244.77 484.148,245.34 484.679,245.912 
  485.211,246.484 485.742,247.056 486.273,247.63 486.805,248.204 487.336,248.779 487.867,249.354 488.399,249.93 488.93,250.507 489.461,251.085 489.993,251.663 
  490.524,252.242 491.055,252.822 491.586,253.402 492.118,253.983 492.649,254.565 493.18,255.148 493.712,255.731 494.243,256.315 494.774,256.899 495.306,257.485 
  495.837,258.071 496.368,258.657 496.9,259.245 497.431,259.833 497.962,260.421 498.493,261.011 499.025,261.601 499.556,262.192 500.087,262.784 500.619,263.376 
  501.15,263.969 501.681,264.562 502.213,265.157 502.744,265.752 503.275,266.348 503.807,266.944 504.338,267.541 504.869,268.139 505.4,268.738 505.932,269.337 
  506.463,269.937 506.994,270.537 507.526,271.139 508.057,271.741 508.588,272.344 509.12,272.947 509.651,273.551 510.182,274.156 510.714,274.761 511.245,275.368 
  511.776,275.975 512.307,276.582 512.839,277.191 513.37,277.8 513.901,278.409 514.433,279.02 514.964,279.631 515.495,280.243 516.027,280.855 516.558,281.468 
  517.089,282.082 517.621,282.697 518.152,283.312 518.683,283.928 519.214,284.545 519.746,285.162 520.277,285.78 520.808,286.399 521.34,287.019 521.871,287.639 
  522.402,288.26 522.934,288.881 523.465,289.504 523.996,290.127 524.528,290.75 525.059,291.375 525.59,292 526.122,292.625 526.653,293.252 527.184,293.879 
  527.715,294.507 528.247,295.135 528.778,295.765 529.309,296.395 529.841,297.025 530.372,297.657 530.903,298.289 531.435,298.922 531.966,299.555 532.497,300.189 
  533.029,300.824 533.56,301.46 534.091,302.096 534.622,302.733 535.154,303.37 535.685,304.009 536.216,304.648 536.748,305.287 537.279,305.928 537.81,306.569 
  538.342,307.211 538.873,307.853 539.404,308.497 539.936,309.14 540.467,309.785 540.998,310.43 541.529,311.076 542.061,311.723 542.592,312.371 543.123,313.019 
  543.655,313.667 544.186,314.317 544.717,314.967 545.249,315.618 545.78,316.27 546.311,316.922 546.843,317.575 547.374,318.229 547.905,318.883 548.436,319.538 
  548.968,320.194 549.499,320.85 550.03,321.508 550.562,322.165 551.093,322.824 551.624,323.483 552.156,324.143 552.687,324.804 553.218,325.465 553.75,326.127 
  554.281,326.79 554.812,327.454 555.343,328.118 555.875,328.783 556.406,329.448 556.937,330.114 557.469,330.781 558,331.449 558.531,332.117 559.063,332.786 
  559.594,333.456 560.125,334.127 560.657,334.798 561.188,335.47 561.719,336.142 562.25,336.815 562.782,337.489 563.313,338.164 563.844,338.839 564.376,339.515 
  564.907,340.192 565.438,340.869 565.97,341.548 566.501,342.226 567.032,342.906 567.564,343.586 568.095,344.267 568.626,344.949 569.157,345.631 569.689,346.314 
  570.22,346.998 570.751,347.682 571.283,348.367 571.814,349.053 572.345,349.739 572.877,350.427 573.408,351.115 573.939,351.803 574.471,352.492 575.002,353.182 
  575.533,353.873 576.064,354.564 576.596,355.257 577.127,355.949 577.658,356.643 578.19,357.337 578.721,358.032 579.252,358.727 579.784,359.424 580.315,360.121 
  
  "/>
<polyline clip-path="url(#clip6202)" style="stroke:#e26f46; stroke-width:3; stroke-opacity:1; fill:none" points="
  49.5379,27.5913 50.0692,27.6378 50.6005,27.6843 51.1318,27.7307 51.6631,27.7772 52.1944,27.8237 52.7257,27.8702 53.2571,27.9167 53.7884,27.9632 54.3197,28.0097 
  54.851,28.0562 55.3823,28.1026 55.9136,28.1491 56.4449,28.1956 56.9762,28.2421 57.5075,28.2886 58.0388,28.3351 58.5701,28.3816 59.1014,28.4281 59.6328,28.4745 
  60.1641,28.521 60.6954,28.5675 61.2267,28.614 61.758,28.6605 62.2893,28.707 62.8206,28.7535 63.3519,28.8 63.8832,28.8464 64.4145,28.8929 64.9458,28.9394 
  65.4771,28.9859 66.0085,29.0324 66.5398,29.0789 67.0711,29.1254 67.6024,29.1719 68.1337,29.2183 68.665,29.2648 69.1963,29.3113 69.7276,29.3578 70.2589,29.4043 
  70.7902,29.4508 71.3215,29.4973 71.8528,29.5438 72.3842,29.5903 72.9155,29.6367 73.4468,29.6832 73.9781,29.7297 74.5094,29.7762 75.0407,29.8227 75.572,29.8692 
  76.1033,29.9157 76.6346,29.9622 77.1659,30.0086 77.6972,30.0551 78.2285,30.1016 78.7599,30.1481 79.2912,30.1946 79.8225,30.2411 80.3538,30.2876 80.8851,30.3341 
  81.4164,30.3805 81.9477,30.427 82.479,30.4735 83.0103,30.52 83.5416,30.5665 84.0729,30.613 84.6042,30.6595 85.1356,30.706 85.6669,30.7524 86.1982,30.7989 
  86.7295,30.8454 87.2608,30.8919 87.7921,30.9384 88.3234,30.9849 88.8547,31.0314 89.386,31.0779 89.9173,31.1243 90.4486,31.1708 90.9799,31.2173 91.5113,31.2638 
  92.0426,31.3103 92.5739,31.3568 93.1052,31.4033 93.6365,31.4498 94.1678,31.4962 94.6991,31.5427 95.2304,31.5892 95.7617,31.6357 96.293,31.6822 96.8243,31.7287 
  97.3556,31.7752 97.887,31.8217 98.4183,31.8682 98.9496,31.9146 99.4809,31.9611 100.012,32.0076 100.543,32.0541 101.075,32.1006 101.606,32.1471 102.137,32.1936 
  102.669,32.2401 103.2,32.2865 103.731,32.333 104.263,32.3795 104.794,32.426 105.325,32.4725 105.857,32.519 106.388,32.5655 106.919,32.612 107.451,32.6584 
  107.982,32.7049 108.513,32.7514 109.044,32.7979 109.576,32.8444 110.107,32.8909 110.638,32.9374 111.17,32.9839 111.701,33.0303 112.232,33.0768 112.764,33.1233 
  113.295,33.1698 113.826,33.2163 114.358,33.2628 114.889,33.3093 115.42,33.3558 115.951,33.4022 116.483,33.4487 117.014,33.4952 117.545,33.5417 118.077,33.5882 
  118.608,33.6347 119.139,33.6812 119.671,33.7277 120.202,33.7741 120.733,33.8206 121.265,33.8671 121.796,33.9136 122.327,33.9601 122.858,34.0066 123.39,34.0531 
  123.921,34.0996 124.452,34.1461 124.984,34.1925 125.515,34.239 126.046,34.2855 126.578,34.332 127.109,34.3785 127.64,34.425 128.172,34.4715 128.703,34.518 
  129.234,34.5644 129.765,34.6109 130.297,34.6574 130.828,34.7039 131.359,34.7504 131.891,34.7969 132.422,34.8434 132.953,34.8899 133.485,34.9363 134.016,34.9828 
  134.547,35.0293 135.079,35.0758 135.61,35.1223 136.141,35.1688 136.672,35.2153 137.204,35.2618 137.735,35.3082 138.266,35.3547 138.798,35.4012 139.329,35.4477 
  139.86,35.4942 140.392,35.5407 140.923,35.5872 141.454,35.6337 141.986,35.6801 142.517,35.7266 143.048,35.7731 143.579,35.8196 144.111,35.8661 144.642,35.9126 
  145.173,35.9591 145.705,36.0056 146.236,36.0521 146.767,36.0985 147.299,36.145 147.83,36.1915 148.361,36.238 148.893,36.2845 149.424,36.331 149.955,36.3775 
  150.486,36.424 151.018,36.4704 151.549,36.5169 152.08,36.5634 152.612,36.6099 153.143,36.6564 153.674,36.7029 154.206,36.7494 154.737,36.7959 155.268,36.8423 
  155.8,36.8888 156.331,36.9353 156.862,36.9818 157.393,37.0283 157.925,37.0748 158.456,37.1213 158.987,37.1678 159.519,37.2142 160.05,37.2607 160.581,37.3072 
  161.113,37.3537 161.644,37.4002 162.175,37.4467 162.707,37.4932 163.238,37.5397 163.769,37.5861 164.301,37.6326 164.832,37.6791 165.363,37.7256 165.894,37.7721 
  166.426,37.8186 166.957,37.8651 167.488,37.9116 168.02,37.958 168.551,38.0045 169.082,38.051 169.614,38.0975 170.145,38.144 170.676,38.1905 171.208,38.237 
  171.739,38.2835 172.27,38.33 172.801,38.3764 173.333,38.4229 173.864,38.4694 174.395,38.5159 174.927,38.5624 175.458,38.6089 175.989,38.6554 176.521,38.7019 
  177.052,38.7483 177.583,38.7948 178.115,38.8413 178.646,38.8878 179.177,38.9343 179.708,38.9808 180.24,39.0273 180.771,39.0738 181.302,39.1202 181.834,39.1667 
  182.365,39.2132 182.896,39.2597 183.428,39.3062 183.959,39.3527 184.49,39.3992 185.022,39.4457 185.553,39.4921 186.084,39.5386 186.615,39.5851 187.147,39.6316 
  187.678,39.6781 188.209,39.7246 188.741,39.7711 189.272,39.8176 189.803,39.864 190.335,39.9105 190.866,39.957 191.397,40.0035 191.929,40.05 192.46,40.0965 
  192.991,40.143 193.522,40.1895 194.054,40.236 194.585,40.2824 195.116,40.3289 195.648,40.3754 196.179,40.4219 196.71,40.4684 197.242,40.5149 197.773,40.5614 
  198.304,40.6079 198.836,40.6543 199.367,40.7008 199.898,40.7473 200.429,40.7938 200.961,40.8403 201.492,40.8868 202.023,40.9333 202.555,40.9798 203.086,41.0262 
  203.617,41.0727 204.149,41.1192 204.68,41.1657 205.211,41.2122 205.743,41.2587 206.274,41.3052 206.805,41.3517 207.336,41.3981 207.868,41.4446 208.399,41.4911 
  208.93,41.5376 209.462,41.5841 209.993,41.6306 210.524,41.6771 211.056,41.7236 211.587,41.77 212.118,41.8165 212.65,41.863 213.181,41.9095 213.712,41.956 
  214.243,42.0025 214.775,42.049 215.306,42.0955 215.837,42.1419 216.369,42.1884 216.9,42.2349 217.431,42.2814 217.963,42.3279 218.494,42.3744 219.025,42.4209 
  219.557,42.4674 220.088,42.5139 220.619,42.5603 221.15,42.6068 221.682,42.6533 222.213,42.6998 222.744,42.7463 223.276,42.7928 223.807,42.8393 224.338,42.8858 
  224.87,42.9322 225.401,42.9787 225.932,43.0252 226.464,43.0717 226.995,43.1182 227.526,43.1647 228.058,43.2112 228.589,43.2577 229.12,43.3041 229.651,43.3506 
  230.183,43.3971 230.714,43.4436 231.245,43.4901 231.777,43.5366 232.308,43.5831 232.839,43.6296 233.371,43.676 233.902,43.7225 234.433,43.769 234.965,43.8155 
  235.496,43.862 236.027,43.9085 236.558,43.955 237.09,44.0015 237.621,44.0479 238.152,44.0944 238.684,44.1409 239.215,44.1874 239.746,44.2339 240.278,44.2804 
  240.809,44.3269 241.34,44.3734 241.872,44.4198 242.403,44.4663 242.934,44.5128 243.465,44.5593 243.997,44.6058 244.528,44.6523 245.059,44.6988 245.591,44.7453 
  246.122,44.7918 246.653,44.8382 247.185,44.8847 247.716,44.9312 248.247,44.9777 248.779,45.0242 249.31,45.0707 249.841,45.1172 250.372,45.1637 250.904,45.2101 
  251.435,45.2566 251.966,45.3031 252.498,45.3496 253.029,45.3961 253.56,45.4426 254.092,45.4891 254.623,45.5356 255.154,45.582 255.686,45.6285 256.217,45.675 
  256.748,45.7215 257.279,45.768 257.811,45.8145 258.342,45.861 258.873,45.9075 259.405,45.9539 259.936,46.0004 260.467,46.0469 260.999,46.0934 261.53,46.1399 
  262.061,46.1864 262.593,46.2329 263.124,46.2794 263.655,46.3258 264.186,46.3723 264.718,46.4188 265.249,46.4653 265.78,46.5118 266.312,46.5583 266.843,46.6048 
  267.374,46.6513 267.906,46.6978 268.437,46.7442 268.968,46.7907 269.5,46.8372 270.031,46.8837 270.562,46.9302 271.093,46.9767 271.625,47.0232 272.156,47.0697 
  272.687,47.1161 273.219,47.1626 273.75,47.2091 274.281,47.2556 274.813,47.3021 275.344,47.3486 275.875,47.3951 276.407,47.4416 276.938,47.488 277.469,47.5345 
  278,47.581 278.532,47.6275 279.063,47.674 279.594,47.7205 280.126,47.767 280.657,47.8135 281.188,47.8599 281.72,47.9064 282.251,47.9529 282.782,47.9994 
  283.314,48.0459 283.845,48.0924 284.376,48.1389 284.908,48.1854 285.439,48.2318 285.97,48.2783 286.501,48.3248 287.033,48.3713 287.564,48.4178 288.095,48.4643 
  288.627,48.5108 289.158,48.5573 289.689,48.6037 290.221,48.6502 290.752,48.6967 291.283,48.7432 291.815,48.7897 292.346,48.8362 292.877,48.8827 293.408,48.9292 
  293.94,48.9757 294.471,49.0221 295.002,49.0686 295.534,49.1151 296.065,49.1616 296.596,49.2081 297.128,49.2546 297.659,49.3011 298.19,49.3476 298.722,49.394 
  299.253,49.4405 299.784,49.487 300.315,49.5335 300.847,49.58 301.378,49.6265 301.909,49.673 302.441,49.7195 302.972,49.7659 303.503,49.8124 304.035,49.8589 
  304.566,49.9054 305.097,49.9519 305.629,49.9984 306.16,50.0449 306.691,50.0914 307.222,50.1378 307.754,50.1843 308.285,50.2308 308.816,50.2773 309.348,50.3238 
  309.879,50.3703 310.41,50.4168 310.942,50.4633 311.473,50.5097 312.004,50.5562 312.536,50.6027 313.067,50.6492 313.598,50.6957 314.129,50.7422 314.661,50.7887 
  315.192,50.8352 315.723,50.8816 316.255,50.9281 316.786,50.9746 317.317,51.0211 317.849,51.0676 318.38,51.1141 318.911,51.1606 319.443,51.2071 319.974,51.2536 
  320.505,51.3 321.036,51.3465 321.568,51.393 322.099,51.4395 322.63,51.486 323.162,51.5325 323.693,51.579 324.224,51.6255 324.756,51.6719 325.287,51.7184 
  325.818,51.7649 326.35,51.8114 326.881,51.8579 327.412,51.9044 327.943,51.9509 328.475,51.9974 329.006,52.0438 329.537,52.0903 330.069,52.1368 330.6,52.1833 
  331.131,52.2298 331.663,52.2763 332.194,52.3228 332.725,52.3693 333.257,52.4157 333.788,52.4622 334.319,52.5087 334.85,52.5552 335.382,52.6017 335.913,52.6482 
  336.444,52.6947 336.976,52.7412 337.507,52.7876 338.038,52.8341 338.57,52.8806 339.101,52.9271 339.632,52.9736 340.164,53.0201 340.695,53.0666 341.226,53.1131 
  341.757,53.1596 342.289,53.206 342.82,53.2525 343.351,53.299 343.883,53.3455 344.414,53.392 344.945,53.4385 345.477,53.485 346.008,53.5315 346.539,53.5779 
  347.071,53.6244 347.602,53.6709 348.133,53.7174 348.665,53.7639 349.196,53.8104 349.727,53.8569 350.258,53.9034 350.79,53.9498 351.321,53.9963 351.852,54.0428 
  352.384,54.0893 352.915,54.1358 353.446,54.1823 353.978,54.2288 354.509,54.2753 355.04,54.3217 355.572,54.3682 356.103,54.4147 356.634,54.4612 357.165,54.5077 
  357.697,54.5542 358.228,54.6007 358.759,54.6472 359.291,54.6936 359.822,54.7401 360.353,54.7866 360.885,54.8331 361.416,54.8796 361.947,54.9261 362.479,54.9726 
  363.01,55.0191 363.541,55.0655 364.072,55.112 364.604,55.1585 365.135,55.205 365.666,55.2515 366.198,55.298 366.729,55.3445 367.26,55.391 367.792,55.4375 
  368.323,55.4839 368.854,55.5304 369.386,55.5769 369.917,55.6234 370.448,55.6699 370.979,55.7164 371.511,55.7629 372.042,55.8094 372.573,55.8558 373.105,55.9023 
  373.636,55.9488 374.167,55.9953 374.699,56.0418 375.23,56.0883 375.761,56.1348 376.293,56.1813 376.824,56.2277 377.355,56.2742 377.886,56.3207 378.418,56.3672 
  378.949,56.4137 379.48,56.4602 380.012,56.5067 380.543,56.5532 381.074,56.5996 381.606,56.6461 382.137,56.6926 382.668,56.7391 383.2,56.7856 383.731,56.8321 
  384.262,56.8786 384.793,56.9251 385.325,56.9715 385.856,57.018 386.387,57.0645 386.919,57.111 387.45,57.1575 387.981,57.204 388.513,57.2505 389.044,57.297 
  389.575,57.3434 390.107,57.3899 390.638,57.4364 391.169,57.4829 391.7,57.5294 392.232,57.5759 392.763,57.6224 393.294,57.6689 393.826,57.7154 394.357,57.7618 
  394.888,57.8083 395.42,57.8548 395.951,57.9013 396.482,57.9478 397.014,57.9943 397.545,58.0408 398.076,58.0873 398.607,58.1337 399.139,58.1802 399.67,58.2267 
  400.201,58.2732 400.733,58.3197 401.264,58.3662 401.795,58.4127 402.327,58.4592 402.858,58.5056 403.389,58.5521 403.921,58.5986 404.452,58.6451 404.983,58.6916 
  405.515,58.7381 406.046,58.7846 406.577,58.8311 407.108,58.8775 407.64,58.924 408.171,58.9705 408.702,59.017 409.234,59.0635 409.765,59.11 410.296,59.1565 
  410.828,59.203 411.359,59.2494 411.89,59.2959 412.422,59.3424 412.953,59.3889 413.484,59.4354 414.015,59.4819 414.547,59.5284 415.078,59.5749 415.609,59.6214 
  416.141,59.6678 416.672,59.7143 417.203,59.7608 417.735,59.8073 418.266,59.8538 418.797,59.9003 419.329,59.9468 419.86,59.9933 420.391,60.0397 420.922,60.0862 
  421.454,60.1327 421.985,60.1792 422.516,60.2257 423.048,60.2722 423.579,60.3187 424.11,60.3652 424.642,60.4116 425.173,60.4581 425.704,60.5046 426.236,60.5511 
  426.767,60.5976 427.298,60.6441 427.829,60.6906 428.361,60.7371 428.892,60.7835 429.423,60.83 429.955,60.8765 430.486,60.923 431.017,60.9695 431.549,61.016 
  432.08,61.0625 432.611,61.109 433.143,61.1554 433.674,61.2019 434.205,61.2484 434.736,61.2949 435.268,61.3414 435.799,61.3879 436.33,61.4344 436.862,61.4809 
  437.393,61.5273 437.924,61.5738 438.456,61.6203 438.987,61.6668 439.518,61.7133 440.05,61.7598 440.581,61.8063 441.112,61.8528 441.643,61.8993 442.175,61.9457 
  442.706,61.9922 443.237,62.0387 443.769,62.0852 444.3,62.1317 444.831,62.1782 445.363,62.2247 445.894,62.2712 446.425,62.3176 446.957,62.3641 447.488,62.4106 
  448.019,62.4571 448.55,62.5036 449.082,62.5501 449.613,62.5966 450.144,62.6431 450.676,62.6895 451.207,62.736 451.738,62.7825 452.27,62.829 452.801,62.8755 
  453.332,62.922 453.864,62.9685 454.395,63.015 454.926,63.0614 455.457,63.1079 455.989,63.1544 456.52,63.2009 457.051,63.2474 457.583,63.2939 458.114,63.3404 
  458.645,63.3869 459.177,63.4333 459.708,63.4798 460.239,63.5263 460.771,63.5728 461.302,63.6193 461.833,63.6658 462.365,63.7123 462.896,63.7588 463.427,63.8053 
  463.958,63.8517 464.49,63.8982 465.021,63.9447 465.552,63.9912 466.084,64.0377 466.615,64.0842 467.146,64.1307 467.678,64.1772 468.209,64.2236 468.74,64.2701 
  469.272,64.3166 469.803,64.3631 470.334,64.4096 470.865,64.4561 471.397,64.5026 471.928,64.5491 472.459,64.5955 472.991,64.642 473.522,64.6885 474.053,64.735 
  474.585,64.7815 475.116,64.828 475.647,64.8745 476.179,64.921 476.71,64.9674 477.241,65.0139 477.772,65.0604 478.304,65.1069 478.835,65.1534 479.366,65.1999 
  479.898,65.2464 480.429,65.2929 480.96,65.3393 481.492,65.3858 482.023,65.4323 482.554,65.4788 483.086,65.5253 483.617,65.5718 484.148,65.6183 484.679,65.6648 
  485.211,65.7112 485.742,65.7577 486.273,65.8042 486.805,65.8507 487.336,65.8972 487.867,65.9437 488.399,65.9902 488.93,66.0367 489.461,66.0832 489.993,66.1296 
  490.524,66.1761 491.055,66.2226 491.586,66.2691 492.118,66.3156 492.649,66.3621 493.18,66.4086 493.712,66.4551 494.243,66.5015 494.774,66.548 495.306,66.5945 
  495.837,66.641 496.368,66.6875 496.9,66.734 497.431,66.7805 497.962,66.827 498.493,66.8734 499.025,66.9199 499.556,66.9664 500.087,67.0129 500.619,67.0594 
  501.15,67.1059 501.681,67.1524 502.213,67.1989 502.744,67.2453 503.275,67.2918 503.807,67.3383 504.338,67.3848 504.869,67.4313 505.4,67.4778 505.932,67.5243 
  506.463,67.5708 506.994,67.6172 507.526,67.6637 508.057,67.7102 508.588,67.7567 509.12,67.8032 509.651,67.8497 510.182,67.8962 510.714,67.9427 511.245,67.9891 
  511.776,68.0356 512.307,68.0821 512.839,68.1286 513.37,68.1751 513.901,68.2216 514.433,68.2681 514.964,68.3146 515.495,68.3611 516.027,68.4075 516.558,68.454 
  517.089,68.5005 517.621,68.547 518.152,68.5935 518.683,68.64 519.214,68.6865 519.746,68.733 520.277,68.7794 520.808,68.8259 521.34,68.8724 521.871,68.9189 
  522.402,68.9654 522.934,69.0119 523.465,69.0584 523.996,69.1049 524.528,69.1513 525.059,69.1978 525.59,69.2443 526.122,69.2908 526.653,69.3373 527.184,69.3838 
  527.715,69.4303 528.247,69.4768 528.778,69.5232 529.309,69.5697 529.841,69.6162 530.372,69.6627 530.903,69.7092 531.435,69.7557 531.966,69.8022 532.497,69.8487 
  533.029,69.8951 533.56,69.9416 534.091,69.9881 534.622,70.0346 535.154,70.0811 535.685,70.1276 536.216,70.1741 536.748,70.2206 537.279,70.2671 537.81,70.3135 
  538.342,70.36 538.873,70.4065 539.404,70.453 539.936,70.4995 540.467,70.546 540.998,70.5925 541.529,70.639 542.061,70.6854 542.592,70.7319 543.123,70.7784 
  543.655,70.8249 544.186,70.8714 544.717,70.9179 545.249,70.9644 545.78,71.0109 546.311,71.0573 546.843,71.1038 547.374,71.1503 547.905,71.1968 548.436,71.2433 
  548.968,71.2898 549.499,71.3363 550.03,71.3828 550.562,71.4292 551.093,71.4757 551.624,71.5222 552.156,71.5687 552.687,71.6152 553.218,71.6617 553.75,71.7082 
  554.281,71.7547 554.812,71.8011 555.343,71.8476 555.875,71.8941 556.406,71.9406 556.937,71.9871 557.469,72.0336 558,72.0801 558.531,72.1266 559.063,72.173 
  559.594,72.2195 560.125,72.266 560.657,72.3125 561.188,72.359 561.719,72.4055 562.25,72.452 562.782,72.4985 563.313,72.545 563.844,72.5914 564.376,72.6379 
  564.907,72.6844 565.438,72.7309 565.97,72.7774 566.501,72.8239 567.032,72.8704 567.564,72.9169 568.095,72.9633 568.626,73.0098 569.157,73.0563 569.689,73.1028 
  570.22,73.1493 570.751,73.1958 571.283,73.2423 571.814,73.2888 572.345,73.3352 572.877,73.3817 573.408,73.4282 573.939,73.4747 574.471,73.5212 575.002,73.5677 
  575.533,73.6142 576.064,73.6607 576.596,73.7071 577.127,73.7536 577.658,73.8001 578.19,73.8466 578.721,73.8931 579.252,73.9396 579.784,73.9861 580.315,74.0326 
  
  "/>
<polygon clip-path="url(#clip6200)" points="
477.574,78.051 562.315,78.051 562.315,32.691 477.574,32.691 
  " fill="#ffffff" fill-opacity="1"/>
<polyline clip-path="url(#clip6200)" style="stroke:#000000; stroke-width:1; stroke-opacity:1; fill:none" points="
  477.574,78.051 562.315,78.051 562.315,32.691 477.574,32.691 477.574,78.051 
  "/>
<polyline clip-path="url(#clip6200)" style="stroke:#009af9; stroke-width:3; stroke-opacity:1; fill:none" points="
  483.574,47.811 519.574,47.811 
  "/>
<g clip-path="url(#clip6200)">
<text style="fill:#000000; fill-opacity:1; font-family:Arial,Helvetica Neue,Helvetica,sans-serif; font-size:12; text-anchor:start;" transform="rotate(0, 525.574, 52.311)" x="525.574" y="52.311">u1(t)</text>
</g>
<polyline clip-path="url(#clip6200)" style="stroke:#e26f46; stroke-width:3; stroke-opacity:1; fill:none" points="
  483.574,62.931 519.574,62.931 
  "/>
<g clip-path="url(#clip6200)">
<text style="fill:#000000; fill-opacity:1; font-family:Arial,Helvetica Neue,Helvetica,sans-serif; font-size:12; text-anchor:start;" transform="rotate(0, 525.574, 67.431)" x="525.574" y="67.431">u2(t)</text>
</g>
</svg>
