<?xml version="1.0" encoding="utf-8"?>
<svg xmlns="http://www.w3.org/2000/svg" xmlns:xlink="http://www.w3.org/1999/xlink" width="600" height="400" viewBox="0 0 2400 1600">
<defs>
  <clipPath id="clip1200">
    <rect x="0" y="0" width="2000" height="2000"/>
  </clipPath>
</defs>
<defs>
  <clipPath id="clip1201">
    <rect x="0" y="0" width="2400" height="1600"/>
  </clipPath>
</defs>
<polygon clip-path="url(#clip1201)" points="
0,1600 2400,1600 2400,0 0,0 
  " fill="#ffffff" fill-opacity="1"/>
<defs>
  <clipPath id="clip1202">
    <rect x="480" y="0" width="1681" height="1600"/>
  </clipPath>
</defs>
<polygon clip-path="url(#clip1201)" points="
161.394,1503.47 2321.26,1503.47 2321.26,125.984 161.394,125.984 
  " fill="#ffffff" fill-opacity="1"/>
<defs>
  <clipPath id="clip1203">
    <rect x="161" y="125" width="2161" height="1378"/>
  </clipPath>
</defs>
<polyline clip-path="url(#clip1203)" style="stroke:#000000; stroke-width:2; stroke-opacity:0.1; fill:none" points="
  222.522,1503.47 222.522,125.984 
  "/>
<polyline clip-path="url(#clip1203)" style="stroke:#000000; stroke-width:2; stroke-opacity:0.1; fill:none" points="
  901.725,1503.47 901.725,125.984 
  "/>
<polyline clip-path="url(#clip1203)" style="stroke:#000000; stroke-width:2; stroke-opacity:0.1; fill:none" points="
  1580.93,1503.47 1580.93,125.984 
  "/>
<polyline clip-path="url(#clip1203)" style="stroke:#000000; stroke-width:2; stroke-opacity:0.1; fill:none" points="
  2260.13,1503.47 2260.13,125.984 
  "/>
<polyline clip-path="url(#clip1203)" style="stroke:#000000; stroke-width:2; stroke-opacity:0.1; fill:none" points="
  161.394,1169.28 2321.26,1169.28 
  "/>
<polyline clip-path="url(#clip1203)" style="stroke:#000000; stroke-width:2; stroke-opacity:0.1; fill:none" points="
  161.394,831.776 2321.26,831.776 
  "/>
<polyline clip-path="url(#clip1203)" style="stroke:#000000; stroke-width:2; stroke-opacity:0.1; fill:none" points="
  161.394,494.268 2321.26,494.268 
  "/>
<polyline clip-path="url(#clip1203)" style="stroke:#000000; stroke-width:2; stroke-opacity:0.1; fill:none" points="
  161.394,156.76 2321.26,156.76 
  "/>
<polyline clip-path="url(#clip1201)" style="stroke:#000000; stroke-width:4; stroke-opacity:1; fill:none" points="
  161.394,1503.47 2321.26,1503.47 
  "/>
<polyline clip-path="url(#clip1201)" style="stroke:#000000; stroke-width:4; stroke-opacity:1; fill:none" points="
  161.394,1503.47 161.394,125.984 
  "/>
<polyline clip-path="url(#clip1201)" style="stroke:#000000; stroke-width:4; stroke-opacity:1; fill:none" points="
  222.522,1503.47 222.522,1482.81 
  "/>
<polyline clip-path="url(#clip1201)" style="stroke:#000000; stroke-width:4; stroke-opacity:1; fill:none" points="
  901.725,1503.47 901.725,1482.81 
  "/>
<polyline clip-path="url(#clip1201)" style="stroke:#000000; stroke-width:4; stroke-opacity:1; fill:none" points="
  1580.93,1503.47 1580.93,1482.81 
  "/>
<polyline clip-path="url(#clip1201)" style="stroke:#000000; stroke-width:4; stroke-opacity:1; fill:none" points="
  2260.13,1503.47 2260.13,1482.81 
  "/>
<polyline clip-path="url(#clip1201)" style="stroke:#000000; stroke-width:4; stroke-opacity:1; fill:none" points="
  161.394,1169.28 193.792,1169.28 
  "/>
<polyline clip-path="url(#clip1201)" style="stroke:#000000; stroke-width:4; stroke-opacity:1; fill:none" points="
  161.394,831.776 193.792,831.776 
  "/>
<polyline clip-path="url(#clip1201)" style="stroke:#000000; stroke-width:4; stroke-opacity:1; fill:none" points="
  161.394,494.268 193.792,494.268 
  "/>
<polyline clip-path="url(#clip1201)" style="stroke:#000000; stroke-width:4; stroke-opacity:1; fill:none" points="
  161.394,156.76 193.792,156.76 
  "/>
<g clip-path="url(#clip1201)">
<text style="fill:#000000; fill-opacity:1; font-family:Arial,Helvetica Neue,Helvetica,sans-serif; font-size:48; text-anchor:middle;" transform="rotate(0, 222.522, 1557.47)" x="222.522" y="1557.47">1</text>
</g>
<g clip-path="url(#clip1201)">
<text style="fill:#000000; fill-opacity:1; font-family:Arial,Helvetica Neue,Helvetica,sans-serif; font-size:48; text-anchor:middle;" transform="rotate(0, 901.725, 1557.47)" x="901.725" y="1557.47">2</text>
</g>
<g clip-path="url(#clip1201)">
<text style="fill:#000000; fill-opacity:1; font-family:Arial,Helvetica Neue,Helvetica,sans-serif; font-size:48; text-anchor:middle;" transform="rotate(0, 1580.93, 1557.47)" x="1580.93" y="1557.47">3</text>
</g>
<g clip-path="url(#clip1201)">
<text style="fill:#000000; fill-opacity:1; font-family:Arial,Helvetica Neue,Helvetica,sans-serif; font-size:48; text-anchor:middle;" transform="rotate(0, 2260.13, 1557.47)" x="2260.13" y="1557.47">4</text>
</g>
<g clip-path="url(#clip1201)">
<text style="fill:#000000; fill-opacity:1; font-family:Arial,Helvetica Neue,Helvetica,sans-serif; font-size:48; text-anchor:end;" transform="rotate(0, 137.394, 1186.78)" x="137.394" y="1186.78">0.4</text>
</g>
<g clip-path="url(#clip1201)">
<text style="fill:#000000; fill-opacity:1; font-family:Arial,Helvetica Neue,Helvetica,sans-serif; font-size:48; text-anchor:end;" transform="rotate(0, 137.394, 849.276)" x="137.394" y="849.276">0.6</text>
</g>
<g clip-path="url(#clip1201)">
<text style="fill:#000000; fill-opacity:1; font-family:Arial,Helvetica Neue,Helvetica,sans-serif; font-size:48; text-anchor:end;" transform="rotate(0, 137.394, 511.768)" x="137.394" y="511.768">0.8</text>
</g>
<g clip-path="url(#clip1201)">
<text style="fill:#000000; fill-opacity:1; font-family:Arial,Helvetica Neue,Helvetica,sans-serif; font-size:48; text-anchor:end;" transform="rotate(0, 137.394, 174.26)" x="137.394" y="174.26">1.0</text>
</g>
<g clip-path="url(#clip1201)">
<text style="fill:#000000; fill-opacity:1; font-family:Arial,Helvetica Neue,Helvetica,sans-serif; font-size:84; text-anchor:middle;" transform="rotate(0, 1241.33, 73.2)" x="1241.33" y="73.2">Test Title</text>
</g>
<polyline clip-path="url(#clip1203)" style="stroke:#009af9; stroke-width:4; stroke-opacity:1; fill:none" points="
  222.522,164.97 901.725,596.588 1580.93,544.141 2260.13,197.816 
  "/>
<polyline clip-path="url(#clip1203)" style="stroke:#e26f46; stroke-width:4; stroke-opacity:1; fill:none" points="
  222.522,797.625 901.725,1333.94 1580.93,1464.49 2260.13,1067.89 
  "/>
<polyline clip-path="url(#clip1203)" style="stroke:#3da44d; stroke-width:4; stroke-opacity:1; fill:none" points="
  222.522,328.053 901.725,662.121 1580.93,1059.9 2260.13,973.742 
  "/>
<polyline clip-path="url(#clip1203)" style="stroke:#c271d2; stroke-width:4; stroke-opacity:1; fill:none" points="
  222.522,804.028 901.725,1440.74 1580.93,844.355 2260.13,235.735 
  "/>
<polygon clip-path="url(#clip1201)" points="
1846.04,511.904 2249.26,511.904 2249.26,209.504 1846.04,209.504 
  " fill="#ffffff" fill-opacity="1"/>
<polyline clip-path="url(#clip1201)" style="stroke:#000000; stroke-width:4; stroke-opacity:1; fill:none" points="
  1846.04,511.904 2249.26,511.904 2249.26,209.504 1846.04,209.504 1846.04,511.904 
  "/>
<polyline clip-path="url(#clip1201)" style="stroke:#009af9; stroke-width:4; stroke-opacity:1; fill:none" points="
  1870.04,269.984 2014.04,269.984 
  "/>
<g clip-path="url(#clip1201)">
<text style="fill:#000000; fill-opacity:1; font-family:Arial,Helvetica Neue,Helvetica,sans-serif; font-size:48; text-anchor:start;" transform="rotate(0, 2038.04, 287.484)" x="2038.04" y="287.484">First</text>
</g>
<polyline clip-path="url(#clip1201)" style="stroke:#e26f46; stroke-width:4; stroke-opacity:1; fill:none" points="
  1870.04,330.464 2014.04,330.464 
  "/>
<g clip-path="url(#clip1201)">
<text style="fill:#000000; fill-opacity:1; font-family:Arial,Helvetica Neue,Helvetica,sans-serif; font-size:48; text-anchor:start;" transform="rotate(0, 2038.04, 347.964)" x="2038.04" y="347.964">Second</text>
</g>
<polyline clip-path="url(#clip1201)" style="stroke:#3da44d; stroke-width:4; stroke-opacity:1; fill:none" points="
  1870.04,390.944 2014.04,390.944 
  "/>
<g clip-path="url(#clip1201)">
<text style="fill:#000000; fill-opacity:1; font-family:Arial,Helvetica Neue,Helvetica,sans-serif; font-size:48; text-anchor:start;" transform="rotate(0, 2038.04, 408.444)" x="2038.04" y="408.444">Third</text>
</g>
<polyline clip-path="url(#clip1201)" style="stroke:#c271d2; stroke-width:4; stroke-opacity:1; fill:none" points="
  1870.04,451.424 2014.04,451.424 
  "/>
<g clip-path="url(#clip1201)">
<text style="fill:#000000; fill-opacity:1; font-family:Arial,Helvetica Neue,Helvetica,sans-serif; font-size:48; text-anchor:start;" transform="rotate(0, 2038.04, 468.924)" x="2038.04" y="468.924">Fourth</text>
</g>
</svg>
