<?xml version="1.0" encoding="utf-8"?>
<svg xmlns="http://www.w3.org/2000/svg" xmlns:xlink="http://www.w3.org/1999/xlink" width="600" height="400" viewBox="0 0 2400 1600">
<defs>
  <clipPath id="clip1800">
    <rect x="0" y="0" width="2000" height="2000"/>
  </clipPath>
</defs>
<defs>
  <clipPath id="clip1801">
    <rect x="0" y="0" width="2400" height="1600"/>
  </clipPath>
</defs>
<polygon clip-path="url(#clip1801)" points="
0,1600 2400,1600 2400,0 0,0 
  " fill="#ffffff" fill-opacity="1"/>
<defs>
  <clipPath id="clip1802">
    <rect x="480" y="0" width="1681" height="1600"/>
  </clipPath>
</defs>
<polygon clip-path="url(#clip1801)" points="
161.394,1440.48 2321.26,1440.48 2321.26,125.984 161.394,125.984 
  " fill="#ffffff" fill-opacity="1"/>
<defs>
  <clipPath id="clip1803">
    <rect x="161" y="125" width="2161" height="1315"/>
  </clipPath>
</defs>
<polyline clip-path="url(#clip1803)" style="stroke:#000000; stroke-width:2; stroke-opacity:0.1; fill:none" points="
  161.394,1440.48 161.394,125.984 
  "/>
<polyline clip-path="url(#clip1803)" style="stroke:#000000; stroke-width:2; stroke-opacity:0.1; fill:none" points="
  593.367,1440.48 593.367,125.984 
  "/>
<polyline clip-path="url(#clip1803)" style="stroke:#000000; stroke-width:2; stroke-opacity:0.1; fill:none" points="
  1025.34,1440.48 1025.34,125.984 
  "/>
<polyline clip-path="url(#clip1803)" style="stroke:#000000; stroke-width:2; stroke-opacity:0.1; fill:none" points="
  1457.31,1440.48 1457.31,125.984 
  "/>
<polyline clip-path="url(#clip1803)" style="stroke:#000000; stroke-width:2; stroke-opacity:0.1; fill:none" points="
  1889.29,1440.48 1889.29,125.984 
  "/>
<polyline clip-path="url(#clip1803)" style="stroke:#000000; stroke-width:2; stroke-opacity:0.1; fill:none" points="
  2321.26,1440.48 2321.26,125.984 
  "/>
<polyline clip-path="url(#clip1803)" style="stroke:#000000; stroke-width:2; stroke-opacity:0.1; fill:none" points="
  161.394,1261.2 2321.26,1261.2 
  "/>
<polyline clip-path="url(#clip1803)" style="stroke:#000000; stroke-width:2; stroke-opacity:0.1; fill:none" points="
  161.394,977.034 2321.26,977.034 
  "/>
<polyline clip-path="url(#clip1803)" style="stroke:#000000; stroke-width:2; stroke-opacity:0.1; fill:none" points="
  161.394,692.87 2321.26,692.87 
  "/>
<polyline clip-path="url(#clip1803)" style="stroke:#000000; stroke-width:2; stroke-opacity:0.1; fill:none" points="
  161.394,408.705 2321.26,408.705 
  "/>
<polyline clip-path="url(#clip1801)" style="stroke:#000000; stroke-width:4; stroke-opacity:1; fill:none" points="
  161.394,1440.48 2321.26,1440.48 
  "/>
<polyline clip-path="url(#clip1801)" style="stroke:#000000; stroke-width:4; stroke-opacity:1; fill:none" points="
  161.394,1440.48 161.394,125.984 
  "/>
<polyline clip-path="url(#clip1801)" style="stroke:#000000; stroke-width:4; stroke-opacity:1; fill:none" points="
  161.394,1440.48 161.394,1420.77 
  "/>
<polyline clip-path="url(#clip1801)" style="stroke:#000000; stroke-width:4; stroke-opacity:1; fill:none" points="
  593.367,1440.48 593.367,1420.77 
  "/>
<polyline clip-path="url(#clip1801)" style="stroke:#000000; stroke-width:4; stroke-opacity:1; fill:none" points="
  1025.34,1440.48 1025.34,1420.77 
  "/>
<polyline clip-path="url(#clip1801)" style="stroke:#000000; stroke-width:4; stroke-opacity:1; fill:none" points="
  1457.31,1440.48 1457.31,1420.77 
  "/>
<polyline clip-path="url(#clip1801)" style="stroke:#000000; stroke-width:4; stroke-opacity:1; fill:none" points="
  1889.29,1440.48 1889.29,1420.77 
  "/>
<polyline clip-path="url(#clip1801)" style="stroke:#000000; stroke-width:4; stroke-opacity:1; fill:none" points="
  2321.26,1440.48 2321.26,1420.77 
  "/>
<polyline clip-path="url(#clip1801)" style="stroke:#000000; stroke-width:4; stroke-opacity:1; fill:none" points="
  161.394,1261.2 193.792,1261.2 
  "/>
<polyline clip-path="url(#clip1801)" style="stroke:#000000; stroke-width:4; stroke-opacity:1; fill:none" points="
  161.394,977.034 193.792,977.034 
  "/>
<polyline clip-path="url(#clip1801)" style="stroke:#000000; stroke-width:4; stroke-opacity:1; fill:none" points="
  161.394,692.87 193.792,692.87 
  "/>
<polyline clip-path="url(#clip1801)" style="stroke:#000000; stroke-width:4; stroke-opacity:1; fill:none" points="
  161.394,408.705 193.792,408.705 
  "/>
<g clip-path="url(#clip1801)">
<text style="fill:#000000; fill-opacity:1; font-family:Arial,Helvetica Neue,Helvetica,sans-serif; font-size:48; text-anchor:middle;" transform="rotate(0, 161.394, 1494.48)" x="161.394" y="1494.48">0.0</text>
</g>
<g clip-path="url(#clip1801)">
<text style="fill:#000000; fill-opacity:1; font-family:Arial,Helvetica Neue,Helvetica,sans-serif; font-size:48; text-anchor:middle;" transform="rotate(0, 593.367, 1494.48)" x="593.367" y="1494.48">0.2</text>
</g>
<g clip-path="url(#clip1801)">
<text style="fill:#000000; fill-opacity:1; font-family:Arial,Helvetica Neue,Helvetica,sans-serif; font-size:48; text-anchor:middle;" transform="rotate(0, 1025.34, 1494.48)" x="1025.34" y="1494.48">0.4</text>
</g>
<g clip-path="url(#clip1801)">
<text style="fill:#000000; fill-opacity:1; font-family:Arial,Helvetica Neue,Helvetica,sans-serif; font-size:48; text-anchor:middle;" transform="rotate(0, 1457.31, 1494.48)" x="1457.31" y="1494.48">0.6</text>
</g>
<g clip-path="url(#clip1801)">
<text style="fill:#000000; fill-opacity:1; font-family:Arial,Helvetica Neue,Helvetica,sans-serif; font-size:48; text-anchor:middle;" transform="rotate(0, 1889.29, 1494.48)" x="1889.29" y="1494.48">0.8</text>
</g>
<g clip-path="url(#clip1801)">
<text style="fill:#000000; fill-opacity:1; font-family:Arial,Helvetica Neue,Helvetica,sans-serif; font-size:48; text-anchor:middle;" transform="rotate(0, 2321.26, 1494.48)" x="2321.26" y="1494.48">1.0</text>
</g>
<g clip-path="url(#clip1801)">
<text style="fill:#000000; fill-opacity:1; font-family:Arial,Helvetica Neue,Helvetica,sans-serif; font-size:48; text-anchor:end;" transform="rotate(0, 137.394, 1278.7)" x="137.394" y="1278.7">0.6</text>
</g>
<g clip-path="url(#clip1801)">
<text style="fill:#000000; fill-opacity:1; font-family:Arial,Helvetica Neue,Helvetica,sans-serif; font-size:48; text-anchor:end;" transform="rotate(0, 137.394, 994.534)" x="137.394" y="994.534">0.8</text>
</g>
<g clip-path="url(#clip1801)">
<text style="fill:#000000; fill-opacity:1; font-family:Arial,Helvetica Neue,Helvetica,sans-serif; font-size:48; text-anchor:end;" transform="rotate(0, 137.394, 710.37)" x="137.394" y="710.37">1.0</text>
</g>
<g clip-path="url(#clip1801)">
<text style="fill:#000000; fill-opacity:1; font-family:Arial,Helvetica Neue,Helvetica,sans-serif; font-size:48; text-anchor:end;" transform="rotate(0, 137.394, 426.205)" x="137.394" y="426.205">1.2</text>
</g>
<g clip-path="url(#clip1801)">
<text style="fill:#000000; fill-opacity:1; font-family:Arial,Helvetica Neue,Helvetica,sans-serif; font-size:84; text-anchor:middle;" transform="rotate(0, 1241.33, 73.2)" x="1241.33" y="73.2">The Attributes Still Work</text>
</g>
<g clip-path="url(#clip1801)">
<text style="fill:#000000; fill-opacity:1; font-family:Arial,Helvetica Neue,Helvetica,sans-serif; font-size:66; text-anchor:middle;" transform="rotate(0, 1241.33, 1590.4)" x="1241.33" y="1590.4">t</text>
</g>
<polyline clip-path="url(#clip1803)" style="stroke:#009af9; stroke-width:12; stroke-opacity:1; fill:none" points="
  161.394,1403.28 163.556,1402.56 165.718,1401.84 167.88,1401.12 170.042,1400.4 172.204,1399.68 174.366,1398.96 176.528,1398.23 178.69,1397.51 180.852,1396.79 
  183.014,1396.06 185.176,1395.34 187.338,1394.61 189.5,1393.88 191.662,1393.15 193.824,1392.42 195.986,1391.69 198.149,1390.96 200.311,1390.23 202.473,1389.5 
  204.635,1388.77 206.797,1388.04 208.959,1387.3 211.121,1386.57 213.283,1385.83 215.445,1385.1 217.607,1384.36 219.769,1383.62 221.931,1382.88 224.093,1382.14 
  226.255,1381.4 228.417,1380.66 230.579,1379.92 232.741,1379.18 234.903,1378.44 237.065,1377.69 239.227,1376.95 241.389,1376.2 243.551,1375.46 245.713,1374.71 
  247.875,1373.96 250.037,1373.21 252.199,1372.46 254.361,1371.71 256.523,1370.96 258.685,1370.21 260.847,1369.46 263.009,1368.71 265.171,1367.95 267.333,1367.2 
  269.495,1366.45 271.657,1365.69 273.819,1364.93 275.982,1364.18 278.144,1363.42 280.306,1362.66 282.468,1361.9 284.63,1361.14 286.792,1360.38 288.954,1359.61 
  291.116,1358.85 293.278,1358.09 295.44,1357.32 297.602,1356.56 299.764,1355.79 301.926,1355.03 304.088,1354.26 306.25,1353.49 308.412,1352.72 310.574,1351.95 
  312.736,1351.18 314.898,1350.41 317.06,1349.64 319.222,1348.87 321.384,1348.09 323.546,1347.32 325.708,1346.54 327.87,1345.77 330.032,1344.99 332.194,1344.21 
  334.356,1343.43 336.518,1342.65 338.68,1341.87 340.842,1341.09 343.004,1340.31 345.166,1339.53 347.328,1338.75 349.49,1337.96 351.652,1337.18 353.815,1336.39 
  355.977,1335.61 358.139,1334.82 360.301,1334.03 362.463,1333.24 364.625,1332.45 366.787,1331.66 368.949,1330.87 371.111,1330.08 373.273,1329.29 375.435,1328.49 
  377.597,1327.7 379.759,1326.91 381.921,1326.11 384.083,1325.31 386.245,1324.52 388.407,1323.72 390.569,1322.92 392.731,1322.12 394.893,1321.32 397.055,1320.52 
  399.217,1319.71 401.379,1318.91 403.541,1318.11 405.703,1317.3 407.865,1316.5 410.027,1315.69 412.189,1314.88 414.351,1314.07 416.513,1313.27 418.675,1312.46 
  420.837,1311.65 422.999,1310.83 425.161,1310.02 427.323,1309.21 429.485,1308.4 431.648,1307.58 433.81,1306.77 435.972,1305.95 438.134,1305.13 440.296,1304.31 
  442.458,1303.5 444.62,1302.68 446.782,1301.86 448.944,1301.03 451.106,1300.21 453.268,1299.39 455.43,1298.57 457.592,1297.74 459.754,1296.92 461.916,1296.09 
  464.078,1295.26 466.24,1294.44 468.402,1293.61 470.564,1292.78 472.726,1291.95 474.888,1291.12 477.05,1290.28 479.212,1289.45 481.374,1288.62 483.536,1287.78 
  485.698,1286.95 487.86,1286.11 490.022,1285.27 492.184,1284.44 494.346,1283.6 496.508,1282.76 498.67,1281.92 500.832,1281.08 502.994,1280.23 505.156,1279.39 
  507.318,1278.55 509.481,1277.7 511.643,1276.86 513.805,1276.01 515.967,1275.16 518.129,1274.31 520.291,1273.46 522.453,1272.61 524.615,1271.76 526.777,1270.91 
  528.939,1270.06 531.101,1269.21 533.263,1268.35 535.425,1267.5 537.587,1266.64 539.749,1265.78 541.911,1264.93 544.073,1264.07 546.235,1263.21 548.397,1262.35 
  550.559,1261.49 552.721,1260.63 554.883,1259.76 557.045,1258.9 559.207,1258.03 561.369,1257.17 563.531,1256.3 565.693,1255.43 567.855,1254.57 570.017,1253.7 
  572.179,1252.83 574.341,1251.96 576.503,1251.09 578.665,1250.21 580.827,1249.34 582.989,1248.46 585.151,1247.59 587.314,1246.71 589.476,1245.84 591.638,1244.96 
  593.8,1244.08 595.962,1243.2 598.124,1242.32 600.286,1241.44 602.448,1240.56 604.61,1239.67 606.772,1238.79 608.934,1237.9 611.096,1237.02 613.258,1236.13 
  615.42,1235.24 617.582,1234.36 619.744,1233.47 621.906,1232.58 624.068,1231.68 626.23,1230.79 628.392,1229.9 630.554,1229 632.716,1228.11 634.878,1227.21 
  637.04,1226.32 639.202,1225.42 641.364,1224.52 643.526,1223.62 645.688,1222.72 647.85,1221.82 650.012,1220.92 652.174,1220.02 654.336,1219.11 656.498,1218.21 
  658.66,1217.3 660.822,1216.39 662.984,1215.49 665.147,1214.58 667.309,1213.67 669.471,1212.76 671.633,1211.85 673.795,1210.93 675.957,1210.02 678.119,1209.11 
  680.281,1208.19 682.443,1207.28 684.605,1206.36 686.767,1205.44 688.929,1204.52 691.091,1203.6 693.253,1202.68 695.415,1201.76 697.577,1200.84 699.739,1199.92 
  701.901,1198.99 704.063,1198.07 706.225,1197.14 708.387,1196.21 710.549,1195.28 712.711,1194.36 714.873,1193.43 717.035,1192.49 719.197,1191.56 721.359,1190.63 
  723.521,1189.7 725.683,1188.76 727.845,1187.83 730.007,1186.89 732.169,1185.95 734.331,1185.01 736.493,1184.07 738.655,1183.13 740.817,1182.19 742.98,1181.25 
  745.142,1180.31 747.304,1179.36 749.466,1178.42 751.628,1177.47 753.79,1176.52 755.952,1175.58 758.114,1174.63 760.276,1173.68 762.438,1172.73 764.6,1171.78 
  766.762,1170.82 768.924,1169.87 771.086,1168.91 773.248,1167.96 775.41,1167 777.572,1166.04 779.734,1165.09 781.896,1164.13 784.058,1163.17 786.22,1162.2 
  788.382,1161.24 790.544,1160.28 792.706,1159.31 794.868,1158.35 797.03,1157.38 799.192,1156.41 801.354,1155.45 803.516,1154.48 805.678,1153.51 807.84,1152.54 
  810.002,1151.56 812.164,1150.59 814.326,1149.62 816.488,1148.64 818.65,1147.66 820.813,1146.69 822.975,1145.71 825.137,1144.73 827.299,1143.75 829.461,1142.77 
  831.623,1141.79 833.785,1140.8 835.947,1139.82 838.109,1138.83 840.271,1137.85 842.433,1136.86 844.595,1135.87 846.757,1134.88 848.919,1133.89 851.081,1132.9 
  853.243,1131.91 855.405,1130.92 857.567,1129.92 859.729,1128.93 861.891,1127.93 864.053,1126.94 866.215,1125.94 868.377,1124.94 870.539,1123.94 872.701,1122.94 
  874.863,1121.93 877.025,1120.93 879.187,1119.93 881.349,1118.92 883.511,1117.92 885.673,1116.91 887.835,1115.9 889.997,1114.89 892.159,1113.88 894.321,1112.87 
  896.484,1111.86 898.646,1110.84 900.808,1109.83 902.97,1108.81 905.132,1107.8 907.294,1106.78 909.456,1105.76 911.618,1104.74 913.78,1103.72 915.942,1102.7 
  918.104,1101.68 920.266,1100.65 922.428,1099.63 924.59,1098.6 926.752,1097.58 928.914,1096.55 931.076,1095.52 933.238,1094.49 935.4,1093.46 937.562,1092.43 
  939.724,1091.39 941.886,1090.36 944.048,1089.32 946.21,1088.29 948.372,1087.25 950.534,1086.21 952.696,1085.17 954.858,1084.13 957.02,1083.09 959.182,1082.05 
  961.344,1081.01 963.506,1079.96 965.668,1078.92 967.83,1077.87 969.992,1076.82 972.154,1075.77 974.317,1074.72 976.479,1073.67 978.641,1072.62 980.803,1071.57 
  982.965,1070.51 985.127,1069.46 987.289,1068.4 989.451,1067.34 991.613,1066.29 993.775,1065.23 995.937,1064.17 998.099,1063.1 1000.26,1062.04 1002.42,1060.98 
  1004.58,1059.91 1006.75,1058.85 1008.91,1057.78 1011.07,1056.71 1013.23,1055.64 1015.4,1054.57 1017.56,1053.5 1019.72,1052.43 1021.88,1051.35 1024.04,1050.28 
  1026.21,1049.2 1028.37,1048.13 1030.53,1047.05 1032.69,1045.97 1034.85,1044.89 1037.02,1043.81 1039.18,1042.73 1041.34,1041.64 1043.5,1040.56 1045.66,1039.47 
  1047.83,1038.39 1049.99,1037.3 1052.15,1036.21 1054.31,1035.12 1056.47,1034.03 1058.64,1032.94 1060.8,1031.84 1062.96,1030.75 1065.12,1029.66 1067.28,1028.56 
  1069.45,1027.46 1071.61,1026.36 1073.77,1025.26 1075.93,1024.16 1078.09,1023.06 1080.26,1021.96 1082.42,1020.85 1084.58,1019.75 1086.74,1018.64 1088.9,1017.53 
  1091.07,1016.42 1093.23,1015.31 1095.39,1014.2 1097.55,1013.09 1099.71,1011.98 1101.88,1010.86 1104.04,1009.75 1106.2,1008.63 1108.36,1007.51 1110.52,1006.39 
  1112.69,1005.27 1114.85,1004.15 1117.01,1003.03 1119.17,1001.91 1121.33,1000.78 1123.5,999.656 1125.66,998.529 1127.82,997.401 1129.98,996.272 1132.14,995.142 
  1134.31,994.011 1136.47,992.878 1138.63,991.744 1140.79,990.609 1142.95,989.473 1145.12,988.336 1147.28,987.198 1149.44,986.058 1151.6,984.918 1153.76,983.776 
  1155.93,982.633 1158.09,981.489 1160.25,980.344 1162.41,979.197 1164.57,978.05 1166.74,976.901 1168.9,975.751 1171.06,974.6 1173.22,973.448 1175.39,972.295 
  1177.55,971.14 1179.71,969.984 1181.87,968.827 1184.03,967.669 1186.2,966.51 1188.36,965.35 1190.52,964.188 1192.68,963.025 1194.84,961.862 1197.01,960.696 
  1199.17,959.53 1201.33,958.363 1203.49,957.194 1205.65,956.024 1207.82,954.853 1209.98,953.681 1212.14,952.508 1214.3,951.333 1216.46,950.157 1218.63,948.981 
  1220.79,947.802 1222.95,946.623 1225.11,945.443 1227.27,944.261 1229.44,943.078 1231.6,941.894 1233.76,940.709 1235.92,939.522 1238.08,938.334 1240.25,937.146 
  1242.41,935.955 1244.57,934.764 1246.73,933.572 1248.89,932.378 1251.06,931.183 1253.22,929.987 1255.38,928.79 1257.54,927.591 1259.7,926.391 1261.87,925.19 
  1264.03,923.988 1266.19,922.785 1268.35,921.58 1270.51,920.374 1272.68,919.167 1274.84,917.959 1277,916.749 1279.16,915.539 1281.32,914.327 1283.49,913.114 
  1285.65,911.899 1287.81,910.684 1289.97,909.467 1292.13,908.249 1294.3,907.029 1296.46,905.809 1298.62,904.587 1300.78,903.364 1302.94,902.14 1305.11,900.914 
  1307.27,899.687 1309.43,898.459 1311.59,897.23 1313.75,896 1315.92,894.768 1318.08,893.535 1320.24,892.301 1322.4,891.065 1324.57,889.829 1326.73,888.591 
  1328.89,887.351 1331.05,886.111 1333.21,884.869 1335.38,883.626 1337.54,882.382 1339.7,881.137 1341.86,879.89 1344.02,878.642 1346.19,877.393 1348.35,876.142 
  1350.51,874.89 1352.67,873.637 1354.83,872.383 1357,871.127 1359.16,869.87 1361.32,868.612 1363.48,867.353 1365.64,866.092 1367.81,864.83 1369.97,863.567 
  1372.13,862.302 1374.29,861.037 1376.45,859.769 1378.62,858.501 1380.78,857.231 1382.94,855.96 1385.1,854.688 1387.26,853.415 1389.43,852.14 1391.59,850.864 
  1393.75,849.587 1395.91,848.308 1398.07,847.028 1400.24,845.747 1402.4,844.464 1404.56,843.18 1406.72,841.895 1408.88,840.609 1411.05,839.321 1413.21,838.032 
  1415.37,836.741 1417.53,835.45 1419.69,834.157 1421.86,832.863 1424.02,831.567 1426.18,830.27 1428.34,828.972 1430.5,827.672 1432.67,826.372 1434.83,825.069 
  1436.99,823.766 1439.15,822.461 1441.31,821.155 1443.48,819.848 1445.64,818.539 1447.8,817.229 1449.96,815.917 1452.12,814.605 1454.29,813.291 1456.45,811.975 
  1458.61,810.658 1460.77,809.34 1462.93,808.021 1465.1,806.7 1467.26,805.378 1469.42,804.055 1471.58,802.73 1473.74,801.404 1475.91,800.077 1478.07,798.748 
  1480.23,797.418 1482.39,796.086 1484.56,794.754 1486.72,793.419 1488.88,792.084 1491.04,790.747 1493.2,789.409 1495.37,788.069 1497.53,786.728 1499.69,785.386 
  1501.85,784.043 1504.01,782.698 1506.18,781.351 1508.34,780.004 1510.5,778.654 1512.66,777.304 1514.82,775.952 1516.99,774.599 1519.15,773.245 1521.31,771.889 
  1523.47,770.531 1525.63,769.173 1527.8,767.813 1529.96,766.451 1532.12,765.089 1534.28,763.724 1536.44,762.359 1538.61,760.992 1540.77,759.624 1542.93,758.254 
  1545.09,756.883 1547.25,755.511 1549.42,754.137 1551.58,752.761 1553.74,751.385 1555.9,750.007 1558.06,748.627 1560.23,747.247 1562.39,745.864 1564.55,744.481 
  1566.71,743.096 1568.87,741.709 1571.04,740.322 1573.2,738.932 1575.36,737.542 1577.52,736.15 1579.68,734.756 1581.85,733.362 1584.01,731.965 1586.17,730.568 
  1588.33,729.169 1590.49,727.768 1592.66,726.366 1594.82,724.963 1596.98,723.558 1599.14,722.152 1601.3,720.744 1603.47,719.335 1605.63,717.925 1607.79,716.513 
  1609.95,715.1 1612.11,713.685 1614.28,712.269 1616.44,710.852 1618.6,709.432 1620.76,708.012 1622.92,706.59 1625.09,705.167 1627.25,703.742 1629.41,702.316 
  1631.57,700.888 1633.73,699.459 1635.9,698.029 1638.06,696.597 1640.22,695.163 1642.38,693.728 1644.55,692.292 1646.71,690.854 1648.87,689.415 1651.03,687.974 
  1653.19,686.532 1655.36,685.089 1657.52,683.644 1659.68,682.197 1661.84,680.749 1664,679.3 1666.17,677.849 1668.33,676.396 1670.49,674.942 1672.65,673.487 
  1674.81,672.03 1676.98,670.572 1679.14,669.112 1681.3,667.651 1683.46,666.188 1685.62,664.724 1687.79,663.258 1689.95,661.791 1692.11,660.323 1694.27,658.853 
  1696.43,657.381 1698.6,655.908 1700.76,654.433 1702.92,652.957 1705.08,651.48 1707.24,650.001 1709.41,648.52 1711.57,647.038 1713.73,645.554 1715.89,644.069 
  1718.05,642.583 1720.22,641.095 1722.38,639.605 1724.54,638.114 1726.7,636.621 1728.86,635.127 1731.03,633.632 1733.19,632.135 1735.35,630.636 1737.51,629.136 
  1739.67,627.634 1741.84,626.131 1744,624.626 1746.16,623.12 1748.32,621.612 1750.48,620.103 1752.65,618.592 1754.81,617.08 1756.97,615.566 1759.13,614.051 
  1761.29,612.534 1763.46,611.015 1765.62,609.495 1767.78,607.974 1769.94,606.451 1772.1,604.926 1774.27,603.4 1776.43,601.872 1778.59,600.343 1780.75,598.812 
  1782.91,597.28 1785.08,595.746 1787.24,594.211 1789.4,592.674 1791.56,591.135 1793.73,589.595 1795.89,588.053 1798.05,586.51 1800.21,584.965 1802.37,583.419 
  1804.54,581.871 1806.7,580.322 1808.86,578.771 1811.02,577.218 1813.18,575.664 1815.35,574.108 1817.51,572.551 1819.67,570.992 1821.83,569.431 1823.99,567.869 
  1826.16,566.306 1828.32,564.74 1830.48,563.174 1832.64,561.605 1834.8,560.035 1836.97,558.464 1839.13,556.891 1841.29,555.316 1843.45,553.74 1845.61,552.162 
  1847.78,550.582 1849.94,549.001 1852.1,547.418 1854.26,545.834 1856.42,544.248 1858.59,542.661 1860.75,541.071 1862.91,539.481 1865.07,537.888 1867.23,536.294 
  1869.4,534.699 1871.56,533.102 1873.72,531.503 1875.88,529.902 1878.04,528.3 1880.21,526.697 1882.37,525.092 1884.53,523.485 1886.69,521.876 1888.85,520.266 
  1891.02,518.654 1893.18,517.041 1895.34,515.426 1897.5,513.809 1899.66,512.191 1901.83,510.571 1903.99,508.949 1906.15,507.326 1908.31,505.701 1910.47,504.075 
  1912.64,502.446 1914.8,500.817 1916.96,499.185 1919.12,497.552 1921.28,495.917 1923.45,494.281 1925.61,492.643 1927.77,491.003 1929.93,489.362 1932.09,487.719 
  1934.26,486.074 1936.42,484.428 1938.58,482.78 1940.74,481.13 1942.9,479.479 1945.07,477.826 1947.23,476.171 1949.39,474.515 1951.55,472.857 1953.72,471.197 
  1955.88,469.535 1958.04,467.872 1960.2,466.208 1962.36,464.541 1964.53,462.873 1966.69,461.203 1968.85,459.532 1971.01,457.858 1973.17,456.183 1975.34,454.507 
  1977.5,452.829 1979.66,451.149 1981.82,449.467 1983.98,447.784 1986.15,446.098 1988.31,444.412 1990.47,442.723 1992.63,441.033 1994.79,439.341 1996.96,437.647 
  1999.12,435.952 2001.28,434.255 2003.44,432.556 2005.6,430.856 2007.77,429.153 2009.93,427.45 2012.09,425.744 2014.25,424.036 2016.41,422.327 2018.58,420.617 
  2020.74,418.904 2022.9,417.19 2025.06,415.474 2027.22,413.756 2029.39,412.036 2031.55,410.315 2033.71,408.592 2035.87,406.867 2038.03,405.141 2040.2,403.413 
  2042.36,401.683 2044.52,399.951 2046.68,398.217 2048.84,396.482 2051.01,394.745 2053.17,393.006 2055.33,391.266 2057.49,389.524 2059.65,387.78 2061.82,386.034 
  2063.98,384.286 2066.14,382.537 2068.3,380.786 2070.46,379.033 2072.63,377.278 2074.79,375.522 2076.95,373.764 2079.11,372.004 2081.27,370.242 2083.44,368.479 
  2085.6,366.713 2087.76,364.946 2089.92,363.177 2092.08,361.407 2094.25,359.634 2096.41,357.86 2098.57,356.084 2100.73,354.306 2102.9,352.526 2105.06,350.745 
  2107.22,348.962 2109.38,347.176 2111.54,345.39 2113.71,343.601 2115.87,341.81 2118.03,340.018 2120.19,338.224 2122.35,336.428 2124.52,334.63 2126.68,332.831 
  2128.84,331.029 2131,329.226 2133.16,327.421 2135.33,325.614 2137.49,323.806 2139.65,321.995 2141.81,320.183 2143.97,318.369 2146.14,316.553 2148.3,314.735 
  2150.46,312.915 2152.62,311.094 2154.78,309.27 2156.95,307.445 2159.11,305.618 2161.27,303.789 2163.43,301.958 2165.59,300.126 2167.76,298.291 2169.92,296.455 
  2172.08,294.617 2174.24,292.777 2176.4,290.935 2178.57,289.091 2180.73,287.245 2182.89,285.398 2185.05,283.548 2187.21,281.697 2189.38,279.844 2191.54,277.989 
  2193.7,276.132 2195.86,274.274 2198.02,272.413 2200.19,270.55 2202.35,268.686 2204.51,266.82 2206.67,264.952 2208.83,263.082 2211,261.21 2213.16,259.336 
  2215.32,257.46 2217.48,255.582 2219.64,253.703 2221.81,251.821 2223.97,249.938 2226.13,248.053 2228.29,246.166 2230.45,244.277 2232.62,242.386 2234.78,240.493 
  2236.94,238.598 2239.1,236.701 2241.26,234.803 2243.43,232.902 2245.59,231 2247.75,229.095 2249.91,227.189 2252.07,225.281 2254.24,223.371 2256.4,221.458 
  2258.56,219.544 2260.72,217.628 2262.89,215.711 2265.05,213.791 2267.21,211.869 2269.37,209.945 2271.53,208.019 2273.7,206.092 2275.86,204.162 2278.02,202.231 
  2280.18,200.297 2282.34,198.362 2284.51,196.424 2286.67,194.485 2288.83,192.544 2290.99,190.6 2293.15,188.655 2295.32,186.708 2297.48,184.759 2299.64,182.808 
  2301.8,180.854 2303.96,178.899 2306.13,176.942 2308.29,174.983 2310.45,173.022 2312.61,171.059 2314.77,169.094 2316.94,167.127 2319.1,165.158 2321.26,163.187 
  
  "/>
<polygon clip-path="url(#clip1801)" points="
1910.3,330.464 2249.26,330.464 2249.26,209.504 1910.3,209.504 
  " fill="#ffffff" fill-opacity="1"/>
<polyline clip-path="url(#clip1801)" style="stroke:#000000; stroke-width:4; stroke-opacity:1; fill:none" points="
  1910.3,330.464 2249.26,330.464 2249.26,209.504 1910.3,209.504 1910.3,330.464 
  "/>
<polyline clip-path="url(#clip1801)" style="stroke:#009af9; stroke-width:12; stroke-opacity:1; fill:none" points="
  1934.3,269.984 2078.3,269.984 
  "/>
<g clip-path="url(#clip1801)">
<text style="fill:#000000; fill-opacity:1; font-family:Arial,Helvetica Neue,Helvetica,sans-serif; font-size:48; text-anchor:start;" transform="rotate(0, 2102.3, 287.484)" x="2102.3" y="287.484">u1(t)</text>
</g>
</svg>
