<?xml version="1.0" encoding="utf-8"?>
<svg xmlns="http://www.w3.org/2000/svg" xmlns:xlink="http://www.w3.org/1999/xlink" width="600" height="400" viewBox="0 0 2400 1600">
<defs>
  <clipPath id="clip1600">
    <rect x="0" y="0" width="2000" height="2000"/>
  </clipPath>
</defs>
<defs>
  <clipPath id="clip1601">
    <rect x="0" y="0" width="2400" height="1600"/>
  </clipPath>
</defs>
<polygon clip-path="url(#clip1601)" points="
0,1600 2400,1600 2400,0 0,0 
  " fill="#ffffff" fill-opacity="1"/>
<defs>
  <clipPath id="clip1602">
    <rect x="480" y="0" width="1681" height="1600"/>
  </clipPath>
</defs>
<polygon clip-path="url(#clip1601)" points="
188.156,1503.47 2321.26,1503.47 2321.26,47.2441 188.156,47.2441 
  " fill="#ffffff" fill-opacity="1"/>
<defs>
  <clipPath id="clip1603">
    <rect x="188" y="47" width="2134" height="1457"/>
  </clipPath>
</defs>
<polyline clip-path="url(#clip1603)" style="stroke:#000000; stroke-width:2; stroke-opacity:0.1; fill:none" points="
  567.828,1503.47 567.828,47.2441 
  "/>
<polyline clip-path="url(#clip1603)" style="stroke:#000000; stroke-width:2; stroke-opacity:0.1; fill:none" points="
  960.331,1503.47 960.331,47.2441 
  "/>
<polyline clip-path="url(#clip1603)" style="stroke:#000000; stroke-width:2; stroke-opacity:0.1; fill:none" points="
  1352.83,1503.47 1352.83,47.2441 
  "/>
<polyline clip-path="url(#clip1603)" style="stroke:#000000; stroke-width:2; stroke-opacity:0.1; fill:none" points="
  1745.34,1503.47 1745.34,47.2441 
  "/>
<polyline clip-path="url(#clip1603)" style="stroke:#000000; stroke-width:2; stroke-opacity:0.1; fill:none" points="
  2137.84,1503.47 2137.84,47.2441 
  "/>
<polyline clip-path="url(#clip1603)" style="stroke:#000000; stroke-width:2; stroke-opacity:0.1; fill:none" points="
  188.156,1462.26 2321.26,1462.26 
  "/>
<polyline clip-path="url(#clip1603)" style="stroke:#000000; stroke-width:2; stroke-opacity:0.1; fill:none" points="
  188.156,1116.94 2321.26,1116.94 
  "/>
<polyline clip-path="url(#clip1603)" style="stroke:#000000; stroke-width:2; stroke-opacity:0.1; fill:none" points="
  188.156,771.629 2321.26,771.629 
  "/>
<polyline clip-path="url(#clip1603)" style="stroke:#000000; stroke-width:2; stroke-opacity:0.1; fill:none" points="
  188.156,426.313 2321.26,426.313 
  "/>
<polyline clip-path="url(#clip1603)" style="stroke:#000000; stroke-width:2; stroke-opacity:0.1; fill:none" points="
  188.156,80.9977 2321.26,80.9977 
  "/>
<polyline clip-path="url(#clip1601)" style="stroke:#000000; stroke-width:4; stroke-opacity:1; fill:none" points="
  188.156,1503.47 2321.26,1503.47 
  "/>
<polyline clip-path="url(#clip1601)" style="stroke:#000000; stroke-width:4; stroke-opacity:1; fill:none" points="
  188.156,1503.47 188.156,47.2441 
  "/>
<polyline clip-path="url(#clip1601)" style="stroke:#000000; stroke-width:4; stroke-opacity:1; fill:none" points="
  567.828,1503.47 567.828,1481.63 
  "/>
<polyline clip-path="url(#clip1601)" style="stroke:#000000; stroke-width:4; stroke-opacity:1; fill:none" points="
  960.331,1503.47 960.331,1481.63 
  "/>
<polyline clip-path="url(#clip1601)" style="stroke:#000000; stroke-width:4; stroke-opacity:1; fill:none" points="
  1352.83,1503.47 1352.83,1481.63 
  "/>
<polyline clip-path="url(#clip1601)" style="stroke:#000000; stroke-width:4; stroke-opacity:1; fill:none" points="
  1745.34,1503.47 1745.34,1481.63 
  "/>
<polyline clip-path="url(#clip1601)" style="stroke:#000000; stroke-width:4; stroke-opacity:1; fill:none" points="
  2137.84,1503.47 2137.84,1481.63 
  "/>
<polyline clip-path="url(#clip1601)" style="stroke:#000000; stroke-width:4; stroke-opacity:1; fill:none" points="
  188.156,1462.26 220.153,1462.26 
  "/>
<polyline clip-path="url(#clip1601)" style="stroke:#000000; stroke-width:4; stroke-opacity:1; fill:none" points="
  188.156,1116.94 220.153,1116.94 
  "/>
<polyline clip-path="url(#clip1601)" style="stroke:#000000; stroke-width:4; stroke-opacity:1; fill:none" points="
  188.156,771.629 220.153,771.629 
  "/>
<polyline clip-path="url(#clip1601)" style="stroke:#000000; stroke-width:4; stroke-opacity:1; fill:none" points="
  188.156,426.313 220.153,426.313 
  "/>
<polyline clip-path="url(#clip1601)" style="stroke:#000000; stroke-width:4; stroke-opacity:1; fill:none" points="
  188.156,80.9977 220.153,80.9977 
  "/>
<g clip-path="url(#clip1601)">
<text style="fill:#000000; fill-opacity:1; font-family:Arial,Helvetica Neue,Helvetica,sans-serif; font-size:48; text-anchor:middle;" transform="rotate(0, 567.828, 1557.47)" x="567.828" y="1557.47">2</text>
</g>
<g clip-path="url(#clip1601)">
<text style="fill:#000000; fill-opacity:1; font-family:Arial,Helvetica Neue,Helvetica,sans-serif; font-size:48; text-anchor:middle;" transform="rotate(0, 960.331, 1557.47)" x="960.331" y="1557.47">4</text>
</g>
<g clip-path="url(#clip1601)">
<text style="fill:#000000; fill-opacity:1; font-family:Arial,Helvetica Neue,Helvetica,sans-serif; font-size:48; text-anchor:middle;" transform="rotate(0, 1352.83, 1557.47)" x="1352.83" y="1557.47">6</text>
</g>
<g clip-path="url(#clip1601)">
<text style="fill:#000000; fill-opacity:1; font-family:Arial,Helvetica Neue,Helvetica,sans-serif; font-size:48; text-anchor:middle;" transform="rotate(0, 1745.34, 1557.47)" x="1745.34" y="1557.47">8</text>
</g>
<g clip-path="url(#clip1601)">
<text style="fill:#000000; fill-opacity:1; font-family:Arial,Helvetica Neue,Helvetica,sans-serif; font-size:48; text-anchor:middle;" transform="rotate(0, 2137.84, 1557.47)" x="2137.84" y="1557.47">10</text>
</g>
<g clip-path="url(#clip1601)">
<text style="fill:#000000; fill-opacity:1; font-family:Arial,Helvetica Neue,Helvetica,sans-serif; font-size:48; text-anchor:end;" transform="rotate(0, 164.156, 1479.76)" x="164.156" y="1479.76">0.00</text>
</g>
<g clip-path="url(#clip1601)">
<text style="fill:#000000; fill-opacity:1; font-family:Arial,Helvetica Neue,Helvetica,sans-serif; font-size:48; text-anchor:end;" transform="rotate(0, 164.156, 1134.44)" x="164.156" y="1134.44">0.25</text>
</g>
<g clip-path="url(#clip1601)">
<text style="fill:#000000; fill-opacity:1; font-family:Arial,Helvetica Neue,Helvetica,sans-serif; font-size:48; text-anchor:end;" transform="rotate(0, 164.156, 789.129)" x="164.156" y="789.129">0.50</text>
</g>
<g clip-path="url(#clip1601)">
<text style="fill:#000000; fill-opacity:1; font-family:Arial,Helvetica Neue,Helvetica,sans-serif; font-size:48; text-anchor:end;" transform="rotate(0, 164.156, 443.813)" x="164.156" y="443.813">0.75</text>
</g>
<g clip-path="url(#clip1601)">
<text style="fill:#000000; fill-opacity:1; font-family:Arial,Helvetica Neue,Helvetica,sans-serif; font-size:48; text-anchor:end;" transform="rotate(0, 164.156, 98.4977)" x="164.156" y="98.4977">1.00</text>
</g>
<polygon clip-path="url(#clip1603)" points="
302.889,278.915 302.889,1462.26 348.681,1462.26 348.681,278.915 302.889,278.915 302.889,278.915 
  " fill="#009af9" fill-opacity="1"/>
<polyline clip-path="url(#clip1603)" style="stroke:#000000; stroke-width:4; stroke-opacity:1; fill:none" points="
  302.889,278.915 302.889,1462.26 348.681,1462.26 348.681,278.915 302.889,278.915 
  "/>
<polygon clip-path="url(#clip1603)" points="
499.14,1435.08 499.14,1462.26 544.932,1462.26 544.932,1435.08 499.14,1435.08 499.14,1435.08 
  " fill="#009af9" fill-opacity="1"/>
<polyline clip-path="url(#clip1603)" style="stroke:#000000; stroke-width:4; stroke-opacity:1; fill:none" points="
  499.14,1435.08 499.14,1462.26 544.932,1462.26 544.932,1435.08 499.14,1435.08 
  "/>
<polygon clip-path="url(#clip1603)" points="
695.392,470.85 695.392,1462.26 741.184,1462.26 741.184,470.85 695.392,470.85 695.392,470.85 
  " fill="#009af9" fill-opacity="1"/>
<polyline clip-path="url(#clip1603)" style="stroke:#000000; stroke-width:4; stroke-opacity:1; fill:none" points="
  695.392,470.85 695.392,1462.26 741.184,1462.26 741.184,470.85 695.392,470.85 
  "/>
<polygon clip-path="url(#clip1603)" points="
891.643,548.875 891.643,1462.26 937.435,1462.26 937.435,548.875 891.643,548.875 891.643,548.875 
  " fill="#009af9" fill-opacity="1"/>
<polyline clip-path="url(#clip1603)" style="stroke:#000000; stroke-width:4; stroke-opacity:1; fill:none" points="
  891.643,548.875 891.643,1462.26 937.435,1462.26 937.435,548.875 891.643,548.875 
  "/>
<polygon clip-path="url(#clip1603)" points="
1087.89,647.976 1087.89,1462.26 1133.69,1462.26 1133.69,647.976 1087.89,647.976 1087.89,647.976 
  " fill="#009af9" fill-opacity="1"/>
<polyline clip-path="url(#clip1603)" style="stroke:#000000; stroke-width:4; stroke-opacity:1; fill:none" points="
  1087.89,647.976 1087.89,1462.26 1133.69,1462.26 1133.69,647.976 1087.89,647.976 
  "/>
<polygon clip-path="url(#clip1603)" points="
1284.15,88.4582 1284.15,1462.26 1329.94,1462.26 1329.94,88.4582 1284.15,88.4582 1284.15,88.4582 
  " fill="#009af9" fill-opacity="1"/>
<polyline clip-path="url(#clip1603)" style="stroke:#000000; stroke-width:4; stroke-opacity:1; fill:none" points="
  1284.15,88.4582 1284.15,1462.26 1329.94,1462.26 1329.94,88.4582 1284.15,88.4582 
  "/>
<polygon clip-path="url(#clip1603)" points="
1480.4,1199.34 1480.4,1462.26 1526.19,1462.26 1526.19,1199.34 1480.4,1199.34 1480.4,1199.34 
  " fill="#009af9" fill-opacity="1"/>
<polyline clip-path="url(#clip1603)" style="stroke:#000000; stroke-width:4; stroke-opacity:1; fill:none" points="
  1480.4,1199.34 1480.4,1462.26 1526.19,1462.26 1526.19,1199.34 1480.4,1199.34 
  "/>
<polygon clip-path="url(#clip1603)" points="
1676.65,389.423 1676.65,1462.26 1722.44,1462.26 1722.44,389.423 1676.65,389.423 1676.65,389.423 
  " fill="#009af9" fill-opacity="1"/>
<polyline clip-path="url(#clip1603)" style="stroke:#000000; stroke-width:4; stroke-opacity:1; fill:none" points="
  1676.65,389.423 1676.65,1462.26 1722.44,1462.26 1722.44,389.423 1676.65,389.423 
  "/>
<polygon clip-path="url(#clip1603)" points="
1872.9,1297.55 1872.9,1462.26 1918.69,1462.26 1918.69,1297.55 1872.9,1297.55 1872.9,1297.55 
  " fill="#009af9" fill-opacity="1"/>
<polyline clip-path="url(#clip1603)" style="stroke:#000000; stroke-width:4; stroke-opacity:1; fill:none" points="
  1872.9,1297.55 1872.9,1462.26 1918.69,1462.26 1918.69,1297.55 1872.9,1297.55 
  "/>
<polygon clip-path="url(#clip1603)" points="
2069.15,1310.34 2069.15,1462.26 2114.94,1462.26 2114.94,1310.34 2069.15,1310.34 2069.15,1310.34 
  " fill="#009af9" fill-opacity="1"/>
<polyline clip-path="url(#clip1603)" style="stroke:#000000; stroke-width:4; stroke-opacity:1; fill:none" points="
  2069.15,1310.34 2069.15,1462.26 2114.94,1462.26 2114.94,1310.34 2069.15,1310.34 
  "/>
<polygon clip-path="url(#clip1603)" points="
348.681,862.237 348.681,1462.26 394.473,1462.26 394.473,862.237 348.681,862.237 348.681,862.237 
  " fill="#e26f46" fill-opacity="1"/>
<polyline clip-path="url(#clip1603)" style="stroke:#000000; stroke-width:4; stroke-opacity:1; fill:none" points="
  348.681,862.237 348.681,1462.26 394.473,1462.26 394.473,862.237 348.681,862.237 
  "/>
<polygon clip-path="url(#clip1603)" points="
544.932,193.912 544.932,1462.26 590.724,1462.26 590.724,193.912 544.932,193.912 544.932,193.912 
  " fill="#e26f46" fill-opacity="1"/>
<polyline clip-path="url(#clip1603)" style="stroke:#000000; stroke-width:4; stroke-opacity:1; fill:none" points="
  544.932,193.912 544.932,1462.26 590.724,1462.26 590.724,193.912 544.932,193.912 
  "/>
<polygon clip-path="url(#clip1603)" points="
741.184,1201.07 741.184,1462.26 786.976,1462.26 786.976,1201.07 741.184,1201.07 741.184,1201.07 
  " fill="#e26f46" fill-opacity="1"/>
<polyline clip-path="url(#clip1603)" style="stroke:#000000; stroke-width:4; stroke-opacity:1; fill:none" points="
  741.184,1201.07 741.184,1462.26 786.976,1462.26 786.976,1201.07 741.184,1201.07 
  "/>
<polygon clip-path="url(#clip1603)" points="
937.435,1235.38 937.435,1462.26 983.227,1462.26 983.227,1235.38 937.435,1235.38 937.435,1235.38 
  " fill="#e26f46" fill-opacity="1"/>
<polyline clip-path="url(#clip1603)" style="stroke:#000000; stroke-width:4; stroke-opacity:1; fill:none" points="
  937.435,1235.38 937.435,1462.26 983.227,1462.26 983.227,1235.38 937.435,1235.38 
  "/>
<polygon clip-path="url(#clip1603)" points="
1133.69,1316.13 1133.69,1462.26 1179.48,1462.26 1179.48,1316.13 1133.69,1316.13 1133.69,1316.13 
  " fill="#e26f46" fill-opacity="1"/>
<polyline clip-path="url(#clip1603)" style="stroke:#000000; stroke-width:4; stroke-opacity:1; fill:none" points="
  1133.69,1316.13 1133.69,1462.26 1179.48,1462.26 1179.48,1316.13 1133.69,1316.13 
  "/>
<polygon clip-path="url(#clip1603)" points="
1329.94,394.787 1329.94,1462.26 1375.73,1462.26 1375.73,394.787 1329.94,394.787 1329.94,394.787 
  " fill="#e26f46" fill-opacity="1"/>
<polyline clip-path="url(#clip1603)" style="stroke:#000000; stroke-width:4; stroke-opacity:1; fill:none" points="
  1329.94,394.787 1329.94,1462.26 1375.73,1462.26 1375.73,394.787 1329.94,394.787 
  "/>
<polygon clip-path="url(#clip1603)" points="
1526.19,182.649 1526.19,1462.26 1571.98,1462.26 1571.98,182.649 1526.19,182.649 1526.19,182.649 
  " fill="#e26f46" fill-opacity="1"/>
<polyline clip-path="url(#clip1603)" style="stroke:#000000; stroke-width:4; stroke-opacity:1; fill:none" points="
  1526.19,182.649 1526.19,1462.26 1571.98,1462.26 1571.98,182.649 1526.19,182.649 
  "/>
<polygon clip-path="url(#clip1603)" points="
1722.44,1138.65 1722.44,1462.26 1768.23,1462.26 1768.23,1138.65 1722.44,1138.65 1722.44,1138.65 
  " fill="#e26f46" fill-opacity="1"/>
<polyline clip-path="url(#clip1603)" style="stroke:#000000; stroke-width:4; stroke-opacity:1; fill:none" points="
  1722.44,1138.65 1722.44,1462.26 1768.23,1462.26 1768.23,1138.65 1722.44,1138.65 
  "/>
<polygon clip-path="url(#clip1603)" points="
1918.69,313.697 1918.69,1462.26 1964.48,1462.26 1964.48,313.697 1918.69,313.697 1918.69,313.697 
  " fill="#e26f46" fill-opacity="1"/>
<polyline clip-path="url(#clip1603)" style="stroke:#000000; stroke-width:4; stroke-opacity:1; fill:none" points="
  1918.69,313.697 1918.69,1462.26 1964.48,1462.26 1964.48,313.697 1918.69,313.697 
  "/>
<polygon clip-path="url(#clip1603)" points="
2114.94,877.92 2114.94,1462.26 2160.74,1462.26 2160.74,877.92 2114.94,877.92 2114.94,877.92 
  " fill="#e26f46" fill-opacity="1"/>
<polyline clip-path="url(#clip1603)" style="stroke:#000000; stroke-width:4; stroke-opacity:1; fill:none" points="
  2114.94,877.92 2114.94,1462.26 2160.74,1462.26 2160.74,877.92 2114.94,877.92 
  "/>
<polygon clip-path="url(#clip1603)" points="
394.473,1089.27 394.473,1462.26 440.265,1462.26 440.265,1089.27 394.473,1089.27 394.473,1089.27 
  " fill="#3da44d" fill-opacity="1"/>
<polyline clip-path="url(#clip1603)" style="stroke:#000000; stroke-width:4; stroke-opacity:1; fill:none" points="
  394.473,1089.27 394.473,1462.26 440.265,1462.26 440.265,1089.27 394.473,1089.27 
  "/>
<polygon clip-path="url(#clip1603)" points="
590.724,1365.12 590.724,1462.26 636.516,1462.26 636.516,1365.12 590.724,1365.12 590.724,1365.12 
  " fill="#3da44d" fill-opacity="1"/>
<polyline clip-path="url(#clip1603)" style="stroke:#000000; stroke-width:4; stroke-opacity:1; fill:none" points="
  590.724,1365.12 590.724,1462.26 636.516,1462.26 636.516,1365.12 590.724,1365.12 
  "/>
<polygon clip-path="url(#clip1603)" points="
786.976,1282.05 786.976,1462.26 832.768,1462.26 832.768,1282.05 786.976,1282.05 786.976,1282.05 
  " fill="#3da44d" fill-opacity="1"/>
<polyline clip-path="url(#clip1603)" style="stroke:#000000; stroke-width:4; stroke-opacity:1; fill:none" points="
  786.976,1282.05 786.976,1462.26 832.768,1462.26 832.768,1282.05 786.976,1282.05 
  "/>
<polygon clip-path="url(#clip1603)" points="
983.227,1108.23 983.227,1462.26 1029.02,1462.26 1029.02,1108.23 983.227,1108.23 983.227,1108.23 
  " fill="#3da44d" fill-opacity="1"/>
<polyline clip-path="url(#clip1603)" style="stroke:#000000; stroke-width:4; stroke-opacity:1; fill:none" points="
  983.227,1108.23 983.227,1462.26 1029.02,1462.26 1029.02,1108.23 983.227,1108.23 
  "/>
<polygon clip-path="url(#clip1603)" points="
1179.48,861.592 1179.48,1462.26 1225.27,1462.26 1225.27,861.592 1179.48,861.592 1179.48,861.592 
  " fill="#3da44d" fill-opacity="1"/>
<polyline clip-path="url(#clip1603)" style="stroke:#000000; stroke-width:4; stroke-opacity:1; fill:none" points="
  1179.48,861.592 1179.48,1462.26 1225.27,1462.26 1225.27,861.592 1179.48,861.592 
  "/>
<polygon clip-path="url(#clip1603)" points="
1375.73,1195.12 1375.73,1462.26 1421.52,1462.26 1421.52,1195.12 1375.73,1195.12 1375.73,1195.12 
  " fill="#3da44d" fill-opacity="1"/>
<polyline clip-path="url(#clip1603)" style="stroke:#000000; stroke-width:4; stroke-opacity:1; fill:none" points="
  1375.73,1195.12 1375.73,1462.26 1421.52,1462.26 1421.52,1195.12 1375.73,1195.12 
  "/>
<polygon clip-path="url(#clip1603)" points="
1571.98,191.399 1571.98,1462.26 1617.77,1462.26 1617.77,191.399 1571.98,191.399 1571.98,191.399 
  " fill="#3da44d" fill-opacity="1"/>
<polyline clip-path="url(#clip1603)" style="stroke:#000000; stroke-width:4; stroke-opacity:1; fill:none" points="
  1571.98,191.399 1571.98,1462.26 1617.77,1462.26 1617.77,191.399 1571.98,191.399 
  "/>
<polygon clip-path="url(#clip1603)" points="
1768.23,209.274 1768.23,1462.26 1814.02,1462.26 1814.02,209.274 1768.23,209.274 1768.23,209.274 
  " fill="#3da44d" fill-opacity="1"/>
<polyline clip-path="url(#clip1603)" style="stroke:#000000; stroke-width:4; stroke-opacity:1; fill:none" points="
  1768.23,209.274 1768.23,1462.26 1814.02,1462.26 1814.02,209.274 1768.23,209.274 
  "/>
<polygon clip-path="url(#clip1603)" points="
1964.48,712.498 1964.48,1462.26 2010.28,1462.26 2010.28,712.498 1964.48,712.498 1964.48,712.498 
  " fill="#3da44d" fill-opacity="1"/>
<polyline clip-path="url(#clip1603)" style="stroke:#000000; stroke-width:4; stroke-opacity:1; fill:none" points="
  1964.48,712.498 1964.48,1462.26 2010.28,1462.26 2010.28,712.498 1964.48,712.498 
  "/>
<polygon clip-path="url(#clip1603)" points="
2160.74,765.163 2160.74,1462.26 2206.53,1462.26 2206.53,765.163 2160.74,765.163 2160.74,765.163 
  " fill="#3da44d" fill-opacity="1"/>
<polyline clip-path="url(#clip1603)" style="stroke:#000000; stroke-width:4; stroke-opacity:1; fill:none" points="
  2160.74,765.163 2160.74,1462.26 2206.53,1462.26 2206.53,765.163 2160.74,765.163 
  "/>
<polygon clip-path="url(#clip1601)" points="
1958.43,372.684 2249.26,372.684 2249.26,130.764 1958.43,130.764 
  " fill="#ffffff" fill-opacity="1"/>
<polyline clip-path="url(#clip1601)" style="stroke:#000000; stroke-width:4; stroke-opacity:1; fill:none" points="
  1958.43,372.684 2249.26,372.684 2249.26,130.764 1958.43,130.764 1958.43,372.684 
  "/>
<polygon clip-path="url(#clip1601)" points="
1982.43,215.436 2126.43,215.436 2126.43,167.052 1982.43,167.052 1982.43,215.436 
  " fill="#009af9" fill-opacity="1"/>
<polyline clip-path="url(#clip1601)" style="stroke:#000000; stroke-width:4; stroke-opacity:1; fill:none" points="
  1982.43,215.436 2126.43,215.436 2126.43,167.052 1982.43,167.052 1982.43,215.436 
  "/>
<g clip-path="url(#clip1601)">
<text style="fill:#000000; fill-opacity:1; font-family:Arial,Helvetica Neue,Helvetica,sans-serif; font-size:48; text-anchor:start;" transform="rotate(0, 2150.43, 208.744)" x="2150.43" y="208.744">y1</text>
</g>
<polygon clip-path="url(#clip1601)" points="
1982.43,275.916 2126.43,275.916 2126.43,227.532 1982.43,227.532 1982.43,275.916 
  " fill="#e26f46" fill-opacity="1"/>
<polyline clip-path="url(#clip1601)" style="stroke:#000000; stroke-width:4; stroke-opacity:1; fill:none" points="
  1982.43,275.916 2126.43,275.916 2126.43,227.532 1982.43,227.532 1982.43,275.916 
  "/>
<g clip-path="url(#clip1601)">
<text style="fill:#000000; fill-opacity:1; font-family:Arial,Helvetica Neue,Helvetica,sans-serif; font-size:48; text-anchor:start;" transform="rotate(0, 2150.43, 269.224)" x="2150.43" y="269.224">y2</text>
</g>
<polygon clip-path="url(#clip1601)" points="
1982.43,336.396 2126.43,336.396 2126.43,288.012 1982.43,288.012 1982.43,336.396 
  " fill="#3da44d" fill-opacity="1"/>
<polyline clip-path="url(#clip1601)" style="stroke:#000000; stroke-width:4; stroke-opacity:1; fill:none" points="
  1982.43,336.396 2126.43,336.396 2126.43,288.012 1982.43,288.012 1982.43,336.396 
  "/>
<g clip-path="url(#clip1601)">
<text style="fill:#000000; fill-opacity:1; font-family:Arial,Helvetica Neue,Helvetica,sans-serif; font-size:48; text-anchor:start;" transform="rotate(0, 2150.43, 329.704)" x="2150.43" y="329.704">y3</text>
</g>
</svg>
