<?xml version="1.0" encoding="utf-8"?>
<svg xmlns="http://www.w3.org/2000/svg" xmlns:xlink="http://www.w3.org/1999/xlink" width="600" height="400" viewBox="0 0 600 400">
<defs>
  <clipPath id="clip5000">
    <rect x="0" y="0" width="600" height="400"/>
  </clipPath>
</defs>
<polygon clip-path="url(#clip5000)" points="
0,400 600,400 600,0 0,0 
  " fill="#ffffff" fill-opacity="1"/>
<defs>
  <clipPath id="clip5001">
    <rect x="120" y="0" width="421" height="400"/>
  </clipPath>
</defs>
<polygon clip-path="url(#clip5000)" points="
40.3485,360.121 580.315,360.121 580.315,31.4961 40.3485,31.4961 
  " fill="#ffffff" fill-opacity="1"/>
<defs>
  <clipPath id="clip5002">
    <rect x="40" y="31" width="541" height="330"/>
  </clipPath>
</defs>
<polyline clip-path="url(#clip5002)" style="stroke:#000000; stroke-width:0.5; stroke-opacity:0.1; fill:none" points="
  40.3485,360.121 40.3485,31.4961 
  "/>
<polyline clip-path="url(#clip5002)" style="stroke:#000000; stroke-width:0.5; stroke-opacity:0.1; fill:none" points="
  148.342,360.121 148.342,31.4961 
  "/>
<polyline clip-path="url(#clip5002)" style="stroke:#000000; stroke-width:0.5; stroke-opacity:0.1; fill:none" points="
  256.335,360.121 256.335,31.4961 
  "/>
<polyline clip-path="url(#clip5002)" style="stroke:#000000; stroke-width:0.5; stroke-opacity:0.1; fill:none" points="
  364.328,360.121 364.328,31.4961 
  "/>
<polyline clip-path="url(#clip5002)" style="stroke:#000000; stroke-width:0.5; stroke-opacity:0.1; fill:none" points="
  472.322,360.121 472.322,31.4961 
  "/>
<polyline clip-path="url(#clip5002)" style="stroke:#000000; stroke-width:0.5; stroke-opacity:0.1; fill:none" points="
  580.315,360.121 580.315,31.4961 
  "/>
<polyline clip-path="url(#clip5002)" style="stroke:#000000; stroke-width:0.5; stroke-opacity:0.1; fill:none" points="
  40.3485,315.299 580.315,315.299 
  "/>
<polyline clip-path="url(#clip5002)" style="stroke:#000000; stroke-width:0.5; stroke-opacity:0.1; fill:none" points="
  40.3485,244.258 580.315,244.258 
  "/>
<polyline clip-path="url(#clip5002)" style="stroke:#000000; stroke-width:0.5; stroke-opacity:0.1; fill:none" points="
  40.3485,173.217 580.315,173.217 
  "/>
<polyline clip-path="url(#clip5002)" style="stroke:#000000; stroke-width:0.5; stroke-opacity:0.1; fill:none" points="
  40.3485,102.176 580.315,102.176 
  "/>
<polyline clip-path="url(#clip5000)" style="stroke:#000000; stroke-width:1; stroke-opacity:1; fill:none" points="
  40.3485,360.121 580.315,360.121 
  "/>
<polyline clip-path="url(#clip5000)" style="stroke:#000000; stroke-width:1; stroke-opacity:1; fill:none" points="
  40.3485,360.121 40.3485,31.4961 
  "/>
<polyline clip-path="url(#clip5000)" style="stroke:#000000; stroke-width:1; stroke-opacity:1; fill:none" points="
  40.3485,360.121 40.3485,355.191 
  "/>
<polyline clip-path="url(#clip5000)" style="stroke:#000000; stroke-width:1; stroke-opacity:1; fill:none" points="
  148.342,360.121 148.342,355.191 
  "/>
<polyline clip-path="url(#clip5000)" style="stroke:#000000; stroke-width:1; stroke-opacity:1; fill:none" points="
  256.335,360.121 256.335,355.191 
  "/>
<polyline clip-path="url(#clip5000)" style="stroke:#000000; stroke-width:1; stroke-opacity:1; fill:none" points="
  364.328,360.121 364.328,355.191 
  "/>
<polyline clip-path="url(#clip5000)" style="stroke:#000000; stroke-width:1; stroke-opacity:1; fill:none" points="
  472.322,360.121 472.322,355.191 
  "/>
<polyline clip-path="url(#clip5000)" style="stroke:#000000; stroke-width:1; stroke-opacity:1; fill:none" points="
  580.315,360.121 580.315,355.191 
  "/>
<polyline clip-path="url(#clip5000)" style="stroke:#000000; stroke-width:1; stroke-opacity:1; fill:none" points="
  40.3485,315.299 48.448,315.299 
  "/>
<polyline clip-path="url(#clip5000)" style="stroke:#000000; stroke-width:1; stroke-opacity:1; fill:none" points="
  40.3485,244.258 48.448,244.258 
  "/>
<polyline clip-path="url(#clip5000)" style="stroke:#000000; stroke-width:1; stroke-opacity:1; fill:none" points="
  40.3485,173.217 48.448,173.217 
  "/>
<polyline clip-path="url(#clip5000)" style="stroke:#000000; stroke-width:1; stroke-opacity:1; fill:none" points="
  40.3485,102.176 48.448,102.176 
  "/>
<g clip-path="url(#clip5000)">
<text style="fill:#000000; fill-opacity:1; font-family:Arial,Helvetica Neue,Helvetica,sans-serif; font-size:12; text-anchor:middle;" transform="rotate(0, 40.3485, 373.921)" x="40.3485" y="373.921">0.0</text>
</g>
<g clip-path="url(#clip5000)">
<text style="fill:#000000; fill-opacity:1; font-family:Arial,Helvetica Neue,Helvetica,sans-serif; font-size:12; text-anchor:middle;" transform="rotate(0, 148.342, 373.921)" x="148.342" y="373.921">0.2</text>
</g>
<g clip-path="url(#clip5000)">
<text style="fill:#000000; fill-opacity:1; font-family:Arial,Helvetica Neue,Helvetica,sans-serif; font-size:12; text-anchor:middle;" transform="rotate(0, 256.335, 373.921)" x="256.335" y="373.921">0.4</text>
</g>
<g clip-path="url(#clip5000)">
<text style="fill:#000000; fill-opacity:1; font-family:Arial,Helvetica Neue,Helvetica,sans-serif; font-size:12; text-anchor:middle;" transform="rotate(0, 364.328, 373.921)" x="364.328" y="373.921">0.6</text>
</g>
<g clip-path="url(#clip5000)">
<text style="fill:#000000; fill-opacity:1; font-family:Arial,Helvetica Neue,Helvetica,sans-serif; font-size:12; text-anchor:middle;" transform="rotate(0, 472.322, 373.921)" x="472.322" y="373.921">0.8</text>
</g>
<g clip-path="url(#clip5000)">
<text style="fill:#000000; fill-opacity:1; font-family:Arial,Helvetica Neue,Helvetica,sans-serif; font-size:12; text-anchor:middle;" transform="rotate(0, 580.315, 373.921)" x="580.315" y="373.921">1.0</text>
</g>
<g clip-path="url(#clip5000)">
<text style="fill:#000000; fill-opacity:1; font-family:Arial,Helvetica Neue,Helvetica,sans-serif; font-size:12; text-anchor:end;" transform="rotate(0, 34.3485, 319.799)" x="34.3485" y="319.799">0.6</text>
</g>
<g clip-path="url(#clip5000)">
<text style="fill:#000000; fill-opacity:1; font-family:Arial,Helvetica Neue,Helvetica,sans-serif; font-size:12; text-anchor:end;" transform="rotate(0, 34.3485, 248.758)" x="34.3485" y="248.758">0.8</text>
</g>
<g clip-path="url(#clip5000)">
<text style="fill:#000000; fill-opacity:1; font-family:Arial,Helvetica Neue,Helvetica,sans-serif; font-size:12; text-anchor:end;" transform="rotate(0, 34.3485, 177.717)" x="34.3485" y="177.717">1.0</text>
</g>
<g clip-path="url(#clip5000)">
<text style="fill:#000000; fill-opacity:1; font-family:Arial,Helvetica Neue,Helvetica,sans-serif; font-size:12; text-anchor:end;" transform="rotate(0, 34.3485, 106.676)" x="34.3485" y="106.676">1.2</text>
</g>
<g clip-path="url(#clip5000)">
<text style="fill:#000000; fill-opacity:1; font-family:Arial,Helvetica Neue,Helvetica,sans-serif; font-size:21; text-anchor:middle;" transform="rotate(0, 310.332, 18)" x="310.332" y="18">The Attributes Still Work</text>
</g>
<g clip-path="url(#clip5000)">
<text style="fill:#000000; fill-opacity:1; font-family:Arial,Helvetica Neue,Helvetica,sans-serif; font-size:16; text-anchor:middle;" transform="rotate(0, 310.332, 397.6)" x="310.332" y="397.6">t</text>
</g>
<polyline clip-path="url(#clip5002)" style="stroke:#009af9; stroke-width:3; stroke-opacity:1; fill:none" points="
  40.3485,350.82 40.889,350.64 41.4295,350.46 41.97,350.28 42.5105,350.1 43.051,349.92 43.5916,349.739 44.1321,349.559 44.6726,349.378 45.2131,349.197 
  45.7536,349.015 46.2941,348.834 46.8346,348.652 47.3751,348.47 47.9156,348.288 48.4561,348.106 48.9966,347.924 49.5371,347.741 50.0776,347.558 50.6181,347.375 
  51.1586,347.192 51.6992,347.009 52.2397,346.825 52.7802,346.642 53.3207,346.458 53.8612,346.274 54.4017,346.09 54.9422,345.905 55.4827,345.72 56.0232,345.536 
  56.5637,345.351 57.1042,345.166 57.6447,344.98 58.1852,344.795 58.7257,344.609 59.2663,344.423 59.8068,344.237 60.3473,344.05 60.8878,343.864 61.4283,343.677 
  61.9688,343.49 62.5093,343.303 63.0498,343.116 63.5903,342.929 64.1308,342.741 64.6713,342.553 65.2118,342.365 65.7523,342.177 66.2928,341.989 66.8334,341.8 
  67.3739,341.611 67.9144,341.422 68.4549,341.233 68.9954,341.044 69.5359,340.854 70.0764,340.665 70.6169,340.475 71.1574,340.284 71.6979,340.094 72.2384,339.904 
  72.7789,339.713 73.3194,339.522 73.8599,339.331 74.4004,339.14 74.941,338.948 75.4815,338.757 76.022,338.565 76.5625,338.373 77.103,338.181 77.6435,337.988 
  78.184,337.795 78.7245,337.603 79.265,337.41 79.8055,337.216 80.346,337.023 80.8865,336.829 81.427,336.636 81.9675,336.442 82.5081,336.247 83.0486,336.053 
  83.5891,335.858 84.1296,335.664 84.6701,335.469 85.2106,335.273 85.7511,335.078 86.2916,334.883 86.8321,334.687 87.3726,334.491 87.9131,334.295 88.4536,334.098 
  88.9941,333.902 89.5346,333.705 90.0751,333.508 90.6157,333.311 91.1562,333.113 91.6967,332.916 92.2372,332.718 92.7777,332.52 93.3182,332.322 93.8587,332.124 
  94.3992,331.925 94.9397,331.726 95.4802,331.527 96.0207,331.328 96.5612,331.129 97.1017,330.929 97.6422,330.729 98.1828,330.53 98.7233,330.329 99.2638,330.129 
  99.8043,329.928 100.345,329.728 100.885,329.527 101.426,329.325 101.966,329.124 102.507,328.922 103.047,328.721 103.588,328.519 104.128,328.316 104.669,328.114 
  105.209,327.911 105.75,327.709 106.29,327.506 106.831,327.302 107.371,327.099 107.912,326.895 108.452,326.691 108.993,326.487 109.533,326.283 110.074,326.079 
  110.614,325.874 111.155,325.669 111.695,325.464 112.236,325.259 112.776,325.053 113.317,324.847 113.857,324.642 114.398,324.435 114.938,324.229 115.479,324.023 
  116.019,323.816 116.56,323.609 117.1,323.402 117.641,323.194 118.182,322.987 118.722,322.779 119.263,322.571 119.803,322.363 120.344,322.154 120.884,321.946 
  121.425,321.737 121.965,321.528 122.506,321.318 123.046,321.109 123.587,320.899 124.127,320.689 124.668,320.479 125.208,320.269 125.749,320.058 126.289,319.847 
  126.83,319.636 127.37,319.425 127.911,319.214 128.451,319.002 128.992,318.79 129.532,318.578 130.073,318.366 130.613,318.154 131.154,317.941 131.694,317.728 
  132.235,317.515 132.775,317.302 133.316,317.088 133.856,316.874 134.397,316.66 134.937,316.446 135.478,316.232 136.018,316.017 136.559,315.802 137.099,315.587 
  137.64,315.372 138.18,315.156 138.721,314.941 139.261,314.725 139.802,314.508 140.342,314.292 140.883,314.075 141.423,313.859 141.964,313.642 142.504,313.424 
  143.045,313.207 143.585,312.989 144.126,312.771 144.666,312.553 145.207,312.335 145.747,312.116 146.288,311.897 146.828,311.678 147.369,311.459 147.909,311.24 
  148.45,311.02 148.99,310.8 149.531,310.58 150.071,310.36 150.612,310.139 151.152,309.918 151.693,309.697 152.233,309.476 152.774,309.255 153.314,309.033 
  153.855,308.811 154.395,308.589 154.936,308.366 155.476,308.144 156.017,307.921 156.558,307.698 157.098,307.475 157.639,307.251 158.179,307.027 158.72,306.804 
  159.26,306.579 159.801,306.355 160.341,306.13 160.882,305.905 161.422,305.68 161.963,305.455 162.503,305.23 163.044,305.004 163.584,304.778 164.125,304.552 
  164.665,304.325 165.206,304.098 165.746,303.872 166.287,303.644 166.827,303.417 167.368,303.189 167.908,302.962 168.449,302.734 168.989,302.505 169.53,302.277 
  170.07,302.048 170.611,301.819 171.151,301.59 171.692,301.36 172.232,301.131 172.773,300.901 173.313,300.671 173.854,300.44 174.394,300.21 174.935,299.979 
  175.475,299.748 176.016,299.516 176.556,299.285 177.097,299.053 177.637,298.821 178.178,298.589 178.718,298.356 179.259,298.124 179.799,297.891 180.34,297.657 
  180.88,297.424 181.421,297.19 181.961,296.956 182.502,296.722 183.042,296.488 183.583,296.253 184.123,296.019 184.664,295.783 185.204,295.548 185.745,295.313 
  186.285,295.077 186.826,294.841 187.366,294.604 187.907,294.368 188.447,294.131 188.988,293.894 189.528,293.657 190.069,293.42 190.609,293.182 191.15,292.944 
  191.69,292.706 192.231,292.467 192.771,292.229 193.312,291.99 193.852,291.75 194.393,291.511 194.933,291.271 195.474,291.032 196.015,290.791 196.555,290.551 
  197.096,290.31 197.636,290.07 198.177,289.829 198.717,289.587 199.258,289.346 199.798,289.104 200.339,288.862 200.879,288.619 201.42,288.377 201.96,288.134 
  202.501,287.891 203.041,287.648 203.582,287.404 204.122,287.16 204.663,286.916 205.203,286.672 205.744,286.427 206.284,286.183 206.825,285.938 207.365,285.692 
  207.906,285.447 208.446,285.201 208.987,284.955 209.527,284.709 210.068,284.462 210.608,284.215 211.149,283.968 211.689,283.721 212.23,283.474 212.77,283.226 
  213.311,282.978 213.851,282.73 214.392,282.481 214.932,282.232 215.473,281.983 216.013,281.734 216.554,281.484 217.094,281.235 217.635,280.985 218.175,280.734 
  218.716,280.484 219.256,280.233 219.797,279.982 220.337,279.731 220.878,279.479 221.418,279.227 221.959,278.975 222.499,278.723 223.04,278.47 223.58,278.217 
  224.121,277.964 224.661,277.711 225.202,277.457 225.742,277.204 226.283,276.949 226.823,276.695 227.364,276.44 227.904,276.186 228.445,275.93 228.985,275.675 
  229.526,275.419 230.066,275.163 230.607,274.907 231.147,274.651 231.688,274.394 232.228,274.137 232.769,273.88 233.309,273.622 233.85,273.365 234.391,273.107 
  234.931,272.848 235.472,272.59 236.012,272.331 236.553,272.072 237.093,271.813 237.634,271.553 238.174,271.293 238.715,271.033 239.255,270.773 239.796,270.512 
  240.336,270.251 240.877,269.99 241.417,269.729 241.958,269.467 242.498,269.205 243.039,268.943 243.579,268.681 244.12,268.418 244.66,268.155 245.201,267.892 
  245.741,267.628 246.282,267.364 246.822,267.1 247.363,266.836 247.903,266.571 248.444,266.306 248.984,266.041 249.525,265.776 250.065,265.51 250.606,265.244 
  251.146,264.978 251.687,264.712 252.227,264.445 252.768,264.178 253.308,263.91 253.849,263.643 254.389,263.375 254.93,263.107 255.47,262.839 256.011,262.57 
  256.551,262.301 257.092,262.032 257.632,261.762 258.173,261.493 258.713,261.223 259.254,260.952 259.794,260.682 260.335,260.411 260.875,260.14 261.416,259.869 
  261.956,259.597 262.497,259.325 263.037,259.053 263.578,258.78 264.118,258.508 264.659,258.235 265.199,257.961 265.74,257.688 266.28,257.414 266.821,257.14 
  267.361,256.865 267.902,256.591 268.442,256.316 268.983,256.04 269.523,255.765 270.064,255.489 270.604,255.213 271.145,254.937 271.685,254.66 272.226,254.383 
  272.767,254.106 273.307,253.828 273.848,253.551 274.388,253.273 274.929,252.994 275.469,252.716 276.01,252.437 276.55,252.158 277.091,251.878 277.631,251.598 
  278.172,251.318 278.712,251.038 279.253,250.758 279.793,250.477 280.334,250.196 280.874,249.914 281.415,249.632 281.955,249.35 282.496,249.068 283.036,248.785 
  283.577,248.503 284.117,248.219 284.658,247.936 285.198,247.652 285.739,247.368 286.279,247.084 286.82,246.799 287.36,246.515 287.901,246.229 288.441,245.944 
  288.982,245.658 289.522,245.372 290.063,245.086 290.603,244.799 291.144,244.512 291.684,244.225 292.225,243.938 292.765,243.65 293.306,243.362 293.846,243.074 
  294.387,242.785 294.927,242.496 295.468,242.207 296.008,241.917 296.549,241.628 297.089,241.337 297.63,241.047 298.17,240.756 298.711,240.465 299.251,240.174 
  299.792,239.883 300.332,239.591 300.873,239.299 301.413,239.006 301.954,238.713 302.494,238.42 303.035,238.127 303.575,237.833 304.116,237.539 304.656,237.245 
  305.197,236.951 305.737,236.656 306.278,236.361 306.818,236.065 307.359,235.77 307.899,235.473 308.44,235.177 308.98,234.881 309.521,234.584 310.061,234.286 
  310.602,233.989 311.142,233.691 311.683,233.393 312.224,233.094 312.764,232.796 313.305,232.497 313.845,232.197 314.386,231.898 314.926,231.598 315.467,231.298 
  316.007,230.997 316.548,230.696 317.088,230.395 317.629,230.094 318.169,229.792 318.71,229.49 319.25,229.187 319.791,228.885 320.331,228.582 320.872,228.278 
  321.412,227.975 321.953,227.671 322.493,227.367 323.034,227.062 323.574,226.757 324.115,226.452 324.655,226.147 325.196,225.841 325.736,225.535 326.277,225.229 
  326.817,224.922 327.358,224.615 327.898,224.308 328.439,224 328.979,223.692 329.52,223.384 330.06,223.075 330.601,222.766 331.141,222.457 331.682,222.148 
  332.222,221.838 332.763,221.528 333.303,221.217 333.844,220.907 334.384,220.596 334.925,220.284 335.465,219.972 336.006,219.66 336.546,219.348 337.087,219.036 
  337.627,218.723 338.168,218.409 338.708,218.096 339.249,217.782 339.789,217.468 340.33,217.153 340.87,216.838 341.411,216.523 341.951,216.208 342.492,215.892 
  343.032,215.576 343.573,215.259 344.113,214.942 344.654,214.625 345.194,214.308 345.735,213.99 346.275,213.672 346.816,213.354 347.356,213.035 347.897,212.716 
  348.437,212.397 348.978,212.077 349.518,211.757 350.059,211.437 350.6,211.116 351.14,210.795 351.681,210.474 352.221,210.152 352.762,209.83 353.302,209.508 
  353.843,209.185 354.383,208.862 354.924,208.539 355.464,208.216 356.005,207.892 356.545,207.568 357.086,207.243 357.626,206.918 358.167,206.593 358.707,206.267 
  359.248,205.941 359.788,205.615 360.329,205.289 360.869,204.962 361.41,204.635 361.95,204.307 362.491,203.979 363.031,203.651 363.572,203.323 364.112,202.994 
  364.653,202.665 365.193,202.335 365.734,202.005 366.274,201.675 366.815,201.345 367.355,201.014 367.896,200.683 368.436,200.351 368.977,200.019 369.517,199.687 
  370.058,199.354 370.598,199.022 371.139,198.688 371.679,198.355 372.22,198.021 372.76,197.687 373.301,197.352 373.841,197.017 374.382,196.682 374.922,196.347 
  375.463,196.011 376.003,195.674 376.544,195.338 377.084,195.001 377.625,194.664 378.165,194.326 378.706,193.988 379.246,193.65 379.787,193.311 380.327,192.972 
  380.868,192.633 381.408,192.293 381.949,191.953 382.489,191.613 383.03,191.272 383.57,190.931 384.111,190.59 384.651,190.248 385.192,189.906 385.732,189.564 
  386.273,189.221 386.813,188.878 387.354,188.534 387.894,188.19 388.435,187.846 388.975,187.502 389.516,187.157 390.057,186.812 390.597,186.466 391.138,186.12 
  391.678,185.774 392.219,185.427 392.759,185.08 393.3,184.733 393.84,184.385 394.381,184.037 394.921,183.689 395.462,183.34 396.002,182.991 396.543,182.642 
  397.083,182.292 397.624,181.942 398.164,181.592 398.705,181.241 399.245,180.89 399.786,180.538 400.326,180.186 400.867,179.834 401.407,179.481 401.948,179.128 
  402.488,178.775 403.029,178.421 403.569,178.067 404.11,177.713 404.65,177.358 405.191,177.003 405.731,176.648 406.272,176.292 406.812,175.936 407.353,175.579 
  407.893,175.222 408.434,174.865 408.974,174.507 409.515,174.149 410.055,173.791 410.596,173.432 411.136,173.073 411.677,172.714 412.217,172.354 412.758,171.994 
  413.298,171.633 413.839,171.272 414.379,170.911 414.92,170.549 415.46,170.187 416.001,169.825 416.541,169.462 417.082,169.099 417.622,168.736 418.163,168.372 
  418.703,168.008 419.244,167.643 419.784,167.278 420.325,166.913 420.865,166.547 421.406,166.181 421.946,165.815 422.487,165.448 423.027,165.081 423.568,164.713 
  424.108,164.345 424.649,163.977 425.189,163.608 425.73,163.239 426.27,162.87 426.811,162.5 427.351,162.13 427.892,161.759 428.433,161.389 428.973,161.017 
  429.514,160.646 430.054,160.274 430.595,159.901 431.135,159.529 431.676,159.155 432.216,158.782 432.757,158.408 433.297,158.034 433.838,157.659 434.378,157.284 
  434.919,156.909 435.459,156.533 436,156.157 436.54,155.78 437.081,155.403 437.621,155.026 438.162,154.648 438.702,154.27 439.243,153.892 439.783,153.513 
  440.324,153.133 440.864,152.754 441.405,152.374 441.945,151.993 442.486,151.613 443.026,151.232 443.567,150.85 444.107,150.468 444.648,150.086 445.188,149.703 
  445.729,149.32 446.269,148.937 446.81,148.553 447.35,148.168 447.891,147.784 448.431,147.399 448.972,147.013 449.512,146.628 450.053,146.241 450.593,145.855 
  451.134,145.468 451.674,145.08 452.215,144.693 452.755,144.304 453.296,143.916 453.836,143.527 454.377,143.138 454.917,142.748 455.458,142.358 455.998,141.967 
  456.539,141.576 457.079,141.185 457.62,140.793 458.16,140.401 458.701,140.009 459.241,139.616 459.782,139.223 460.322,138.829 460.863,138.435 461.403,138.04 
  461.944,137.646 462.484,137.25 463.025,136.855 463.565,136.459 464.106,136.062 464.646,135.665 465.187,135.268 465.727,134.87 466.268,134.472 466.808,134.074 
  467.349,133.675 467.89,133.275 468.43,132.876 468.971,132.476 469.511,132.075 470.052,131.674 470.592,131.273 471.133,130.871 471.673,130.469 472.214,130.066 
  472.754,129.664 473.295,129.26 473.835,128.856 474.376,128.452 474.916,128.048 475.457,127.643 475.997,127.237 476.538,126.832 477.078,126.425 477.619,126.019 
  478.159,125.612 478.7,125.204 479.24,124.796 479.781,124.388 480.321,123.979 480.862,123.57 481.402,123.161 481.943,122.751 482.483,122.34 483.024,121.93 
  483.564,121.519 484.105,121.107 484.645,120.695 485.186,120.283 485.726,119.87 486.267,119.456 486.807,119.043 487.348,118.629 487.888,118.214 488.429,117.799 
  488.969,117.384 489.51,116.968 490.05,116.552 490.591,116.135 491.131,115.718 491.672,115.301 492.212,114.883 492.753,114.465 493.293,114.046 493.834,113.627 
  494.374,113.207 494.915,112.787 495.455,112.367 495.996,111.946 496.536,111.525 497.077,111.103 497.617,110.681 498.158,110.258 498.698,109.835 499.239,109.412 
  499.779,108.988 500.32,108.564 500.86,108.139 501.401,107.714 501.941,107.288 502.482,106.862 503.022,106.436 503.563,106.009 504.103,105.582 504.644,105.154 
  505.184,104.726 505.725,104.297 506.266,103.868 506.806,103.439 507.347,103.009 507.887,102.579 508.428,102.148 508.968,101.717 509.509,101.285 510.049,100.853 
  510.59,100.421 511.13,99.9877 511.671,99.5544 512.211,99.1205 512.752,98.6863 513.292,98.2516 513.833,97.8165 514.373,97.3809 514.914,96.9449 515.454,96.5085 
  515.995,96.0716 516.535,95.6342 517.076,95.1965 517.616,94.7583 518.157,94.3196 518.697,93.8805 519.238,93.4409 519.778,93.001 520.319,92.5605 520.859,92.1196 
  521.4,91.6783 521.94,91.2365 522.481,90.7943 523.021,90.3516 523.562,89.9085 524.102,89.4649 524.643,89.0209 525.183,88.5765 525.724,88.1316 526.264,87.6862 
  526.805,87.2404 527.345,86.7941 527.886,86.3474 528.426,85.9002 528.967,85.4526 529.507,85.0045 530.048,84.556 530.588,84.107 531.129,83.6576 531.669,83.2077 
  532.21,82.7574 532.75,82.3066 533.291,81.8553 533.831,81.4036 534.372,80.9514 534.912,80.4988 535.453,80.0457 535.993,79.5922 536.534,79.1381 537.074,78.6837 
  537.615,78.2288 538.155,77.7734 538.696,77.3175 539.236,76.8612 539.777,76.4045 540.317,75.9472 540.858,75.4896 541.398,75.0314 541.939,74.5728 542.479,74.1137 
  543.02,73.6542 543.56,73.1941 544.101,72.7337 544.642,72.2727 545.182,71.8113 545.723,71.3494 546.263,70.8871 546.804,70.4243 547.344,69.961 547.885,69.4973 
  548.425,69.0331 548.966,68.5684 549.506,68.1032 550.047,67.6376 550.587,67.1715 551.128,66.7049 551.668,66.2379 552.209,65.7704 552.749,65.3024 553.29,64.8339 
  553.83,64.365 554.371,63.8956 554.911,63.4257 555.452,62.9554 555.992,62.4845 556.533,62.0132 557.073,61.5414 557.614,61.0692 558.154,60.5964 558.695,60.1232 
  559.235,59.6495 559.776,59.1753 560.316,58.7007 560.857,58.2255 561.397,57.7499 561.938,57.2738 562.478,56.7972 563.019,56.3202 563.559,55.8426 564.1,55.3646 
  564.64,54.8861 565.181,54.4071 565.721,53.9276 566.262,53.4477 566.802,52.9672 567.343,52.4863 567.883,52.0049 568.424,51.5229 568.964,51.0405 569.505,50.5577 
  570.045,50.0743 570.586,49.5904 571.126,49.1061 571.667,48.6212 572.207,48.1359 572.748,47.6501 573.288,47.1638 573.829,46.677 574.369,46.1897 574.91,45.7019 
  575.45,45.2136 575.991,44.7248 576.531,44.2355 577.072,43.7458 577.612,43.2555 578.153,42.7648 578.693,42.2735 579.234,41.7818 579.774,41.2895 580.315,40.7968 
  
  "/>
<polygon clip-path="url(#clip5000)" points="
477.574,82.6161 562.315,82.6161 562.315,52.3761 477.574,52.3761 
  " fill="#ffffff" fill-opacity="1"/>
<polyline clip-path="url(#clip5000)" style="stroke:#000000; stroke-width:1; stroke-opacity:1; fill:none" points="
  477.574,82.6161 562.315,82.6161 562.315,52.3761 477.574,52.3761 477.574,82.6161 
  "/>
<polyline clip-path="url(#clip5000)" style="stroke:#009af9; stroke-width:3; stroke-opacity:1; fill:none" points="
  483.574,67.4961 519.574,67.4961 
  "/>
<g clip-path="url(#clip5000)">
<text style="fill:#000000; fill-opacity:1; font-family:Arial,Helvetica Neue,Helvetica,sans-serif; font-size:12; text-anchor:start;" transform="rotate(0, 525.574, 71.9961)" x="525.574" y="71.9961">u1(t)</text>
</g>
</svg>
