<?xml version="1.0" encoding="utf-8"?>
<svg xmlns="http://www.w3.org/2000/svg" xmlns:xlink="http://www.w3.org/1999/xlink" width="600" height="400" viewBox="0 0 600 400">
<defs>
  <clipPath id="clip9600">
    <rect x="0" y="0" width="600" height="400"/>
  </clipPath>
</defs>
<polygon clip-path="url(#clip9600)" points="
0,400 600,400 600,0 0,0 
  " fill="#ffffff" fill-opacity="1"/>
<defs>
  <clipPath id="clip9601">
    <rect x="120" y="0" width="421" height="400"/>
  </clipPath>
</defs>
<polygon clip-path="url(#clip9600)" points="
47.0391,375.869 580.315,375.869 580.315,11.811 47.0391,11.811 
  " fill="#ffffff" fill-opacity="1"/>
<defs>
  <clipPath id="clip9602">
    <rect x="47" y="11" width="534" height="365"/>
  </clipPath>
</defs>
<polyline clip-path="url(#clip9602)" style="stroke:#000000; stroke-width:0.5; stroke-opacity:0.1; fill:none" points="
  62.1318,375.869 62.1318,11.811 
  "/>
<polyline clip-path="url(#clip9602)" style="stroke:#000000; stroke-width:0.5; stroke-opacity:0.1; fill:none" points="
  229.829,375.869 229.829,11.811 
  "/>
<polyline clip-path="url(#clip9602)" style="stroke:#000000; stroke-width:0.5; stroke-opacity:0.1; fill:none" points="
  397.525,375.869 397.525,11.811 
  "/>
<polyline clip-path="url(#clip9602)" style="stroke:#000000; stroke-width:0.5; stroke-opacity:0.1; fill:none" points="
  565.222,375.869 565.222,11.811 
  "/>
<polyline clip-path="url(#clip9602)" style="stroke:#000000; stroke-width:0.5; stroke-opacity:0.1; fill:none" points="
  47.0391,366.917 580.315,366.917 
  "/>
<polyline clip-path="url(#clip9602)" style="stroke:#000000; stroke-width:0.5; stroke-opacity:0.1; fill:none" points="
  47.0391,280.246 580.315,280.246 
  "/>
<polyline clip-path="url(#clip9602)" style="stroke:#000000; stroke-width:0.5; stroke-opacity:0.1; fill:none" points="
  47.0391,193.575 580.315,193.575 
  "/>
<polyline clip-path="url(#clip9602)" style="stroke:#000000; stroke-width:0.5; stroke-opacity:0.1; fill:none" points="
  47.0391,106.903 580.315,106.903 
  "/>
<polyline clip-path="url(#clip9602)" style="stroke:#000000; stroke-width:0.5; stroke-opacity:0.1; fill:none" points="
  47.0391,20.232 580.315,20.232 
  "/>
<polyline clip-path="url(#clip9600)" style="stroke:#000000; stroke-width:1; stroke-opacity:1; fill:none" points="
  47.0391,375.869 580.315,375.869 
  "/>
<polyline clip-path="url(#clip9600)" style="stroke:#000000; stroke-width:1; stroke-opacity:1; fill:none" points="
  47.0391,375.869 47.0391,11.811 
  "/>
<polyline clip-path="url(#clip9600)" style="stroke:#000000; stroke-width:1; stroke-opacity:1; fill:none" points="
  62.1318,375.869 62.1318,370.408 
  "/>
<polyline clip-path="url(#clip9600)" style="stroke:#000000; stroke-width:1; stroke-opacity:1; fill:none" points="
  229.829,375.869 229.829,370.408 
  "/>
<polyline clip-path="url(#clip9600)" style="stroke:#000000; stroke-width:1; stroke-opacity:1; fill:none" points="
  397.525,375.869 397.525,370.408 
  "/>
<polyline clip-path="url(#clip9600)" style="stroke:#000000; stroke-width:1; stroke-opacity:1; fill:none" points="
  565.222,375.869 565.222,370.408 
  "/>
<polyline clip-path="url(#clip9600)" style="stroke:#000000; stroke-width:1; stroke-opacity:1; fill:none" points="
  47.0391,366.917 55.0382,366.917 
  "/>
<polyline clip-path="url(#clip9600)" style="stroke:#000000; stroke-width:1; stroke-opacity:1; fill:none" points="
  47.0391,280.246 55.0382,280.246 
  "/>
<polyline clip-path="url(#clip9600)" style="stroke:#000000; stroke-width:1; stroke-opacity:1; fill:none" points="
  47.0391,193.575 55.0382,193.575 
  "/>
<polyline clip-path="url(#clip9600)" style="stroke:#000000; stroke-width:1; stroke-opacity:1; fill:none" points="
  47.0391,106.903 55.0382,106.903 
  "/>
<polyline clip-path="url(#clip9600)" style="stroke:#000000; stroke-width:1; stroke-opacity:1; fill:none" points="
  47.0391,20.232 55.0382,20.232 
  "/>
<g clip-path="url(#clip9600)">
<text style="fill:#000000; fill-opacity:1; font-family:Arial,Helvetica Neue,Helvetica,sans-serif; font-size:12; text-anchor:middle;" transform="rotate(0, 62.1318, 389.669)" x="62.1318" y="389.669">1</text>
</g>
<g clip-path="url(#clip9600)">
<text style="fill:#000000; fill-opacity:1; font-family:Arial,Helvetica Neue,Helvetica,sans-serif; font-size:12; text-anchor:middle;" transform="rotate(0, 229.829, 389.669)" x="229.829" y="389.669">2</text>
</g>
<g clip-path="url(#clip9600)">
<text style="fill:#000000; fill-opacity:1; font-family:Arial,Helvetica Neue,Helvetica,sans-serif; font-size:12; text-anchor:middle;" transform="rotate(0, 397.525, 389.669)" x="397.525" y="389.669">3</text>
</g>
<g clip-path="url(#clip9600)">
<text style="fill:#000000; fill-opacity:1; font-family:Arial,Helvetica Neue,Helvetica,sans-serif; font-size:12; text-anchor:middle;" transform="rotate(0, 565.222, 389.669)" x="565.222" y="389.669">4</text>
</g>
<g clip-path="url(#clip9600)">
<text style="fill:#000000; fill-opacity:1; font-family:Arial,Helvetica Neue,Helvetica,sans-serif; font-size:12; text-anchor:end;" transform="rotate(0, 41.0391, 371.417)" x="41.0391" y="371.417">0.00</text>
</g>
<g clip-path="url(#clip9600)">
<text style="fill:#000000; fill-opacity:1; font-family:Arial,Helvetica Neue,Helvetica,sans-serif; font-size:12; text-anchor:end;" transform="rotate(0, 41.0391, 284.746)" x="41.0391" y="284.746">0.25</text>
</g>
<g clip-path="url(#clip9600)">
<text style="fill:#000000; fill-opacity:1; font-family:Arial,Helvetica Neue,Helvetica,sans-serif; font-size:12; text-anchor:end;" transform="rotate(0, 41.0391, 198.075)" x="41.0391" y="198.075">0.50</text>
</g>
<g clip-path="url(#clip9600)">
<text style="fill:#000000; fill-opacity:1; font-family:Arial,Helvetica Neue,Helvetica,sans-serif; font-size:12; text-anchor:end;" transform="rotate(0, 41.0391, 111.403)" x="41.0391" y="111.403">0.75</text>
</g>
<g clip-path="url(#clip9600)">
<text style="fill:#000000; fill-opacity:1; font-family:Arial,Helvetica Neue,Helvetica,sans-serif; font-size:12; text-anchor:end;" transform="rotate(0, 41.0391, 24.732)" x="41.0391" y="24.732">1.00</text>
</g>
<polyline clip-path="url(#clip9602)" style="stroke:#009af9; stroke-width:1; stroke-opacity:1; fill:none" points="
  62.1318,153.569 229.829,257.673 397.525,179.284 565.222,108.124 
  "/>
<polyline clip-path="url(#clip9602)" style="stroke:#e26f46; stroke-width:1; stroke-opacity:1; fill:none" points="
  62.1318,365.565 229.829,106.233 397.525,362.157 565.222,102.269 
  "/>
<polyline clip-path="url(#clip9602)" style="stroke:#3da44d; stroke-width:1; stroke-opacity:1; fill:none" points="
  62.1318,119.87 229.829,81.2483 397.525,269.651 565.222,238.071 
  "/>
<polyline clip-path="url(#clip9602)" style="stroke:#c271d2; stroke-width:1; stroke-opacity:1; fill:none" points="
  62.1318,247.017 229.829,22.1145 397.525,362.523 565.222,169.792 
  "/>
<polygon clip-path="url(#clip9600)" points="
489.608,108.291 562.315,108.291 562.315,32.691 489.608,32.691 
  " fill="#ffffff" fill-opacity="1"/>
<polyline clip-path="url(#clip9600)" style="stroke:#000000; stroke-width:1; stroke-opacity:1; fill:none" points="
  489.608,108.291 562.315,108.291 562.315,32.691 489.608,32.691 489.608,108.291 
  "/>
<polyline clip-path="url(#clip9600)" style="stroke:#009af9; stroke-width:1; stroke-opacity:1; fill:none" points="
  495.608,47.811 531.608,47.811 
  "/>
<g clip-path="url(#clip9600)">
<text style="fill:#000000; fill-opacity:1; font-family:Arial,Helvetica Neue,Helvetica,sans-serif; font-size:12; text-anchor:start;" transform="rotate(0, 537.608, 52.311)" x="537.608" y="52.311">y1</text>
</g>
<polyline clip-path="url(#clip9600)" style="stroke:#e26f46; stroke-width:1; stroke-opacity:1; fill:none" points="
  495.608,62.931 531.608,62.931 
  "/>
<g clip-path="url(#clip9600)">
<text style="fill:#000000; fill-opacity:1; font-family:Arial,Helvetica Neue,Helvetica,sans-serif; font-size:12; text-anchor:start;" transform="rotate(0, 537.608, 67.431)" x="537.608" y="67.431">y2</text>
</g>
<polyline clip-path="url(#clip9600)" style="stroke:#3da44d; stroke-width:1; stroke-opacity:1; fill:none" points="
  495.608,78.051 531.608,78.051 
  "/>
<g clip-path="url(#clip9600)">
<text style="fill:#000000; fill-opacity:1; font-family:Arial,Helvetica Neue,Helvetica,sans-serif; font-size:12; text-anchor:start;" transform="rotate(0, 537.608, 82.551)" x="537.608" y="82.551">y3</text>
</g>
<polyline clip-path="url(#clip9600)" style="stroke:#c271d2; stroke-width:1; stroke-opacity:1; fill:none" points="
  495.608,93.171 531.608,93.171 
  "/>
<g clip-path="url(#clip9600)">
<text style="fill:#000000; fill-opacity:1; font-family:Arial,Helvetica Neue,Helvetica,sans-serif; font-size:12; text-anchor:start;" transform="rotate(0, 537.608, 97.671)" x="537.608" y="97.671">y4</text>
</g>
</svg>
