<?xml version="1.0" encoding="utf-8"?>
<svg xmlns="http://www.w3.org/2000/svg" xmlns:xlink="http://www.w3.org/1999/xlink" width="600" height="400" viewBox="0 0 600 400">
<defs>
  <clipPath id="clip9800">
    <rect x="0" y="0" width="600" height="400"/>
  </clipPath>
</defs>
<polygon clip-path="url(#clip9800)" points="
0,400 600,400 600,0 0,0 
  " fill="#ffffff" fill-opacity="1"/>
<defs>
  <clipPath id="clip9801">
    <rect x="120" y="0" width="421" height="400"/>
  </clipPath>
</defs>
<polygon clip-path="url(#clip9800)" points="
40.3485,375.869 580.315,375.869 580.315,31.4961 40.3485,31.4961 
  " fill="#ffffff" fill-opacity="1"/>
<defs>
  <clipPath id="clip9802">
    <rect x="40" y="31" width="541" height="345"/>
  </clipPath>
</defs>
<polyline clip-path="url(#clip9802)" style="stroke:#000000; stroke-width:0.5; stroke-opacity:0.1; fill:none" points="
  55.6306,375.869 55.6306,31.4961 
  "/>
<polyline clip-path="url(#clip9802)" style="stroke:#000000; stroke-width:0.5; stroke-opacity:0.1; fill:none" points="
  225.431,375.869 225.431,31.4961 
  "/>
<polyline clip-path="url(#clip9802)" style="stroke:#000000; stroke-width:0.5; stroke-opacity:0.1; fill:none" points="
  395.232,375.869 395.232,31.4961 
  "/>
<polyline clip-path="url(#clip9802)" style="stroke:#000000; stroke-width:0.5; stroke-opacity:0.1; fill:none" points="
  565.033,375.869 565.033,31.4961 
  "/>
<polyline clip-path="url(#clip9802)" style="stroke:#000000; stroke-width:0.5; stroke-opacity:0.1; fill:none" points="
  40.3485,298.621 580.315,298.621 
  "/>
<polyline clip-path="url(#clip9802)" style="stroke:#000000; stroke-width:0.5; stroke-opacity:0.1; fill:none" points="
  40.3485,213.692 580.315,213.692 
  "/>
<polyline clip-path="url(#clip9802)" style="stroke:#000000; stroke-width:0.5; stroke-opacity:0.1; fill:none" points="
  40.3485,128.763 580.315,128.763 
  "/>
<polyline clip-path="url(#clip9802)" style="stroke:#000000; stroke-width:0.5; stroke-opacity:0.1; fill:none" points="
  40.3485,43.8335 580.315,43.8335 
  "/>
<polyline clip-path="url(#clip9800)" style="stroke:#000000; stroke-width:1; stroke-opacity:1; fill:none" points="
  40.3485,375.869 580.315,375.869 
  "/>
<polyline clip-path="url(#clip9800)" style="stroke:#000000; stroke-width:1; stroke-opacity:1; fill:none" points="
  40.3485,375.869 40.3485,31.4961 
  "/>
<polyline clip-path="url(#clip9800)" style="stroke:#000000; stroke-width:1; stroke-opacity:1; fill:none" points="
  55.6306,375.869 55.6306,370.703 
  "/>
<polyline clip-path="url(#clip9800)" style="stroke:#000000; stroke-width:1; stroke-opacity:1; fill:none" points="
  225.431,375.869 225.431,370.703 
  "/>
<polyline clip-path="url(#clip9800)" style="stroke:#000000; stroke-width:1; stroke-opacity:1; fill:none" points="
  395.232,375.869 395.232,370.703 
  "/>
<polyline clip-path="url(#clip9800)" style="stroke:#000000; stroke-width:1; stroke-opacity:1; fill:none" points="
  565.033,375.869 565.033,370.703 
  "/>
<polyline clip-path="url(#clip9800)" style="stroke:#000000; stroke-width:1; stroke-opacity:1; fill:none" points="
  40.3485,298.621 48.448,298.621 
  "/>
<polyline clip-path="url(#clip9800)" style="stroke:#000000; stroke-width:1; stroke-opacity:1; fill:none" points="
  40.3485,213.692 48.448,213.692 
  "/>
<polyline clip-path="url(#clip9800)" style="stroke:#000000; stroke-width:1; stroke-opacity:1; fill:none" points="
  40.3485,128.763 48.448,128.763 
  "/>
<polyline clip-path="url(#clip9800)" style="stroke:#000000; stroke-width:1; stroke-opacity:1; fill:none" points="
  40.3485,43.8335 48.448,43.8335 
  "/>
<g clip-path="url(#clip9800)">
<text style="fill:#000000; fill-opacity:1; font-family:Arial,Helvetica Neue,Helvetica,sans-serif; font-size:12; text-anchor:middle;" transform="rotate(0, 55.6306, 389.669)" x="55.6306" y="389.669">1</text>
</g>
<g clip-path="url(#clip9800)">
<text style="fill:#000000; fill-opacity:1; font-family:Arial,Helvetica Neue,Helvetica,sans-serif; font-size:12; text-anchor:middle;" transform="rotate(0, 225.431, 389.669)" x="225.431" y="389.669">2</text>
</g>
<g clip-path="url(#clip9800)">
<text style="fill:#000000; fill-opacity:1; font-family:Arial,Helvetica Neue,Helvetica,sans-serif; font-size:12; text-anchor:middle;" transform="rotate(0, 395.232, 389.669)" x="395.232" y="389.669">3</text>
</g>
<g clip-path="url(#clip9800)">
<text style="fill:#000000; fill-opacity:1; font-family:Arial,Helvetica Neue,Helvetica,sans-serif; font-size:12; text-anchor:middle;" transform="rotate(0, 565.033, 389.669)" x="565.033" y="389.669">4</text>
</g>
<g clip-path="url(#clip9800)">
<text style="fill:#000000; fill-opacity:1; font-family:Arial,Helvetica Neue,Helvetica,sans-serif; font-size:12; text-anchor:end;" transform="rotate(0, 34.3485, 303.121)" x="34.3485" y="303.121">0.2</text>
</g>
<g clip-path="url(#clip9800)">
<text style="fill:#000000; fill-opacity:1; font-family:Arial,Helvetica Neue,Helvetica,sans-serif; font-size:12; text-anchor:end;" transform="rotate(0, 34.3485, 218.192)" x="34.3485" y="218.192">0.4</text>
</g>
<g clip-path="url(#clip9800)">
<text style="fill:#000000; fill-opacity:1; font-family:Arial,Helvetica Neue,Helvetica,sans-serif; font-size:12; text-anchor:end;" transform="rotate(0, 34.3485, 133.263)" x="34.3485" y="133.263">0.6</text>
</g>
<g clip-path="url(#clip9800)">
<text style="fill:#000000; fill-opacity:1; font-family:Arial,Helvetica Neue,Helvetica,sans-serif; font-size:12; text-anchor:end;" transform="rotate(0, 34.3485, 48.3335)" x="34.3485" y="48.3335">0.8</text>
</g>
<g clip-path="url(#clip9800)">
<text style="fill:#000000; fill-opacity:1; font-family:Arial,Helvetica Neue,Helvetica,sans-serif; font-size:21; text-anchor:middle;" transform="rotate(0, 310.332, 18)" x="310.332" y="18">Test Title</text>
</g>
<polyline clip-path="url(#clip9802)" style="stroke:#009af9; stroke-width:1; stroke-opacity:1; fill:none" points="
  55.6306,96.6 225.431,237.244 395.232,336.725 565.033,89.3799 
  "/>
<polyline clip-path="url(#clip9802)" style="stroke:#e26f46; stroke-width:1; stroke-opacity:1; fill:none" points="
  55.6306,357.072 225.431,41.2425 395.232,362.708 565.033,366.122 
  "/>
<polyline clip-path="url(#clip9802)" style="stroke:#3da44d; stroke-width:1; stroke-opacity:1; fill:none" points="
  55.6306,270.648 225.431,160.916 395.232,117.937 565.033,78.7506 
  "/>
<polyline clip-path="url(#clip9802)" style="stroke:#c271d2; stroke-width:1; stroke-opacity:1; fill:none" points="
  55.6306,246.042 225.431,145.253 395.232,339.848 565.033,174.516 
  "/>
<polygon clip-path="url(#clip9800)" points="
461.51,127.976 562.315,127.976 562.315,52.3761 461.51,52.3761 
  " fill="#ffffff" fill-opacity="1"/>
<polyline clip-path="url(#clip9800)" style="stroke:#000000; stroke-width:1; stroke-opacity:1; fill:none" points="
  461.51,127.976 562.315,127.976 562.315,52.3761 461.51,52.3761 461.51,127.976 
  "/>
<polyline clip-path="url(#clip9800)" style="stroke:#009af9; stroke-width:1; stroke-opacity:1; fill:none" points="
  467.51,67.4961 503.51,67.4961 
  "/>
<g clip-path="url(#clip9800)">
<text style="fill:#000000; fill-opacity:1; font-family:Arial,Helvetica Neue,Helvetica,sans-serif; font-size:12; text-anchor:start;" transform="rotate(0, 509.51, 71.9961)" x="509.51" y="71.9961">First</text>
</g>
<polyline clip-path="url(#clip9800)" style="stroke:#e26f46; stroke-width:1; stroke-opacity:1; fill:none" points="
  467.51,82.6161 503.51,82.6161 
  "/>
<g clip-path="url(#clip9800)">
<text style="fill:#000000; fill-opacity:1; font-family:Arial,Helvetica Neue,Helvetica,sans-serif; font-size:12; text-anchor:start;" transform="rotate(0, 509.51, 87.1161)" x="509.51" y="87.1161">Second</text>
</g>
<polyline clip-path="url(#clip9800)" style="stroke:#3da44d; stroke-width:1; stroke-opacity:1; fill:none" points="
  467.51,97.7361 503.51,97.7361 
  "/>
<g clip-path="url(#clip9800)">
<text style="fill:#000000; fill-opacity:1; font-family:Arial,Helvetica Neue,Helvetica,sans-serif; font-size:12; text-anchor:start;" transform="rotate(0, 509.51, 102.236)" x="509.51" y="102.236">Third</text>
</g>
<polyline clip-path="url(#clip9800)" style="stroke:#c271d2; stroke-width:1; stroke-opacity:1; fill:none" points="
  467.51,112.856 503.51,112.856 
  "/>
<g clip-path="url(#clip9800)">
<text style="fill:#000000; fill-opacity:1; font-family:Arial,Helvetica Neue,Helvetica,sans-serif; font-size:12; text-anchor:start;" transform="rotate(0, 509.51, 117.356)" x="509.51" y="117.356">Fourth</text>
</g>
</svg>
