<?xml version="1.0" encoding="utf-8"?>
<svg xmlns="http://www.w3.org/2000/svg" xmlns:xlink="http://www.w3.org/1999/xlink" width="600" height="400" viewBox="0 0 2400 1600">
<defs>
  <clipPath id="clip1000">
    <rect x="0" y="0" width="2000" height="2000"/>
  </clipPath>
</defs>
<defs>
  <clipPath id="clip1001">
    <rect x="0" y="0" width="2400" height="1600"/>
  </clipPath>
</defs>
<polygon clip-path="url(#clip1001)" points="
0,1600 2400,1600 2400,0 0,0 
  " fill="#ffffff" fill-opacity="1"/>
<defs>
  <clipPath id="clip1002">
    <rect x="480" y="0" width="1681" height="1600"/>
  </clipPath>
</defs>
<polygon clip-path="url(#clip1001)" points="
161.394,1503.47 2321.26,1503.47 2321.26,47.2441 161.394,47.2441 
  " fill="#ffffff" fill-opacity="1"/>
<defs>
  <clipPath id="clip1003">
    <rect x="161" y="47" width="2161" height="1457"/>
  </clipPath>
</defs>
<polyline clip-path="url(#clip1003)" style="stroke:#000000; stroke-width:2; stroke-opacity:0.1; fill:none" points="
  222.522,1503.47 222.522,47.2441 
  "/>
<polyline clip-path="url(#clip1003)" style="stroke:#000000; stroke-width:2; stroke-opacity:0.1; fill:none" points="
  901.725,1503.47 901.725,47.2441 
  "/>
<polyline clip-path="url(#clip1003)" style="stroke:#000000; stroke-width:2; stroke-opacity:0.1; fill:none" points="
  1580.93,1503.47 1580.93,47.2441 
  "/>
<polyline clip-path="url(#clip1003)" style="stroke:#000000; stroke-width:2; stroke-opacity:0.1; fill:none" points="
  2260.13,1503.47 2260.13,47.2441 
  "/>
<polyline clip-path="url(#clip1003)" style="stroke:#000000; stroke-width:2; stroke-opacity:0.1; fill:none" points="
  161.394,1246.62 2321.26,1246.62 
  "/>
<polyline clip-path="url(#clip1003)" style="stroke:#000000; stroke-width:2; stroke-opacity:0.1; fill:none" points="
  161.394,941.605 2321.26,941.605 
  "/>
<polyline clip-path="url(#clip1003)" style="stroke:#000000; stroke-width:2; stroke-opacity:0.1; fill:none" points="
  161.394,636.591 2321.26,636.591 
  "/>
<polyline clip-path="url(#clip1003)" style="stroke:#000000; stroke-width:2; stroke-opacity:0.1; fill:none" points="
  161.394,331.577 2321.26,331.577 
  "/>
<polyline clip-path="url(#clip1001)" style="stroke:#000000; stroke-width:4; stroke-opacity:1; fill:none" points="
  161.394,1503.47 2321.26,1503.47 
  "/>
<polyline clip-path="url(#clip1001)" style="stroke:#000000; stroke-width:4; stroke-opacity:1; fill:none" points="
  161.394,1503.47 161.394,47.2441 
  "/>
<polyline clip-path="url(#clip1001)" style="stroke:#000000; stroke-width:4; stroke-opacity:1; fill:none" points="
  222.522,1503.47 222.522,1481.63 
  "/>
<polyline clip-path="url(#clip1001)" style="stroke:#000000; stroke-width:4; stroke-opacity:1; fill:none" points="
  901.725,1503.47 901.725,1481.63 
  "/>
<polyline clip-path="url(#clip1001)" style="stroke:#000000; stroke-width:4; stroke-opacity:1; fill:none" points="
  1580.93,1503.47 1580.93,1481.63 
  "/>
<polyline clip-path="url(#clip1001)" style="stroke:#000000; stroke-width:4; stroke-opacity:1; fill:none" points="
  2260.13,1503.47 2260.13,1481.63 
  "/>
<polyline clip-path="url(#clip1001)" style="stroke:#000000; stroke-width:4; stroke-opacity:1; fill:none" points="
  161.394,1246.62 193.792,1246.62 
  "/>
<polyline clip-path="url(#clip1001)" style="stroke:#000000; stroke-width:4; stroke-opacity:1; fill:none" points="
  161.394,941.605 193.792,941.605 
  "/>
<polyline clip-path="url(#clip1001)" style="stroke:#000000; stroke-width:4; stroke-opacity:1; fill:none" points="
  161.394,636.591 193.792,636.591 
  "/>
<polyline clip-path="url(#clip1001)" style="stroke:#000000; stroke-width:4; stroke-opacity:1; fill:none" points="
  161.394,331.577 193.792,331.577 
  "/>
<g clip-path="url(#clip1001)">
<text style="fill:#000000; fill-opacity:1; font-family:Arial,Helvetica Neue,Helvetica,sans-serif; font-size:48; text-anchor:middle;" transform="rotate(0, 222.522, 1557.47)" x="222.522" y="1557.47">1</text>
</g>
<g clip-path="url(#clip1001)">
<text style="fill:#000000; fill-opacity:1; font-family:Arial,Helvetica Neue,Helvetica,sans-serif; font-size:48; text-anchor:middle;" transform="rotate(0, 901.725, 1557.47)" x="901.725" y="1557.47">2</text>
</g>
<g clip-path="url(#clip1001)">
<text style="fill:#000000; fill-opacity:1; font-family:Arial,Helvetica Neue,Helvetica,sans-serif; font-size:48; text-anchor:middle;" transform="rotate(0, 1580.93, 1557.47)" x="1580.93" y="1557.47">3</text>
</g>
<g clip-path="url(#clip1001)">
<text style="fill:#000000; fill-opacity:1; font-family:Arial,Helvetica Neue,Helvetica,sans-serif; font-size:48; text-anchor:middle;" transform="rotate(0, 2260.13, 1557.47)" x="2260.13" y="1557.47">4</text>
</g>
<g clip-path="url(#clip1001)">
<text style="fill:#000000; fill-opacity:1; font-family:Arial,Helvetica Neue,Helvetica,sans-serif; font-size:48; text-anchor:end;" transform="rotate(0, 137.394, 1264.12)" x="137.394" y="1264.12">0.2</text>
</g>
<g clip-path="url(#clip1001)">
<text style="fill:#000000; fill-opacity:1; font-family:Arial,Helvetica Neue,Helvetica,sans-serif; font-size:48; text-anchor:end;" transform="rotate(0, 137.394, 959.105)" x="137.394" y="959.105">0.4</text>
</g>
<g clip-path="url(#clip1001)">
<text style="fill:#000000; fill-opacity:1; font-family:Arial,Helvetica Neue,Helvetica,sans-serif; font-size:48; text-anchor:end;" transform="rotate(0, 137.394, 654.091)" x="137.394" y="654.091">0.6</text>
</g>
<g clip-path="url(#clip1001)">
<text style="fill:#000000; fill-opacity:1; font-family:Arial,Helvetica Neue,Helvetica,sans-serif; font-size:48; text-anchor:end;" transform="rotate(0, 137.394, 349.077)" x="137.394" y="349.077">0.8</text>
</g>
<polyline clip-path="url(#clip1003)" style="stroke:#009af9; stroke-width:4; stroke-opacity:1; fill:none" points="
  222.522,88.4582 901.725,798.257 1580.93,297.839 2260.13,595.582 
  "/>
<polyline clip-path="url(#clip1003)" style="stroke:#e26f46; stroke-width:4; stroke-opacity:1; fill:none" points="
  222.522,681.369 901.725,373.738 1580.93,179.263 2260.13,871.02 
  "/>
<polyline clip-path="url(#clip1003)" style="stroke:#3da44d; stroke-width:4; stroke-opacity:1; fill:none" points="
  222.522,552.361 901.725,962.254 1580.93,976.695 2260.13,289.154 
  "/>
<polyline clip-path="url(#clip1003)" style="stroke:#c271d2; stroke-width:4; stroke-opacity:1; fill:none" points="
  222.522,980.143 901.725,588.784 1580.93,1462.26 2260.13,258.586 
  "/>
<polygon clip-path="url(#clip1001)" points="
1958.43,433.164 2249.26,433.164 2249.26,130.764 1958.43,130.764 
  " fill="#ffffff" fill-opacity="1"/>
<polyline clip-path="url(#clip1001)" style="stroke:#000000; stroke-width:4; stroke-opacity:1; fill:none" points="
  1958.43,433.164 2249.26,433.164 2249.26,130.764 1958.43,130.764 1958.43,433.164 
  "/>
<polyline clip-path="url(#clip1001)" style="stroke:#009af9; stroke-width:4; stroke-opacity:1; fill:none" points="
  1982.43,191.244 2126.43,191.244 
  "/>
<g clip-path="url(#clip1001)">
<text style="fill:#000000; fill-opacity:1; font-family:Arial,Helvetica Neue,Helvetica,sans-serif; font-size:48; text-anchor:start;" transform="rotate(0, 2150.43, 208.744)" x="2150.43" y="208.744">y1</text>
</g>
<polyline clip-path="url(#clip1001)" style="stroke:#e26f46; stroke-width:4; stroke-opacity:1; fill:none" points="
  1982.43,251.724 2126.43,251.724 
  "/>
<g clip-path="url(#clip1001)">
<text style="fill:#000000; fill-opacity:1; font-family:Arial,Helvetica Neue,Helvetica,sans-serif; font-size:48; text-anchor:start;" transform="rotate(0, 2150.43, 269.224)" x="2150.43" y="269.224">y2</text>
</g>
<polyline clip-path="url(#clip1001)" style="stroke:#3da44d; stroke-width:4; stroke-opacity:1; fill:none" points="
  1982.43,312.204 2126.43,312.204 
  "/>
<g clip-path="url(#clip1001)">
<text style="fill:#000000; fill-opacity:1; font-family:Arial,Helvetica Neue,Helvetica,sans-serif; font-size:48; text-anchor:start;" transform="rotate(0, 2150.43, 329.704)" x="2150.43" y="329.704">y3</text>
</g>
<polyline clip-path="url(#clip1001)" style="stroke:#c271d2; stroke-width:4; stroke-opacity:1; fill:none" points="
  1982.43,372.684 2126.43,372.684 
  "/>
<g clip-path="url(#clip1001)">
<text style="fill:#000000; fill-opacity:1; font-family:Arial,Helvetica Neue,Helvetica,sans-serif; font-size:48; text-anchor:start;" transform="rotate(0, 2150.43, 390.184)" x="2150.43" y="390.184">y4</text>
</g>
</svg>
