<?xml version="1.0" encoding="utf-8"?>
<svg xmlns="http://www.w3.org/2000/svg" xmlns:xlink="http://www.w3.org/1999/xlink" width="600" height="400" viewBox="0 0 600 400">
<defs>
  <clipPath id="clip9800">
    <rect x="0" y="0" width="600" height="400"/>
  </clipPath>
</defs>
<polygon clip-path="url(#clip9800)" points="
0,400 600,400 600,0 0,0 
  " fill="#ffffff" fill-opacity="1"/>
<defs>
  <clipPath id="clip9801">
    <rect x="120" y="0" width="421" height="400"/>
  </clipPath>
</defs>
<polygon clip-path="url(#clip9800)" points="
30.3126,360.121 580.315,360.121 580.315,11.811 30.3126,11.811 
  " fill="#ffffff" fill-opacity="1"/>
<defs>
  <clipPath id="clip9802">
    <rect x="30" y="11" width="551" height="349"/>
  </clipPath>
</defs>
<polyline clip-path="url(#clip9802)" style="stroke:#000000; stroke-width:0.5; stroke-opacity:0.1; fill:none" points="
  30.3126,360.121 30.3126,11.811 
  "/>
<polyline clip-path="url(#clip9802)" style="stroke:#000000; stroke-width:0.5; stroke-opacity:0.1; fill:none" points="
  140.313,360.121 140.313,11.811 
  "/>
<polyline clip-path="url(#clip9802)" style="stroke:#000000; stroke-width:0.5; stroke-opacity:0.1; fill:none" points="
  250.314,360.121 250.314,11.811 
  "/>
<polyline clip-path="url(#clip9802)" style="stroke:#000000; stroke-width:0.5; stroke-opacity:0.1; fill:none" points="
  360.314,360.121 360.314,11.811 
  "/>
<polyline clip-path="url(#clip9802)" style="stroke:#000000; stroke-width:0.5; stroke-opacity:0.1; fill:none" points="
  470.314,360.121 470.314,11.811 
  "/>
<polyline clip-path="url(#clip9802)" style="stroke:#000000; stroke-width:0.5; stroke-opacity:0.1; fill:none" points="
  580.315,360.121 580.315,11.811 
  "/>
<polyline clip-path="url(#clip9802)" style="stroke:#000000; stroke-width:0.5; stroke-opacity:0.1; fill:none" points="
  30.3126,357.356 580.315,357.356 
  "/>
<polyline clip-path="url(#clip9802)" style="stroke:#000000; stroke-width:0.5; stroke-opacity:0.1; fill:none" points="
  30.3126,276.74 580.315,276.74 
  "/>
<polyline clip-path="url(#clip9802)" style="stroke:#000000; stroke-width:0.5; stroke-opacity:0.1; fill:none" points="
  30.3126,196.123 580.315,196.123 
  "/>
<polyline clip-path="url(#clip9802)" style="stroke:#000000; stroke-width:0.5; stroke-opacity:0.1; fill:none" points="
  30.3126,115.507 580.315,115.507 
  "/>
<polyline clip-path="url(#clip9802)" style="stroke:#000000; stroke-width:0.5; stroke-opacity:0.1; fill:none" points="
  30.3126,34.8907 580.315,34.8907 
  "/>
<polyline clip-path="url(#clip9800)" style="stroke:#000000; stroke-width:1; stroke-opacity:1; fill:none" points="
  30.3126,360.121 580.315,360.121 
  "/>
<polyline clip-path="url(#clip9800)" style="stroke:#000000; stroke-width:1; stroke-opacity:1; fill:none" points="
  30.3126,360.121 30.3126,11.811 
  "/>
<polyline clip-path="url(#clip9800)" style="stroke:#000000; stroke-width:1; stroke-opacity:1; fill:none" points="
  30.3126,360.121 30.3126,354.896 
  "/>
<polyline clip-path="url(#clip9800)" style="stroke:#000000; stroke-width:1; stroke-opacity:1; fill:none" points="
  140.313,360.121 140.313,354.896 
  "/>
<polyline clip-path="url(#clip9800)" style="stroke:#000000; stroke-width:1; stroke-opacity:1; fill:none" points="
  250.314,360.121 250.314,354.896 
  "/>
<polyline clip-path="url(#clip9800)" style="stroke:#000000; stroke-width:1; stroke-opacity:1; fill:none" points="
  360.314,360.121 360.314,354.896 
  "/>
<polyline clip-path="url(#clip9800)" style="stroke:#000000; stroke-width:1; stroke-opacity:1; fill:none" points="
  470.314,360.121 470.314,354.896 
  "/>
<polyline clip-path="url(#clip9800)" style="stroke:#000000; stroke-width:1; stroke-opacity:1; fill:none" points="
  580.315,360.121 580.315,354.896 
  "/>
<polyline clip-path="url(#clip9800)" style="stroke:#000000; stroke-width:1; stroke-opacity:1; fill:none" points="
  30.3126,357.356 38.5627,357.356 
  "/>
<polyline clip-path="url(#clip9800)" style="stroke:#000000; stroke-width:1; stroke-opacity:1; fill:none" points="
  30.3126,276.74 38.5627,276.74 
  "/>
<polyline clip-path="url(#clip9800)" style="stroke:#000000; stroke-width:1; stroke-opacity:1; fill:none" points="
  30.3126,196.123 38.5627,196.123 
  "/>
<polyline clip-path="url(#clip9800)" style="stroke:#000000; stroke-width:1; stroke-opacity:1; fill:none" points="
  30.3126,115.507 38.5627,115.507 
  "/>
<polyline clip-path="url(#clip9800)" style="stroke:#000000; stroke-width:1; stroke-opacity:1; fill:none" points="
  30.3126,34.8907 38.5627,34.8907 
  "/>
<g clip-path="url(#clip9800)">
<text style="fill:#000000; fill-opacity:1; font-family:Arial,Helvetica Neue,Helvetica,sans-serif; font-size:12; text-anchor:middle;" transform="rotate(0, 30.3126, 373.921)" x="30.3126" y="373.921">0</text>
</g>
<g clip-path="url(#clip9800)">
<text style="fill:#000000; fill-opacity:1; font-family:Arial,Helvetica Neue,Helvetica,sans-serif; font-size:12; text-anchor:middle;" transform="rotate(0, 140.313, 373.921)" x="140.313" y="373.921">2</text>
</g>
<g clip-path="url(#clip9800)">
<text style="fill:#000000; fill-opacity:1; font-family:Arial,Helvetica Neue,Helvetica,sans-serif; font-size:12; text-anchor:middle;" transform="rotate(0, 250.314, 373.921)" x="250.314" y="373.921">4</text>
</g>
<g clip-path="url(#clip9800)">
<text style="fill:#000000; fill-opacity:1; font-family:Arial,Helvetica Neue,Helvetica,sans-serif; font-size:12; text-anchor:middle;" transform="rotate(0, 360.314, 373.921)" x="360.314" y="373.921">6</text>
</g>
<g clip-path="url(#clip9800)">
<text style="fill:#000000; fill-opacity:1; font-family:Arial,Helvetica Neue,Helvetica,sans-serif; font-size:12; text-anchor:middle;" transform="rotate(0, 470.314, 373.921)" x="470.314" y="373.921">8</text>
</g>
<g clip-path="url(#clip9800)">
<text style="fill:#000000; fill-opacity:1; font-family:Arial,Helvetica Neue,Helvetica,sans-serif; font-size:12; text-anchor:middle;" transform="rotate(0, 580.315, 373.921)" x="580.315" y="373.921">10</text>
</g>
<g clip-path="url(#clip9800)">
<text style="fill:#000000; fill-opacity:1; font-family:Arial,Helvetica Neue,Helvetica,sans-serif; font-size:12; text-anchor:end;" transform="rotate(0, 24.3126, 361.856)" x="24.3126" y="361.856">0</text>
</g>
<g clip-path="url(#clip9800)">
<text style="fill:#000000; fill-opacity:1; font-family:Arial,Helvetica Neue,Helvetica,sans-serif; font-size:12; text-anchor:end;" transform="rotate(0, 24.3126, 281.24)" x="24.3126" y="281.24">1</text>
</g>
<g clip-path="url(#clip9800)">
<text style="fill:#000000; fill-opacity:1; font-family:Arial,Helvetica Neue,Helvetica,sans-serif; font-size:12; text-anchor:end;" transform="rotate(0, 24.3126, 200.623)" x="24.3126" y="200.623">2</text>
</g>
<g clip-path="url(#clip9800)">
<text style="fill:#000000; fill-opacity:1; font-family:Arial,Helvetica Neue,Helvetica,sans-serif; font-size:12; text-anchor:end;" transform="rotate(0, 24.3126, 120.007)" x="24.3126" y="120.007">3</text>
</g>
<g clip-path="url(#clip9800)">
<text style="fill:#000000; fill-opacity:1; font-family:Arial,Helvetica Neue,Helvetica,sans-serif; font-size:12; text-anchor:end;" transform="rotate(0, 24.3126, 39.3907)" x="24.3126" y="39.3907">4</text>
</g>
<g clip-path="url(#clip9800)">
<text style="fill:#000000; fill-opacity:1; font-family:Arial,Helvetica Neue,Helvetica,sans-serif; font-size:16; text-anchor:middle;" transform="rotate(0, 305.314, 397.6)" x="305.314" y="397.6">t</text>
</g>
<polyline clip-path="url(#clip9802)" style="stroke:#009af9; stroke-width:3; stroke-opacity:1; fill:none" points="
  30.3126,276.74 32.2169,284.833 32.5977,287.698 33.0262,287.972 33.5082,285.041 34.0505,282.398 34.6605,285.114 35.3398,282.578 36.1039,280.967 36.9542,282.405 
  37.8834,286.132 38.8577,292.858 39.921,289.575 41.0469,292.892 42.2239,283.704 43.5481,282.116 44.8792,279.909 46.3061,286.059 47.7379,289.652 49.1897,285.281 
  50.7484,283.583 52.3465,285.156 53.9724,290.509 55.6274,294.535 57.277,291.788 59.0144,301.414 60.7201,296.898 62.5061,288.517 64.4707,279.802 66.6741,265.432 
  69.0233,279.343 71.4036,272.552 74.0814,270.193 76.9031,282.116 79.7236,289.754 82.4818,292.056 85.1886,294.126 87.9211,291.886 90.6268,287.505 93.5,290.495 
  96.4632,278.814 99.7427,276.413 103.197,271.253 106.796,258.6 110.79,236.858 114.875,224.077 117.93,223.544 120.657,234.858 123.299,223.534 126.026,241.818 
  128.525,229.989 131.239,240.32 133.587,262.809 136.028,266.013 138.604,241.316 141.502,242.357 143.708,258.411 146.004,259.544 148.587,260.595 151.06,270.619 
  153.624,287.366 156.017,279.534 158.639,282.045 161.206,286.287 163.894,291.756 166.513,298.94 169.178,312.78 171.751,308.543 174.131,307.562 176.62,306.738 
  179.051,307.088 181.57,319.966 183.893,323.582 186.152,319.685 188.364,324.228 190.618,320.223 192.822,321.623 195.083,323.892 197.317,321.98 199.558,314.443 
  201.921,317.281 204.369,309.49 206.84,308.98 209.542,312.472 212.2,312.616 214.884,310.713 217.646,299.92 220.56,302.419 223.484,309.422 226.371,305.972 
  229.384,310.455 232.309,307.807 235.406,308.003 238.395,318.492 241.257,319.396 244.15,321.455 246.984,316.829 249.912,314.027 252.774,307.93 255.701,302.599 
  258.604,284.296 261.497,290.848 263.97,293.948 266.519,292.346 269.089,293.752 271.516,303.973 273.914,309.291 276.307,301.324 278.92,296.92 281.378,298.566 
  283.736,299.947 286.098,293.891 288.534,293.59 290.719,292.791 292.978,279.289 295.333,287.105 297.289,283.105 299.418,279.536 301.445,283.568 303.413,289.651 
  305.349,287.879 307.354,288.923 309.306,290.732 311.248,293.968 313.174,289.856 315.187,296.134 317.027,290.912 319.086,283.283 321.101,276.72 323.072,268.581 
  325.024,269.964 326.855,279.006 328.599,271.521 330.503,273.675 332.235,275.83 333.97,278.234 335.689,277.831 337.416,283.458 339.1,273.219 340.926,281.806 
  342.576,274.614 344.432,271.15 346.106,265.077 347.849,267.598 349.454,249.248 351.259,246.853 352.864,225.56 354.591,218.545 356.148,215.01 357.661,217.283 
  359.108,208.651 360.624,202.321 362.098,203.794 363.521,197.104 364.965,163.639 366.468,154.624 367.856,147.361 369.24,144.283 370.584,105.347 371.983,122.006 
  373.207,156.646 374.466,144.923 375.796,107.948 377.139,106.484 378.351,96.2518 379.589,100.719 380.766,123.32 381.952,135.545 383.155,143.817 384.386,130.933 
  385.658,141.641 386.881,165.796 388.162,149.437 389.537,144.348 390.843,120.985 392.16,112.93 393.382,68.1766 394.539,35.382 395.577,60.251 396.513,21.6688 
  397.43,36.9668 398.239,39.8491 399.034,74.3551 399.803,112.598 400.605,131.606 401.452,103.138 402.314,98.7339 403.103,89.3118 403.868,81.0106 404.612,65.0716 
  405.311,68.5872 405.967,83.8416 406.603,83.0787 407.23,88.2582 407.843,81.2361 408.442,77.6988 409.012,46.0928 409.559,63.262 410.066,82.1739 410.572,76.5209 
  411.076,92.5004 411.561,79.0498 412.053,76.4756 412.519,86.772 412.979,83.6076 413.434,82.0766 413.877,95.3052 414.316,103.265 414.755,115.806 415.191,143.185 
  415.634,148.116 416.1,162.036 416.571,159.215 417.062,168.254 417.547,170.678 418.049,175.011 418.557,182.815 419.07,183.76 419.595,183.485 420.117,177.975 
  420.644,176.264 421.157,166.558 421.675,174.454 422.164,178.239 422.659,188.352 423.144,184.514 423.646,185.065 424.134,188.17 424.618,197.46 425.097,190.387 
  425.597,200.443 426.069,203.396 426.557,202.774 427.042,197.331 427.531,209.197 428,206.321 428.489,204.468 428.972,210.517 429.443,223.591 429.923,221.743 
  430.423,227.982 430.914,231.342 431.412,235.562 431.916,235.476 432.431,232.442 432.958,247.956 433.461,255.692 433.997,260.762 434.537,254.238 435.114,251.752 
  435.671,247.528 436.238,259.497 436.78,262.275 437.357,268.095 437.933,269.433 438.527,269.209 439.132,272.238 439.738,272.377 440.363,273.278 440.988,274.01 
  441.625,278.281 442.265,280.718 442.922,287.86 443.57,298.134 444.214,296.289 444.927,299.263 445.62,301.064 446.345,305.553 447.074,311.54 447.827,312.197 
  448.611,315.957 449.412,317.068 450.248,317.065 451.107,313.451 452.001,313.966 452.895,319.538 453.804,323.332 454.733,324.403 455.687,328.286 456.655,329.192 
  457.645,330.08 458.655,328.412 459.686,329.096 460.739,329.026 461.815,329.138 462.91,329.75 464.038,333.25 465.185,333.671 466.362,331.392 467.543,334.283 
  468.755,336.008 469.969,338.793 471.185,338.54 472.425,339.866 473.675,339.482 474.954,339.735 476.234,339.009 477.547,338.171 478.891,339.52 480.263,339.967 
  481.648,341.129 483.061,340.958 484.481,341.654 485.92,340.334 487.391,340.166 488.91,341.536 490.473,342.04 492.059,339.621 493.672,336.128 495.353,335.47 
  497.112,334.343 498.927,332.045 500.803,334.31 502.735,335.252 504.699,333.196 506.704,323.908 508.76,325.062 510.968,324.436 513.2,318.467 515.58,313.589 
  518.064,314.964 520.55,319.704 523.035,319.717 525.612,318.82 528.198,317.101 530.863,317.598 533.497,314.275 536.243,315.849 538.873,323.367 541.513,321.866 
  544.27,316.449 547.12,316.181 549.77,318.325 552.434,314.644 555.142,314.163 557.727,306.729 560.489,301.136 563.034,300.046 565.432,303.989 567.727,307.825 
  570.021,315.325 572.257,314.531 574.527,318.224 576.728,318.074 579.119,321.736 580.315,320.498 
  "/>
<polyline clip-path="url(#clip9802)" style="stroke:#e26f46; stroke-width:3; stroke-opacity:1; fill:none" points="
  30.3126,276.74 32.2169,278.014 32.5977,277.924 33.0262,277.767 33.5082,277.452 34.0505,277.244 34.6605,278.378 35.3398,279.259 36.1039,280.305 36.9542,279.553 
  37.8834,280.796 38.8577,281.262 39.921,282.918 41.0469,284.37 42.2239,285.016 43.5481,286.978 44.8792,284.825 46.3061,285.323 47.7379,285.424 49.1897,287.485 
  50.7484,288.678 52.3465,289.521 53.9724,288.265 55.6274,288.216 57.277,290.108 59.0144,291.59 60.7201,294.522 62.5061,298.385 64.4707,297.134 66.6741,300.547 
  69.0233,301.181 71.4036,302.987 74.0814,302.733 76.9031,301.561 79.7236,301.112 82.4818,301.668 85.1886,301.64 87.9211,303.08 90.6268,303.718 93.5,306.891 
  96.4632,307.653 99.7427,306.419 103.197,306.908 106.796,305.503 110.79,302.117 114.875,298.51 117.93,299.317 120.657,299.528 123.299,301.253 126.026,299.596 
  128.525,298.444 131.239,298.375 133.587,296.461 136.028,297.417 138.604,296.128 141.502,295.632 143.708,299.653 146.004,297.378 148.587,297.07 151.06,295.749 
  153.624,297.29 156.017,297.595 158.639,300.832 161.206,300.665 163.894,302.345 166.513,304.615 169.178,303.34 171.751,304.414 174.131,304.922 176.62,306.675 
  179.051,306.368 181.57,309.462 183.893,310.52 186.152,312.333 188.364,313.689 190.618,315.078 192.822,316.209 195.083,318.505 197.317,321.258 199.558,321.833 
  201.921,322.45 204.369,324.161 206.84,324.526 209.542,325.918 212.2,327.632 214.884,329.529 217.646,329.308 220.56,329.968 223.484,330.793 226.371,331.187 
  229.384,331.015 232.309,331.941 235.406,332.256 238.395,333.319 241.257,334.575 244.15,336.676 246.984,338.242 249.912,338.983 252.774,340.264 255.701,341.251 
  258.604,341.945 261.497,342.333 263.97,342.513 266.519,342.495 269.089,342.937 271.516,342.945 273.914,343.433 276.307,344.159 278.92,344.637 281.378,344.979 
  283.736,345.477 286.098,345.81 288.534,346.207 290.719,346.567 292.978,346.791 295.333,347.14 297.289,346.968 299.418,346.889 301.445,346.572 303.413,346.823 
  305.349,347.19 307.354,347.42 309.306,347.811 311.248,347.887 313.174,347.964 315.187,347.95 317.027,348.177 319.086,348.335 321.101,348.436 323.072,348.508 
  325.024,348.499 326.855,348.475 328.599,348.62 330.503,348.567 332.235,348.701 333.97,348.864 335.689,348.913 337.416,348.992 339.1,349.085 340.926,348.957 
  342.576,348.887 344.432,349.05 346.106,349.078 347.849,349.116 349.454,349.154 351.259,349.078 352.864,349.27 354.591,349.04 356.148,348.936 357.661,348.62 
  359.108,348.407 360.624,348.13 362.098,347.716 363.521,347.219 364.965,347.112 366.468,346.607 367.856,346.22 369.24,345.888 370.584,345.163 371.983,344.537 
  373.207,344.221 374.466,343.908 375.796,343.075 377.139,342.268 378.351,341.805 379.589,340.789 380.766,339.263 381.952,338.83 383.155,338.019 384.386,337.202 
  385.658,336.193 386.881,335.153 388.162,334.269 389.537,333.642 390.843,331.945 392.16,329.915 393.382,328.83 394.539,326.387 395.577,324.504 396.513,322.147 
  397.43,320.622 398.239,318.687 399.034,316.647 399.803,315.353 400.605,313.35 401.452,311.735 402.314,309.546 403.103,308.188 403.868,305.436 404.612,302.691 
  405.311,300.09 405.967,297.219 406.603,295.864 407.23,294.066 407.843,291.826 408.442,289.936 409.012,287.475 409.559,284.499 410.066,283.074 410.572,280.902 
  411.076,279.261 411.561,276.886 412.053,275.357 412.519,272.948 412.979,271.726 413.434,270.033 413.877,267.098 414.316,265.299 414.755,264.212 415.191,263.007 
  415.634,262.812 416.1,261.476 416.571,259.827 417.062,258.634 417.547,258.837 418.049,257.208 418.557,255.559 419.07,253.423 419.595,251.218 420.117,248.937 
  420.644,247.648 421.157,245.307 421.675,244.055 422.164,242.212 422.659,240.411 423.144,239.638 423.646,238.89 424.134,237.145 424.618,237.392 425.097,234.388 
  425.597,236.017 426.069,235.15 426.557,232.72 427.042,231.654 427.531,230.254 428,231.651 428.489,230.388 428.972,232.25 429.443,231.616 429.923,230.327 
  430.423,229.23 430.914,230.16 431.412,230.51 431.916,230.457 432.431,230.505 432.958,229.363 433.461,228.946 433.997,228.944 434.537,228.151 435.114,227.848 
  435.671,227.722 436.238,230.766 436.78,232.231 437.357,233.401 437.933,234.596 438.527,233.872 439.132,232.563 439.738,232.644 440.363,231.901 440.988,234.929 
  441.625,233.516 442.265,234.403 442.922,233.598 443.57,236.041 444.214,237.574 444.927,238.681 445.62,240.265 446.345,243.344 447.074,244.355 447.827,245.412 
  448.611,248.663 449.412,251.347 450.248,254.017 451.107,255.079 452.001,255.985 452.895,259.604 453.804,261.808 454.733,264.171 455.687,266.05 456.655,267.442 
  457.645,268.741 458.655,272.386 459.686,275.024 460.739,278.123 461.815,280.53 462.91,283.49 464.038,286.25 465.185,286.02 466.362,287.646 467.543,288.269 
  468.755,289.876 469.969,292.893 471.185,294.692 472.425,297.422 473.675,298.463 474.954,301.101 476.234,303.151 477.547,304.936 478.891,306.152 480.263,306.98 
  481.648,308.142 483.061,309.633 484.481,312.226 485.92,314.34 487.391,316.451 488.91,317.428 490.473,318.678 492.059,320.218 493.672,322.14 495.353,323.345 
  497.112,323.857 498.927,324.195 500.803,324.78 502.735,325.815 504.699,326.354 506.704,328.051 508.76,328.722 510.968,330.67 513.2,331.821 515.58,332.691 
  518.064,334.173 520.55,335.297 523.035,336.643 525.612,337.886 528.198,338.662 530.863,339.093 533.497,340.304 536.243,340.667 538.873,341.594 541.513,342.485 
  544.27,343.407 547.12,343.929 549.77,344.664 552.434,345.171 555.142,345.936 557.727,346.276 560.489,346.662 563.034,347.08 565.432,347.414 567.727,347.84 
  570.021,348.518 572.257,348.979 574.527,349.157 576.728,349.747 579.119,350.208 580.315,350.263 
  "/>
<polygon clip-path="url(#clip9800)" points="
477.574,78.051 562.315,78.051 562.315,32.691 477.574,32.691 
  " fill="#ffffff" fill-opacity="1"/>
<polyline clip-path="url(#clip9800)" style="stroke:#000000; stroke-width:1; stroke-opacity:1; fill:none" points="
  477.574,78.051 562.315,78.051 562.315,32.691 477.574,32.691 477.574,78.051 
  "/>
<polyline clip-path="url(#clip9800)" style="stroke:#009af9; stroke-width:3; stroke-opacity:1; fill:none" points="
  483.574,47.811 519.574,47.811 
  "/>
<g clip-path="url(#clip9800)">
<text style="fill:#000000; fill-opacity:1; font-family:Arial,Helvetica Neue,Helvetica,sans-serif; font-size:12; text-anchor:start;" transform="rotate(0, 525.574, 52.311)" x="525.574" y="52.311">u1(t)</text>
</g>
<polyline clip-path="url(#clip9800)" style="stroke:#e26f46; stroke-width:3; stroke-opacity:1; fill:none" points="
  483.574,62.931 519.574,62.931 
  "/>
<g clip-path="url(#clip9800)">
<text style="fill:#000000; fill-opacity:1; font-family:Arial,Helvetica Neue,Helvetica,sans-serif; font-size:12; text-anchor:start;" transform="rotate(0, 525.574, 67.431)" x="525.574" y="67.431">u2(t)</text>
</g>
</svg>
