<?xml version="1.0" encoding="utf-8"?>
<svg xmlns="http://www.w3.org/2000/svg" xmlns:xlink="http://www.w3.org/1999/xlink" width="600" height="400" viewBox="0 0 600 400">
<defs>
  <clipPath id="clip9600">
    <rect x="0" y="0" width="600" height="400"/>
  </clipPath>
</defs>
<polygon clip-path="url(#clip9600)" points="
0,400 600,400 600,0 0,0 
  " fill="#ffffff" fill-opacity="1"/>
<defs>
  <clipPath id="clip9601">
    <rect x="120" y="0" width="421" height="400"/>
  </clipPath>
</defs>
<polygon clip-path="url(#clip9600)" points="
40.3485,375.869 580.315,375.869 580.315,31.4961 40.3485,31.4961 
  " fill="#ffffff" fill-opacity="1"/>
<defs>
  <clipPath id="clip9602">
    <rect x="40" y="31" width="541" height="345"/>
  </clipPath>
</defs>
<polyline clip-path="url(#clip9602)" style="stroke:#000000; stroke-width:0.5; stroke-opacity:0.1; fill:none" points="
  107.184,375.869 107.184,31.4961 
  "/>
<polyline clip-path="url(#clip9602)" style="stroke:#000000; stroke-width:0.5; stroke-opacity:0.1; fill:none" points="
  179.22,375.869 179.22,31.4961 
  "/>
<polyline clip-path="url(#clip9602)" style="stroke:#000000; stroke-width:0.5; stroke-opacity:0.1; fill:none" points="
  251.255,375.869 251.255,31.4961 
  "/>
<polyline clip-path="url(#clip9602)" style="stroke:#000000; stroke-width:0.5; stroke-opacity:0.1; fill:none" points="
  323.291,375.869 323.291,31.4961 
  "/>
<polyline clip-path="url(#clip9602)" style="stroke:#000000; stroke-width:0.5; stroke-opacity:0.1; fill:none" points="
  395.327,375.869 395.327,31.4961 
  "/>
<polyline clip-path="url(#clip9602)" style="stroke:#000000; stroke-width:0.5; stroke-opacity:0.1; fill:none" points="
  467.362,375.869 467.362,31.4961 
  "/>
<polyline clip-path="url(#clip9602)" style="stroke:#000000; stroke-width:0.5; stroke-opacity:0.1; fill:none" points="
  539.398,375.869 539.398,31.4961 
  "/>
<polyline clip-path="url(#clip9602)" style="stroke:#000000; stroke-width:0.5; stroke-opacity:0.1; fill:none" points="
  40.3485,364.316 580.315,364.316 
  "/>
<polyline clip-path="url(#clip9602)" style="stroke:#000000; stroke-width:0.5; stroke-opacity:0.1; fill:none" points="
  40.3485,285.794 580.315,285.794 
  "/>
<polyline clip-path="url(#clip9602)" style="stroke:#000000; stroke-width:0.5; stroke-opacity:0.1; fill:none" points="
  40.3485,207.271 580.315,207.271 
  "/>
<polyline clip-path="url(#clip9602)" style="stroke:#000000; stroke-width:0.5; stroke-opacity:0.1; fill:none" points="
  40.3485,128.749 580.315,128.749 
  "/>
<polyline clip-path="url(#clip9602)" style="stroke:#000000; stroke-width:0.5; stroke-opacity:0.1; fill:none" points="
  40.3485,50.2263 580.315,50.2263 
  "/>
<polyline clip-path="url(#clip9600)" style="stroke:#000000; stroke-width:1; stroke-opacity:1; fill:none" points="
  40.3485,375.869 580.315,375.869 
  "/>
<polyline clip-path="url(#clip9600)" style="stroke:#000000; stroke-width:1; stroke-opacity:1; fill:none" points="
  40.3485,375.869 40.3485,31.4961 
  "/>
<polyline clip-path="url(#clip9600)" style="stroke:#000000; stroke-width:1; stroke-opacity:1; fill:none" points="
  107.184,375.869 107.184,370.703 
  "/>
<polyline clip-path="url(#clip9600)" style="stroke:#000000; stroke-width:1; stroke-opacity:1; fill:none" points="
  179.22,375.869 179.22,370.703 
  "/>
<polyline clip-path="url(#clip9600)" style="stroke:#000000; stroke-width:1; stroke-opacity:1; fill:none" points="
  251.255,375.869 251.255,370.703 
  "/>
<polyline clip-path="url(#clip9600)" style="stroke:#000000; stroke-width:1; stroke-opacity:1; fill:none" points="
  323.291,375.869 323.291,370.703 
  "/>
<polyline clip-path="url(#clip9600)" style="stroke:#000000; stroke-width:1; stroke-opacity:1; fill:none" points="
  395.327,375.869 395.327,370.703 
  "/>
<polyline clip-path="url(#clip9600)" style="stroke:#000000; stroke-width:1; stroke-opacity:1; fill:none" points="
  467.362,375.869 467.362,370.703 
  "/>
<polyline clip-path="url(#clip9600)" style="stroke:#000000; stroke-width:1; stroke-opacity:1; fill:none" points="
  539.398,375.869 539.398,370.703 
  "/>
<polyline clip-path="url(#clip9600)" style="stroke:#000000; stroke-width:1; stroke-opacity:1; fill:none" points="
  40.3485,364.316 48.448,364.316 
  "/>
<polyline clip-path="url(#clip9600)" style="stroke:#000000; stroke-width:1; stroke-opacity:1; fill:none" points="
  40.3485,285.794 48.448,285.794 
  "/>
<polyline clip-path="url(#clip9600)" style="stroke:#000000; stroke-width:1; stroke-opacity:1; fill:none" points="
  40.3485,207.271 48.448,207.271 
  "/>
<polyline clip-path="url(#clip9600)" style="stroke:#000000; stroke-width:1; stroke-opacity:1; fill:none" points="
  40.3485,128.749 48.448,128.749 
  "/>
<polyline clip-path="url(#clip9600)" style="stroke:#000000; stroke-width:1; stroke-opacity:1; fill:none" points="
  40.3485,50.2263 48.448,50.2263 
  "/>
<g clip-path="url(#clip9600)">
<text style="fill:#000000; fill-opacity:1; font-family:Arial,Helvetica Neue,Helvetica,sans-serif; font-size:12; text-anchor:middle;" transform="rotate(0, 107.184, 389.669)" x="107.184" y="389.669">0.75</text>
</g>
<g clip-path="url(#clip9600)">
<text style="fill:#000000; fill-opacity:1; font-family:Arial,Helvetica Neue,Helvetica,sans-serif; font-size:12; text-anchor:middle;" transform="rotate(0, 179.22, 389.669)" x="179.22" y="389.669">1.00</text>
</g>
<g clip-path="url(#clip9600)">
<text style="fill:#000000; fill-opacity:1; font-family:Arial,Helvetica Neue,Helvetica,sans-serif; font-size:12; text-anchor:middle;" transform="rotate(0, 251.255, 389.669)" x="251.255" y="389.669">1.25</text>
</g>
<g clip-path="url(#clip9600)">
<text style="fill:#000000; fill-opacity:1; font-family:Arial,Helvetica Neue,Helvetica,sans-serif; font-size:12; text-anchor:middle;" transform="rotate(0, 323.291, 389.669)" x="323.291" y="389.669">1.50</text>
</g>
<g clip-path="url(#clip9600)">
<text style="fill:#000000; fill-opacity:1; font-family:Arial,Helvetica Neue,Helvetica,sans-serif; font-size:12; text-anchor:middle;" transform="rotate(0, 395.327, 389.669)" x="395.327" y="389.669">1.75</text>
</g>
<g clip-path="url(#clip9600)">
<text style="fill:#000000; fill-opacity:1; font-family:Arial,Helvetica Neue,Helvetica,sans-serif; font-size:12; text-anchor:middle;" transform="rotate(0, 467.362, 389.669)" x="467.362" y="389.669">2.00</text>
</g>
<g clip-path="url(#clip9600)">
<text style="fill:#000000; fill-opacity:1; font-family:Arial,Helvetica Neue,Helvetica,sans-serif; font-size:12; text-anchor:middle;" transform="rotate(0, 539.398, 389.669)" x="539.398" y="389.669">2.25</text>
</g>
<g clip-path="url(#clip9600)">
<text style="fill:#000000; fill-opacity:1; font-family:Arial,Helvetica Neue,Helvetica,sans-serif; font-size:12; text-anchor:end;" transform="rotate(0, 34.3485, 368.816)" x="34.3485" y="368.816">0.2</text>
</g>
<g clip-path="url(#clip9600)">
<text style="fill:#000000; fill-opacity:1; font-family:Arial,Helvetica Neue,Helvetica,sans-serif; font-size:12; text-anchor:end;" transform="rotate(0, 34.3485, 290.294)" x="34.3485" y="290.294">0.4</text>
</g>
<g clip-path="url(#clip9600)">
<text style="fill:#000000; fill-opacity:1; font-family:Arial,Helvetica Neue,Helvetica,sans-serif; font-size:12; text-anchor:end;" transform="rotate(0, 34.3485, 211.771)" x="34.3485" y="211.771">0.6</text>
</g>
<g clip-path="url(#clip9600)">
<text style="fill:#000000; fill-opacity:1; font-family:Arial,Helvetica Neue,Helvetica,sans-serif; font-size:12; text-anchor:end;" transform="rotate(0, 34.3485, 133.249)" x="34.3485" y="133.249">0.8</text>
</g>
<g clip-path="url(#clip9600)">
<text style="fill:#000000; fill-opacity:1; font-family:Arial,Helvetica Neue,Helvetica,sans-serif; font-size:12; text-anchor:end;" transform="rotate(0, 34.3485, 54.7263)" x="34.3485" y="54.7263">1.0</text>
</g>
<g clip-path="url(#clip9600)">
<text style="fill:#000000; fill-opacity:1; font-family:Arial,Helvetica Neue,Helvetica,sans-serif; font-size:21; text-anchor:middle;" transform="rotate(0, 310.332, 18)" x="310.332" y="18">Phase Diagram</text>
</g>
<polyline clip-path="url(#clip9602)" style="stroke:#009af9; stroke-width:3; stroke-opacity:1; fill:none" points="
  179.22,50.2263 176.357,51.232 173.537,52.2833 170.761,53.3791 168.028,54.5182 165.338,55.6997 162.69,56.9222 160.086,58.1848 157.523,59.4863 155.003,60.8255 
  152.524,62.2013 150.088,63.6127 147.693,65.0585 145.339,66.5376 143.025,68.0489 140.753,69.5913 138.52,71.1636 136.327,72.7649 134.173,74.394 132.059,76.05 
  129.983,77.7317 127.946,79.4382 125.947,81.1683 123.985,82.9213 122.06,84.6959 120.172,86.4913 118.321,88.3066 116.505,90.1406 114.725,91.9926 112.981,93.8615 
  111.27,95.7466 109.594,97.6468 107.952,99.5613 106.344,101.489 104.768,103.43 103.225,105.382 101.714,107.346 100.235,109.32 98.7874,111.303 97.3705,113.295 
  95.9841,115.295 94.6278,117.302 93.3012,119.315 92.0039,121.335 90.7355,123.36 89.4955,125.389 88.2837,127.422 87.0997,129.458 85.943,131.498 84.8133,133.539 
  83.7102,135.581 82.6333,137.625 81.5824,139.669 80.557,141.713 79.5567,143.756 78.5813,145.798 77.6303,147.839 76.7035,149.877 75.8004,151.913 74.9208,153.946 
  74.0644,155.976 73.2308,158.001 72.4197,160.023 71.6308,162.04 70.8638,164.052 70.1183,166.058 69.3943,168.06 68.6912,170.055 68.0089,172.043 67.347,174.025 
  66.7054,176.001 66.0836,177.968 65.4816,179.929 64.8989,181.881 64.3355,183.826 63.7909,185.762 63.265,187.69 62.7575,189.609 62.2682,191.519 61.7969,193.419 
  61.3434,195.311 60.9074,197.192 60.4887,199.064 60.0871,200.926 59.7025,202.778 59.3345,204.619 58.9831,206.45 58.648,208.27 58.3291,210.08 58.0262,211.879 
  57.739,213.667 57.4675,215.444 57.2114,217.209 56.9705,218.964 56.7448,220.706 56.534,222.438 56.338,224.158 56.1567,225.866 55.99,227.563 55.8376,229.247 
  55.6994,230.92 55.5754,232.582 55.4653,234.231 55.3691,235.868 55.2867,237.493 55.2178,239.106 55.1624,240.707 55.1203,242.296 55.0915,243.872 55.0759,245.437 
  55.0733,246.989 55.0836,248.529 55.1067,250.057 55.1426,251.572 55.1911,253.075 55.2521,254.566 55.3256,256.044 55.4114,257.511 55.5096,258.965 55.6199,260.406 
  55.7423,261.836 55.8768,263.253 56.0233,264.658 56.1816,266.051 56.3518,267.432 56.5338,268.801 56.7275,270.157 56.9329,271.502 57.1498,272.834 57.3783,274.155 
  57.6182,275.464 57.8695,276.76 58.1322,278.045 58.4062,279.318 58.6915,280.579 58.9881,281.828 59.2958,283.066 59.6147,284.292 59.9447,285.507 60.2858,286.709 
  60.6379,287.901 61.0011,289.081 61.3752,290.249 61.7603,291.406 62.1563,292.552 62.5633,293.686 62.9811,294.81 63.4097,295.922 63.8492,297.023 64.2994,298.113 
  64.7605,299.192 65.2323,300.26 65.7149,301.317 66.2082,302.364 66.7122,303.399 67.2269,304.424 67.7523,305.438 68.2884,306.442 68.8351,307.435 69.3925,308.418 
  69.9606,309.39 70.5393,310.352 71.1287,311.304 71.7287,312.245 72.3394,313.177 72.9607,314.098 73.5927,315.009 74.2353,315.91 74.8886,316.801 75.5525,317.683 
  76.2272,318.554 76.9125,319.416 77.6085,320.269 78.3151,321.112 79.0325,321.945 79.7605,322.768 80.4993,323.583 81.2488,324.388 82.009,325.183 82.78,325.97 
  83.5618,326.747 84.3544,327.515 85.1579,328.274 85.9721,329.024 86.7973,329.765 87.6333,330.497 88.4803,331.221 89.3381,331.936 90.207,332.642 91.0868,333.339 
  91.9776,334.028 92.8795,334.708 93.7924,335.38 94.7163,336.043 95.6514,336.698 96.5976,337.345 97.555,337.983 98.5235,338.613 99.5033,339.235 100.494,339.849 
  101.496,340.455 102.51,341.053 103.535,341.643 104.571,342.225 105.619,342.799 106.678,343.365 107.748,343.923 108.83,344.474 109.923,345.017 111.028,345.553 
  112.145,346.081 113.273,346.601 114.413,347.114 115.564,347.619 116.727,348.117 117.902,348.607 119.088,349.09 120.287,349.566 121.497,350.035 122.719,350.496 
  123.953,350.95 125.199,351.397 126.457,351.837 127.726,352.27 129.008,352.695 130.302,353.114 131.609,353.526 132.927,353.93 134.257,354.328 135.6,354.719 
  136.955,355.103 138.323,355.48 139.702,355.85 141.094,356.214 142.498,356.57 143.914,356.92 145.343,357.263 146.784,357.6 148.237,357.929 149.703,358.252 
  151.182,358.569 152.673,358.878 154.177,359.182 155.694,359.478 157.223,359.768 158.765,360.052 160.32,360.329 161.888,360.599 163.469,360.863 165.063,361.121 
  166.67,361.372 168.29,361.617 169.923,361.855 171.569,362.087 173.229,362.312 174.901,362.531 176.587,362.744 178.285,362.95 179.997,363.15 181.722,363.343 
  183.461,363.531 185.213,363.711 186.978,363.886 188.756,364.053 190.547,364.215 192.352,364.37 194.17,364.519 196.001,364.661 197.846,364.797 199.704,364.926 
  201.575,365.049 203.459,365.165 205.357,365.275 207.268,365.378 209.192,365.474 211.129,365.565 213.079,365.648 215.043,365.725 217.02,365.795 219.009,365.858 
  221.012,365.915 223.028,365.965 225.057,366.008 227.099,366.044 229.154,366.074 231.221,366.096 233.302,366.112 235.395,366.121 237.501,366.122 239.62,366.117 
  241.752,366.104 243.896,366.084 246.053,366.058 248.222,366.023 250.404,365.982 252.598,365.933 254.805,365.877 257.024,365.813 259.255,365.742 261.498,365.663 
  263.753,365.576 266.02,365.482 268.3,365.38 270.591,365.27 272.894,365.152 275.208,365.027 277.534,364.893 279.872,364.751 282.221,364.601 284.581,364.442 
  286.952,364.276 289.332,364.1 291.723,363.916 294.124,363.723 296.535,363.521 298.956,363.31 301.387,363.09 303.827,362.861 306.277,362.623 308.737,362.375 
  311.206,362.118 313.684,361.851 316.171,361.575 318.667,361.289 321.171,360.994 323.684,360.688 326.204,360.372 328.733,360.046 331.269,359.71 333.813,359.363 
  336.363,359.005 338.92,358.636 341.484,358.257 344.054,357.866 346.629,357.464 349.21,357.051 351.796,356.626 354.387,356.19 356.982,355.741 359.581,355.28 
  362.183,354.807 364.788,354.322 367.396,353.823 370.006,353.312 372.617,352.788 375.23,352.25 377.843,351.699 380.456,351.134 383.069,350.556 385.682,349.963 
  388.292,349.356 390.901,348.734 393.507,348.097 396.11,347.446 398.709,346.779 401.303,346.096 403.893,345.398 406.477,344.684 409.054,343.953 411.625,343.206 
  414.188,342.442 416.742,341.661 419.288,340.863 421.824,340.047 424.349,339.213 426.862,338.361 429.364,337.49 431.853,336.601 434.329,335.692 436.79,334.765 
  439.235,333.817 441.665,332.85 444.078,331.862 446.473,330.854 448.85,329.825 451.207,328.774 453.543,327.703 455.859,326.609 458.152,325.493 460.422,324.354 
  462.669,323.192 464.89,322.008 467.087,320.8 469.261,319.569 471.41,318.314 473.533,317.035 475.627,315.732 477.692,314.403 479.725,313.048 481.724,311.668 
  483.687,310.26 485.614,308.825 487.503,307.363 489.351,305.873 491.158,304.354 492.922,302.807 494.641,301.231 496.314,299.626 497.939,297.991 499.515,296.327 
  501.04,294.632 502.514,292.907 503.935,291.152 505.301,289.367 506.611,287.551 507.864,285.704 509.059,283.826 510.194,281.918 511.269,279.978 512.281,278.008 
  513.231,276.007 514.117,273.975 514.937,271.912 515.692,269.819 516.379,267.695 516.998,265.541 517.548,263.356 518.027,261.141 518.436,258.897 518.773,256.623 
  519.037,254.319 519.227,251.986 519.343,249.625 519.385,247.235 519.35,244.817 519.238,242.371 519.05,239.897 518.783,237.397 518.438,234.87 518.014,232.317 
  517.51,229.739 516.926,227.136 516.261,224.508 515.515,221.856 514.687,219.181 513.777,216.483 512.785,213.763 511.709,211.021 510.55,208.259 509.308,205.476 
  507.981,202.675 506.571,199.854 505.076,197.016 503.496,194.161 501.832,191.29 500.082,188.403 498.247,185.502 496.327,182.587 494.322,179.66 492.232,176.72 
  490.056,173.771 487.794,170.811 485.448,167.843 483.017,164.869 480.504,161.891 477.91,158.912 475.238,155.933 472.489,152.957 469.665,149.986 466.768,147.022 
  463.799,144.066 460.761,141.121 457.656,138.189 454.485,135.271 451.25,132.37 447.953,129.487 444.597,126.625 441.183,123.785 437.713,120.969 434.188,118.178 
  430.612,115.415 426.986,112.681 423.312,109.977 419.593,107.306 415.829,104.67 412.023,102.068 408.178,99.5042 404.294,96.9789 400.376,94.4938 396.423,92.0505 
  392.439,89.6503 388.426,87.2948 384.386,84.9853 380.32,82.7232 376.232,80.5097 372.122,78.3464 367.994,76.2343 363.85,74.1748 359.692,72.1692 355.521,70.2185 
  351.341,68.324 347.153,66.4868 342.959,64.7081 338.763,62.9889 334.566,61.3303 330.37,59.7334 326.178,58.199 321.992,56.7283 317.814,55.3221 313.647,53.9814 
  309.493,52.707 305.355,51.4999 301.234,50.3608 297.133,49.2906 293.055,48.2901 289.001,47.3598 284.971,46.4974 280.965,45.7016 276.984,44.9721 273.029,44.3088 
  269.101,43.7114 265.203,43.1795 261.334,42.7129 257.495,42.3113 253.689,41.9742 249.916,41.7012 246.176,41.4921 242.472,41.3462 238.802,41.2631 235.17,41.2425 
  231.574,41.2836 228.017,41.3861 224.499,41.5492 221.019,41.7726 217.58,42.0554 214.182,42.3971 210.825,42.7971 207.51,43.2545 204.237,43.7688 201.007,44.3392 
  197.82,44.9649 194.676,45.6451 191.576,46.379 188.521,47.1657 185.509,48.0045 182.543,48.8944 179.621,49.8345 176.744,50.8238 173.911,51.8615 171.124,52.9464 
  168.382,54.0777 165.685,55.2542 163.033,56.4749 160.425,57.7387 157.862,59.0445 155.344,60.3912 152.87,61.7775 150.44,63.2024 148.054,64.6646 145.71,66.1628 
  143.41,67.6958 141.153,69.2623 138.937,70.861 136.763,72.4906 134.63,74.1496 132.538,75.8368 130.485,77.5507 128.471,79.2898 126.496,81.0528 124.559,82.8381 
  122.658,84.6441 120.794,86.4695 118.964,88.3125 117.17,90.1717 115.408,92.0454 113.679,93.9319 111.981,95.8297 110.314,97.737 108.676,99.6521 107.066,101.573 
  105.486,103.503 103.939,105.444 102.424,107.397 100.941,109.36 99.489,111.333 98.0683,113.314 96.678,115.304 95.3179,117.301 93.9875,119.305 92.6863,121.315 
  91.414,123.33 90.1702,125.351 88.9545,127.375 87.7664,129.403 86.6056,131.434 85.4717,133.467 84.3644,135.502 83.2832,137.538 82.2279,139.575 81.1979,141.611 
  80.1931,143.648 79.213,145.683 78.2573,147.717 77.3257,149.749 76.4178,151.778 75.5333,153.805 74.6719,155.828 73.8333,157.848 73.0171,159.863 72.2232,161.874 
  71.4511,163.88 70.7005,165.881 69.9713,167.876 69.2631,169.865 68.5756,171.848 67.9086,173.824 67.2618,175.793 66.635,177.755 66.0278,179.709 65.4401,181.656 
  64.8716,183.594 64.3221,185.525 63.7913,187.446 63.2791,189.36 62.7851,191.264 62.3093,193.159 61.8513,195.046 61.411,196.922 60.9881,198.79 60.5826,200.648 
  60.1942,202.496 59.8227,204.334 59.4677,206.162 59.129,207.98 58.8063,209.787 58.4995,211.582 58.2084,213.367 57.9328,215.141 57.6727,216.904 57.4279,218.655 
  57.1982,220.395 56.9835,222.124 56.7836,223.842 56.5984,225.548 56.4278,227.242 56.2716,228.925 56.1297,230.596 56.002,232.256 55.8883,233.904 55.7886,235.539 
  55.7026,237.163 55.6303,238.776 55.5715,240.376 55.5262,241.964 55.4942,243.54 55.4755,245.104 55.4698,246.656 55.4772,248.196 55.4974,249.724 55.5305,251.239 
  55.5762,252.743 55.6346,254.234 55.7055,255.713 55.7888,257.18 55.8844,258.635 55.9923,260.077 56.1124,261.507 56.2445,262.925 56.3887,264.331 56.5448,265.724 
  56.7127,267.106 56.8924,268.475 57.0839,269.832 57.287,271.177 57.5016,272.51 57.7279,273.831 57.9655,275.139 58.2146,276.436 58.4751,277.721 58.7468,278.993 
  59.0298,280.254 59.324,281.503 59.6294,282.74 59.9459,283.966 60.2735,285.179 60.6121,286.381 60.9618,287.571 61.3224,288.75 61.694,289.918 62.0765,291.074 
  62.4699,292.218 62.8741,293.352 63.2893,294.474 63.7152,295.585 64.152,296.685 64.5996,297.774 65.058,298.852 65.5272,299.919 66.0072,300.976 66.4979,302.022 
  66.9995,303.058 67.5118,304.083 68.0349,305.098 68.5687,306.103 69.113,307.097 69.668,308.08 70.2336,309.053 70.8098,310.015 71.3967,310.968 71.9942,311.91 
  72.6024,312.842 73.2212,313.764 73.8507,314.676 74.4908,315.578 75.1416,316.47 75.8031,317.352 76.4753,318.224 77.1582,319.087 77.8518,319.94 78.5562,320.784 
  79.2712,321.618 79.997,322.443 80.7336,323.258 81.4809,324.064 82.2391,324.86 83.008,325.648 83.7877,326.426 84.5783,327.195 85.3797,327.956 86.192,328.707 
  87.0152,329.449 87.8492,330.183 88.6942,330.907 89.5501,331.623 90.417,332.33 91.2948,333.029 92.1837,333.719 93.0835,334.4 93.9944,335.073 94.9164,335.738 
  95.8495,336.394 96.7936,337.042 97.7489,337.681 98.7154,338.313 99.693,338.936 100.682,339.551 101.682,340.158 102.693,340.757 103.716,341.347 104.75,341.93 
  105.795,342.506 106.852,343.073 107.92,343.632 109,344.184 110.091,344.728 111.193,345.264 112.307,345.793 113.433,346.314 114.57,346.828 115.719,347.334 
  116.879,347.833 118.052,348.324 119.236,348.808 120.431,349.285 121.639,349.754 122.858,350.216 124.09,350.671 125.333,351.119 126.588,351.559 127.856,351.993 
  129.135,352.419 130.426,352.839 131.729,353.251 133.043,353.656 134.368,354.053 135.705,354.443 137.053,354.826 138.413,355.202 139.785,355.571 141.168,355.932 
  142.563,356.287 143.971,356.635 145.39,356.976 146.822,357.31 148.266,357.637 149.723,357.958 151.192,358.272 152.674,358.579 154.168,358.879 155.676,359.173 
  157.196,359.461 158.729,359.742 160.275,360.016 161.834,360.284 163.406,360.546 164.992,360.801 166.59,361.05 168.202,361.293 169.827,361.529 171.466,361.759 
  173.118,361.982 174.784,362.2 176.463,362.411 178.155,362.615 179.861,362.814 181.581,363.006 183.314,363.192 185.061,363.372 186.821,363.545 188.595,363.713 
  190.383,363.874 192.184,364.029 193.999,364.177 195.828,364.319 197.67,364.455 199.526,364.585 201.395,364.708 203.278,364.825 205.175,364.936 207.085,365.04 
  209.009,365.138 210.946,365.23 212.897,365.315 214.861,365.394 216.839,365.466 218.83,365.531 220.834,365.59 222.851,365.643 224.882,365.688 226.926,365.727 
  228.983,365.76 231.053,365.785 233.136,365.804 235.232,365.816 237.34,365.821 239.461,365.819 241.595,365.81 243.742,365.794 245.901,365.77 248.073,365.74 
  250.256,365.702 252.452,365.657 254.661,365.605 256.881,365.545 259.113,365.477 261.357,365.402 263.612,365.32 265.879,365.229 268.158,365.131 270.448,365.025 
  272.749,364.911 275.061,364.789 277.384,364.658 279.718,364.52 282.062,364.373 284.417,364.217 286.783,364.053 289.158,363.881 291.544,363.7 293.939,363.51 
  296.345,363.311 298.76,363.103 301.184,362.886 303.618,362.66 306.06,362.424 308.512,362.179 310.972,361.924 313.441,361.66 315.918,361.386 318.403,361.102 
  320.897,360.808 323.398,360.504 325.906,360.19 328.422,359.865 330.945,359.53 333.476,359.184 336.012,358.828 338.556,358.46 341.105,358.081 343.661,357.692 
  346.223,357.29 348.79,356.878 351.363,356.454 353.94,356.018 356.523,355.57 359.11,355.11 361.702,354.638 364.298,354.154 366.899,353.658 369.503,353.151 
  372.11,352.632 374.72,352.1 377.332,351.556 379.946,350.998 382.559,350.427 385.173,349.842 387.786,349.243 390.398,348.629 393.007,348 395.613,347.356 
  398.216,346.696 400.814,346.021 403.408,345.329 405.995,344.62 408.576,343.895 411.15,343.152 413.715,342.392 416.272,341.613 418.819,340.817 421.355,340.002 
  423.88,339.168 426.393,338.315 428.892,337.442 431.378,336.55 433.849,335.637 436.305,334.705 438.744,333.751 441.166,332.777 443.57,331.782 445.955,330.765 
  448.319,329.727 450.663,328.666 452.985,327.583 455.284,326.478 457.559,325.35 459.81,324.199 462.035,323.025 464.233,321.827 466.404,320.605 468.546,319.359 
  470.659,318.09 472.741,316.795 474.791,315.476 476.809,314.132 478.793,312.763 480.743,311.369 482.656,309.949 484.533,308.503 486.372,307.031 488.172,305.533 
  489.932,304.009 491.65,302.458 493.327,300.88 494.96,299.275 496.548,297.643 498.091,295.984 499.586,294.297 501.034,292.583 502.433,290.84 503.781,289.07 
  505.078,287.271 506.322,285.444 507.512,283.589 508.647,281.705 509.726,279.792 510.747,277.85 511.709,275.879 512.611,273.878 513.452,271.849 514.23,269.789 
  514.945,267.701 515.594,265.582 516.177,263.433 516.692,261.255 517.137,259.046 517.513,256.807 517.817,254.538 518.047,252.238 518.204,249.908 518.284,247.547 
  518.288,245.155 518.212,242.732 518.057,240.279 517.821,237.794 517.502,235.279 517.102,232.736 516.622,230.165 516.059,227.568 515.414,224.944 514.685,222.295 
  513.873,219.622 512.977,216.924 511.996,214.204 510.93,211.461 509.779,208.696 508.542,205.911 507.22,203.106 505.813,200.282 504.32,197.441 502.742,194.583 
  501.079,191.709 499.331,188.822 497.498,185.921 495.582,183.008 493.582,180.084 491.499,177.151 489.333,174.21 487.087,171.262 484.759,168.31 482.351,165.353 
  479.865,162.395 477.3,159.435 474.659,156.477 471.942,153.521 469.151,150.57 466.286,147.625 463.35,144.687 460.343,141.76 457.268,138.843 454.126,135.94 
  
  "/>
<polygon clip-path="url(#clip9600)" points="
464.193,82.6161 562.315,82.6161 562.315,52.3761 464.193,52.3761 
  " fill="#ffffff" fill-opacity="1"/>
<polyline clip-path="url(#clip9600)" style="stroke:#000000; stroke-width:1; stroke-opacity:1; fill:none" points="
  464.193,82.6161 562.315,82.6161 562.315,52.3761 464.193,52.3761 464.193,82.6161 
  "/>
<polyline clip-path="url(#clip9600)" style="stroke:#009af9; stroke-width:3; stroke-opacity:1; fill:none" points="
  470.193,67.4961 506.193,67.4961 
  "/>
<g clip-path="url(#clip9600)">
<text style="fill:#000000; fill-opacity:1; font-family:Arial,Helvetica Neue,Helvetica,sans-serif; font-size:12; text-anchor:start;" transform="rotate(0, 512.193, 71.9961)" x="512.193" y="71.9961">(u1,u2)</text>
</g>
</svg>
