<?xml version="1.0" encoding="utf-8"?>
<svg xmlns="http://www.w3.org/2000/svg" xmlns:xlink="http://www.w3.org/1999/xlink" width="600" height="400" viewBox="0 0 600 400">
<defs>
  <clipPath id="clip9400">
    <rect x="0" y="0" width="600" height="400"/>
  </clipPath>
</defs>
<polygon clip-path="url(#clip9400)" points="
0,400 600,400 600,0 0,0 
  " fill="#ffffff" fill-opacity="1"/>
<defs>
  <clipPath id="clip9401">
    <rect x="120" y="0" width="421" height="400"/>
  </clipPath>
</defs>
<polygon clip-path="url(#clip9400)" points="
40.3485,360.121 580.315,360.121 580.315,31.4961 40.3485,31.4961 
  " fill="#ffffff" fill-opacity="1"/>
<defs>
  <clipPath id="clip9402">
    <rect x="40" y="31" width="541" height="330"/>
  </clipPath>
</defs>
<polyline clip-path="url(#clip9402)" style="stroke:#000000; stroke-width:0.5; stroke-opacity:0.1; fill:none" points="
  40.3485,360.121 40.3485,31.4961 
  "/>
<polyline clip-path="url(#clip9402)" style="stroke:#000000; stroke-width:0.5; stroke-opacity:0.1; fill:none" points="
  148.342,360.121 148.342,31.4961 
  "/>
<polyline clip-path="url(#clip9402)" style="stroke:#000000; stroke-width:0.5; stroke-opacity:0.1; fill:none" points="
  256.335,360.121 256.335,31.4961 
  "/>
<polyline clip-path="url(#clip9402)" style="stroke:#000000; stroke-width:0.5; stroke-opacity:0.1; fill:none" points="
  364.328,360.121 364.328,31.4961 
  "/>
<polyline clip-path="url(#clip9402)" style="stroke:#000000; stroke-width:0.5; stroke-opacity:0.1; fill:none" points="
  472.322,360.121 472.322,31.4961 
  "/>
<polyline clip-path="url(#clip9402)" style="stroke:#000000; stroke-width:0.5; stroke-opacity:0.1; fill:none" points="
  580.315,360.121 580.315,31.4961 
  "/>
<polyline clip-path="url(#clip9402)" style="stroke:#000000; stroke-width:0.5; stroke-opacity:0.1; fill:none" points="
  40.3485,303.25 580.315,303.25 
  "/>
<polyline clip-path="url(#clip9402)" style="stroke:#000000; stroke-width:0.5; stroke-opacity:0.1; fill:none" points="
  40.3485,225.164 580.315,225.164 
  "/>
<polyline clip-path="url(#clip9402)" style="stroke:#000000; stroke-width:0.5; stroke-opacity:0.1; fill:none" points="
  40.3485,147.078 580.315,147.078 
  "/>
<polyline clip-path="url(#clip9402)" style="stroke:#000000; stroke-width:0.5; stroke-opacity:0.1; fill:none" points="
  40.3485,68.9925 580.315,68.9925 
  "/>
<polyline clip-path="url(#clip9400)" style="stroke:#000000; stroke-width:1; stroke-opacity:1; fill:none" points="
  40.3485,360.121 580.315,360.121 
  "/>
<polyline clip-path="url(#clip9400)" style="stroke:#000000; stroke-width:1; stroke-opacity:1; fill:none" points="
  40.3485,360.121 40.3485,31.4961 
  "/>
<polyline clip-path="url(#clip9400)" style="stroke:#000000; stroke-width:1; stroke-opacity:1; fill:none" points="
  40.3485,360.121 40.3485,355.191 
  "/>
<polyline clip-path="url(#clip9400)" style="stroke:#000000; stroke-width:1; stroke-opacity:1; fill:none" points="
  148.342,360.121 148.342,355.191 
  "/>
<polyline clip-path="url(#clip9400)" style="stroke:#000000; stroke-width:1; stroke-opacity:1; fill:none" points="
  256.335,360.121 256.335,355.191 
  "/>
<polyline clip-path="url(#clip9400)" style="stroke:#000000; stroke-width:1; stroke-opacity:1; fill:none" points="
  364.328,360.121 364.328,355.191 
  "/>
<polyline clip-path="url(#clip9400)" style="stroke:#000000; stroke-width:1; stroke-opacity:1; fill:none" points="
  472.322,360.121 472.322,355.191 
  "/>
<polyline clip-path="url(#clip9400)" style="stroke:#000000; stroke-width:1; stroke-opacity:1; fill:none" points="
  580.315,360.121 580.315,355.191 
  "/>
<polyline clip-path="url(#clip9400)" style="stroke:#000000; stroke-width:1; stroke-opacity:1; fill:none" points="
  40.3485,303.25 48.448,303.25 
  "/>
<polyline clip-path="url(#clip9400)" style="stroke:#000000; stroke-width:1; stroke-opacity:1; fill:none" points="
  40.3485,225.164 48.448,225.164 
  "/>
<polyline clip-path="url(#clip9400)" style="stroke:#000000; stroke-width:1; stroke-opacity:1; fill:none" points="
  40.3485,147.078 48.448,147.078 
  "/>
<polyline clip-path="url(#clip9400)" style="stroke:#000000; stroke-width:1; stroke-opacity:1; fill:none" points="
  40.3485,68.9925 48.448,68.9925 
  "/>
<g clip-path="url(#clip9400)">
<text style="fill:#000000; fill-opacity:1; font-family:Arial,Helvetica Neue,Helvetica,sans-serif; font-size:12; text-anchor:middle;" transform="rotate(0, 40.3485, 373.921)" x="40.3485" y="373.921">0</text>
</g>
<g clip-path="url(#clip9400)">
<text style="fill:#000000; fill-opacity:1; font-family:Arial,Helvetica Neue,Helvetica,sans-serif; font-size:12; text-anchor:middle;" transform="rotate(0, 148.342, 373.921)" x="148.342" y="373.921">2</text>
</g>
<g clip-path="url(#clip9400)">
<text style="fill:#000000; fill-opacity:1; font-family:Arial,Helvetica Neue,Helvetica,sans-serif; font-size:12; text-anchor:middle;" transform="rotate(0, 256.335, 373.921)" x="256.335" y="373.921">4</text>
</g>
<g clip-path="url(#clip9400)">
<text style="fill:#000000; fill-opacity:1; font-family:Arial,Helvetica Neue,Helvetica,sans-serif; font-size:12; text-anchor:middle;" transform="rotate(0, 364.328, 373.921)" x="364.328" y="373.921">6</text>
</g>
<g clip-path="url(#clip9400)">
<text style="fill:#000000; fill-opacity:1; font-family:Arial,Helvetica Neue,Helvetica,sans-serif; font-size:12; text-anchor:middle;" transform="rotate(0, 472.322, 373.921)" x="472.322" y="373.921">8</text>
</g>
<g clip-path="url(#clip9400)">
<text style="fill:#000000; fill-opacity:1; font-family:Arial,Helvetica Neue,Helvetica,sans-serif; font-size:12; text-anchor:middle;" transform="rotate(0, 580.315, 373.921)" x="580.315" y="373.921">10</text>
</g>
<g clip-path="url(#clip9400)">
<text style="fill:#000000; fill-opacity:1; font-family:Arial,Helvetica Neue,Helvetica,sans-serif; font-size:12; text-anchor:end;" transform="rotate(0, 34.3485, 307.75)" x="34.3485" y="307.75">0.5</text>
</g>
<g clip-path="url(#clip9400)">
<text style="fill:#000000; fill-opacity:1; font-family:Arial,Helvetica Neue,Helvetica,sans-serif; font-size:12; text-anchor:end;" transform="rotate(0, 34.3485, 229.664)" x="34.3485" y="229.664">1.0</text>
</g>
<g clip-path="url(#clip9400)">
<text style="fill:#000000; fill-opacity:1; font-family:Arial,Helvetica Neue,Helvetica,sans-serif; font-size:12; text-anchor:end;" transform="rotate(0, 34.3485, 151.578)" x="34.3485" y="151.578">1.5</text>
</g>
<g clip-path="url(#clip9400)">
<text style="fill:#000000; fill-opacity:1; font-family:Arial,Helvetica Neue,Helvetica,sans-serif; font-size:12; text-anchor:end;" transform="rotate(0, 34.3485, 73.4925)" x="34.3485" y="73.4925">2.0</text>
</g>
<g clip-path="url(#clip9400)">
<text style="fill:#000000; fill-opacity:1; font-family:Arial,Helvetica Neue,Helvetica,sans-serif; font-size:21; text-anchor:middle;" transform="rotate(0, 310.332, 18)" x="310.332" y="18">All Plots.jl Attributes are Available</text>
</g>
<g clip-path="url(#clip9400)">
<text style="fill:#000000; fill-opacity:1; font-family:Arial,Helvetica Neue,Helvetica,sans-serif; font-size:16; text-anchor:middle;" transform="rotate(0, 310.332, 397.6)" x="310.332" y="397.6">t</text>
</g>
<polyline clip-path="url(#clip9402)" style="stroke:#009af9; stroke-width:3; stroke-opacity:1; fill:none" points="
  40.3485,225.164 40.889,226.716 41.4295,228.244 41.97,229.749 42.5105,231.23 43.051,232.688 43.5916,234.123 44.1321,235.535 44.6726,236.924 45.2131,238.289 
  45.7536,239.633 46.2941,240.953 46.8346,242.252 47.3751,243.527 47.9156,244.781 48.4561,246.013 48.9966,247.223 49.5371,248.412 50.0776,249.579 50.6181,250.725 
  51.1586,251.85 51.6992,252.954 52.2397,254.038 52.7802,255.101 53.3207,256.144 53.8612,257.167 54.4017,258.171 54.9422,259.155 55.4827,260.12 56.0232,261.065 
  56.5637,261.992 57.1042,262.901 57.6447,263.791 58.1852,264.662 58.7257,265.516 59.2663,266.353 59.8068,267.172 60.3473,267.973 60.8878,268.758 61.4283,269.526 
  61.9688,270.277 62.5093,271.012 63.0498,271.731 63.5903,272.435 64.1308,273.122 64.6713,273.794 65.2118,274.451 65.7523,275.093 66.2928,275.719 66.8334,276.332 
  67.3739,276.93 67.9144,277.513 68.4549,278.083 68.9954,278.639 69.5359,279.181 70.0764,279.71 70.6169,280.225 71.1574,280.727 71.6979,281.217 72.2384,281.693 
  72.7789,282.158 73.3194,282.609 73.8599,283.049 74.4004,283.477 74.941,283.892 75.4815,284.296 76.022,284.689 76.5625,285.07 77.103,285.44 77.6435,285.798 
  78.184,286.146 78.7245,286.483 79.265,286.809 79.8055,287.125 80.346,287.431 80.8865,287.726 81.427,288.011 81.9675,288.286 82.5081,288.551 83.0486,288.807 
  83.5891,289.052 84.1296,289.289 84.6701,289.516 85.2106,289.733 85.7511,289.942 86.2916,290.141 86.8321,290.332 87.3726,290.513 87.9131,290.686 88.4536,290.85 
  88.9941,291.006 89.5346,291.153 90.0751,291.292 90.6157,291.422 91.1562,291.545 91.6967,291.659 92.2372,291.765 92.7777,291.863 93.3182,291.954 93.8587,292.036 
  94.3992,292.111 94.9397,292.179 95.4802,292.238 96.0207,292.29 96.5612,292.335 97.1017,292.372 97.6422,292.402 98.1828,292.425 98.7233,292.441 99.2638,292.449 
  99.8043,292.451 100.345,292.445 100.885,292.433 101.426,292.413 101.966,292.387 102.507,292.354 103.047,292.314 103.588,292.267 104.128,292.214 104.669,292.154 
  105.209,292.088 105.75,292.015 106.29,291.936 106.831,291.85 107.371,291.758 107.912,291.659 108.452,291.554 108.993,291.443 109.533,291.325 110.074,291.201 
  110.614,291.071 111.155,290.935 111.695,290.793 112.236,290.644 112.776,290.49 113.317,290.329 113.857,290.162 114.398,289.989 114.938,289.81 115.479,289.626 
  116.019,289.435 116.56,289.238 117.1,289.035 117.641,288.826 118.182,288.612 118.722,288.391 119.263,288.165 119.803,287.932 120.344,287.694 120.884,287.45 
  121.425,287.2 121.965,286.945 122.506,286.683 123.046,286.416 123.587,286.142 124.127,285.864 124.668,285.579 125.208,285.288 125.749,284.992 126.289,284.69 
  126.83,284.382 127.37,284.068 127.911,283.749 128.451,283.424 128.992,283.093 129.532,282.756 130.073,282.413 130.613,282.065 131.154,281.711 131.694,281.351 
  132.235,280.985 132.775,280.614 133.316,280.237 133.856,279.854 134.397,279.465 134.937,279.07 135.478,278.67 136.018,278.264 136.559,277.852 137.099,277.434 
  137.64,277.01 138.18,276.58 138.721,276.145 139.261,275.704 139.802,275.256 140.342,274.803 140.883,274.344 141.423,273.879 141.964,273.408 142.504,272.932 
  143.045,272.449 143.585,271.96 144.126,271.465 144.666,270.964 145.207,270.458 145.747,269.945 146.288,269.426 146.828,268.901 147.369,268.37 147.909,267.833 
  148.45,267.29 148.99,266.74 149.531,266.185 150.071,265.623 150.612,265.055 151.152,264.481 151.693,263.901 152.233,263.315 152.774,262.722 153.314,262.123 
  153.855,261.518 154.395,260.907 154.936,260.289 155.476,259.665 156.017,259.035 156.558,258.398 157.098,257.755 157.639,257.105 158.179,256.45 158.72,255.787 
  159.26,255.118 159.801,254.443 160.341,253.761 160.882,253.073 161.422,252.378 161.963,251.677 162.503,250.969 163.044,250.255 163.584,249.533 164.125,248.806 
  164.665,248.071 165.206,247.33 165.746,246.582 166.287,245.828 166.827,245.067 167.368,244.299 167.908,243.525 168.449,242.744 168.989,241.956 169.53,241.162 
  170.07,240.36 170.611,239.552 171.151,238.737 171.692,237.915 172.232,237.086 172.773,236.25 173.313,235.407 173.854,234.558 174.394,233.701 174.935,232.837 
  175.475,231.966 176.016,231.088 176.556,230.203 177.097,229.311 177.637,228.411 178.178,227.505 178.718,226.591 179.259,225.671 179.799,224.743 180.34,223.808 
  180.88,222.865 181.421,221.916 181.961,220.959 182.502,219.996 183.042,219.025 183.583,218.046 184.123,217.061 184.664,216.069 185.204,215.069 185.745,214.062 
  186.285,213.048 186.826,212.026 187.366,210.998 187.907,209.962 188.447,208.919 188.988,207.869 189.528,206.812 190.069,205.748 190.609,204.677 191.15,203.598 
  191.69,202.513 192.231,201.42 192.771,200.321 193.312,199.214 193.852,198.1 194.393,196.98 194.933,195.852 195.474,194.717 196.015,193.576 196.555,192.427 
  197.096,191.272 197.636,190.11 198.177,188.941 198.717,187.765 199.258,186.583 199.798,185.393 200.339,184.197 200.879,182.995 201.42,181.786 201.96,180.57 
  202.501,179.347 203.041,178.119 203.582,176.883 204.122,175.642 204.663,174.393 205.203,173.139 205.744,171.878 206.284,170.611 206.825,169.338 207.365,168.059 
  207.906,166.774 208.446,165.484 208.987,164.188 209.527,162.887 210.068,161.58 210.608,160.268 211.149,158.95 211.689,157.628 212.23,156.3 212.77,154.967 
  213.311,153.628 213.851,152.285 214.392,150.937 214.932,149.585 215.473,148.227 216.013,146.866 216.554,145.499 217.094,144.129 217.635,142.754 218.175,141.376 
  218.716,139.993 219.256,138.607 219.797,137.218 220.337,135.825 220.878,134.429 221.418,133.03 221.959,131.629 222.499,130.224 223.04,128.818 223.58,127.41 
  224.121,125.999 224.661,124.587 225.202,123.174 225.742,121.759 226.283,120.344 226.823,118.928 227.364,117.511 227.904,116.095 228.445,114.679 228.985,113.263 
  229.526,111.848 230.066,110.434 230.607,109.022 231.147,107.611 231.688,106.202 232.228,104.796 232.769,103.392 233.309,101.992 233.85,100.595 234.391,99.2018 
  234.931,97.8127 235.472,96.4281 236.012,95.0485 236.553,93.6742 237.093,92.3056 237.634,90.9432 238.174,89.5872 238.715,88.2382 239.255,86.8966 239.796,85.5627 
  240.336,84.2371 240.877,82.9202 241.417,81.6125 241.958,80.3143 242.498,79.0263 243.039,77.7487 243.579,76.4822 244.12,75.2273 244.66,73.9843 245.201,72.7539 
  245.741,71.5365 246.282,70.3326 246.822,69.1419 247.363,67.9635 247.903,66.7986 248.444,65.648 248.984,64.5128 249.525,63.3939 250.065,62.2923 250.606,61.2088 
  251.146,60.1444 251.687,59.0999 252.227,58.0763 252.768,57.0745 253.308,56.0952 253.849,55.1393 254.389,54.2077 254.93,53.301 255.47,52.4202 256.011,51.566 
  256.551,50.7392 257.092,49.9404 257.632,49.1705 258.173,48.4301 258.713,47.72 259.254,47.0408 259.794,46.3933 260.335,45.7779 260.875,45.1955 261.416,44.6466 
  261.956,44.1318 262.497,43.6518 263.037,43.2071 263.578,42.7982 264.118,42.4258 264.659,42.0904 265.199,41.7924 265.74,41.5324 266.28,41.3109 266.821,41.1284 
  267.361,40.9853 267.902,40.882 268.442,40.819 268.983,40.7968 269.523,40.8156 270.064,40.876 270.604,40.9782 271.145,41.1226 271.685,41.3096 272.226,41.5395 
  272.767,41.8126 273.307,42.1292 273.848,42.4895 274.388,42.8939 274.929,43.3426 275.469,43.8359 276.01,44.3738 276.55,44.9568 277.091,45.5849 277.631,46.2583 
  278.172,46.9772 278.712,47.7417 279.253,48.552 279.793,49.4082 280.334,50.3104 280.874,51.2586 281.415,52.253 281.955,53.2935 282.496,54.3804 283.036,55.5134 
  283.577,56.6928 284.117,57.9184 284.658,59.1902 285.198,60.5077 285.739,61.8698 286.279,63.2755 286.82,64.7238 287.36,66.2138 287.901,67.7445 288.441,69.3148 
  288.982,70.9237 289.522,72.5703 290.063,74.2534 290.603,75.9721 291.144,77.7254 291.684,79.5121 292.225,81.3312 292.765,83.1817 293.306,85.0625 293.846,86.9725 
  294.387,88.9107 294.927,90.876 295.468,92.8673 296.008,94.8834 296.549,96.9234 297.089,98.986 297.63,101.07 298.17,103.175 298.711,105.299 299.251,107.441 
  299.792,109.6 300.332,111.775 300.873,113.965 301.413,116.169 301.954,118.385 302.494,120.612 303.035,122.849 303.575,125.095 304.116,127.349 304.656,129.61 
  305.197,131.876 305.737,134.145 306.278,136.418 306.818,138.693 307.359,140.967 307.899,143.242 308.44,145.514 308.98,147.782 309.521,150.047 310.061,152.305 
  310.602,154.556 311.142,156.8 311.683,159.033 312.224,161.256 312.764,163.466 313.305,165.663 313.845,167.847 314.386,170.019 314.926,172.177 315.467,174.32 
  316.007,176.449 316.548,178.562 317.088,180.659 317.629,182.739 318.169,184.802 318.71,186.847 319.25,188.874 319.791,190.882 320.331,192.871 320.872,194.839 
  321.412,196.788 321.953,198.716 322.493,200.623 323.034,202.509 323.574,204.373 324.115,206.215 324.655,208.034 325.196,209.831 325.736,211.605 326.277,213.356 
  326.817,215.083 327.358,216.787 327.898,218.467 328.439,220.123 328.979,221.755 329.52,223.363 330.06,224.947 330.601,226.506 331.141,228.041 331.682,229.552 
  332.222,231.038 332.763,232.5 333.303,233.937 333.844,235.351 334.384,236.74 334.925,238.105 335.465,239.445 336.006,240.763 336.546,242.056 337.087,243.326 
  337.627,244.573 338.168,245.796 338.708,246.997 339.249,248.175 339.789,249.331 340.33,250.465 340.87,251.578 341.411,252.669 341.951,253.74 342.492,254.79 
  343.032,255.82 343.573,256.831 344.113,257.822 344.654,258.795 345.194,259.75 345.735,260.687 346.275,261.607 346.816,262.51 347.356,263.398 347.897,264.271 
  348.437,265.127 348.978,265.966 349.518,266.787 350.059,267.591 350.6,268.378 351.14,269.148 351.681,269.901 352.221,270.638 352.762,271.359 353.302,272.065 
  353.843,272.754 354.383,273.428 354.924,274.087 355.464,274.731 356.005,275.36 356.545,275.975 357.086,276.575 357.626,277.161 358.167,277.733 358.707,278.291 
  359.248,278.836 359.788,279.367 360.329,279.885 360.869,280.39 361.41,280.882 361.95,281.361 362.491,281.828 363.031,282.283 363.572,282.725 364.112,283.156 
  364.653,283.574 365.193,283.981 365.734,284.376 366.274,284.76 366.815,285.133 367.355,285.494 367.896,285.845 368.436,286.184 368.977,286.513 369.517,286.832 
  370.058,287.14 370.598,287.438 371.139,287.726 371.679,288.003 372.22,288.271 372.76,288.529 373.301,288.777 373.841,289.016 374.382,289.245 374.922,289.465 
  375.463,289.675 376.003,289.877 376.544,290.069 377.084,290.253 377.625,290.427 378.165,290.594 378.706,290.752 379.246,290.901 379.787,291.042 380.327,291.175 
  380.868,291.299 381.408,291.415 381.949,291.524 382.489,291.624 383.03,291.717 383.57,291.801 384.111,291.878 384.651,291.947 385.192,292.009 385.732,292.063 
  386.273,292.11 386.813,292.149 387.354,292.181 387.894,292.205 388.435,292.223 388.975,292.233 389.516,292.236 390.057,292.232 390.597,292.221 391.138,292.203 
  391.678,292.178 392.219,292.146 392.759,292.108 393.3,292.063 393.84,292.011 394.381,291.953 394.921,291.888 395.462,291.816 396.002,291.738 396.543,291.653 
  397.083,291.562 397.624,291.465 398.164,291.361 398.705,291.251 399.245,291.135 399.786,291.012 400.326,290.883 400.867,290.748 401.407,290.607 401.948,290.46 
  402.488,290.306 403.029,290.147 403.569,289.981 404.11,289.81 404.65,289.632 405.191,289.449 405.731,289.259 406.272,289.064 406.812,288.862 407.353,288.655 
  407.893,288.442 408.434,288.223 408.974,287.998 409.515,287.767 410.055,287.53 410.596,287.287 411.136,287.039 411.677,286.785 412.217,286.525 412.758,286.259 
  413.298,285.987 413.839,285.709 414.379,285.426 414.92,285.136 415.46,284.841 416.001,284.54 416.541,284.234 417.082,283.922 417.622,283.603 418.163,283.28 
  418.703,282.95 419.244,282.615 419.784,282.273 420.325,281.927 420.865,281.574 421.406,281.215 421.946,280.851 422.487,280.481 423.027,280.105 423.568,279.723 
  424.108,279.336 424.649,278.942 425.189,278.543 425.73,278.138 426.27,277.727 426.811,277.31 427.351,276.888 427.892,276.459 428.433,276.025 428.973,275.585 
  429.514,275.138 430.054,274.686 430.595,274.228 431.135,273.764 431.676,273.295 432.216,272.819 432.757,272.337 433.297,271.849 433.838,271.356 434.378,270.856 
  434.919,270.35 435.459,269.839 436,269.321 436.54,268.797 437.081,268.267 437.621,267.731 438.162,267.189 438.702,266.641 439.243,266.087 439.783,265.526 
  440.324,264.96 440.864,264.387 441.405,263.808 441.945,263.223 442.486,262.632 443.026,262.034 443.567,261.43 444.107,260.82 444.648,260.204 445.188,259.581 
  445.729,258.952 446.269,258.317 446.81,257.675 447.35,257.027 447.891,256.372 448.431,255.712 448.972,255.044 449.512,254.37 450.053,253.69 450.593,253.003 
  451.134,252.31 451.674,251.61 452.215,250.904 452.755,250.192 453.296,249.473 453.836,248.749 454.377,248.018 454.917,247.281 455.458,246.538 455.998,245.788 
  456.539,245.032 457.079,244.269 457.62,243.499 458.16,242.723 458.701,241.941 459.241,241.151 459.782,240.355 460.322,239.552 460.863,238.742 461.403,237.925 
  461.944,237.101 462.484,236.27 463.025,235.432 463.565,234.587 464.106,233.735 464.646,232.876 465.187,232.009 465.727,231.135 466.268,230.255 466.808,229.367 
  467.349,228.471 467.89,227.568 468.43,226.658 468.971,225.741 469.511,224.816 470.052,223.884 470.592,222.945 471.133,221.998 471.673,221.044 472.214,220.083 
  472.754,219.114 473.295,218.137 473.835,217.154 474.376,216.163 474.916,215.164 475.457,214.158 475.997,213.145 476.538,212.124 477.078,211.096 477.619,210.061 
  478.159,209.018 478.7,207.968 479.24,206.911 479.781,205.847 480.321,204.775 480.862,203.696 481.402,202.609 481.943,201.516 482.483,200.415 483.024,199.308 
  483.564,198.193 484.105,197.071 484.645,195.942 485.186,194.806 485.726,193.663 486.267,192.513 486.807,191.357 487.348,190.193 487.888,189.023 488.429,187.846 
  488.969,186.663 489.51,185.472 490.05,184.276 490.591,183.072 491.131,181.863 491.672,180.646 492.212,179.424 492.753,178.195 493.293,176.96 493.834,175.719 
  494.374,174.472 494.915,173.219 495.455,171.96 495.996,170.695 496.536,169.424 497.077,168.148 497.617,166.866 498.158,165.578 498.698,164.285 499.239,162.987 
  499.779,161.683 500.32,160.374 500.86,159.06 501.401,157.741 501.941,156.417 502.482,155.089 503.022,153.755 503.563,152.417 504.103,151.074 504.644,149.727 
  505.184,148.376 505.725,147.02 506.266,145.661 506.806,144.297 507.347,142.93 507.887,141.558 508.428,140.183 508.968,138.805 509.509,137.423 510.049,136.038 
  510.59,134.649 511.13,133.258 511.671,131.864 512.211,130.467 512.752,129.067 513.292,127.664 513.833,126.26 514.373,124.853 514.914,123.443 515.454,122.032 
  515.995,120.618 516.535,119.204 517.076,117.788 517.616,116.372 518.157,114.955 518.697,113.539 519.238,112.122 519.778,110.707 520.319,109.293 520.859,107.88 
  521.4,106.469 521.94,105.061 522.481,103.655 523.021,102.253 523.562,100.854 524.102,99.4593 524.643,98.0688 525.183,96.6832 525.724,95.3029 526.264,93.9282 
  526.805,92.5597 527.345,91.1979 527.886,89.843 528.426,88.4957 528.967,87.1563 529.507,85.8253 530.048,84.5033 530.588,83.1906 531.129,81.8878 531.669,80.5954 
  532.21,79.3138 532.75,78.0435 533.291,76.7851 533.831,75.539 534.372,74.3058 534.912,73.0859 535.453,71.88 535.993,70.6884 536.534,69.5119 537.074,68.3508 
  537.615,67.2057 538.155,66.0773 538.696,64.9659 539.236,63.8723 539.777,62.7969 540.317,61.7403 540.858,60.7031 541.398,59.6859 541.939,58.6893 542.479,57.7138 
  543.02,56.76 543.56,55.8285 544.101,54.9199 544.642,54.0349 545.182,53.1741 545.723,52.338 546.263,51.5273 546.804,50.7426 547.344,49.9845 547.885,49.2538 
  548.425,48.5509 548.966,47.8766 549.506,47.2316 550.047,46.6164 550.587,46.0318 551.128,45.4784 551.668,44.9569 552.209,44.4679 552.749,44.0121 553.29,43.5903 
  553.83,43.2032 554.371,42.8513 554.911,42.5354 555.452,42.2563 555.992,42.0146 556.533,41.8111 557.073,41.6465 557.614,41.5214 558.154,41.4367 558.695,41.3931 
  559.235,41.3913 559.776,41.4321 560.316,41.5161 560.857,41.6443 561.397,41.8171 561.938,42.0336 562.478,42.2942 563.019,42.5992 563.559,42.9489 564.1,43.3437 
  564.64,43.7839 565.181,44.2697 565.721,44.8014 566.262,45.3792 566.802,46.0031 567.343,46.6733 567.883,47.3898 568.424,48.1526 568.964,48.9617 569.505,49.817 
  570.045,50.7184 570.586,51.6659 571.126,52.659 571.667,53.6978 572.207,54.7818 572.748,55.9107 573.288,57.0843 573.829,58.3021 574.369,59.5637 574.91,60.8686 
  575.45,62.2162 575.991,63.6062 576.531,65.0377 577.072,66.5103 577.612,68.0232 578.153,69.5758 578.693,71.1672 579.234,72.7967 579.774,74.4634 580.315,76.1664 
  
  "/>
<polyline clip-path="url(#clip9402)" style="stroke:#e26f46; stroke-width:3; stroke-opacity:1; fill:none" points="
  40.3485,225.164 40.889,225.564 41.4295,225.982 41.97,226.418 42.5105,226.871 43.051,227.341 43.5916,227.828 44.1321,228.33 44.6726,228.848 45.2131,229.38 
  45.7536,229.928 46.2941,230.489 46.8346,231.064 47.3751,231.652 47.9156,232.254 48.4561,232.867 48.9966,233.493 49.5371,234.129 50.0776,234.778 50.6181,235.436 
  51.1586,236.105 51.6992,236.784 52.2397,237.472 52.7802,238.169 53.3207,238.875 53.8612,239.59 54.4017,240.312 54.9422,241.041 55.4827,241.778 56.0232,242.521 
  56.5637,243.271 57.1042,244.027 57.6447,244.788 58.1852,245.555 58.7257,246.327 59.2663,247.104 59.8068,247.885 60.3473,248.67 60.8878,249.459 61.4283,250.251 
  61.9688,251.047 62.5093,251.845 63.0498,252.646 63.5903,253.449 64.1308,254.255 64.6713,255.062 65.2118,255.871 65.7523,256.681 66.2928,257.492 66.8334,258.304 
  67.3739,259.116 67.9144,259.929 68.4549,260.742 68.9954,261.555 69.5359,262.368 70.0764,263.18 70.6169,263.992 71.1574,264.803 71.6979,265.613 72.2384,266.421 
  72.7789,267.229 73.3194,268.034 73.8599,268.839 74.4004,269.641 74.941,270.441 75.4815,271.239 76.022,272.035 76.5625,272.829 77.103,273.62 77.6435,274.408 
  78.184,275.194 78.7245,275.977 79.265,276.757 79.8055,277.533 80.346,278.307 80.8865,279.077 81.427,279.844 81.9675,280.607 82.5081,281.367 83.0486,282.123 
  83.5891,282.875 84.1296,283.624 84.6701,284.368 85.2106,285.109 85.7511,285.845 86.2916,286.578 86.8321,287.306 87.3726,288.03 87.9131,288.75 88.4536,289.466 
  88.9941,290.177 89.5346,290.884 90.0751,291.586 90.6157,292.284 91.1562,292.977 91.6967,293.666 92.2372,294.35 92.7777,295.029 93.3182,295.704 93.8587,296.374 
  94.3992,297.04 94.9397,297.701 95.4802,298.357 96.0207,299.008 96.5612,299.654 97.1017,300.296 97.6422,300.933 98.1828,301.565 98.7233,302.192 99.2638,302.814 
  99.8043,303.432 100.345,304.044 100.885,304.652 101.426,305.255 101.966,305.853 102.507,306.446 103.047,307.034 103.588,307.617 104.128,308.195 104.669,308.769 
  105.209,309.337 105.75,309.901 106.29,310.46 106.831,311.014 107.371,311.563 107.912,312.108 108.452,312.647 108.993,313.182 109.533,313.712 110.074,314.238 
  110.614,314.758 111.155,315.274 111.695,315.785 112.236,316.291 112.776,316.793 113.317,317.29 113.857,317.782 114.398,318.27 114.938,318.753 115.479,319.231 
  116.019,319.705 116.56,320.175 117.1,320.639 117.641,321.1 118.182,321.555 118.722,322.007 119.263,322.454 119.803,322.896 120.344,323.334 120.884,323.767 
  121.425,324.197 121.965,324.622 122.506,325.042 123.046,325.458 123.587,325.87 124.127,326.278 124.668,326.681 125.208,327.081 125.749,327.476 126.289,327.867 
  126.83,328.253 127.37,328.636 127.911,329.014 128.451,329.389 128.992,329.759 129.532,330.126 130.073,330.488 130.613,330.847 131.154,331.201 131.694,331.552 
  132.235,331.899 132.775,332.241 133.316,332.581 133.856,332.916 134.397,333.247 134.937,333.575 135.478,333.899 136.018,334.219 136.559,334.535 137.099,334.848 
  137.64,335.157 138.18,335.463 138.721,335.765 139.261,336.063 139.802,336.358 140.342,336.649 140.883,336.937 141.423,337.221 141.964,337.502 142.504,337.78 
  143.045,338.053 143.585,338.324 144.126,338.591 144.666,338.855 145.207,339.116 145.747,339.373 146.288,339.627 146.828,339.877 147.369,340.125 147.909,340.369 
  148.45,340.61 148.99,340.848 149.531,341.083 150.071,341.314 150.612,341.542 151.152,341.768 151.693,341.99 152.233,342.209 152.774,342.425 153.314,342.638 
  153.855,342.848 154.395,343.055 154.936,343.259 155.476,343.46 156.017,343.658 156.558,343.853 157.098,344.045 157.639,344.234 158.179,344.421 158.72,344.604 
  159.26,344.785 159.801,344.963 160.341,345.138 160.882,345.31 161.422,345.479 161.963,345.646 162.503,345.809 163.044,345.97 163.584,346.128 164.125,346.284 
  164.665,346.437 165.206,346.587 165.746,346.734 166.287,346.879 166.827,347.02 167.368,347.16 167.908,347.296 168.449,347.43 168.989,347.561 169.53,347.689 
  170.07,347.815 170.611,347.939 171.151,348.059 171.692,348.177 172.232,348.292 172.773,348.405 173.313,348.515 173.854,348.623 174.394,348.728 174.935,348.83 
  175.475,348.93 176.016,349.028 176.556,349.122 177.097,349.215 177.637,349.304 178.178,349.391 178.718,349.476 179.259,349.558 179.799,349.638 180.34,349.715 
  180.88,349.789 181.421,349.861 181.961,349.93 182.502,349.997 183.042,350.061 183.583,350.123 184.123,350.182 184.664,350.239 185.204,350.293 185.745,350.344 
  186.285,350.393 186.826,350.439 187.366,350.483 187.907,350.524 188.447,350.562 188.988,350.598 189.528,350.631 190.069,350.662 190.609,350.69 191.15,350.715 
  191.69,350.738 192.231,350.757 192.771,350.775 193.312,350.789 193.852,350.801 194.393,350.81 194.933,350.816 195.474,350.819 196.015,350.82 196.555,350.818 
  197.096,350.813 197.636,350.805 198.177,350.794 198.717,350.781 199.258,350.764 199.798,350.745 200.339,350.722 200.879,350.697 201.42,350.669 201.96,350.637 
  202.501,350.603 203.041,350.565 203.582,350.525 204.122,350.481 204.663,350.434 205.203,350.384 205.744,350.331 206.284,350.274 206.825,350.215 207.365,350.152 
  207.906,350.085 208.446,350.016 208.987,349.942 209.527,349.865 210.068,349.785 210.608,349.701 211.149,349.614 211.689,349.523 212.23,349.428 212.77,349.329 
  213.311,349.227 213.851,349.121 214.392,349.011 214.932,348.898 215.473,348.78 216.013,348.658 216.554,348.533 217.094,348.403 217.635,348.269 218.175,348.131 
  218.716,347.989 219.256,347.842 219.797,347.691 220.337,347.536 220.878,347.376 221.418,347.212 221.959,347.043 222.499,346.869 223.04,346.691 223.58,346.507 
  224.121,346.319 224.661,346.126 225.202,345.928 225.742,345.724 226.283,345.516 226.823,345.302 227.364,345.083 227.904,344.858 228.445,344.628 228.985,344.392 
  229.526,344.151 230.066,343.903 230.607,343.65 231.147,343.391 231.688,343.126 232.228,342.854 232.769,342.576 233.309,342.292 233.85,342.002 234.391,341.704 
  234.931,341.401 235.472,341.09 236.012,340.772 236.553,340.448 237.093,340.116 237.634,339.777 238.174,339.431 238.715,339.077 239.255,338.716 239.796,338.347 
  240.336,337.97 240.877,337.585 241.417,337.192 241.958,336.791 242.498,336.382 243.039,335.964 243.579,335.537 244.12,335.102 244.66,334.658 245.201,334.206 
  245.741,333.744 246.282,333.272 246.822,332.792 247.363,332.302 247.903,331.803 248.444,331.294 248.984,330.776 249.525,330.247 250.065,329.708 250.606,329.159 
  251.146,328.599 251.687,328.029 252.227,327.447 252.768,326.854 253.308,326.25 253.849,325.635 254.389,325.008 254.93,324.369 255.47,323.719 256.011,323.057 
  256.551,322.383 257.092,321.697 257.632,320.999 258.173,320.289 258.713,319.566 259.254,318.831 259.794,318.085 260.335,317.325 260.875,316.554 261.416,315.77 
  261.956,314.974 262.497,314.166 263.037,313.346 263.578,312.513 264.118,311.668 264.659,310.811 265.199,309.942 265.74,309.061 266.28,308.168 266.821,307.264 
  267.361,306.347 267.902,305.419 268.442,304.48 268.983,303.529 269.523,302.567 270.064,301.595 270.604,300.611 271.145,299.616 271.685,298.611 272.226,297.596 
  272.767,296.57 273.307,295.534 273.848,294.489 274.388,293.434 274.929,292.37 275.469,291.297 276.01,290.215 276.55,289.124 277.091,288.026 277.631,286.919 
  278.172,285.804 278.712,284.683 279.253,283.554 279.793,282.418 280.334,281.276 280.874,280.128 281.415,278.974 281.955,277.814 282.496,276.65 283.036,275.481 
  283.577,274.307 284.117,273.13 284.658,271.949 285.198,270.766 285.739,269.582 286.279,268.397 286.82,267.212 287.36,266.028 287.901,264.846 288.441,263.667 
  288.982,262.491 289.522,261.32 290.063,260.153 290.603,258.993 291.144,257.839 291.684,256.692 292.225,255.554 292.765,254.424 293.306,253.304 293.846,252.194 
  294.387,251.095 294.927,250.007 295.468,248.932 296.008,247.869 296.549,246.82 297.089,245.786 297.63,244.766 298.17,243.761 298.711,242.773 299.251,241.801 
  299.792,240.846 300.332,239.909 300.873,238.99 301.413,238.091 301.954,237.21 302.494,236.35 303.035,235.51 303.575,234.69 304.116,233.893 304.656,233.117 
  305.197,232.363 305.737,231.632 306.278,230.925 306.818,230.241 307.359,229.581 307.899,228.946 308.44,228.336 308.98,227.75 309.521,227.191 310.061,226.658 
  310.602,226.151 311.142,225.671 311.683,225.218 312.224,224.792 312.764,224.394 313.305,224.024 313.845,223.681 314.386,223.364 314.926,223.074 315.467,222.81 
  316.007,222.573 316.548,222.361 317.088,222.176 317.629,222.016 318.169,221.882 318.71,221.773 319.25,221.69 319.791,221.632 320.331,221.599 320.872,221.591 
  321.412,221.607 321.953,221.648 322.493,221.713 323.034,221.801 323.574,221.914 324.115,222.05 324.655,222.209 325.196,222.391 325.736,222.596 326.277,222.822 
  326.817,223.071 327.358,223.342 327.898,223.634 328.439,223.947 328.979,224.28 329.52,224.634 330.06,225.008 330.601,225.402 331.141,225.815 331.682,226.246 
  332.222,226.696 332.763,227.164 333.303,227.65 333.844,228.152 334.384,228.672 334.925,229.208 335.465,229.759 336.006,230.326 336.546,230.907 337.087,231.503 
  337.627,232.113 338.168,232.736 338.708,233.372 339.249,234.02 339.789,234.68 340.33,235.351 340.87,236.033 341.411,236.725 341.951,237.426 342.492,238.136 
  343.032,238.855 343.573,239.581 344.113,240.314 344.654,241.053 345.194,241.799 345.735,242.549 346.275,243.304 346.816,244.063 347.356,244.825 347.897,245.589 
  348.437,246.356 348.978,247.129 349.518,247.905 350.059,248.686 350.6,249.471 351.14,250.259 351.681,251.05 352.221,251.845 352.762,252.642 353.302,253.442 
  353.843,254.243 354.383,255.047 354.924,255.852 355.464,256.659 356.005,257.467 356.545,258.275 357.086,259.085 357.626,259.895 358.167,260.705 358.707,261.515 
  359.248,262.325 359.788,263.135 360.329,263.944 360.869,264.752 361.41,265.559 361.95,266.365 362.491,267.17 363.031,267.973 363.572,268.775 364.112,269.575 
  364.653,270.373 365.193,271.169 365.734,271.962 366.274,272.754 366.815,273.542 367.355,274.328 367.896,275.111 368.436,275.892 368.977,276.669 369.517,277.444 
  370.058,278.215 370.598,278.983 371.139,279.747 371.679,280.508 372.22,281.266 372.76,282.02 373.301,282.77 373.841,283.516 374.382,284.259 374.922,284.998 
  375.463,285.733 376.003,286.465 376.544,287.192 377.084,287.915 377.625,288.633 378.165,289.348 378.706,290.058 379.246,290.763 379.787,291.464 380.327,292.161 
  380.868,292.853 381.408,293.541 381.949,294.224 382.489,294.903 383.03,295.577 383.57,296.246 384.111,296.911 384.651,297.571 385.192,298.227 385.732,298.877 
  386.273,299.523 386.813,300.165 387.354,300.801 387.894,301.433 388.435,302.06 388.975,302.682 389.516,303.299 390.057,303.912 390.597,304.519 391.138,305.122 
  391.678,305.72 392.219,306.314 392.759,306.902 393.3,307.485 393.84,308.064 394.381,308.638 394.921,309.207 395.462,309.771 396.002,310.33 396.543,310.884 
  397.083,311.434 397.624,311.978 398.164,312.518 398.705,313.053 399.245,313.583 399.786,314.109 400.326,314.629 400.867,315.145 401.407,315.656 401.948,316.162 
  402.488,316.664 403.029,317.16 403.569,317.653 404.11,318.14 404.65,318.623 405.191,319.101 405.731,319.574 406.272,320.043 406.812,320.508 407.353,320.967 
  407.893,321.423 408.434,321.874 408.974,322.32 409.515,322.762 410.055,323.199 410.596,323.633 411.136,324.061 411.677,324.486 412.217,324.906 412.758,325.323 
  413.298,325.735 413.839,326.142 414.379,326.546 414.92,326.946 415.46,327.341 416.001,327.732 416.541,328.119 417.082,328.502 417.622,328.881 418.163,329.256 
  418.703,329.626 419.244,329.993 419.784,330.356 420.325,330.714 420.865,331.069 421.406,331.42 421.946,331.767 422.487,332.11 423.027,332.45 423.568,332.785 
  424.108,333.117 424.649,333.445 425.189,333.769 425.73,334.09 426.27,334.407 426.811,334.72 427.351,335.03 427.892,335.336 428.433,335.638 428.973,335.937 
  429.514,336.232 430.054,336.524 430.595,336.812 431.135,337.097 431.676,337.378 432.216,337.656 432.757,337.931 433.297,338.202 433.838,338.469 434.378,338.734 
  434.919,338.995 435.459,339.252 436,339.507 436.54,339.758 437.081,340.006 437.621,340.25 438.162,340.492 438.702,340.73 439.243,340.965 439.783,341.197 
  440.324,341.426 440.864,341.651 441.405,341.874 441.945,342.093 442.486,342.31 443.026,342.523 443.567,342.734 444.107,342.941 444.648,343.145 445.188,343.347 
  445.729,343.545 446.269,343.74 446.81,343.933 447.35,344.122 447.891,344.309 448.431,344.493 448.972,344.674 449.512,344.852 450.053,345.027 450.593,345.2 
  451.134,345.369 451.674,345.536 452.215,345.7 452.755,345.861 453.296,346.019 453.836,346.174 454.377,346.327 454.917,346.476 455.458,346.623 455.998,346.767 
  456.539,346.908 457.079,347.046 457.62,347.182 458.16,347.315 458.701,347.445 459.241,347.572 459.782,347.697 460.322,347.819 460.863,347.939 461.403,348.056 
  461.944,348.17 462.484,348.282 463.025,348.391 463.565,348.498 464.106,348.602 464.646,348.703 465.187,348.802 465.727,348.899 466.268,348.993 466.808,349.084 
  467.349,349.173 467.89,349.26 468.43,349.344 468.971,349.425 469.511,349.504 470.052,349.58 470.592,349.654 471.133,349.726 471.673,349.795 472.214,349.861 
  472.754,349.926 473.295,349.987 473.835,350.046 474.376,350.103 474.916,350.157 475.457,350.208 475.997,350.258 476.538,350.304 477.078,350.348 477.619,350.39 
  478.159,350.429 478.7,350.465 479.24,350.499 479.781,350.53 480.321,350.559 480.862,350.585 481.402,350.608 481.943,350.629 482.483,350.647 483.024,350.663 
  483.564,350.676 484.105,350.686 484.645,350.693 485.186,350.698 485.726,350.7 486.267,350.699 486.807,350.696 487.348,350.689 487.888,350.68 488.429,350.668 
  488.969,350.653 489.51,350.635 490.05,350.614 490.591,350.59 491.131,350.563 491.672,350.534 492.212,350.501 492.753,350.465 493.293,350.426 493.834,350.383 
  494.374,350.338 494.915,350.289 495.455,350.238 495.996,350.182 496.536,350.124 497.077,350.062 497.617,349.997 498.158,349.928 498.698,349.856 499.239,349.781 
  499.779,349.702 500.32,349.619 500.86,349.533 501.401,349.443 501.941,349.349 502.482,349.251 503.022,349.15 503.563,349.045 504.103,348.936 504.644,348.823 
  505.184,348.706 505.725,348.585 506.266,348.46 506.806,348.331 507.347,348.198 507.887,348.06 508.428,347.918 508.968,347.772 509.509,347.621 510.049,347.466 
  510.59,347.307 511.13,347.143 511.671,346.974 512.211,346.801 512.752,346.622 513.292,346.44 513.833,346.252 514.373,346.059 514.914,345.862 515.454,345.66 
  515.995,345.454 516.535,345.242 517.076,345.026 517.616,344.804 518.157,344.577 518.697,344.344 519.238,344.106 519.778,343.861 520.319,343.611 520.859,343.355 
  521.4,343.093 521.94,342.824 522.481,342.549 523.021,342.267 523.562,341.978 524.102,341.683 524.643,341.38 525.183,341.071 525.724,340.754 526.264,340.43 
  526.805,340.098 527.345,339.759 527.886,339.412 528.426,339.057 528.967,338.694 529.507,338.323 530.048,337.944 530.588,337.556 531.129,337.16 531.669,336.756 
  532.21,336.343 532.75,335.921 533.291,335.49 533.831,335.05 534.372,334.602 534.912,334.144 535.453,333.677 535.993,333.2 536.534,332.714 537.074,332.219 
  537.615,331.714 538.155,331.199 538.696,330.674 539.236,330.14 539.777,329.595 540.317,329.04 540.858,328.475 541.398,327.9 541.939,327.315 542.479,326.719 
  543.02,326.113 543.56,325.496 544.101,324.868 544.642,324.23 545.182,323.581 545.723,322.921 546.263,322.25 546.804,321.568 547.344,320.875 547.885,320.17 
  548.425,319.455 548.966,318.728 549.506,317.99 550.047,317.241 550.587,316.48 551.128,315.707 551.668,314.923 552.209,314.128 552.749,313.32 553.29,312.501 
  553.83,311.67 554.371,310.827 554.911,309.973 555.452,309.106 555.992,308.228 556.533,307.337 557.073,306.434 557.614,305.52 558.154,304.593 558.695,303.653 
  559.235,302.702 559.776,301.738 560.316,300.762 560.857,299.774 561.397,298.774 561.938,297.762 562.478,296.739 563.019,295.706 563.559,294.663 564.1,293.609 
  564.64,292.546 565.181,291.473 565.721,290.39 566.262,289.299 566.802,288.2 567.343,287.092 567.883,285.976 568.424,284.853 568.964,283.723 569.505,282.586 
  570.045,281.443 570.586,280.294 571.126,279.14 571.667,277.981 572.207,276.818 572.748,275.652 573.288,274.482 573.829,273.309 574.369,272.135 574.91,270.959 
  575.45,269.782 575.991,268.605 576.531,267.428 577.072,266.253 577.612,265.079 578.153,263.907 578.693,262.739 579.234,261.574 579.774,260.414 580.315,259.259 
  
  "/>
<polygon clip-path="url(#clip9400)" points="
477.574,97.7361 562.315,97.7361 562.315,52.3761 477.574,52.3761 
  " fill="#ffffff" fill-opacity="1"/>
<polyline clip-path="url(#clip9400)" style="stroke:#000000; stroke-width:1; stroke-opacity:1; fill:none" points="
  477.574,97.7361 562.315,97.7361 562.315,52.3761 477.574,52.3761 477.574,97.7361 
  "/>
<polyline clip-path="url(#clip9400)" style="stroke:#009af9; stroke-width:3; stroke-opacity:1; fill:none" points="
  483.574,67.4961 519.574,67.4961 
  "/>
<g clip-path="url(#clip9400)">
<text style="fill:#000000; fill-opacity:1; font-family:Arial,Helvetica Neue,Helvetica,sans-serif; font-size:12; text-anchor:start;" transform="rotate(0, 525.574, 71.9961)" x="525.574" y="71.9961">u1(t)</text>
</g>
<polyline clip-path="url(#clip9400)" style="stroke:#e26f46; stroke-width:3; stroke-opacity:1; fill:none" points="
  483.574,82.6161 519.574,82.6161 
  "/>
<g clip-path="url(#clip9400)">
<text style="fill:#000000; fill-opacity:1; font-family:Arial,Helvetica Neue,Helvetica,sans-serif; font-size:12; text-anchor:start;" transform="rotate(0, 525.574, 87.1161)" x="525.574" y="87.1161">u2(t)</text>
</g>
</svg>
