<?xml version="1.0" encoding="utf-8"?>
<svg xmlns="http://www.w3.org/2000/svg" xmlns:xlink="http://www.w3.org/1999/xlink" width="600" height="400" viewBox="0 0 600 400">
<defs>
  <clipPath id="clip8700">
    <rect x="0" y="0" width="600" height="400"/>
  </clipPath>
</defs>
<polygon clip-path="url(#clip8700)" points="
0,400 600,400 600,0 0,0 
  " fill="#ffffff" fill-opacity="1"/>
<defs>
  <clipPath id="clip8701">
    <rect x="120" y="0" width="421" height="400"/>
  </clipPath>
</defs>
<polygon clip-path="url(#clip8700)" points="
32.4745,360.121 580.315,360.121 580.315,31.4961 32.4745,31.4961 
  " fill="#ffffff" fill-opacity="1"/>
<defs>
  <clipPath id="clip8702">
    <rect x="32" y="31" width="549" height="330"/>
  </clipPath>
</defs>
<polyline clip-path="url(#clip8702)" style="stroke:#000000; stroke-width:0.5; stroke-opacity:0.1; fill:none" points="
  32.4745,360.121 32.4745,31.4961 
  "/>
<polyline clip-path="url(#clip8702)" style="stroke:#000000; stroke-width:0.5; stroke-opacity:0.1; fill:none" points="
  142.043,360.121 142.043,31.4961 
  "/>
<polyline clip-path="url(#clip8702)" style="stroke:#000000; stroke-width:0.5; stroke-opacity:0.1; fill:none" points="
  251.611,360.121 251.611,31.4961 
  "/>
<polyline clip-path="url(#clip8702)" style="stroke:#000000; stroke-width:0.5; stroke-opacity:0.1; fill:none" points="
  361.179,360.121 361.179,31.4961 
  "/>
<polyline clip-path="url(#clip8702)" style="stroke:#000000; stroke-width:0.5; stroke-opacity:0.1; fill:none" points="
  470.747,360.121 470.747,31.4961 
  "/>
<polyline clip-path="url(#clip8702)" style="stroke:#000000; stroke-width:0.5; stroke-opacity:0.1; fill:none" points="
  580.315,360.121 580.315,31.4961 
  "/>
<polyline clip-path="url(#clip8702)" style="stroke:#000000; stroke-width:0.5; stroke-opacity:0.1; fill:none" points="
  32.4745,309.697 580.315,309.697 
  "/>
<polyline clip-path="url(#clip8702)" style="stroke:#000000; stroke-width:0.5; stroke-opacity:0.1; fill:none" points="
  32.4745,226.926 580.315,226.926 
  "/>
<polyline clip-path="url(#clip8702)" style="stroke:#000000; stroke-width:0.5; stroke-opacity:0.1; fill:none" points="
  32.4745,144.155 580.315,144.155 
  "/>
<polyline clip-path="url(#clip8702)" style="stroke:#000000; stroke-width:0.5; stroke-opacity:0.1; fill:none" points="
  32.4745,61.3835 580.315,61.3835 
  "/>
<polyline clip-path="url(#clip8700)" style="stroke:#000000; stroke-width:1; stroke-opacity:1; fill:none" points="
  32.4745,360.121 580.315,360.121 
  "/>
<polyline clip-path="url(#clip8700)" style="stroke:#000000; stroke-width:1; stroke-opacity:1; fill:none" points="
  32.4745,360.121 32.4745,31.4961 
  "/>
<polyline clip-path="url(#clip8700)" style="stroke:#000000; stroke-width:1; stroke-opacity:1; fill:none" points="
  32.4745,360.121 32.4745,355.191 
  "/>
<polyline clip-path="url(#clip8700)" style="stroke:#000000; stroke-width:1; stroke-opacity:1; fill:none" points="
  142.043,360.121 142.043,355.191 
  "/>
<polyline clip-path="url(#clip8700)" style="stroke:#000000; stroke-width:1; stroke-opacity:1; fill:none" points="
  251.611,360.121 251.611,355.191 
  "/>
<polyline clip-path="url(#clip8700)" style="stroke:#000000; stroke-width:1; stroke-opacity:1; fill:none" points="
  361.179,360.121 361.179,355.191 
  "/>
<polyline clip-path="url(#clip8700)" style="stroke:#000000; stroke-width:1; stroke-opacity:1; fill:none" points="
  470.747,360.121 470.747,355.191 
  "/>
<polyline clip-path="url(#clip8700)" style="stroke:#000000; stroke-width:1; stroke-opacity:1; fill:none" points="
  580.315,360.121 580.315,355.191 
  "/>
<polyline clip-path="url(#clip8700)" style="stroke:#000000; stroke-width:1; stroke-opacity:1; fill:none" points="
  32.4745,309.697 40.6921,309.697 
  "/>
<polyline clip-path="url(#clip8700)" style="stroke:#000000; stroke-width:1; stroke-opacity:1; fill:none" points="
  32.4745,226.926 40.6921,226.926 
  "/>
<polyline clip-path="url(#clip8700)" style="stroke:#000000; stroke-width:1; stroke-opacity:1; fill:none" points="
  32.4745,144.155 40.6921,144.155 
  "/>
<polyline clip-path="url(#clip8700)" style="stroke:#000000; stroke-width:1; stroke-opacity:1; fill:none" points="
  32.4745,61.3835 40.6921,61.3835 
  "/>
<g clip-path="url(#clip8700)">
<text style="fill:#000000; fill-opacity:1; font-family:Arial,Helvetica Neue,Helvetica,sans-serif; font-size:12; text-anchor:middle;" transform="rotate(0, 32.4745, 373.921)" x="32.4745" y="373.921">0</text>
</g>
<g clip-path="url(#clip8700)">
<text style="fill:#000000; fill-opacity:1; font-family:Arial,Helvetica Neue,Helvetica,sans-serif; font-size:12; text-anchor:middle;" transform="rotate(0, 142.043, 373.921)" x="142.043" y="373.921">2</text>
</g>
<g clip-path="url(#clip8700)">
<text style="fill:#000000; fill-opacity:1; font-family:Arial,Helvetica Neue,Helvetica,sans-serif; font-size:12; text-anchor:middle;" transform="rotate(0, 251.611, 373.921)" x="251.611" y="373.921">4</text>
</g>
<g clip-path="url(#clip8700)">
<text style="fill:#000000; fill-opacity:1; font-family:Arial,Helvetica Neue,Helvetica,sans-serif; font-size:12; text-anchor:middle;" transform="rotate(0, 361.179, 373.921)" x="361.179" y="373.921">6</text>
</g>
<g clip-path="url(#clip8700)">
<text style="fill:#000000; fill-opacity:1; font-family:Arial,Helvetica Neue,Helvetica,sans-serif; font-size:12; text-anchor:middle;" transform="rotate(0, 470.747, 373.921)" x="470.747" y="373.921">8</text>
</g>
<g clip-path="url(#clip8700)">
<text style="fill:#000000; fill-opacity:1; font-family:Arial,Helvetica Neue,Helvetica,sans-serif; font-size:12; text-anchor:middle;" transform="rotate(0, 580.315, 373.921)" x="580.315" y="373.921">10</text>
</g>
<g clip-path="url(#clip8700)">
<text style="fill:#000000; fill-opacity:1; font-family:Arial,Helvetica Neue,Helvetica,sans-serif; font-size:12; text-anchor:end;" transform="rotate(0, 26.4745, 314.197)" x="26.4745" y="314.197">0.5</text>
</g>
<g clip-path="url(#clip8700)">
<text style="fill:#000000; fill-opacity:1; font-family:Arial,Helvetica Neue,Helvetica,sans-serif; font-size:12; text-anchor:end;" transform="rotate(0, 26.4745, 231.426)" x="26.4745" y="231.426">1.0</text>
</g>
<g clip-path="url(#clip8700)">
<text style="fill:#000000; fill-opacity:1; font-family:Arial,Helvetica Neue,Helvetica,sans-serif; font-size:12; text-anchor:end;" transform="rotate(0, 26.4745, 148.655)" x="26.4745" y="148.655">1.5</text>
</g>
<g clip-path="url(#clip8700)">
<text style="fill:#000000; fill-opacity:1; font-family:Arial,Helvetica Neue,Helvetica,sans-serif; font-size:12; text-anchor:end;" transform="rotate(0, 26.4745, 65.8835)" x="26.4745" y="65.8835">2.0</text>
</g>
<g clip-path="url(#clip8700)">
<text style="fill:#000000; fill-opacity:1; font-family:Arial,Helvetica Neue,Helvetica,sans-serif; font-size:21; text-anchor:middle;" transform="rotate(0, 306.395, 18)" x="306.395" y="18">All Plots.jl Attributes are Available</text>
</g>
<g clip-path="url(#clip8700)">
<text style="fill:#000000; fill-opacity:1; font-family:Arial,Helvetica Neue,Helvetica,sans-serif; font-size:16; text-anchor:middle;" transform="rotate(0, 306.395, 397.6)" x="306.395" y="397.6">t</text>
</g>
<polyline clip-path="url(#clip8702)" style="stroke:#009af9; stroke-width:3; stroke-opacity:1; fill:none" points="
  32.4745,226.926 33.0229,228.57 33.5713,230.19 34.1197,231.785 34.668,233.355 35.2164,234.901 35.7648,236.422 36.3132,237.918 36.8616,239.39 37.41,240.838 
  37.9584,242.262 38.5068,243.662 39.0552,245.038 39.6035,246.391 40.1519,247.72 40.7003,249.025 41.2487,250.308 41.7971,251.568 42.3455,252.805 42.8939,254.02 
  43.4423,255.212 43.9907,256.383 44.539,257.532 45.0874,258.659 45.6358,259.764 46.1842,260.849 46.7326,261.913 47.281,262.956 47.8294,263.978 48.3778,264.981 
  48.9262,265.963 49.4745,266.926 50.0229,267.869 50.5713,268.794 51.1197,269.699 51.6681,270.585 52.2165,271.453 52.7649,272.303 53.3133,273.135 53.8617,273.949 
  54.41,274.745 54.9584,275.525 55.5068,276.287 56.0552,277.032 56.6036,277.761 57.152,278.473 57.7004,279.169 58.2488,279.85 58.7972,280.514 59.3455,281.163 
  59.8939,281.797 60.4423,282.416 60.9907,283.019 61.5391,283.609 62.0875,284.183 62.6359,284.744 63.1843,285.29 63.7327,285.822 64.281,286.341 64.8294,286.847 
  65.3778,287.339 65.9262,287.818 66.4746,288.284 67.023,288.737 67.5714,289.177 68.1198,289.606 68.6682,290.022 69.2165,290.426 69.7649,290.818 70.3133,291.198 
  70.8617,291.566 71.4101,291.924 71.9585,292.27 72.5069,292.604 73.0553,292.928 73.6037,293.241 74.152,293.543 74.7004,293.835 75.2488,294.116 75.7972,294.386 
  76.3456,294.647 76.894,294.897 77.4424,295.138 77.9908,295.369 78.5392,295.59 79.0875,295.801 79.6359,296.003 80.1843,296.195 80.7327,296.379 81.2811,296.553 
  81.8295,296.718 82.3779,296.874 82.9263,297.021 83.4747,297.159 84.023,297.289 84.5714,297.41 85.1198,297.523 85.6682,297.627 86.2166,297.723 86.765,297.81 
  87.3134,297.89 87.8618,297.961 88.4102,298.024 88.9585,298.079 89.5069,298.127 90.0553,298.166 90.6037,298.198 91.1521,298.222 91.7005,298.239 92.2489,298.248 
  92.7973,298.249 93.3457,298.243 93.894,298.23 94.4424,298.209 94.9908,298.182 95.5392,298.146 96.0876,298.104 96.636,298.055 97.1844,297.999 97.7328,297.935 
  98.2812,297.865 98.8295,297.788 99.3779,297.703 99.9263,297.612 100.475,297.515 101.023,297.41 101.571,297.299 102.12,297.181 102.668,297.056 103.217,296.925 
  103.765,296.787 104.313,296.643 104.862,296.492 105.41,296.334 105.959,296.171 106.507,296 107.055,295.823 107.604,295.64 108.152,295.451 108.701,295.255 
  109.249,295.052 109.797,294.844 110.346,294.629 110.894,294.407 111.442,294.18 111.991,293.946 112.539,293.706 113.088,293.46 113.636,293.207 114.184,292.949 
  114.733,292.684 115.281,292.413 115.83,292.135 116.378,291.852 116.926,291.563 117.475,291.267 118.023,290.965 118.572,290.657 119.12,290.343 119.668,290.023 
  120.217,289.696 120.765,289.364 121.313,289.025 121.862,288.68 122.41,288.33 122.959,287.973 123.507,287.61 124.055,287.24 124.604,286.865 125.152,286.484 
  125.701,286.096 126.249,285.702 126.797,285.302 127.346,284.896 127.894,284.484 128.443,284.066 128.991,283.642 129.539,283.211 130.088,282.774 130.636,282.331 
  131.184,281.882 131.733,281.427 132.281,280.965 132.83,280.497 133.378,280.023 133.926,279.543 134.475,279.056 135.023,278.564 135.572,278.064 136.12,277.559 
  136.668,277.047 137.217,276.529 137.765,276.005 138.314,275.474 138.862,274.937 139.41,274.393 139.959,273.843 140.507,273.286 141.055,272.724 141.604,272.154 
  142.152,271.578 142.701,270.996 143.249,270.407 143.797,269.812 144.346,269.21 144.894,268.602 145.443,267.987 145.991,267.365 146.539,266.737 147.088,266.102 
  147.636,265.461 148.185,264.813 148.733,264.158 149.281,263.497 149.83,262.828 150.378,262.153 150.926,261.472 151.475,260.783 152.023,260.088 152.572,259.386 
  153.12,258.677 153.668,257.961 154.217,257.239 154.765,256.509 155.314,255.773 155.862,255.029 156.41,254.279 156.959,253.521 157.507,252.757 158.056,251.985 
  158.604,251.207 159.152,250.421 159.701,249.629 160.249,248.829 160.797,248.023 161.346,247.209 161.894,246.388 162.443,245.56 162.991,244.725 163.539,243.883 
  164.088,243.033 164.636,242.177 165.185,241.313 165.733,240.441 166.281,239.563 166.83,238.677 167.378,237.783 167.927,236.882 168.475,235.974 169.023,235.059 
  169.572,234.135 170.12,233.205 170.668,232.266 171.217,231.321 171.765,230.367 172.314,229.407 172.862,228.438 173.41,227.462 173.959,226.479 174.507,225.488 
  175.056,224.489 175.604,223.482 176.152,222.468 176.701,221.447 177.249,220.418 177.798,219.381 178.346,218.336 178.894,217.284 179.443,216.224 179.991,215.157 
  180.539,214.082 181.088,212.999 181.636,211.909 182.185,210.811 182.733,209.706 183.281,208.593 183.83,207.473 184.378,206.345 184.927,205.209 185.475,204.066 
  186.023,202.915 186.572,201.757 187.12,200.591 187.669,199.418 188.217,198.238 188.765,197.05 189.314,195.854 189.862,194.652 190.41,193.442 190.959,192.224 
  191.507,191 192.056,189.768 192.604,188.529 193.152,187.282 193.701,186.029 194.249,184.768 194.798,183.501 195.346,182.226 195.894,180.944 196.443,179.656 
  196.991,178.36 197.54,177.057 198.088,175.748 198.636,174.432 199.185,173.109 199.733,171.779 200.281,170.442 200.83,169.099 201.378,167.75 201.927,166.394 
  202.475,165.032 203.023,163.664 203.572,162.291 204.12,160.911 204.669,159.526 205.217,158.135 205.765,156.739 206.314,155.337 206.862,153.929 207.411,152.516 
  207.959,151.098 208.507,149.674 209.056,148.245 209.604,146.811 210.152,145.373 210.701,143.929 211.249,142.481 211.798,141.028 212.346,139.571 212.894,138.11 
  213.443,136.644 213.991,135.175 214.54,133.702 215.088,132.226 215.636,130.746 216.185,129.263 216.733,127.778 217.282,126.289 217.83,124.799 218.378,123.306 
  218.927,121.811 219.475,120.314 220.023,118.816 220.572,117.316 221.12,115.816 221.669,114.315 222.217,112.814 222.765,111.312 223.314,109.811 223.862,108.31 
  224.411,106.81 224.959,105.312 225.507,103.815 226.056,102.319 226.604,100.826 227.153,99.3353 227.701,97.8475 228.249,96.3631 228.798,94.8822 229.346,93.4054 
  229.894,91.9329 230.443,90.4653 230.991,89.0029 231.54,87.5462 232.088,86.0955 232.636,84.6512 233.185,83.2139 233.733,81.784 234.282,80.3619 234.83,78.948 
  235.378,77.5429 235.927,76.147 236.475,74.7607 237.024,73.3847 237.572,72.0193 238.12,70.6651 238.669,69.3227 239.217,67.9924 239.765,66.6748 240.314,65.3706 
  240.862,64.0801 241.411,62.8041 241.959,61.5419 242.507,60.2928 243.056,59.058 243.604,57.8384 244.153,56.6351 244.701,55.449 245.249,54.2813 245.798,53.1328 
  246.346,52.0045 246.895,50.8974 247.443,49.8124 247.991,48.7505 248.54,47.7124 249.088,46.6992 249.636,45.7116 250.185,44.7506 250.733,43.817 251.282,42.9115 
  251.83,42.035 252.378,41.1884 252.927,40.3722 253.475,39.5875 254.024,38.8347 254.572,38.1148 255.12,37.4283 255.669,36.7761 256.217,36.1587 256.766,35.5769 
  257.314,35.0312 257.862,34.5224 258.411,34.051 258.959,33.6176 259.507,33.2229 260.056,32.8673 260.604,32.5514 261.153,32.2759 261.701,32.0411 262.249,31.8476 
  262.798,31.6959 263.346,31.5864 263.895,31.5197 264.443,31.4961 264.991,31.516 265.54,31.58 266.088,31.6884 266.637,31.8415 267.185,32.0397 267.733,32.2834 
  268.282,32.5728 268.83,32.9084 269.378,33.2904 269.927,33.7191 270.475,34.1947 271.024,34.7175 271.572,35.2878 272.12,35.9057 272.669,36.5715 273.217,37.2853 
  273.766,38.0473 274.314,38.8577 274.862,39.7167 275.411,40.6242 275.959,41.5805 276.508,42.5856 277.056,43.6397 277.604,44.7427 278.153,45.8947 278.701,47.0957 
  279.249,48.3458 279.798,49.645 280.346,50.9931 280.895,52.3896 281.443,53.8334 281.991,55.3235 282.54,56.8587 283.088,58.4381 283.637,60.0606 284.185,61.7252 
  284.733,63.4306 285.282,65.176 285.83,66.9601 286.379,68.782 286.927,70.6404 287.475,72.5343 288.024,74.4626 288.572,76.4241 289.12,78.4177 289.669,80.4424 
  290.217,82.4969 290.766,84.5801 291.314,86.6908 291.862,88.8279 292.411,90.9903 292.959,93.1767 293.508,95.386 294.056,97.6169 294.604,99.8683 295.153,102.139 
  295.701,104.428 296.25,106.733 296.798,109.055 297.346,111.39 297.895,113.739 298.443,116.1 298.991,118.472 299.54,120.853 300.088,123.242 300.637,125.638 
  301.185,128.04 301.733,130.446 302.282,132.855 302.83,135.266 303.379,137.677 303.927,140.087 304.475,142.496 305.024,144.901 305.572,147.301 306.121,149.695 
  306.669,152.081 307.217,154.459 307.766,156.827 308.314,159.183 308.862,161.526 309.411,163.854 309.959,166.17 310.508,168.471 311.056,170.759 311.604,173.031 
  312.153,175.287 312.701,177.527 313.25,179.75 313.798,181.955 314.346,184.142 314.895,186.31 315.443,188.458 315.992,190.586 316.54,192.694 317.088,194.781 
  317.637,196.847 318.185,198.891 318.733,200.912 319.282,202.911 319.83,204.887 320.379,206.839 320.927,208.768 321.475,210.672 322.024,212.553 322.572,214.408 
  323.121,216.239 323.669,218.045 324.217,219.826 324.766,221.582 325.314,223.312 325.863,225.016 326.411,226.695 326.959,228.348 327.508,229.975 328.056,231.576 
  328.604,233.152 329.153,234.701 329.701,236.225 330.25,237.723 330.798,239.195 331.346,240.642 331.895,242.064 332.443,243.46 332.992,244.831 333.54,246.177 
  334.088,247.498 334.637,248.795 335.185,250.068 335.734,251.317 336.282,252.543 336.83,253.745 337.379,254.924 337.927,256.081 338.475,257.216 339.024,258.329 
  339.572,259.421 340.121,260.492 340.669,261.543 341.217,262.574 341.766,263.586 342.314,264.579 342.863,265.555 343.411,266.513 343.959,267.454 344.508,268.379 
  345.056,269.286 345.605,270.175 346.153,271.046 346.701,271.898 347.25,272.732 347.798,273.548 348.346,274.347 348.895,275.128 349.443,275.893 349.992,276.64 
  350.54,277.371 351.088,278.086 351.637,278.784 352.185,279.467 352.734,280.133 353.282,280.785 353.83,281.421 354.379,282.042 354.927,282.649 355.476,283.24 
  356.024,283.818 356.572,284.381 357.121,284.93 357.669,285.465 358.217,285.987 358.766,286.495 359.314,286.99 359.863,287.471 360.411,287.94 360.959,288.396 
  361.508,288.84 362.056,289.271 362.605,289.69 363.153,290.097 363.701,290.492 364.25,290.875 364.798,291.247 365.347,291.607 365.895,291.956 366.443,292.293 
  366.992,292.62 367.54,292.936 368.088,293.241 368.637,293.535 369.185,293.819 369.734,294.092 370.282,294.355 370.83,294.608 371.379,294.851 371.927,295.084 
  372.476,295.307 373.024,295.521 373.572,295.725 374.121,295.919 374.669,296.105 375.218,296.281 375.766,296.448 376.314,296.606 376.863,296.756 377.411,296.896 
  377.959,297.028 378.508,297.152 379.056,297.267 379.605,297.373 380.153,297.471 380.701,297.561 381.25,297.642 381.798,297.716 382.347,297.781 382.895,297.838 
  383.443,297.888 383.992,297.929 384.54,297.963 385.089,297.989 385.637,298.007 386.185,298.018 386.734,298.021 387.282,298.017 387.83,298.006 388.379,297.987 
  388.927,297.96 389.476,297.927 390.024,297.886 390.572,297.838 391.121,297.783 391.669,297.721 392.218,297.652 392.766,297.576 393.314,297.494 393.863,297.404 
  394.411,297.307 394.96,297.204 395.508,297.094 396.056,296.977 396.605,296.854 397.153,296.724 397.701,296.588 398.25,296.444 398.798,296.295 399.347,296.139 
  399.895,295.976 400.443,295.807 400.992,295.632 401.54,295.45 402.089,295.262 402.637,295.067 403.185,294.866 403.734,294.659 404.282,294.446 404.831,294.226 
  405.379,294 405.927,293.768 406.476,293.529 407.024,293.284 407.572,293.033 408.121,292.776 408.669,292.513 409.218,292.243 409.766,291.968 410.314,291.686 
  410.863,291.397 411.411,291.103 411.96,290.803 412.508,290.496 413.056,290.183 413.605,289.864 414.153,289.539 414.702,289.208 415.25,288.871 415.798,288.528 
  416.347,288.179 416.895,287.823 417.443,287.461 417.992,287.094 418.54,286.72 419.089,286.34 419.637,285.953 420.185,285.561 420.734,285.163 421.282,284.758 
  421.831,284.347 422.379,283.93 422.927,283.507 423.476,283.078 424.024,282.642 424.573,282.2 425.121,281.752 425.669,281.298 426.218,280.838 426.766,280.371 
  427.314,279.898 427.863,279.419 428.411,278.934 428.96,278.442 429.508,277.944 430.056,277.439 430.605,276.929 431.153,276.412 431.702,275.888 432.25,275.359 
  432.798,274.823 433.347,274.28 433.895,273.731 434.444,273.176 434.992,272.615 435.54,272.046 436.089,271.472 436.637,270.891 437.185,270.303 437.734,269.709 
  438.282,269.109 438.831,268.502 439.379,267.888 439.927,267.268 440.476,266.641 441.024,266.008 441.573,265.368 442.121,264.721 442.669,264.068 443.218,263.408 
  443.766,262.741 444.315,262.067 444.863,261.387 445.411,260.7 445.96,260.006 446.508,259.306 447.056,258.598 447.605,257.884 448.153,257.163 448.702,256.435 
  449.25,255.7 449.798,254.958 450.347,254.209 450.895,253.455 451.444,252.693 451.992,251.925 452.54,251.151 453.089,250.369 453.637,249.581 454.186,248.787 
  454.734,247.985 455.282,247.176 455.831,246.361 456.379,245.538 456.927,244.709 457.476,243.872 458.024,243.028 458.573,242.176 459.121,241.318 459.669,240.452 
  460.218,239.578 460.766,238.698 461.315,237.809 461.863,236.914 462.411,236.01 462.96,235.1 463.508,234.181 464.057,233.255 464.605,232.321 465.153,231.38 
  465.702,230.431 466.25,229.474 466.798,228.509 467.347,227.537 467.895,226.557 468.444,225.569 468.992,224.573 469.54,223.57 470.089,222.558 470.637,221.539 
  471.186,220.512 471.734,219.477 472.282,218.434 472.831,217.384 473.379,216.326 473.928,215.259 474.476,214.185 475.024,213.103 475.573,212.014 476.121,210.916 
  476.669,209.811 477.218,208.698 477.766,207.577 478.315,206.449 478.863,205.313 479.411,204.169 479.96,203.017 480.508,201.858 481.057,200.692 481.605,199.518 
  482.153,198.336 482.702,197.147 483.25,195.95 483.799,194.746 484.347,193.534 484.895,192.316 485.444,191.09 485.992,189.856 486.54,188.616 487.089,187.368 
  487.637,186.114 488.186,184.852 488.734,183.584 489.282,182.308 489.831,181.026 490.379,179.737 490.928,178.441 491.476,177.138 492.024,175.829 492.573,174.514 
  493.121,173.192 493.67,171.863 494.218,170.529 494.766,169.188 495.315,167.841 495.863,166.488 496.411,165.129 496.96,163.764 497.508,162.394 498.057,161.017 
  498.605,159.636 499.153,158.248 499.702,156.855 500.25,155.457 500.799,154.054 501.347,152.645 501.895,151.232 502.444,149.814 502.992,148.39 503.541,146.963 
  504.089,145.53 504.637,144.093 505.186,142.652 505.734,141.206 506.282,139.757 506.831,138.303 507.379,136.846 507.928,135.385 508.476,133.92 509.024,132.452 
  509.573,130.98 510.121,129.505 510.67,128.027 511.218,126.546 511.766,125.062 512.315,123.576 512.863,122.087 513.412,120.595 513.96,119.101 514.508,117.605 
  515.057,116.107 515.605,114.608 516.153,113.107 516.702,111.606 517.25,110.104 517.799,108.602 518.347,107.101 518.895,105.601 519.444,104.102 519.992,102.604 
  520.541,101.109 521.089,99.6162 521.637,98.1263 522.186,96.6397 522.734,95.1569 523.283,93.6783 523.831,92.2045 524.379,90.7357 524.928,89.2725 525.476,87.8154 
  526.024,86.3648 526.573,84.9212 527.121,83.4851 527.67,82.0569 528.218,80.6372 528.766,79.2264 529.315,77.825 529.863,76.4336 530.412,75.0526 530.96,73.6826 
  531.508,72.3241 532.057,70.9776 532.605,69.6437 533.154,68.3228 533.702,67.0156 534.25,65.7226 534.799,64.4443 535.347,63.1812 535.895,61.9341 536.444,60.7033 
  536.992,59.4896 537.541,58.2934 538.089,57.1154 538.637,55.9561 539.186,54.8162 539.734,53.6962 540.283,52.5968 540.831,51.5186 541.379,50.4621 541.928,49.4281 
  542.476,48.4171 543.025,47.4297 543.573,46.4666 544.121,45.5285 544.67,44.616 545.218,43.7298 545.766,42.8704 546.315,42.0386 546.863,41.2351 547.412,40.4605 
  547.96,39.7155 548.508,39.0007 549.057,38.317 549.605,37.6649 550.154,37.0452 550.702,36.4586 551.25,35.9058 551.799,35.3875 552.347,34.9044 552.896,34.4573 
  553.444,34.0468 553.992,33.6739 554.541,33.3391 555.089,33.0432 555.637,32.787 556.186,32.5713 556.734,32.3968 557.283,32.2642 557.831,32.1744 558.379,32.1282 
  558.928,32.1263 559.476,32.1695 560.025,32.2586 560.573,32.3944 561.121,32.5776 561.67,32.8072 562.218,33.0834 562.767,33.4066 563.315,33.7773 563.863,34.1958 
  564.412,34.6624 564.96,35.1774 565.508,35.741 566.057,36.3534 566.605,37.0148 567.154,37.7252 567.702,38.4846 568.25,39.2932 568.799,40.1509 569.347,41.0575 
  569.896,42.013 570.444,43.0173 570.992,44.0701 571.541,45.1711 572.089,46.3202 572.638,47.5169 573.186,48.7609 573.734,50.0517 574.283,51.389 574.831,52.7722 
  575.379,54.2007 575.928,55.674 576.476,57.1915 577.025,58.7524 577.573,60.3561 578.121,62.0018 578.67,63.6887 579.218,65.416 579.767,67.1827 580.315,68.9879 
  
  "/>
<polyline clip-path="url(#clip8702)" style="stroke:#e26f46; stroke-width:3; stroke-opacity:1; fill:none" points="
  32.4745,226.926 33.0229,227.35 33.5713,227.793 34.1197,228.255 34.668,228.735 35.2164,229.233 35.7648,229.749 36.3132,230.281 36.8616,230.83 37.41,231.395 
  37.9584,231.975 38.5068,232.57 39.0552,233.179 39.6035,233.803 40.1519,234.44 40.7003,235.091 41.2487,235.754 41.7971,236.429 42.3455,237.116 42.8939,237.814 
  43.4423,238.523 43.9907,239.242 44.539,239.972 45.0874,240.711 45.6358,241.459 46.1842,242.216 46.7326,242.982 47.281,243.755 47.8294,244.536 48.3778,245.324 
  48.9262,246.119 49.4745,246.92 50.0229,247.727 50.5713,248.54 51.1197,249.358 51.6681,250.182 52.2165,251.01 52.7649,251.842 53.3133,252.678 53.8617,253.518 
  54.41,254.361 54.9584,255.207 55.5068,256.056 56.0552,256.908 56.6036,257.762 57.152,258.617 57.7004,259.475 58.2488,260.333 58.7972,261.193 59.3455,262.054 
  59.8939,262.915 60.4423,263.776 60.9907,264.638 61.5391,265.5 62.0875,266.362 62.6359,267.223 63.1843,268.083 63.7327,268.942 64.281,269.801 64.8294,270.658 
  65.3778,271.514 65.9262,272.368 66.4746,273.22 67.023,274.071 67.5714,274.919 68.1198,275.765 68.6682,276.609 69.2165,277.45 69.7649,278.289 70.3133,279.124 
  70.8617,279.957 71.4101,280.787 71.9585,281.614 72.5069,282.437 73.0553,283.257 73.6037,284.073 74.152,284.886 74.7004,285.695 75.2488,286.5 75.7972,287.302 
  76.3456,288.099 76.894,288.893 77.4424,289.682 77.9908,290.467 78.5392,291.248 79.0875,292.024 79.6359,292.796 80.1843,293.564 80.7327,294.327 81.2811,295.085 
  81.8295,295.839 82.3779,296.588 82.9263,297.333 83.4747,298.072 84.023,298.807 84.5714,299.537 85.1198,300.262 85.6682,300.983 86.2166,301.698 86.765,302.408 
  87.3134,303.114 87.8618,303.814 88.4102,304.51 88.9585,305.2 89.5069,305.885 90.0553,306.565 90.6037,307.24 91.1521,307.91 91.7005,308.575 92.2489,309.235 
  92.7973,309.889 93.3457,310.538 93.894,311.182 94.4424,311.821 94.9908,312.455 95.5392,313.084 96.0876,313.707 96.636,314.325 97.1844,314.938 97.7328,315.546 
  98.2812,316.149 98.8295,316.747 99.3779,317.339 99.9263,317.926 100.475,318.509 101.023,319.086 101.571,319.658 102.12,320.225 102.668,320.787 103.217,321.343 
  103.765,321.895 104.313,322.442 104.862,322.984 105.41,323.52 105.959,324.052 106.507,324.579 107.055,325.101 107.604,325.618 108.152,326.13 108.701,326.637 
  109.249,327.139 109.797,327.637 110.346,328.129 110.894,328.617 111.442,329.1 111.991,329.579 112.539,330.052 113.088,330.521 113.636,330.985 114.184,331.445 
  114.733,331.9 115.281,332.35 115.83,332.796 116.378,333.237 116.926,333.674 117.475,334.106 118.023,334.534 118.572,334.957 119.12,335.376 119.668,335.79 
  120.217,336.2 120.765,336.606 121.313,337.007 121.862,337.404 122.41,337.796 122.959,338.185 123.507,338.569 124.055,338.949 124.604,339.325 125.152,339.696 
  125.701,340.064 126.249,340.427 126.797,340.787 127.346,341.142 127.894,341.494 128.443,341.841 128.991,342.184 129.539,342.524 130.088,342.859 130.636,343.191 
  131.184,343.518 131.733,343.842 132.281,344.162 132.83,344.478 133.378,344.791 133.926,345.1 134.475,345.405 135.023,345.706 135.572,346.004 136.12,346.298 
  136.668,346.588 137.217,346.875 137.765,347.158 138.314,347.438 138.862,347.714 139.41,347.987 139.959,348.256 140.507,348.522 141.055,348.784 141.604,349.043 
  142.152,349.298 142.701,349.55 143.249,349.799 143.797,350.044 144.346,350.286 144.894,350.525 145.443,350.761 145.991,350.993 146.539,351.222 147.088,351.448 
  147.636,351.67 148.185,351.89 148.733,352.106 149.281,352.319 149.83,352.529 150.378,352.736 150.926,352.939 151.475,353.14 152.023,353.337 152.572,353.532 
  153.12,353.723 153.668,353.912 154.217,354.097 154.765,354.28 155.314,354.459 155.862,354.636 156.41,354.809 156.959,354.98 157.507,355.148 158.056,355.313 
  158.604,355.474 159.152,355.633 159.701,355.79 160.249,355.943 160.797,356.093 161.346,356.241 161.894,356.385 162.443,356.527 162.991,356.666 163.539,356.802 
  164.088,356.936 164.636,357.066 165.185,357.194 165.733,357.319 166.281,357.441 166.83,357.561 167.378,357.678 167.927,357.792 168.475,357.903 169.023,358.012 
  169.572,358.118 170.12,358.221 170.668,358.321 171.217,358.419 171.765,358.514 172.314,358.606 172.862,358.696 173.41,358.783 173.959,358.867 174.507,358.949 
  175.056,359.028 175.604,359.104 176.152,359.178 176.701,359.248 177.249,359.316 177.798,359.382 178.346,359.444 178.894,359.504 179.443,359.562 179.991,359.616 
  180.539,359.668 181.088,359.717 181.636,359.763 182.185,359.807 182.733,359.848 183.281,359.885 183.83,359.921 184.378,359.953 184.927,359.983 185.475,360.009 
  186.023,360.033 186.572,360.054 187.12,360.073 187.669,360.088 188.217,360.1 188.765,360.11 189.314,360.116 189.862,360.12 190.41,360.121 190.959,360.118 
  191.507,360.113 192.056,360.105 192.604,360.093 193.152,360.079 193.701,360.061 194.249,360.041 194.798,360.017 195.346,359.99 195.894,359.96 196.443,359.927 
  196.991,359.89 197.54,359.851 198.088,359.808 198.636,359.761 199.185,359.712 199.733,359.659 200.281,359.602 200.83,359.542 201.378,359.479 201.927,359.412 
  202.475,359.342 203.023,359.268 203.572,359.19 204.12,359.109 204.669,359.024 205.217,358.935 205.765,358.842 206.314,358.745 206.862,358.645 207.411,358.541 
  207.959,358.432 208.507,358.32 209.056,358.203 209.604,358.083 210.152,357.958 210.701,357.829 211.249,357.696 211.798,357.559 212.346,357.417 212.894,357.27 
  213.443,357.12 213.991,356.964 214.54,356.804 215.088,356.64 215.636,356.47 216.185,356.296 216.733,356.117 217.282,355.933 217.83,355.743 218.378,355.549 
  218.927,355.35 219.475,355.145 220.023,354.935 220.572,354.719 221.12,354.498 221.669,354.272 222.217,354.039 222.765,353.801 223.314,353.557 223.862,353.307 
  224.411,353.051 224.959,352.789 225.507,352.521 226.056,352.246 226.604,351.965 227.153,351.677 227.701,351.382 228.249,351.081 228.798,350.773 229.346,350.458 
  229.894,350.136 230.443,349.807 230.991,349.47 231.54,349.126 232.088,348.774 232.636,348.415 233.185,348.048 233.733,347.673 234.282,347.29 234.83,346.899 
  235.378,346.499 235.927,346.092 236.475,345.675 237.024,345.25 237.572,344.816 238.12,344.373 238.669,343.921 239.217,343.46 239.765,342.989 240.314,342.509 
  240.862,342.02 241.411,341.52 241.959,341.011 242.507,340.492 243.056,339.963 243.604,339.424 244.153,338.874 244.701,338.314 245.249,337.742 245.798,337.16 
  246.346,336.567 246.895,335.962 247.443,335.345 247.991,334.717 248.54,334.077 249.088,333.424 249.636,332.76 250.185,332.083 250.733,331.394 251.282,330.692 
  251.83,329.977 252.378,329.25 252.927,328.51 253.475,327.757 254.024,326.992 254.572,326.213 255.12,325.421 255.669,324.616 256.217,323.799 256.766,322.968 
  257.314,322.124 257.862,321.267 258.411,320.398 258.959,319.515 259.507,318.62 260.056,317.711 260.604,316.79 261.153,315.856 261.701,314.91 262.249,313.951 
  262.798,312.98 263.346,311.996 263.895,311 264.443,309.993 264.991,308.973 265.54,307.942 266.088,306.899 266.637,305.845 267.185,304.779 267.733,303.703 
  268.282,302.616 268.83,301.518 269.378,300.41 269.927,299.292 270.475,298.164 271.024,297.026 271.572,295.879 272.12,294.723 272.669,293.559 273.217,292.386 
  273.766,291.204 274.314,290.015 274.862,288.818 275.411,287.615 275.959,286.404 276.508,285.187 277.056,283.963 277.604,282.734 278.153,281.5 278.701,280.261 
  279.249,279.017 279.798,277.769 280.346,276.518 280.895,275.264 281.443,274.008 281.991,272.752 282.54,271.496 283.088,270.241 283.637,268.988 284.185,267.738 
  284.733,266.492 285.282,265.251 285.83,264.014 286.379,262.784 286.927,261.561 287.475,260.345 288.024,259.139 288.572,257.941 289.12,256.754 289.669,255.577 
  290.217,254.412 290.766,253.259 291.314,252.119 291.862,250.993 292.411,249.881 292.959,248.784 293.508,247.703 294.056,246.638 294.604,245.591 295.153,244.56 
  295.701,243.548 296.25,242.555 296.798,241.581 297.346,240.628 297.895,239.694 298.443,238.782 298.991,237.892 299.54,237.023 300.088,236.178 300.637,235.355 
  301.185,234.556 301.733,233.782 302.282,233.032 302.83,232.307 303.379,231.607 303.927,230.934 304.475,230.287 305.024,229.667 305.572,229.074 306.121,228.509 
  306.669,227.971 307.217,227.463 307.766,226.982 308.314,226.531 308.862,226.109 309.411,225.717 309.959,225.353 310.508,225.018 311.056,224.71 311.604,224.43 
  312.153,224.179 312.701,223.954 313.25,223.758 313.798,223.588 314.346,223.446 314.895,223.331 315.443,223.243 315.992,223.181 316.54,223.146 317.088,223.138 
  317.637,223.155 318.185,223.198 318.733,223.267 319.282,223.361 319.83,223.48 320.379,223.624 320.927,223.793 321.475,223.986 322.024,224.203 322.572,224.443 
  323.121,224.707 323.669,224.994 324.217,225.303 324.766,225.635 325.314,225.989 325.863,226.364 326.411,226.76 326.959,227.177 327.508,227.615 328.056,228.072 
  328.604,228.549 329.153,229.045 329.701,229.56 330.25,230.093 330.798,230.644 331.346,231.211 331.895,231.796 332.443,232.397 332.992,233.013 333.54,233.645 
  334.088,234.291 334.637,234.952 335.185,235.626 335.734,236.313 336.282,237.013 336.83,237.724 337.379,238.447 337.927,239.18 338.475,239.923 339.024,240.676 
  339.572,241.438 340.121,242.207 340.669,242.984 341.217,243.768 341.766,244.558 342.314,245.354 342.863,246.154 343.411,246.958 343.959,247.766 344.508,248.576 
  345.056,249.389 345.605,250.208 346.153,251.031 346.701,251.859 347.25,252.69 347.798,253.526 348.346,254.365 348.895,255.207 349.443,256.052 349.992,256.899 
  350.54,257.749 351.088,258.601 351.637,259.455 352.185,260.31 352.734,261.166 353.282,262.023 353.83,262.881 354.379,263.74 354.927,264.599 355.476,265.457 
  356.024,266.316 356.572,267.174 357.121,268.032 357.669,268.888 358.217,269.744 358.766,270.599 359.314,271.452 359.863,272.303 360.411,273.153 360.959,274.001 
  361.508,274.847 362.056,275.69 362.605,276.532 363.153,277.37 363.701,278.206 364.25,279.039 364.798,279.87 365.347,280.697 365.895,281.521 366.443,282.342 
  366.992,283.159 367.54,283.973 368.088,284.783 368.637,285.59 369.185,286.393 369.734,287.192 370.282,287.987 370.83,288.779 371.379,289.566 371.927,290.35 
  372.476,291.129 373.024,291.904 373.572,292.675 374.121,293.441 374.669,294.203 375.218,294.96 375.766,295.713 376.314,296.461 376.863,297.204 377.411,297.942 
  377.959,298.676 378.508,299.405 379.056,300.129 379.605,300.849 380.153,301.563 380.701,302.273 381.25,302.977 381.798,303.677 382.347,304.372 382.895,305.061 
  383.443,305.746 383.992,306.426 384.54,307.101 385.089,307.77 385.637,308.435 386.185,309.094 386.734,309.749 387.282,310.398 387.83,311.042 388.379,311.681 
  388.927,312.315 389.476,312.944 390.024,313.567 390.572,314.186 391.121,314.799 391.669,315.407 392.218,316.01 392.766,316.608 393.314,317.201 393.863,317.789 
  394.411,318.371 394.96,318.948 395.508,319.521 396.056,320.088 396.605,320.65 397.153,321.207 397.701,321.758 398.25,322.305 398.798,322.847 399.347,323.383 
  399.895,323.915 400.443,324.442 400.992,324.963 401.54,325.48 402.089,325.992 402.637,326.498 403.185,327 403.734,327.497 404.282,327.99 404.831,328.477 
  405.379,328.96 405.927,329.437 406.476,329.911 407.024,330.379 407.572,330.843 408.121,331.302 408.669,331.757 409.218,332.207 409.766,332.652 410.314,333.093 
  410.863,333.53 411.411,333.962 411.96,334.39 412.508,334.814 413.056,335.233 413.605,335.648 414.153,336.058 414.702,336.464 415.25,336.865 415.798,337.262 
  416.347,337.655 416.895,338.044 417.443,338.429 417.992,338.809 418.54,339.185 419.089,339.557 419.637,339.925 420.185,340.289 420.734,340.648 421.282,341.004 
  421.831,341.356 422.379,341.703 422.927,342.047 423.476,342.387 424.024,342.723 424.573,343.055 425.121,343.383 425.669,343.707 426.218,344.028 426.766,344.345 
  427.314,344.658 427.863,344.967 428.411,345.272 428.96,345.574 429.508,345.872 430.056,346.167 430.605,346.458 431.153,346.745 431.702,347.029 432.25,347.309 
  432.798,347.586 433.347,347.859 433.895,348.129 434.444,348.395 434.992,348.658 435.54,348.917 436.089,349.173 436.637,349.425 437.185,349.675 437.734,349.92 
  438.282,350.163 438.831,350.402 439.379,350.638 439.927,350.871 440.476,351.1 441.024,351.326 441.573,351.549 442.121,351.769 442.669,351.985 443.218,352.199 
  443.766,352.409 444.315,352.616 444.863,352.82 445.411,353.021 445.96,353.219 446.508,353.414 447.056,353.606 447.605,353.795 448.153,353.98 448.702,354.163 
  449.25,354.343 449.798,354.52 450.347,354.694 450.895,354.864 451.444,355.032 451.992,355.196 452.54,355.358 453.089,355.516 453.637,355.672 454.186,355.824 
  454.734,355.974 455.282,356.12 455.831,356.264 456.379,356.405 456.927,356.543 457.476,356.678 458.024,356.81 458.573,356.94 459.121,357.067 459.669,357.191 
  460.218,357.312 460.766,357.43 461.315,357.546 461.863,357.659 462.411,357.769 462.96,357.877 463.508,357.982 464.057,358.084 464.605,358.184 465.153,358.281 
  465.702,358.375 466.25,358.467 466.798,358.556 467.347,358.642 467.895,358.726 468.444,358.807 468.992,358.885 469.54,358.961 470.089,359.034 470.637,359.105 
  471.186,359.173 471.734,359.238 472.282,359.3 472.831,359.36 473.379,359.418 473.928,359.472 474.476,359.524 475.024,359.574 475.573,359.621 476.121,359.664 
  476.669,359.706 477.218,359.744 477.766,359.78 478.315,359.813 478.863,359.844 479.411,359.871 479.96,359.896 480.508,359.918 481.057,359.938 481.605,359.954 
  482.153,359.968 482.702,359.979 483.25,359.986 483.799,359.991 484.347,359.994 484.895,359.993 485.444,359.989 485.992,359.982 486.54,359.972 487.089,359.959 
  487.637,359.944 488.186,359.925 488.734,359.902 489.282,359.877 489.831,359.849 490.379,359.817 490.928,359.782 491.476,359.744 492.024,359.703 492.573,359.658 
  493.121,359.61 493.67,359.558 494.218,359.503 494.766,359.445 495.315,359.383 495.863,359.317 496.411,359.248 496.96,359.176 497.508,359.099 498.057,359.019 
  498.605,358.935 499.153,358.848 499.702,358.756 500.25,358.661 500.799,358.561 501.347,358.458 501.895,358.351 502.444,358.239 502.992,358.124 503.541,358.004 
  504.089,357.88 504.637,357.752 505.186,357.619 505.734,357.482 506.282,357.341 506.831,357.195 507.379,357.045 507.928,356.89 508.476,356.73 509.024,356.566 
  509.573,356.397 510.121,356.223 510.67,356.044 511.218,355.86 511.766,355.671 512.315,355.477 512.863,355.278 513.412,355.074 513.96,354.865 514.508,354.651 
  515.057,354.432 515.605,354.208 516.153,353.979 516.702,353.744 517.25,353.503 517.799,353.256 518.347,353.003 518.895,352.745 519.444,352.48 519.992,352.208 
  520.541,351.93 521.089,351.645 521.637,351.353 522.186,351.054 522.734,350.749 523.283,350.435 523.831,350.115 524.379,349.787 524.928,349.451 525.476,349.107 
  526.024,348.755 526.573,348.396 527.121,348.028 527.67,347.652 528.218,347.267 528.766,346.874 529.315,346.472 529.863,346.061 530.412,345.641 530.96,345.213 
  531.508,344.775 532.057,344.328 532.605,343.871 533.154,343.405 533.702,342.929 534.25,342.444 534.799,341.949 535.347,341.444 535.895,340.929 536.444,340.403 
  536.992,339.868 537.541,339.322 538.089,338.766 538.637,338.199 539.186,337.622 539.734,337.034 540.283,336.435 540.831,335.826 541.379,335.205 541.928,334.574 
  542.476,333.931 543.025,333.277 543.573,332.612 544.121,331.935 544.67,331.247 545.218,330.547 545.766,329.836 546.315,329.113 546.863,328.379 547.412,327.632 
  547.96,326.874 548.508,326.103 549.057,325.321 549.605,324.527 550.154,323.72 550.702,322.901 551.25,322.07 551.799,321.227 552.347,320.371 552.896,319.503 
  553.444,318.622 553.992,317.729 554.541,316.823 555.089,315.904 555.637,314.973 556.186,314.029 556.734,313.072 557.283,312.102 557.831,311.12 558.379,310.124 
  558.928,309.116 559.476,308.094 560.025,307.06 560.573,306.012 561.121,304.952 561.67,303.879 562.218,302.795 562.767,301.7 563.315,300.594 563.863,299.477 
  564.412,298.35 564.96,297.212 565.508,296.065 566.057,294.909 566.605,293.743 567.154,292.569 567.702,291.386 568.25,290.195 568.799,288.997 569.347,287.792 
  569.896,286.581 570.444,285.363 570.992,284.14 571.541,282.912 572.089,281.679 572.638,280.442 573.186,279.202 573.734,277.959 574.283,276.714 574.831,275.468 
  575.379,274.22 575.928,272.973 576.476,271.725 577.025,270.479 577.573,269.235 578.121,267.993 578.67,266.754 579.218,265.52 579.767,264.29 580.315,263.066 
  
  "/>
<polygon clip-path="url(#clip8700)" points="
477.574,97.7361 562.315,97.7361 562.315,52.3761 477.574,52.3761 
  " fill="#ffffff" fill-opacity="1"/>
<polyline clip-path="url(#clip8700)" style="stroke:#000000; stroke-width:1; stroke-opacity:1; fill:none" points="
  477.574,97.7361 562.315,97.7361 562.315,52.3761 477.574,52.3761 477.574,97.7361 
  "/>
<polyline clip-path="url(#clip8700)" style="stroke:#009af9; stroke-width:3; stroke-opacity:1; fill:none" points="
  483.574,67.4961 519.574,67.4961 
  "/>
<g clip-path="url(#clip8700)">
<text style="fill:#000000; fill-opacity:1; font-family:Arial,Helvetica Neue,Helvetica,sans-serif; font-size:12; text-anchor:start;" transform="rotate(0, 525.574, 71.9961)" x="525.574" y="71.9961">u1(t)</text>
</g>
<polyline clip-path="url(#clip8700)" style="stroke:#e26f46; stroke-width:3; stroke-opacity:1; fill:none" points="
  483.574,82.6161 519.574,82.6161 
  "/>
<g clip-path="url(#clip8700)">
<text style="fill:#000000; fill-opacity:1; font-family:Arial,Helvetica Neue,Helvetica,sans-serif; font-size:12; text-anchor:start;" transform="rotate(0, 525.574, 87.1161)" x="525.574" y="87.1161">u2(t)</text>
</g>
</svg>
