<?xml version="1.0" encoding="utf-8"?>
<svg xmlns="http://www.w3.org/2000/svg" xmlns:xlink="http://www.w3.org/1999/xlink" width="600" height="400" viewBox="0 0 600 400">
<defs>
  <clipPath id="clip9100">
    <rect x="0" y="0" width="600" height="400"/>
  </clipPath>
</defs>
<polygon clip-path="url(#clip9100)" points="
0,400 600,400 600,0 0,0 
  " fill="#ffffff" fill-opacity="1"/>
<defs>
  <clipPath id="clip9101">
    <rect x="120" y="0" width="421" height="400"/>
  </clipPath>
</defs>
<polygon clip-path="url(#clip9100)" points="
32.4745,360.121 580.315,360.121 580.315,11.811 32.4745,11.811 
  " fill="#ffffff" fill-opacity="1"/>
<defs>
  <clipPath id="clip9102">
    <rect x="32" y="11" width="549" height="349"/>
  </clipPath>
</defs>
<polyline clip-path="url(#clip9102)" style="stroke:#000000; stroke-width:0.5; stroke-opacity:0.1; fill:none" points="
  32.4745,360.121 32.4745,11.811 
  "/>
<polyline clip-path="url(#clip9102)" style="stroke:#000000; stroke-width:0.5; stroke-opacity:0.1; fill:none" points="
  142.043,360.121 142.043,11.811 
  "/>
<polyline clip-path="url(#clip9102)" style="stroke:#000000; stroke-width:0.5; stroke-opacity:0.1; fill:none" points="
  251.611,360.121 251.611,11.811 
  "/>
<polyline clip-path="url(#clip9102)" style="stroke:#000000; stroke-width:0.5; stroke-opacity:0.1; fill:none" points="
  361.179,360.121 361.179,11.811 
  "/>
<polyline clip-path="url(#clip9102)" style="stroke:#000000; stroke-width:0.5; stroke-opacity:0.1; fill:none" points="
  470.747,360.121 470.747,11.811 
  "/>
<polyline clip-path="url(#clip9102)" style="stroke:#000000; stroke-width:0.5; stroke-opacity:0.1; fill:none" points="
  580.315,360.121 580.315,11.811 
  "/>
<polyline clip-path="url(#clip9102)" style="stroke:#000000; stroke-width:0.5; stroke-opacity:0.1; fill:none" points="
  32.4745,319.473 580.315,319.473 
  "/>
<polyline clip-path="url(#clip9102)" style="stroke:#000000; stroke-width:0.5; stroke-opacity:0.1; fill:none" points="
  32.4745,261.419 580.315,261.419 
  "/>
<polyline clip-path="url(#clip9102)" style="stroke:#000000; stroke-width:0.5; stroke-opacity:0.1; fill:none" points="
  32.4745,203.364 580.315,203.364 
  "/>
<polyline clip-path="url(#clip9102)" style="stroke:#000000; stroke-width:0.5; stroke-opacity:0.1; fill:none" points="
  32.4745,145.31 580.315,145.31 
  "/>
<polyline clip-path="url(#clip9102)" style="stroke:#000000; stroke-width:0.5; stroke-opacity:0.1; fill:none" points="
  32.4745,87.2557 580.315,87.2557 
  "/>
<polyline clip-path="url(#clip9102)" style="stroke:#000000; stroke-width:0.5; stroke-opacity:0.1; fill:none" points="
  32.4745,29.2014 580.315,29.2014 
  "/>
<polyline clip-path="url(#clip9100)" style="stroke:#000000; stroke-width:1; stroke-opacity:1; fill:none" points="
  32.4745,360.121 580.315,360.121 
  "/>
<polyline clip-path="url(#clip9100)" style="stroke:#000000; stroke-width:1; stroke-opacity:1; fill:none" points="
  32.4745,360.121 32.4745,11.811 
  "/>
<polyline clip-path="url(#clip9100)" style="stroke:#000000; stroke-width:1; stroke-opacity:1; fill:none" points="
  32.4745,360.121 32.4745,354.896 
  "/>
<polyline clip-path="url(#clip9100)" style="stroke:#000000; stroke-width:1; stroke-opacity:1; fill:none" points="
  142.043,360.121 142.043,354.896 
  "/>
<polyline clip-path="url(#clip9100)" style="stroke:#000000; stroke-width:1; stroke-opacity:1; fill:none" points="
  251.611,360.121 251.611,354.896 
  "/>
<polyline clip-path="url(#clip9100)" style="stroke:#000000; stroke-width:1; stroke-opacity:1; fill:none" points="
  361.179,360.121 361.179,354.896 
  "/>
<polyline clip-path="url(#clip9100)" style="stroke:#000000; stroke-width:1; stroke-opacity:1; fill:none" points="
  470.747,360.121 470.747,354.896 
  "/>
<polyline clip-path="url(#clip9100)" style="stroke:#000000; stroke-width:1; stroke-opacity:1; fill:none" points="
  580.315,360.121 580.315,354.896 
  "/>
<polyline clip-path="url(#clip9100)" style="stroke:#000000; stroke-width:1; stroke-opacity:1; fill:none" points="
  32.4745,319.473 40.6921,319.473 
  "/>
<polyline clip-path="url(#clip9100)" style="stroke:#000000; stroke-width:1; stroke-opacity:1; fill:none" points="
  32.4745,261.419 40.6921,261.419 
  "/>
<polyline clip-path="url(#clip9100)" style="stroke:#000000; stroke-width:1; stroke-opacity:1; fill:none" points="
  32.4745,203.364 40.6921,203.364 
  "/>
<polyline clip-path="url(#clip9100)" style="stroke:#000000; stroke-width:1; stroke-opacity:1; fill:none" points="
  32.4745,145.31 40.6921,145.31 
  "/>
<polyline clip-path="url(#clip9100)" style="stroke:#000000; stroke-width:1; stroke-opacity:1; fill:none" points="
  32.4745,87.2557 40.6921,87.2557 
  "/>
<polyline clip-path="url(#clip9100)" style="stroke:#000000; stroke-width:1; stroke-opacity:1; fill:none" points="
  32.4745,29.2014 40.6921,29.2014 
  "/>
<g clip-path="url(#clip9100)">
<text style="fill:#000000; fill-opacity:1; font-family:Arial,Helvetica Neue,Helvetica,sans-serif; font-size:12; text-anchor:middle;" transform="rotate(0, 32.4745, 373.921)" x="32.4745" y="373.921">0</text>
</g>
<g clip-path="url(#clip9100)">
<text style="fill:#000000; fill-opacity:1; font-family:Arial,Helvetica Neue,Helvetica,sans-serif; font-size:12; text-anchor:middle;" transform="rotate(0, 142.043, 373.921)" x="142.043" y="373.921">2</text>
</g>
<g clip-path="url(#clip9100)">
<text style="fill:#000000; fill-opacity:1; font-family:Arial,Helvetica Neue,Helvetica,sans-serif; font-size:12; text-anchor:middle;" transform="rotate(0, 251.611, 373.921)" x="251.611" y="373.921">4</text>
</g>
<g clip-path="url(#clip9100)">
<text style="fill:#000000; fill-opacity:1; font-family:Arial,Helvetica Neue,Helvetica,sans-serif; font-size:12; text-anchor:middle;" transform="rotate(0, 361.179, 373.921)" x="361.179" y="373.921">6</text>
</g>
<g clip-path="url(#clip9100)">
<text style="fill:#000000; fill-opacity:1; font-family:Arial,Helvetica Neue,Helvetica,sans-serif; font-size:12; text-anchor:middle;" transform="rotate(0, 470.747, 373.921)" x="470.747" y="373.921">8</text>
</g>
<g clip-path="url(#clip9100)">
<text style="fill:#000000; fill-opacity:1; font-family:Arial,Helvetica Neue,Helvetica,sans-serif; font-size:12; text-anchor:middle;" transform="rotate(0, 580.315, 373.921)" x="580.315" y="373.921">10</text>
</g>
<g clip-path="url(#clip9100)">
<text style="fill:#000000; fill-opacity:1; font-family:Arial,Helvetica Neue,Helvetica,sans-serif; font-size:12; text-anchor:end;" transform="rotate(0, 26.4745, 323.973)" x="26.4745" y="323.973">0.5</text>
</g>
<g clip-path="url(#clip9100)">
<text style="fill:#000000; fill-opacity:1; font-family:Arial,Helvetica Neue,Helvetica,sans-serif; font-size:12; text-anchor:end;" transform="rotate(0, 26.4745, 265.919)" x="26.4745" y="265.919">1.0</text>
</g>
<g clip-path="url(#clip9100)">
<text style="fill:#000000; fill-opacity:1; font-family:Arial,Helvetica Neue,Helvetica,sans-serif; font-size:12; text-anchor:end;" transform="rotate(0, 26.4745, 207.864)" x="26.4745" y="207.864">1.5</text>
</g>
<g clip-path="url(#clip9100)">
<text style="fill:#000000; fill-opacity:1; font-family:Arial,Helvetica Neue,Helvetica,sans-serif; font-size:12; text-anchor:end;" transform="rotate(0, 26.4745, 149.81)" x="26.4745" y="149.81">2.0</text>
</g>
<g clip-path="url(#clip9100)">
<text style="fill:#000000; fill-opacity:1; font-family:Arial,Helvetica Neue,Helvetica,sans-serif; font-size:12; text-anchor:end;" transform="rotate(0, 26.4745, 91.7557)" x="26.4745" y="91.7557">2.5</text>
</g>
<g clip-path="url(#clip9100)">
<text style="fill:#000000; fill-opacity:1; font-family:Arial,Helvetica Neue,Helvetica,sans-serif; font-size:12; text-anchor:end;" transform="rotate(0, 26.4745, 33.7014)" x="26.4745" y="33.7014">3.0</text>
</g>
<g clip-path="url(#clip9100)">
<text style="fill:#000000; fill-opacity:1; font-family:Arial,Helvetica Neue,Helvetica,sans-serif; font-size:16; text-anchor:middle;" transform="rotate(0, 306.395, 397.6)" x="306.395" y="397.6">t</text>
</g>
<polyline clip-path="url(#clip9102)" style="stroke:#009af9; stroke-width:3; stroke-opacity:1; fill:none" points="
  32.4745,261.419 35.0205,246.916 35.5296,248.472 36.1025,256.595 36.7428,256.703 37.4631,257.602 38.2527,271.799 39.0801,277.004 39.9985,285.292 40.9708,284.493 
  42.0028,292.392 43.0711,295.917 44.1752,297.074 45.2953,307.275 46.4635,314.441 47.6547,315.414 48.8695,313.078 50.0936,318.118 51.3614,318.795 52.6388,321.186 
  53.953,322.749 55.266,330.301 56.5903,331.221 57.9237,334.516 59.2648,328.652 60.6661,329.044 62.0809,323.997 63.5406,321.619 65.0534,312.646 66.6247,316.7 
  68.2437,314.065 69.8707,311.565 71.6147,315.546 73.3605,321.891 75.1549,315.832 76.9811,316.922 78.8793,313.702 80.8234,323.224 82.8137,318.134 84.8492,322.01 
  86.9274,319.506 89.0918,325.818 91.2834,329.094 93.4758,336.644 95.675,339.017 97.813,339.36 100.052,335.042 102.282,332.133 104.566,328.278 106.909,330.316 
  109.312,334.386 111.741,331.838 114.237,321.567 116.817,309.98 119.556,305.398 122.267,290.867 125.186,296.43 127.894,295.909 130.745,296.244 133.404,290.533 
  136.201,281.357 138.976,292.579 141.589,296.328 144.225,282.242 147.018,275.894 149.606,272.944 152.143,276.358 154.592,266.726 157.225,257.688 159.789,240.288 
  162.361,253.626 164.563,268.447 166.835,258.544 169.235,276.19 171.385,284.8 173.615,266.403 176.041,246.497 178.333,253.092 180.429,244.957 182.632,246.366 
  184.67,245.833 186.73,226.488 188.858,232.407 190.754,224.383 192.772,230.525 194.65,217.929 196.627,221.174 198.417,234.723 200.23,247.808 202.025,252.008 
  203.867,249.135 205.8,249.677 207.634,259.732 209.451,277.016 211.269,275.974 213.215,263.303 215.227,251.924 217.21,225.138 219.278,223.384 221.122,204.474 
  223.033,170.368 225.017,186.943 226.654,188.299 228.404,188.063 230.145,194.969 231.837,200.744 233.525,185.422 235.282,215.451 236.893,206.417 238.695,220.477 
  240.366,209.418 242.192,223.036 243.845,201.081 245.705,185.839 247.472,208.713 249.092,200.423 250.893,197.919 252.622,165.234 254.461,147.403 256.202,146.487 
  257.857,137.119 259.532,140.696 261.156,132.193 262.829,61.8302 264.518,11.811 266.021,42.6059 267.391,81.726 268.801,108.926 270.239,141.039 271.746,130.197 
  273.393,127.162 275.009,119.625 276.649,129.182 278.268,143.189 279.979,148.728 281.794,152.81 283.653,144.586 285.586,132.035 287.473,137.712 289.363,153.018 
  291.334,124.764 293.298,110.536 295.092,153.79 296.959,147.157 299.037,152.281 301.01,146.739 303.063,148.32 305.031,174.498 307.105,201.028 309.438,232.599 
  312.063,245.458 315.016,233.241 318.338,258.003 322.075,243.769 325.759,255.156 329.903,224.207 334.565,200.31 338.841,190.99 342.177,183.018 345.533,200.35 
  348.696,218.597 352.237,196.858 355.776,213.814 358.87,201.426 362.351,158.199 365.122,187.081 367.528,177.396 370.046,156.035 372.295,151.718 374.326,193.913 
  376.281,216.212 378.475,203.608 380.777,230.697 382.857,245.99 385.162,260.156 387.496,253.549 389.927,252.414 392.619,256.19 395.437,251.113 398.462,227.515 
  401.865,203.562 405.337,177.111 408.348,195.634 410.98,186.646 413.76,150.95 416.16,169.255 418.236,186.691 420.285,216.504 422.247,201.996 424.417,214.268 
  426.272,232.158 428.135,251.779 429.966,231.316 432.027,230.495 433.79,246.983 435.543,259.338 437.279,263.957 439.029,253.783 440.946,252.299 442.778,247.279 
  444.747,244.418 446.569,259.996 448.46,255.505 450.323,270.366 452.072,270.519 453.868,282.37 455.648,271.501 457.579,266.234 459.417,265.144 461.315,275.141 
  463.093,283.402 464.876,278.611 466.695,275.044 468.566,278.959 470.448,296.63 472.281,301.91 474.091,307.983 475.848,304.362 477.614,311.704 479.362,308.846 
  481.105,309.468 482.874,313.542 484.687,320.656 486.492,318.396 488.283,309.738 490.165,314.029 492.042,311.64 493.958,312.445 495.921,323.037 497.904,316.9 
  499.892,322.339 501.928,324.067 503.994,329.059 505.999,325.906 508.022,333.601 510.093,332.091 512.098,326.143 514.187,325.246 516.347,322.083 518.498,327.917 
  520.735,323.433 522.968,334.212 525.272,327.517 527.529,318.078 529.891,314.097 532.402,313.612 534.956,308.503 537.588,302.225 540.332,286.922 543.249,287.908 
  546.229,279.911 549.511,308.414 552.761,291.485 555.908,301.134 558.952,297.872 562.057,303.446 564.913,311.748 567.822,308.91 570.806,284.161 573.815,305.44 
  576.573,309.754 579.354,312.307 580.315,310.125 
  "/>
<polyline clip-path="url(#clip9102)" style="stroke:#e26f46; stroke-width:3; stroke-opacity:1; fill:none" points="
  32.4745,261.419 35.0205,262.608 35.5296,261.504 36.1025,259.76 36.7428,260.799 37.4631,260.936 38.2527,260.175 39.0801,261.571 39.9985,261.525 40.9708,261.291 
  42.0028,261.418 43.0711,260.066 44.1752,263.203 45.2953,262.577 46.4635,263.971 47.6547,263.996 48.8695,267.844 50.0936,269.848 51.3614,271.647 52.6388,271.888 
  53.953,272.938 55.266,276.432 56.5903,280.334 57.9237,285.885 59.2648,286.791 60.6661,287.965 62.0809,290.313 63.5406,290.24 65.0534,291.509 66.6247,292.131 
  68.2437,296.225 69.8707,296.666 71.6147,300.134 73.3605,302.077 75.1549,305.099 76.9811,306.919 78.8793,309.848 80.8234,314.152 82.8137,315.329 84.8492,319.515 
  86.9274,320.867 89.0918,322.73 91.2834,324.222 93.4758,326.305 95.675,330.792 97.813,330.886 100.052,332.304 102.282,334.357 104.566,336.678 106.909,339.753 
  109.312,341.305 111.741,341.852 114.237,343.373 116.817,344.509 119.556,346.082 122.267,345.911 125.186,346.781 127.894,347.643 130.745,349.04 133.404,349.324 
  136.201,349.982 138.976,351.013 141.589,351.402 144.225,352.937 147.018,353.648 149.606,354.481 152.143,354.333 154.592,354.121 157.225,354.626 159.789,355.059 
  162.361,355.224 164.563,355.39 166.835,355.833 169.235,356.356 171.385,357.326 173.615,357.864 176.041,357.656 178.333,357.694 180.429,357.793 182.632,358.562 
  184.67,358.725 186.73,358.47 188.858,358.9 190.754,358.388 192.772,358.924 194.65,358.911 196.627,359.311 198.417,358.598 200.23,358.203 202.025,358.535 
  203.867,358.513 205.8,358.61 207.634,358.323 209.451,358.991 211.269,359.267 213.215,360.073 215.227,360.067 217.21,359.963 219.278,360.121 221.122,360.108 
  223.033,359.641 225.017,359.232 226.654,358.927 228.404,358.363 230.145,357.768 231.837,357.679 233.525,357.953 235.282,357.764 236.893,357.724 238.695,357.685 
  240.366,357.632 242.192,358.103 243.845,357.522 245.705,357.073 247.472,356.945 249.092,356.915 250.893,357.104 252.622,356.602 254.461,355.519 256.202,355.367 
  257.857,354.015 259.532,353.023 261.156,352.263 262.829,351.151 264.518,349.565 266.021,347.756 267.391,346.082 268.801,345.052 270.239,344.319 271.746,342.94 
  273.393,340.693 275.009,339.774 276.649,339.57 278.268,337.048 279.979,335.262 281.794,335.338 283.653,333.667 285.586,332.364 287.473,331.365 289.363,329.564 
  291.334,327.964 293.298,326.682 295.092,324.071 296.959,322.55 299.037,319.278 301.01,317.212 303.063,314.693 305.031,315.037 307.105,312.833 309.438,313.472 
  312.063,314.52 315.016,314.209 318.338,312.396 322.075,314.84 325.759,316.518 329.903,316.435 334.565,310.911 338.841,309.191 342.177,308.399 345.533,307.728 
  348.696,303.808 352.237,302.254 355.776,302.765 358.87,304.507 362.351,302.438 365.122,298.967 367.528,296.653 370.046,295.605 372.295,295.518 374.326,294.109 
  376.281,293.423 378.475,291.306 380.777,289.996 382.857,290.565 385.162,291.041 387.496,295.99 389.927,298.216 392.619,300.431 395.437,305.231 398.462,307.274 
  401.865,305.711 405.337,301.471 408.348,299.954 410.98,296.632 413.76,294.981 416.16,289.415 418.236,285.41 420.285,284.461 422.247,282.163 424.417,276.819 
  426.272,275.868 428.135,276.614 429.966,273.847 432.027,272.21 433.79,272.168 435.543,275.32 437.279,278.012 439.029,278 440.946,279.444 442.778,279.376 
  444.747,278.882 446.569,275.151 448.46,275.627 450.323,275.482 452.072,275.932 453.868,279.118 455.648,276.037 457.579,277.411 459.417,276.743 461.315,274.913 
  463.093,275.21 464.876,278.064 466.695,280.978 468.566,282.478 470.448,279.442 472.281,278.981 474.091,279.352 475.848,281.154 477.614,281.475 479.362,287.178 
  481.105,291.829 482.874,292.59 484.687,293.903 486.492,296.734 488.283,296.103 490.165,297.892 492.042,300.556 493.958,302.615 495.921,306.249 497.904,306.522 
  499.892,310.004 501.928,309.06 503.994,311.639 505.999,314.702 508.022,315.741 510.093,318.284 512.098,319.847 514.187,320.416 516.347,322.381 518.498,324.674 
  520.735,325.629 522.968,326.404 525.272,327.751 527.529,330.032 529.891,331.744 532.402,332.377 534.956,333.493 537.588,334.738 540.332,337.212 543.249,337.332 
  546.229,338.253 549.511,339.481 552.761,341.28 555.908,343.524 558.952,344.519 562.057,347.028 564.913,347.487 567.822,349.377 570.806,349.46 573.815,350.566 
  576.573,351.923 579.354,353.508 580.315,354.272 
  "/>
<polygon clip-path="url(#clip9100)" points="
477.574,78.051 562.315,78.051 562.315,32.691 477.574,32.691 
  " fill="#ffffff" fill-opacity="1"/>
<polyline clip-path="url(#clip9100)" style="stroke:#000000; stroke-width:1; stroke-opacity:1; fill:none" points="
  477.574,78.051 562.315,78.051 562.315,32.691 477.574,32.691 477.574,78.051 
  "/>
<polyline clip-path="url(#clip9100)" style="stroke:#009af9; stroke-width:3; stroke-opacity:1; fill:none" points="
  483.574,47.811 519.574,47.811 
  "/>
<g clip-path="url(#clip9100)">
<text style="fill:#000000; fill-opacity:1; font-family:Arial,Helvetica Neue,Helvetica,sans-serif; font-size:12; text-anchor:start;" transform="rotate(0, 525.574, 52.311)" x="525.574" y="52.311">u1(t)</text>
</g>
<polyline clip-path="url(#clip9100)" style="stroke:#e26f46; stroke-width:3; stroke-opacity:1; fill:none" points="
  483.574,62.931 519.574,62.931 
  "/>
<g clip-path="url(#clip9100)">
<text style="fill:#000000; fill-opacity:1; font-family:Arial,Helvetica Neue,Helvetica,sans-serif; font-size:12; text-anchor:start;" transform="rotate(0, 525.574, 67.431)" x="525.574" y="67.431">u2(t)</text>
</g>
</svg>
