<?xml version="1.0" encoding="utf-8"?>
<svg xmlns="http://www.w3.org/2000/svg" xmlns:xlink="http://www.w3.org/1999/xlink" width="600" height="400" viewBox="0 0 600 400">
<defs>
  <clipPath id="clip0100">
    <rect x="0" y="0" width="600" height="400"/>
  </clipPath>
</defs>
<polygon clip-path="url(#clip0100)" points="
0,400 600,400 600,0 0,0 
  " fill="#ffffff" fill-opacity="1"/>
<defs>
  <clipPath id="clip0101">
    <rect x="120" y="0" width="421" height="400"/>
  </clipPath>
</defs>
<polygon clip-path="url(#clip0100)" points="
32.4745,375.869 580.315,375.869 580.315,31.4961 32.4745,31.4961 
  " fill="#ffffff" fill-opacity="1"/>
<defs>
  <clipPath id="clip0102">
    <rect x="32" y="31" width="549" height="345"/>
  </clipPath>
</defs>
<polyline clip-path="url(#clip0102)" style="stroke:#000000; stroke-width:0.5; stroke-opacity:0.1; fill:none" points="
  100.284,375.869 100.284,31.4961 
  "/>
<polyline clip-path="url(#clip0102)" style="stroke:#000000; stroke-width:0.5; stroke-opacity:0.1; fill:none" points="
  173.371,375.869 173.371,31.4961 
  "/>
<polyline clip-path="url(#clip0102)" style="stroke:#000000; stroke-width:0.5; stroke-opacity:0.1; fill:none" points="
  246.457,375.869 246.457,31.4961 
  "/>
<polyline clip-path="url(#clip0102)" style="stroke:#000000; stroke-width:0.5; stroke-opacity:0.1; fill:none" points="
  319.543,375.869 319.543,31.4961 
  "/>
<polyline clip-path="url(#clip0102)" style="stroke:#000000; stroke-width:0.5; stroke-opacity:0.1; fill:none" points="
  392.629,375.869 392.629,31.4961 
  "/>
<polyline clip-path="url(#clip0102)" style="stroke:#000000; stroke-width:0.5; stroke-opacity:0.1; fill:none" points="
  465.715,375.869 465.715,31.4961 
  "/>
<polyline clip-path="url(#clip0102)" style="stroke:#000000; stroke-width:0.5; stroke-opacity:0.1; fill:none" points="
  538.801,375.869 538.801,31.4961 
  "/>
<polyline clip-path="url(#clip0102)" style="stroke:#000000; stroke-width:0.5; stroke-opacity:0.1; fill:none" points="
  32.4745,373.954 580.315,373.954 
  "/>
<polyline clip-path="url(#clip0102)" style="stroke:#000000; stroke-width:0.5; stroke-opacity:0.1; fill:none" points="
  32.4745,290.72 580.315,290.72 
  "/>
<polyline clip-path="url(#clip0102)" style="stroke:#000000; stroke-width:0.5; stroke-opacity:0.1; fill:none" points="
  32.4745,207.487 580.315,207.487 
  "/>
<polyline clip-path="url(#clip0102)" style="stroke:#000000; stroke-width:0.5; stroke-opacity:0.1; fill:none" points="
  32.4745,124.253 580.315,124.253 
  "/>
<polyline clip-path="url(#clip0102)" style="stroke:#000000; stroke-width:0.5; stroke-opacity:0.1; fill:none" points="
  32.4745,41.0189 580.315,41.0189 
  "/>
<polyline clip-path="url(#clip0100)" style="stroke:#000000; stroke-width:1; stroke-opacity:1; fill:none" points="
  32.4745,375.869 580.315,375.869 
  "/>
<polyline clip-path="url(#clip0100)" style="stroke:#000000; stroke-width:1; stroke-opacity:1; fill:none" points="
  32.4745,375.869 32.4745,31.4961 
  "/>
<polyline clip-path="url(#clip0100)" style="stroke:#000000; stroke-width:1; stroke-opacity:1; fill:none" points="
  100.284,375.869 100.284,370.703 
  "/>
<polyline clip-path="url(#clip0100)" style="stroke:#000000; stroke-width:1; stroke-opacity:1; fill:none" points="
  173.371,375.869 173.371,370.703 
  "/>
<polyline clip-path="url(#clip0100)" style="stroke:#000000; stroke-width:1; stroke-opacity:1; fill:none" points="
  246.457,375.869 246.457,370.703 
  "/>
<polyline clip-path="url(#clip0100)" style="stroke:#000000; stroke-width:1; stroke-opacity:1; fill:none" points="
  319.543,375.869 319.543,370.703 
  "/>
<polyline clip-path="url(#clip0100)" style="stroke:#000000; stroke-width:1; stroke-opacity:1; fill:none" points="
  392.629,375.869 392.629,370.703 
  "/>
<polyline clip-path="url(#clip0100)" style="stroke:#000000; stroke-width:1; stroke-opacity:1; fill:none" points="
  465.715,375.869 465.715,370.703 
  "/>
<polyline clip-path="url(#clip0100)" style="stroke:#000000; stroke-width:1; stroke-opacity:1; fill:none" points="
  538.801,375.869 538.801,370.703 
  "/>
<polyline clip-path="url(#clip0100)" style="stroke:#000000; stroke-width:1; stroke-opacity:1; fill:none" points="
  32.4745,373.954 40.6921,373.954 
  "/>
<polyline clip-path="url(#clip0100)" style="stroke:#000000; stroke-width:1; stroke-opacity:1; fill:none" points="
  32.4745,290.72 40.6921,290.72 
  "/>
<polyline clip-path="url(#clip0100)" style="stroke:#000000; stroke-width:1; stroke-opacity:1; fill:none" points="
  32.4745,207.487 40.6921,207.487 
  "/>
<polyline clip-path="url(#clip0100)" style="stroke:#000000; stroke-width:1; stroke-opacity:1; fill:none" points="
  32.4745,124.253 40.6921,124.253 
  "/>
<polyline clip-path="url(#clip0100)" style="stroke:#000000; stroke-width:1; stroke-opacity:1; fill:none" points="
  32.4745,41.0189 40.6921,41.0189 
  "/>
<g clip-path="url(#clip0100)">
<text style="fill:#000000; fill-opacity:1; font-family:Arial,Helvetica Neue,Helvetica,sans-serif; font-size:12; text-anchor:middle;" transform="rotate(0, 100.284, 389.669)" x="100.284" y="389.669">0.75</text>
</g>
<g clip-path="url(#clip0100)">
<text style="fill:#000000; fill-opacity:1; font-family:Arial,Helvetica Neue,Helvetica,sans-serif; font-size:12; text-anchor:middle;" transform="rotate(0, 173.371, 389.669)" x="173.371" y="389.669">1.00</text>
</g>
<g clip-path="url(#clip0100)">
<text style="fill:#000000; fill-opacity:1; font-family:Arial,Helvetica Neue,Helvetica,sans-serif; font-size:12; text-anchor:middle;" transform="rotate(0, 246.457, 389.669)" x="246.457" y="389.669">1.25</text>
</g>
<g clip-path="url(#clip0100)">
<text style="fill:#000000; fill-opacity:1; font-family:Arial,Helvetica Neue,Helvetica,sans-serif; font-size:12; text-anchor:middle;" transform="rotate(0, 319.543, 389.669)" x="319.543" y="389.669">1.50</text>
</g>
<g clip-path="url(#clip0100)">
<text style="fill:#000000; fill-opacity:1; font-family:Arial,Helvetica Neue,Helvetica,sans-serif; font-size:12; text-anchor:middle;" transform="rotate(0, 392.629, 389.669)" x="392.629" y="389.669">1.75</text>
</g>
<g clip-path="url(#clip0100)">
<text style="fill:#000000; fill-opacity:1; font-family:Arial,Helvetica Neue,Helvetica,sans-serif; font-size:12; text-anchor:middle;" transform="rotate(0, 465.715, 389.669)" x="465.715" y="389.669">2.00</text>
</g>
<g clip-path="url(#clip0100)">
<text style="fill:#000000; fill-opacity:1; font-family:Arial,Helvetica Neue,Helvetica,sans-serif; font-size:12; text-anchor:middle;" transform="rotate(0, 538.801, 389.669)" x="538.801" y="389.669">2.25</text>
</g>
<g clip-path="url(#clip0100)">
<text style="fill:#000000; fill-opacity:1; font-family:Arial,Helvetica Neue,Helvetica,sans-serif; font-size:12; text-anchor:end;" transform="rotate(0, 26.4745, 378.454)" x="26.4745" y="378.454">0.2</text>
</g>
<g clip-path="url(#clip0100)">
<text style="fill:#000000; fill-opacity:1; font-family:Arial,Helvetica Neue,Helvetica,sans-serif; font-size:12; text-anchor:end;" transform="rotate(0, 26.4745, 295.22)" x="26.4745" y="295.22">0.4</text>
</g>
<g clip-path="url(#clip0100)">
<text style="fill:#000000; fill-opacity:1; font-family:Arial,Helvetica Neue,Helvetica,sans-serif; font-size:12; text-anchor:end;" transform="rotate(0, 26.4745, 211.987)" x="26.4745" y="211.987">0.6</text>
</g>
<g clip-path="url(#clip0100)">
<text style="fill:#000000; fill-opacity:1; font-family:Arial,Helvetica Neue,Helvetica,sans-serif; font-size:12; text-anchor:end;" transform="rotate(0, 26.4745, 128.753)" x="26.4745" y="128.753">0.8</text>
</g>
<g clip-path="url(#clip0100)">
<text style="fill:#000000; fill-opacity:1; font-family:Arial,Helvetica Neue,Helvetica,sans-serif; font-size:12; text-anchor:end;" transform="rotate(0, 26.4745, 45.5189)" x="26.4745" y="45.5189">1.0</text>
</g>
<g clip-path="url(#clip0100)">
<text style="fill:#000000; fill-opacity:1; font-family:Arial,Helvetica Neue,Helvetica,sans-serif; font-size:21; text-anchor:middle;" transform="rotate(0, 306.395, 18)" x="306.395" y="18">Phase Diagram</text>
</g>
<polyline clip-path="url(#clip0102)" style="stroke:#009af9; stroke-width:3; stroke-opacity:1; fill:none" points="
  173.371,41.0189 170.466,42.0849 167.606,43.1993 164.789,44.3609 162.016,45.5684 159.286,46.8207 156.6,48.1166 153.958,49.4549 151.358,50.8345 148.801,52.2541 
  146.286,53.7125 143.814,55.2085 141.384,56.7411 138.996,58.3089 136.649,59.9109 134.343,61.5458 132.077,63.2125 129.852,64.9099 127.668,66.6367 125.522,68.392 
  123.416,70.1747 121.349,71.9835 119.321,73.8175 117.33,75.6756 115.378,77.5567 113.462,79.4599 111.584,81.384 109.742,83.3281 107.936,85.2912 106.166,87.2723 
  104.43,89.2704 102.73,91.2846 101.064,93.314 99.4321,95.3577 97.8336,97.4148 96.2681,99.4845 94.7352,101.566 93.2345,103.658 91.7656,105.76 90.328,107.872 
  88.9214,109.991 87.5453,112.119 86.1994,114.253 84.8831,116.394 83.5962,118.54 82.3382,120.691 81.1087,122.846 79.9074,125.005 78.7339,127.166 77.5877,129.33 
  76.4685,131.495 75.3759,133.661 74.3097,135.828 73.2693,137.995 72.2544,140.16 71.2648,142.325 70.2999,144.488 69.3596,146.649 68.4434,148.807 67.551,150.962 
  66.682,153.113 65.8363,155.26 65.0133,157.403 64.2129,159.541 63.4347,161.674 62.6784,163.801 61.9438,165.922 61.2305,168.037 60.5382,170.145 59.8667,172.246 
  59.2157,174.34 58.5849,176.426 57.9741,178.504 57.3829,180.573 56.8112,182.635 56.2587,184.687 55.7251,186.73 55.2103,188.764 54.7139,190.789 54.2357,192.804 
  53.7755,194.808 53.3332,196.803 52.9084,198.787 52.501,200.761 52.1107,202.723 51.7374,204.675 51.3808,206.616 51.0409,208.546 50.7173,210.464 50.4099,212.371 
  50.1186,214.266 49.8431,216.149 49.5832,218.021 49.3389,219.88 49.1098,221.728 48.896,223.563 48.6972,225.386 48.5132,227.197 48.344,228.995 48.1894,230.781 
  48.0493,232.555 47.9234,234.315 47.8118,236.064 47.7142,237.799 47.6305,239.522 47.5606,241.231 47.5044,242.928 47.4617,244.613 47.4325,246.284 47.4166,247.942 
  47.414,249.587 47.4244,251.22 47.4479,252.839 47.4843,254.445 47.5335,256.039 47.5954,257.619 47.67,259.186 47.7571,260.74 47.8566,262.282 47.9686,263.81 
  48.0928,265.325 48.2292,266.827 48.3778,268.317 48.5385,269.793 48.7112,271.257 48.8958,272.708 49.0924,274.146 49.3007,275.571 49.5208,276.984 49.7526,278.383 
  49.996,279.77 50.251,281.145 50.5175,282.507 50.7956,283.856 51.085,285.193 51.3859,286.517 51.6981,287.829 52.0216,289.129 52.3564,290.416 52.7025,291.691 
  53.0598,292.954 53.4282,294.204 53.8078,295.443 54.1985,296.669 54.6003,297.884 55.0132,299.087 55.4371,300.277 55.872,301.456 56.3178,302.623 56.7747,303.779 
  57.2425,304.922 57.7212,306.055 58.2108,307.175 58.7112,308.284 59.2226,309.382 59.7448,310.469 60.2779,311.544 60.8218,312.608 61.3765,313.66 61.9421,314.702 
  62.5184,315.733 63.1056,316.752 63.7035,317.761 64.3123,318.759 64.9319,319.746 65.5623,320.723 66.2034,321.688 66.8554,322.644 67.5182,323.588 68.1919,324.523 
  68.8763,325.447 69.5716,326.36 70.2778,327.264 70.9948,328.157 71.7226,329.041 72.4613,329.914 73.2108,330.777 73.9712,331.63 74.7425,332.473 75.5248,333.307 
  76.318,334.131 77.1221,334.945 77.9373,335.75 78.7634,336.545 79.6006,337.33 80.4488,338.106 81.3081,338.873 82.1785,339.631 83.06,340.379 83.9527,341.118 
  84.8565,341.848 85.7715,342.569 86.6977,343.282 87.6351,343.985 88.5838,344.679 89.5438,345.364 90.5152,346.041 91.4978,346.709 92.4919,347.368 93.4973,348.019 
  94.5142,348.661 95.5425,349.295 96.5823,349.92 97.6336,350.537 98.6964,351.146 99.7709,351.746 100.857,352.338 101.955,352.922 103.064,353.497 104.185,354.065 
  105.318,354.625 106.462,355.176 107.619,355.72 108.787,356.255 109.967,356.783 111.159,357.303 112.362,357.815 113.578,358.319 114.806,358.816 116.046,359.305 
  117.298,359.786 118.562,360.26 119.838,360.726 121.127,361.185 122.427,361.636 123.74,362.08 125.065,362.516 126.403,362.945 127.753,363.367 129.115,363.781 
  130.49,364.188 131.877,364.588 133.277,364.98 134.689,365.366 136.114,365.744 137.55,366.115 139,366.478 140.462,366.835 141.937,367.184 143.424,367.527 
  144.924,367.862 146.437,368.19 147.963,368.511 149.502,368.826 151.053,369.133 152.618,369.434 154.196,369.727 155.787,370.014 157.391,370.294 159.008,370.567 
  160.638,370.833 162.282,371.093 163.939,371.345 165.609,371.591 167.292,371.83 168.989,372.062 170.699,372.288 172.423,372.506 174.16,372.718 175.91,372.923 
  177.674,373.121 179.451,373.313 181.242,373.498 183.046,373.676 184.864,373.847 186.695,374.011 188.539,374.169 190.397,374.32 192.269,374.463 194.154,374.6 
  196.052,374.731 197.964,374.854 199.889,374.97 201.828,375.08 203.78,375.182 205.745,375.277 207.724,375.366 209.716,375.447 211.722,375.522 213.741,375.589 
  215.773,375.649 217.818,375.702 219.876,375.748 221.948,375.786 224.033,375.817 226.131,375.841 228.242,375.858 230.366,375.867 232.502,375.869 234.652,375.863 
  236.815,375.85 238.99,375.829 241.179,375.8 243.38,375.764 245.593,375.72 247.819,375.668 250.058,375.608 252.309,375.541 254.573,375.465 256.849,375.381 
  259.137,375.29 261.437,375.19 263.75,375.082 266.074,374.965 268.411,374.84 270.759,374.707 273.119,374.565 275.491,374.415 277.874,374.256 280.269,374.088 
  282.674,373.911 285.089,373.725 287.515,373.53 289.951,373.325 292.397,373.111 294.853,372.887 297.319,372.654 299.795,372.411 302.281,372.159 304.777,371.897 
  307.281,371.624 309.796,371.342 312.319,371.049 314.851,370.746 317.392,370.432 319.941,370.108 322.499,369.774 325.064,369.428 327.637,369.071 330.218,368.703 
  332.806,368.324 335.4,367.934 338.001,367.531 340.609,367.117 343.222,366.691 345.84,366.253 348.464,365.803 351.092,365.34 353.725,364.864 356.362,364.376 
  359.002,363.875 361.645,363.36 364.291,362.832 366.939,362.29 369.588,361.734 372.239,361.164 374.89,360.58 377.542,359.982 380.193,359.368 382.843,358.74 
  385.492,358.096 388.139,357.437 390.783,356.762 393.424,356.072 396.06,355.365 398.693,354.641 401.32,353.901 403.942,353.144 406.557,352.369 409.165,351.578 
  411.765,350.768 414.357,349.94 416.94,349.094 419.512,348.229 422.074,347.345 424.625,346.441 427.163,345.519 429.688,344.576 432.2,343.613 434.697,342.63 
  437.178,341.625 439.643,340.6 442.091,339.553 444.521,338.484 446.933,337.393 449.324,336.28 451.695,335.144 454.044,333.984 456.371,332.801 458.674,331.594 
  460.953,330.363 463.207,329.107 465.436,327.827 467.641,326.522 469.822,325.192 471.976,323.837 474.101,322.455 476.195,321.046 478.258,319.61 480.286,318.147 
  482.278,316.655 484.234,315.134 486.15,313.584 488.025,312.004 489.858,310.395 491.648,308.755 493.392,307.084 495.089,305.383 496.738,303.65 498.337,301.885 
  499.884,300.089 501.38,298.261 502.821,296.401 504.207,294.508 505.536,292.583 506.807,290.625 508.02,288.635 509.172,286.612 510.262,284.556 511.289,282.468 
  512.253,280.347 513.152,278.193 513.984,276.006 514.749,273.787 515.447,271.536 516.074,269.252 516.632,266.937 517.119,264.589 517.534,262.21 517.875,259.799 
  518.143,257.357 518.336,254.885 518.454,252.381 518.496,249.848 518.461,247.285 518.348,244.692 518.156,242.07 517.886,239.42 517.536,236.742 517.106,234.036 
  516.594,231.302 516.002,228.543 515.327,225.757 514.57,222.946 513.73,220.111 512.807,217.251 511.8,214.367 510.709,211.461 509.533,208.533 508.272,205.584 
  506.927,202.614 505.495,199.625 503.979,196.616 502.376,193.59 500.687,190.546 498.912,187.486 497.051,184.411 495.103,181.321 493.068,178.218 490.947,175.103 
  488.74,171.976 486.445,168.838 484.064,165.692 481.598,162.54 479.049,159.384 476.417,156.226 473.706,153.068 470.917,149.914 468.051,146.764 465.112,143.622 
  462.1,140.489 459.018,137.367 455.867,134.259 452.65,131.166 449.368,128.091 446.023,125.036 442.618,122.002 439.154,118.991 435.633,116.006 432.058,113.048 
  428.429,110.119 424.75,107.221 421.023,104.355 417.249,101.524 413.43,98.7287 409.569,95.9714 405.667,93.2535 401.728,90.5767 397.752,87.9425 393.742,85.3526 
  389.7,82.8084 385.628,80.3116 381.529,77.8635 377.404,75.4656 373.256,73.1194 369.086,70.8262 364.898,68.5874 360.694,66.4044 356.474,64.2784 352.243,62.2107 
  348.002,60.2025 343.753,58.2551 339.498,56.3697 335.241,54.5473 330.982,52.7892 326.725,51.0964 322.472,49.47 318.225,47.911 313.986,46.4204 309.759,44.9993 
  305.544,43.6485 301.345,42.3689 297.164,41.1615 293.004,40.0271 288.866,38.9666 284.753,37.9805 280.664,37.0663 276.6,36.2227 272.56,35.4495 268.548,34.7464 
  264.563,34.1131 260.608,33.5494 256.682,33.0548 252.788,32.629 248.926,32.2717 245.098,31.9824 241.304,31.7606 237.545,31.606 233.822,31.518 230.137,31.4961 
  226.489,31.5397 222.88,31.6483 219.31,31.8212 215.78,32.058 212.291,32.3578 208.843,32.72 205.437,33.144 202.074,33.6289 198.753,34.174 195.476,34.7786 
  192.242,35.4418 189.053,36.1628 185.908,36.9408 182.807,37.7747 179.752,38.6638 176.742,39.6071 173.778,40.6036 170.858,41.6523 167.985,42.7522 165.157,43.9023 
  162.375,45.1014 159.639,46.3485 156.948,47.6424 154.302,48.9821 151.702,50.3662 149.147,51.7937 146.637,53.2632 144.171,54.7736 141.75,56.3235 139.373,57.9116 
  137.039,59.5366 134.749,61.1971 132.501,62.8917 130.295,64.6191 128.131,66.3777 126.008,68.1661 123.925,69.9828 121.882,71.8263 119.878,73.695 117.913,75.5874 
  115.984,77.5018 114.093,79.4367 112.237,81.3903 110.416,83.361 108.629,85.3471 106.874,87.3469 105.152,89.3585 103.46,91.3803 101.798,93.4103 100.165,95.4468 
  98.562,97.4921 96.9922,99.55 95.4551,101.62 93.9503,103.701 92.4774,105.792 91.0359,107.892 89.6254,110.001 88.2455,112.118 86.8956,114.242 85.5755,116.373 
  84.2847,118.509 83.0227,120.651 81.7892,122.797 80.5838,124.946 79.4061,127.099 78.2557,129.254 77.1322,131.411 76.0353,133.569 74.9645,135.728 73.9196,137.887 
  72.9001,140.046 71.9057,142.203 70.9361,144.359 69.9909,146.513 69.0697,148.664 68.1724,150.812 67.2984,152.957 66.4476,155.098 65.6195,157.234 64.814,159.366 
  64.0306,161.492 63.2691,163.613 62.5293,165.728 61.8107,167.836 61.1132,169.938 60.4365,172.032 59.7803,174.119 59.1443,176.199 58.5283,178.271 57.932,180.334 
  57.3552,182.389 56.7977,184.435 56.2592,186.472 55.7394,188.5 55.2383,190.519 54.7555,192.528 54.2908,194.527 53.8441,196.517 53.4151,198.496 53.0037,200.466 
  52.6096,202.425 52.2327,204.373 51.8725,206.311 51.5288,208.238 51.2014,210.153 50.8901,212.056 50.5948,213.948 50.3152,215.829 50.0514,217.697 49.803,219.554 
  49.5699,221.398 49.352,223.231 49.1493,225.051 48.9614,226.86 48.7883,228.656 48.6298,230.44 48.4858,232.211 48.3563,233.97 48.2409,235.717 48.1397,237.451 
  48.0525,239.172 47.9791,240.881 47.9195,242.577 47.8735,244.261 47.8411,245.931 47.822,247.589 47.8163,249.235 47.8238,250.867 47.8443,252.486 47.8779,254.093 
  47.9243,255.686 47.9835,257.267 48.0554,258.835 48.1399,260.39 48.237,261.932 48.3464,263.461 48.4682,264.977 48.6023,266.48 48.7486,267.97 48.9069,269.447 
  49.0773,270.911 49.2597,272.363 49.4539,273.801 49.66,275.227 49.8778,276.639 50.1073,278.039 50.3484,279.427 50.6011,280.801 50.8654,282.163 51.1411,283.512 
  51.4282,284.848 51.7267,286.172 52.0366,287.484 52.3577,288.782 52.69,290.069 53.0336,291.343 53.3884,292.605 53.7542,293.854 54.1312,295.092 54.5193,296.317 
  54.9184,297.53 55.3286,298.732 55.7498,299.921 56.182,301.099 56.6251,302.265 57.0792,303.419 57.5443,304.562 58.0204,305.694 58.5073,306.814 59.0052,307.923 
  59.5141,309.021 60.0339,310.107 60.5646,311.183 61.1062,312.248 61.6584,313.301 62.2215,314.344 62.7954,315.375 63.38,316.395 63.9755,317.405 64.5817,318.404 
  65.1987,319.391 65.8266,320.369 66.4652,321.335 67.1147,322.291 67.775,323.237 68.4461,324.172 69.1281,325.097 69.821,326.011 70.5247,326.916 71.2393,327.81 
  71.9648,328.694 72.7012,329.568 73.4485,330.432 74.2067,331.287 74.9759,332.131 75.756,332.966 76.5472,333.791 77.3493,334.606 78.1624,335.412 78.9865,336.208 
  79.8217,336.995 80.6679,337.773 81.5252,338.541 82.3936,339.3 83.2731,340.049 84.1637,340.79 85.0655,341.521 85.9785,342.243 86.9027,342.957 87.8381,343.661 
  88.7848,344.357 89.7427,345.043 90.7119,345.721 91.6925,346.39 92.6844,347.051 93.6877,347.703 94.7023,348.346 95.7284,348.981 96.766,349.607 97.815,350.225 
  98.8756,350.835 99.9477,351.436 101.031,352.029 102.127,352.614 103.234,353.191 104.352,353.759 105.482,354.32 106.625,354.872 107.778,355.417 108.944,355.953 
  110.121,356.482 111.311,357.003 112.512,357.516 113.725,358.021 114.95,358.518 116.188,359.008 117.437,359.49 118.698,359.965 119.972,360.432 121.258,360.891 
  122.556,361.344 123.866,361.788 125.188,362.225 126.521,362.654 127.865,363.075 129.222,363.489 130.589,363.895 131.969,364.293 133.361,364.684 134.764,365.067 
  136.18,365.443 137.608,365.812 139.048,366.173 140.501,366.527 141.966,366.874 143.444,367.214 144.935,367.547 146.438,367.873 147.954,368.191 149.483,368.503 
  151.026,368.808 152.581,369.105 154.15,369.396 155.732,369.681 157.327,369.958 158.935,370.228 160.557,370.492 162.193,370.749 163.842,371 165.504,371.243 
  167.18,371.48 168.87,371.711 170.573,371.934 172.291,372.151 174.021,372.362 175.766,372.566 177.525,372.763 179.297,372.953 181.083,373.137 182.883,373.315 
  184.697,373.485 186.524,373.649 188.366,373.807 190.221,373.958 192.09,374.102 193.973,374.239 195.87,374.37 197.78,374.494 199.705,374.611 201.643,374.722 
  203.595,374.826 205.56,374.923 207.539,375.013 209.532,375.096 211.538,375.173 213.558,375.242 215.592,375.305 217.639,375.36 219.699,375.409 221.773,375.45 
  223.86,375.484 225.96,375.512 228.073,375.531 230.199,375.544 232.339,375.549 234.491,375.547 236.656,375.537 238.834,375.52 241.025,375.496 243.228,375.463 
  245.443,375.423 247.671,375.376 249.912,375.32 252.164,375.257 254.429,375.185 256.705,375.106 258.994,375.018 261.294,374.922 263.606,374.818 265.929,374.705 
  268.264,374.584 270.609,374.455 272.966,374.317 275.334,374.17 277.713,374.014 280.102,373.849 282.502,373.676 284.912,373.493 287.333,373.301 289.763,373.099 
  292.204,372.888 294.654,372.668 297.114,372.438 299.583,372.198 302.061,371.949 304.548,371.689 307.044,371.419 309.549,371.139 312.062,370.848 314.584,370.548 
  317.114,370.236 319.651,369.914 322.196,369.58 324.749,369.236 327.309,368.881 329.876,368.514 332.45,368.136 335.03,367.747 337.617,367.345 340.21,366.932 
  342.809,366.507 345.414,366.07 348.024,365.62 350.639,365.158 353.26,364.683 355.885,364.196 358.514,363.695 361.148,363.182 363.786,362.657 366.429,362.119 
  369.074,361.569 371.722,361.005 374.372,360.428 377.024,359.837 379.676,359.232 382.327,358.611 384.979,357.976 387.628,357.326 390.275,356.659 392.92,355.976 
  395.561,355.277 398.197,354.561 400.828,353.828 403.453,353.077 406.072,352.308 408.683,351.52 411.286,350.714 413.88,349.889 416.464,349.045 419.037,348.181 
  421.599,347.297 424.148,346.393 426.684,345.468 429.206,344.522 431.714,343.555 434.205,342.566 436.68,341.556 439.137,340.523 441.576,339.468 443.995,338.39 
  446.394,337.289 448.772,336.165 451.128,335.017 453.461,333.846 455.769,332.65 458.053,331.43 460.31,330.185 462.54,328.915 464.743,327.62 466.916,326.3 
  469.06,324.954 471.172,323.582 473.253,322.184 475.3,320.759 477.313,319.308 479.291,317.83 481.232,316.325 483.137,314.792 485.002,313.232 486.828,311.644 
  488.614,310.028 490.357,308.384 492.058,306.712 493.715,305.011 495.326,303.281 496.891,301.522 498.409,299.734 499.878,297.917 501.297,296.07 502.665,294.193 
  503.981,292.287 505.243,290.35 506.45,288.383 507.602,286.386 508.696,284.358 509.732,282.3 510.709,280.211 511.624,278.09 512.477,275.939 513.267,273.756 
  513.991,271.542 514.65,269.296 515.241,267.018 515.764,264.709 516.216,262.368 516.597,259.995 516.905,257.589 517.139,255.151 517.298,252.681 517.38,250.179 
  517.383,247.643 517.307,245.075 517.149,242.475 516.909,239.841 516.586,237.175 516.181,234.479 515.693,231.754 515.122,229.001 514.467,226.22 513.728,223.412 
  512.904,220.578 511.995,217.719 510.999,214.835 509.918,211.927 508.75,208.997 507.496,206.044 506.154,203.071 504.726,200.078 503.212,197.066 501.611,194.037 
  499.923,190.991 498.15,187.93 496.29,184.855 494.346,181.767 492.317,178.668 490.204,175.559 488.007,172.442 485.727,169.317 483.365,166.187 480.923,163.053 
  478.4,159.917 475.798,156.781 473.118,153.645 470.362,150.512 467.53,147.383 464.623,144.261 461.644,141.148 458.594,138.044 455.474,134.953 452.286,131.876 
  
  "/>
<polygon clip-path="url(#clip0100)" points="
464.193,82.6161 562.315,82.6161 562.315,52.3761 464.193,52.3761 
  " fill="#ffffff" fill-opacity="1"/>
<polyline clip-path="url(#clip0100)" style="stroke:#000000; stroke-width:1; stroke-opacity:1; fill:none" points="
  464.193,82.6161 562.315,82.6161 562.315,52.3761 464.193,52.3761 464.193,82.6161 
  "/>
<polyline clip-path="url(#clip0100)" style="stroke:#009af9; stroke-width:3; stroke-opacity:1; fill:none" points="
  470.193,67.4961 506.193,67.4961 
  "/>
<g clip-path="url(#clip0100)">
<text style="fill:#000000; fill-opacity:1; font-family:Arial,Helvetica Neue,Helvetica,sans-serif; font-size:12; text-anchor:start;" transform="rotate(0, 512.193, 71.9961)" x="512.193" y="71.9961">(u1,u2)</text>
</g>
</svg>
