<?xml version="1.0" encoding="utf-8"?>
<svg xmlns="http://www.w3.org/2000/svg" xmlns:xlink="http://www.w3.org/1999/xlink" width="600" height="400" viewBox="0 0 600 400">
<defs>
  <clipPath id="clip0300">
    <rect x="0" y="0" width="600" height="400"/>
  </clipPath>
</defs>
<polygon clip-path="url(#clip0300)" points="
0,400 600,400 600,0 0,0 
  " fill="#ffffff" fill-opacity="1"/>
<defs>
  <clipPath id="clip0301">
    <rect x="120" y="0" width="421" height="400"/>
  </clipPath>
</defs>
<polygon clip-path="url(#clip0300)" points="
22.4386,360.121 580.315,360.121 580.315,11.811 22.4386,11.811 
  " fill="#ffffff" fill-opacity="1"/>
<defs>
  <clipPath id="clip0302">
    <rect x="22" y="11" width="559" height="349"/>
  </clipPath>
</defs>
<polyline clip-path="url(#clip0302)" style="stroke:#000000; stroke-width:0.5; stroke-opacity:0.1; fill:none" points="
  22.4386,360.121 22.4386,11.811 
  "/>
<polyline clip-path="url(#clip0302)" style="stroke:#000000; stroke-width:0.5; stroke-opacity:0.1; fill:none" points="
  134.014,360.121 134.014,11.811 
  "/>
<polyline clip-path="url(#clip0302)" style="stroke:#000000; stroke-width:0.5; stroke-opacity:0.1; fill:none" points="
  245.589,360.121 245.589,11.811 
  "/>
<polyline clip-path="url(#clip0302)" style="stroke:#000000; stroke-width:0.5; stroke-opacity:0.1; fill:none" points="
  357.164,360.121 357.164,11.811 
  "/>
<polyline clip-path="url(#clip0302)" style="stroke:#000000; stroke-width:0.5; stroke-opacity:0.1; fill:none" points="
  468.74,360.121 468.74,11.811 
  "/>
<polyline clip-path="url(#clip0302)" style="stroke:#000000; stroke-width:0.5; stroke-opacity:0.1; fill:none" points="
  580.315,360.121 580.315,11.811 
  "/>
<polyline clip-path="url(#clip0302)" style="stroke:#000000; stroke-width:0.5; stroke-opacity:0.1; fill:none" points="
  22.4386,299.942 580.315,299.942 
  "/>
<polyline clip-path="url(#clip0302)" style="stroke:#000000; stroke-width:0.5; stroke-opacity:0.1; fill:none" points="
  22.4386,237.831 580.315,237.831 
  "/>
<polyline clip-path="url(#clip0302)" style="stroke:#000000; stroke-width:0.5; stroke-opacity:0.1; fill:none" points="
  22.4386,175.72 580.315,175.72 
  "/>
<polyline clip-path="url(#clip0302)" style="stroke:#000000; stroke-width:0.5; stroke-opacity:0.1; fill:none" points="
  22.4386,113.609 580.315,113.609 
  "/>
<polyline clip-path="url(#clip0302)" style="stroke:#000000; stroke-width:0.5; stroke-opacity:0.1; fill:none" points="
  22.4386,51.4981 580.315,51.4981 
  "/>
<polyline clip-path="url(#clip0300)" style="stroke:#000000; stroke-width:1; stroke-opacity:1; fill:none" points="
  22.4386,360.121 580.315,360.121 
  "/>
<polyline clip-path="url(#clip0300)" style="stroke:#000000; stroke-width:1; stroke-opacity:1; fill:none" points="
  22.4386,360.121 22.4386,11.811 
  "/>
<polyline clip-path="url(#clip0300)" style="stroke:#000000; stroke-width:1; stroke-opacity:1; fill:none" points="
  22.4386,360.121 22.4386,354.896 
  "/>
<polyline clip-path="url(#clip0300)" style="stroke:#000000; stroke-width:1; stroke-opacity:1; fill:none" points="
  134.014,360.121 134.014,354.896 
  "/>
<polyline clip-path="url(#clip0300)" style="stroke:#000000; stroke-width:1; stroke-opacity:1; fill:none" points="
  245.589,360.121 245.589,354.896 
  "/>
<polyline clip-path="url(#clip0300)" style="stroke:#000000; stroke-width:1; stroke-opacity:1; fill:none" points="
  357.164,360.121 357.164,354.896 
  "/>
<polyline clip-path="url(#clip0300)" style="stroke:#000000; stroke-width:1; stroke-opacity:1; fill:none" points="
  468.74,360.121 468.74,354.896 
  "/>
<polyline clip-path="url(#clip0300)" style="stroke:#000000; stroke-width:1; stroke-opacity:1; fill:none" points="
  580.315,360.121 580.315,354.896 
  "/>
<polyline clip-path="url(#clip0300)" style="stroke:#000000; stroke-width:1; stroke-opacity:1; fill:none" points="
  22.4386,299.942 30.8068,299.942 
  "/>
<polyline clip-path="url(#clip0300)" style="stroke:#000000; stroke-width:1; stroke-opacity:1; fill:none" points="
  22.4386,237.831 30.8068,237.831 
  "/>
<polyline clip-path="url(#clip0300)" style="stroke:#000000; stroke-width:1; stroke-opacity:1; fill:none" points="
  22.4386,175.72 30.8068,175.72 
  "/>
<polyline clip-path="url(#clip0300)" style="stroke:#000000; stroke-width:1; stroke-opacity:1; fill:none" points="
  22.4386,113.609 30.8068,113.609 
  "/>
<polyline clip-path="url(#clip0300)" style="stroke:#000000; stroke-width:1; stroke-opacity:1; fill:none" points="
  22.4386,51.4981 30.8068,51.4981 
  "/>
<g clip-path="url(#clip0300)">
<text style="fill:#000000; fill-opacity:1; font-family:Arial,Helvetica Neue,Helvetica,sans-serif; font-size:12; text-anchor:middle;" transform="rotate(0, 22.4386, 373.921)" x="22.4386" y="373.921">0</text>
</g>
<g clip-path="url(#clip0300)">
<text style="fill:#000000; fill-opacity:1; font-family:Arial,Helvetica Neue,Helvetica,sans-serif; font-size:12; text-anchor:middle;" transform="rotate(0, 134.014, 373.921)" x="134.014" y="373.921">2</text>
</g>
<g clip-path="url(#clip0300)">
<text style="fill:#000000; fill-opacity:1; font-family:Arial,Helvetica Neue,Helvetica,sans-serif; font-size:12; text-anchor:middle;" transform="rotate(0, 245.589, 373.921)" x="245.589" y="373.921">4</text>
</g>
<g clip-path="url(#clip0300)">
<text style="fill:#000000; fill-opacity:1; font-family:Arial,Helvetica Neue,Helvetica,sans-serif; font-size:12; text-anchor:middle;" transform="rotate(0, 357.164, 373.921)" x="357.164" y="373.921">6</text>
</g>
<g clip-path="url(#clip0300)">
<text style="fill:#000000; fill-opacity:1; font-family:Arial,Helvetica Neue,Helvetica,sans-serif; font-size:12; text-anchor:middle;" transform="rotate(0, 468.74, 373.921)" x="468.74" y="373.921">8</text>
</g>
<g clip-path="url(#clip0300)">
<text style="fill:#000000; fill-opacity:1; font-family:Arial,Helvetica Neue,Helvetica,sans-serif; font-size:12; text-anchor:middle;" transform="rotate(0, 580.315, 373.921)" x="580.315" y="373.921">10</text>
</g>
<g clip-path="url(#clip0300)">
<text style="fill:#000000; fill-opacity:1; font-family:Arial,Helvetica Neue,Helvetica,sans-serif; font-size:12; text-anchor:end;" transform="rotate(0, 16.4386, 304.442)" x="16.4386" y="304.442">1</text>
</g>
<g clip-path="url(#clip0300)">
<text style="fill:#000000; fill-opacity:1; font-family:Arial,Helvetica Neue,Helvetica,sans-serif; font-size:12; text-anchor:end;" transform="rotate(0, 16.4386, 242.331)" x="16.4386" y="242.331">2</text>
</g>
<g clip-path="url(#clip0300)">
<text style="fill:#000000; fill-opacity:1; font-family:Arial,Helvetica Neue,Helvetica,sans-serif; font-size:12; text-anchor:end;" transform="rotate(0, 16.4386, 180.22)" x="16.4386" y="180.22">3</text>
</g>
<g clip-path="url(#clip0300)">
<text style="fill:#000000; fill-opacity:1; font-family:Arial,Helvetica Neue,Helvetica,sans-serif; font-size:12; text-anchor:end;" transform="rotate(0, 16.4386, 118.109)" x="16.4386" y="118.109">4</text>
</g>
<g clip-path="url(#clip0300)">
<text style="fill:#000000; fill-opacity:1; font-family:Arial,Helvetica Neue,Helvetica,sans-serif; font-size:12; text-anchor:end;" transform="rotate(0, 16.4386, 55.9981)" x="16.4386" y="55.9981">5</text>
</g>
<g clip-path="url(#clip0300)">
<text style="fill:#000000; fill-opacity:1; font-family:Arial,Helvetica Neue,Helvetica,sans-serif; font-size:16; text-anchor:middle;" transform="rotate(0, 301.377, 397.6)" x="301.377" y="397.6">t</text>
</g>
<polyline clip-path="url(#clip0302)" style="stroke:#009af9; stroke-width:3; stroke-opacity:1; fill:none" points="
  22.4386,299.942 24.7837,306.484 25.2528,308.12 25.7804,307.208 26.374,306.075 27.0418,302.649 27.7931,300.704 28.6271,297.978 29.5526,303.769 30.5178,303.937 
  31.5878,298.794 32.7446,299.162 33.9248,303.532 35.1321,304.546 36.3692,310.079 37.6732,315.08 38.9654,314.773 40.347,310.572 41.7851,316.676 43.1801,314.999 
  44.6587,315.979 46.1449,318.279 47.6394,313.261 49.2312,309.628 50.8088,309.993 52.4793,302.147 54.2366,305.554 55.904,304.518 57.597,297.062 59.4135,293.65 
  61.1577,293.447 62.8661,293.809 64.6032,286.95 66.4033,298.165 68.0765,295.19 69.9165,296.273 71.7231,299.935 73.6074,304.026 75.551,302.119 77.5263,302.151 
  79.5351,306.462 81.5394,302.072 83.5548,311.695 85.4871,310.577 87.4987,314.101 89.5375,315.413 91.5844,315.221 93.6692,320.278 95.7296,322.584 97.7323,320.244 
  99.7956,325.023 101.839,329.26 103.87,330.268 105.828,330.05 107.852,333.001 109.835,333.738 111.824,331.973 113.854,333.486 115.918,338.59 117.958,340.162 
  119.981,343.174 121.955,342.975 123.94,342.808 125.939,341.49 127.961,339.289 130.056,336.696 132.197,339.832 134.441,340.163 136.654,340.815 138.942,338.128 
  141.226,334.396 143.671,331.792 146.211,330.493 148.764,331.261 151.425,328.894 154.097,332.575 156.773,331.307 159.501,332.146 162.232,332.594 164.964,326.974 
  167.856,321.095 170.726,319.62 173.516,317.459 176.35,300.443 179.195,280.576 182.007,282.548 184.414,291.503 186.841,283.525 189.454,290.435 191.646,267.798 
  194.111,259.421 196.295,253.253 198.487,240.337 200.671,225.382 202.781,225.014 204.707,217.409 206.649,236.903 208.462,257.163 210.437,253.373 212.603,241.803 
  214.785,249.835 216.841,231.761 219.115,253.014 221.151,241.77 223.441,231.469 225.528,224.235 227.543,208.102 229.435,201.229 231.203,224.563 232.845,233.565 
  234.688,222.649 236.443,205.741 238.048,204.442 239.499,197.772 240.879,191.997 242.135,193.196 243.287,219.695 244.416,220.427 245.592,233.26 246.728,234.954 
  247.922,253.024 249.106,249.725 250.42,251.009 251.656,251.208 252.915,248.666 254.152,253.095 255.365,246.733 256.621,261.939 257.773,271.3 258.986,274.413 
  260.194,279.078 261.437,281.853 262.687,280.466 263.952,284.934 265.178,295.669 266.412,299.496 267.678,305.424 268.95,314.177 270.199,311.958 271.534,315.719 
  272.822,315.85 274.131,321.412 275.449,320.565 276.807,320.38 278.162,321.808 279.54,325.879 280.9,323.953 282.295,324.092 283.671,326.252 285.109,328.586 
  286.544,328.428 288.017,332.746 289.48,334.296 290.96,332.225 292.47,332.943 294.035,330.455 295.644,330.17 297.319,330.942 299.019,329.66 300.778,326.302 
  302.576,325.476 304.511,335.267 306.384,335.697 308.295,339.912 310.146,342.28 311.996,343.584 313.858,343.489 315.698,342.774 317.594,344.246 319.521,344.581 
  321.418,343.519 323.347,343.21 325.32,341.767 327.326,344.506 329.354,343.232 331.429,344.269 333.579,343.526 335.72,341.479 337.976,343.473 340.244,341.796 
  342.573,343.585 344.94,341.146 347.392,337.066 349.918,332.378 352.45,327.219 355.167,324.318 357.865,323.231 360.546,321.872 363.239,312.966 366.087,311.459 
  368.682,315.84 371.287,313.28 373.907,322.123 376.314,325.616 378.808,322.978 381.397,321.342 383.886,315.795 386.494,318.058 388.808,320.834 391.208,318.741 
  393.687,307.567 396.257,298.66 398.667,286.723 401.106,281.3 403.372,276.871 405.519,278.835 407.583,276.458 409.653,267.845 411.743,240.031 413.875,248.659 
  415.653,226.308 417.64,228.238 419.34,212.697 421.136,213.157 422.766,228.563 424.378,212.73 426.101,230.146 427.644,210.518 429.38,207.511 430.936,227.914 
  432.506,222.2 434.19,204.132 435.839,189.969 437.374,191.639 438.83,177.977 440.27,196.444 441.62,209.334 443.048,212.02 444.494,225.013 445.986,219.466 
  447.558,216.62 449.048,186.37 450.494,161.097 451.685,158.465 452.777,135.778 453.669,114.591 454.39,99.7393 455.053,83.007 455.669,98.1867 456.23,90.0467 
  456.773,105.833 457.293,102.743 457.802,77.8322 458.284,90.5524 458.737,68.3323 459.179,41.5481 459.586,33.4465 459.962,49.2584 460.322,49.2128 460.669,42.6319 
  461.001,39.4193 461.322,27.2567 461.627,20.6787 461.92,45.7433 462.202,61.7848 462.487,67.2506 462.769,39.4637 463.049,22.9221 463.311,11.811 463.563,27.409 
  463.804,34.3467 464.046,55.5453 464.282,81.0883 464.521,87.9591 464.767,84.1138 465.012,82.39 465.255,85.4024 465.495,101.369 465.735,99.9875 465.981,98.9726 
  466.223,90.8422 466.465,105.024 466.703,101.018 466.945,101.99 467.182,99.4252 467.418,106.365 467.652,115.876 467.885,123.609 468.12,133.707 468.356,127.14 
  468.597,127.835 468.832,122.976 469.07,132.385 469.303,136.579 469.539,134.874 469.773,147.081 470.006,147.136 470.242,152.265 470.477,145.418 470.716,144.431 
  470.95,148.445 471.182,145.408 471.415,153.598 471.644,148.942 471.878,150.725 472.106,150.502 472.334,165.806 472.56,163.283 472.791,169.815 473.019,175.974 
  473.249,164.831 473.486,174.888 473.712,178.899 473.944,188.748 474.172,196.569 474.405,200.638 474.638,193.04 474.881,193.492 475.115,200.382 475.351,201.036 
  475.588,194.105 475.83,203.937 476.062,206.176 476.298,212.275 476.53,217.919 476.763,219.826 477.002,224.548 477.237,220.823 477.479,221.91 477.716,226.622 
  477.951,232.388 478.188,239.502 478.426,241.511 478.669,245.275 478.913,249.754 479.158,249.676 479.409,255.483 479.656,260.213 479.908,265.269 480.16,269.339 
  480.42,271.625 480.683,274.957 480.947,282.837 481.212,284.39 481.49,289.302 481.767,289.331 482.057,289.949 482.348,293.309 482.644,295.891 482.943,301.468 
  483.247,305.083 483.555,303.29 483.883,303.717 484.205,305.091 484.536,301.455 484.882,302.699 485.21,303.304 485.546,303.23 485.883,305.08 486.221,310.253 
  486.561,313.012 486.911,315.235 487.268,317.985 487.627,322.667 487.992,322.422 488.384,325.293 488.768,325.531 489.177,326.822 489.585,329.001 490.004,330.224 
  490.428,330.567 490.872,334.04 491.304,334.476 491.774,334.895 492.243,337.258 492.713,339.334 493.203,341.187 493.707,341.566 494.229,342.282 494.749,342.418 
  495.299,343.413 495.85,342.685 496.435,340.385 497.026,341.633 497.604,343.518 498.184,343.749 498.783,344.368 499.389,344.72 499.997,344.293 500.621,345.754 
  501.236,347.136 501.864,348.459 502.508,349.651 503.162,350.702 503.826,351.211 504.502,351.896 505.185,351.738 505.888,352.513 506.589,352.991 507.308,353.107 
  508.034,354.024 508.767,355.221 509.505,355.38 510.252,355.303 511.001,355.469 511.754,355.713 512.517,355.961 513.28,356.157 514.048,356.121 514.82,356.35 
  515.605,356.466 516.389,356.796 517.184,356.917 517.988,357.041 518.796,357.101 519.622,357.227 520.449,357.624 521.287,358.023 522.128,357.911 522.981,358.001 
  523.845,358.383 524.715,358.66 525.592,358.811 526.479,358.683 527.376,358.547 528.288,358.635 529.2,358.863 530.127,359.248 531.065,359.465 532.008,359.479 
  532.954,359.501 533.92,359.442 534.9,359.296 535.894,358.818 536.901,359.043 537.932,359.25 538.97,359.11 540.008,359.432 541.082,359.495 542.158,359.459 
  543.259,359.349 544.373,359.671 545.498,359.812 546.641,359.73 547.812,359.12 548.992,359.259 550.198,359.007 551.416,358.92 552.65,358.661 553.912,358.673 
  555.195,358.905 556.518,358.996 557.85,359.272 559.239,359.122 560.628,359.131 562.08,359.248 563.554,359.698 565.069,360.056 566.603,360.023 568.194,360.121 
  569.835,360.051 571.548,359.937 573.315,359.765 575.16,360.107 577.055,360.113 579.041,360.109 580.315,360.067 
  "/>
<polyline clip-path="url(#clip0302)" style="stroke:#e26f46; stroke-width:3; stroke-opacity:1; fill:none" points="
  22.4386,299.942 24.7837,301.598 25.2528,301.826 25.7804,302.512 26.374,302.132 27.0418,302.457 27.7931,303.51 28.6271,302.732 29.5526,302.59 30.5178,302.961 
  31.5878,302.791 32.7446,302.59 33.9248,302.893 35.1321,303.468 36.3692,304.115 37.6732,304.352 38.9654,305.487 40.347,305.36 41.7851,305.093 43.1801,305.475 
  44.6587,306.119 46.1449,305.864 47.6394,305.611 49.2312,306.859 50.8088,307.755 52.4793,307.727 54.2366,306.016 55.904,306.298 57.597,305.762 59.4135,305.121 
  61.1577,305.729 62.8661,306.293 64.6032,307.368 66.4033,307.698 68.0765,309.037 69.9165,308.741 71.7231,310.808 73.6074,310.287 75.551,311.288 77.5263,311.575 
  79.5351,311.055 81.5394,311.226 83.5548,310.871 85.4871,313.077 87.4987,313.402 89.5375,312.763 91.5844,313.333 93.6692,313.761 95.7296,315.097 97.7323,316.588 
  99.7956,317.124 101.839,316.683 103.87,319.242 105.828,320.628 107.852,322.537 109.835,324.635 111.824,325.447 113.854,326.521 115.918,327.845 117.958,328.479 
  119.981,330.475 121.955,331.848 123.94,333.243 125.939,334.474 127.961,335.541 130.056,336.908 132.197,337.565 134.441,338.465 136.654,339.218 138.942,340.898 
  141.226,341.677 143.671,341.818 146.211,342.805 148.764,343.222 151.425,343.743 154.097,344.177 156.773,345.406 159.501,346.341 162.232,347.067 164.964,347.847 
  167.856,348.066 170.726,348.117 173.516,348.586 176.35,349.019 179.195,349.318 182.007,349.537 184.414,349.33 186.841,349.365 189.454,349.471 191.646,349.396 
  194.111,348.49 196.295,347.949 198.487,347.255 200.671,346.574 202.781,345.55 204.707,345.191 206.649,344.67 208.462,343.72 210.437,343.14 212.603,342.451 
  214.785,341.851 216.841,341.061 219.115,340.354 221.151,339.332 223.441,338.111 225.528,337.382 227.543,335.674 229.435,333.369 231.203,332.726 232.845,331.303 
  234.688,329.121 236.443,327.723 238.048,325.971 239.499,324.512 240.879,321.503 242.135,319.417 243.287,317.247 244.416,316.159 245.592,315.325 246.728,314.202 
  247.922,313.549 249.106,311.422 250.42,310.36 251.656,308.808 252.915,308.176 254.152,308.376 255.365,306.272 256.621,304.723 257.773,301.923 258.986,302.78 
  260.194,301.305 261.437,300.394 262.687,299.816 263.952,299.875 265.178,299.788 266.412,298.207 267.678,298.531 268.95,299.19 270.199,299.529 271.534,298.774 
  272.822,299.847 274.131,300.754 275.449,300.483 276.807,300.793 278.162,301.885 279.54,301.445 280.9,302.837 282.295,305.029 283.671,305.852 285.109,307.685 
  286.544,307.855 288.017,309.914 289.48,312.385 290.96,315.365 292.47,317.081 294.035,318.43 295.644,318.689 297.319,319.756 299.019,320.233 300.778,321.982 
  302.576,322.711 304.511,324.168 306.384,324.168 308.295,326.223 310.146,328.2 311.996,329.103 313.858,330.548 315.698,331.495 317.594,331.203 319.521,332.28 
  321.418,333.301 323.347,334.316 325.32,335.296 327.326,337.095 329.354,338.301 331.429,338.602 333.579,339.881 335.72,340.272 337.976,341.178 340.244,342.026 
  342.573,342.973 344.94,343.367 347.392,343.968 349.918,345.566 352.45,346.33 355.167,346.828 357.865,347.932 360.546,348.845 363.239,348.915 366.087,348.847 
  368.682,349.581 371.287,349.917 373.907,350.387 376.314,350.597 378.808,350.725 381.397,351.478 383.886,351.697 386.494,352.041 388.808,352.385 391.208,352.316 
  393.687,352.222 396.257,352.261 398.667,352.075 401.106,351.823 403.372,351.922 405.519,351.477 407.583,351.275 409.653,351.34 411.743,351.198 413.875,350.806 
  415.653,350.45 417.64,350.281 419.34,349.714 421.136,349.051 422.766,348.544 424.378,348.566 426.101,348.162 427.644,347.334 429.38,346.096 430.936,345.148 
  432.506,344.701 434.19,343.763 435.839,342.427 437.374,341.503 438.83,340.374 440.27,339.253 441.62,337.751 443.048,336.622 444.494,335.359 445.986,334.591 
  447.558,333.761 449.048,331.215 450.494,328.499 451.685,327.239 452.777,324.501 453.669,322.463 454.39,321.31 455.053,319.703 455.669,318.264 456.23,317.725 
  456.773,316.435 457.293,315.119 457.802,314.115 458.284,312.526 458.737,311.306 459.179,309.44 459.586,307.174 459.962,304.179 460.322,303 460.669,301.803 
  461.001,299.708 461.322,297.741 461.627,295.234 461.92,293.866 462.202,291.868 462.487,290.252 462.769,287.965 463.049,285.116 463.311,282.806 463.563,281.065 
  463.804,278.529 464.046,276.663 464.282,275.537 464.521,273.482 464.767,271.975 465.012,270.08 465.255,268.119 465.495,267.029 465.735,265.701 465.981,264.167 
  466.223,262.983 466.465,261.042 466.703,258.74 466.945,256.736 467.182,255.629 467.418,253.51 467.652,251.721 467.885,250.774 468.12,250.046 468.356,248.523 
  468.597,247.113 468.832,246.086 469.07,244.858 469.303,241.945 469.539,241.406 469.773,239.041 470.006,239.367 470.242,237.55 470.477,237.34 470.716,235.482 
  470.95,233.126 471.182,232.926 471.415,231.654 471.644,230.233 471.878,229.434 472.106,228.838 472.334,227.175 472.56,227.026 472.791,225.651 473.019,224.639 
  473.249,223.679 473.486,222.913 473.712,220.163 473.944,219.879 474.172,218.469 474.405,218.366 474.638,216.854 474.881,216.614 475.115,215.712 475.351,215.421 
  475.588,213.103 475.83,209.759 476.062,208.272 476.298,207.49 476.53,207.897 476.763,205.601 477.002,204.422 477.237,203.43 477.479,202.729 477.716,202.834 
  477.951,201.504 478.188,201.224 478.426,201.486 478.669,200.726 478.913,201.071 479.158,200.06 479.409,198.103 479.656,198.247 479.908,198.632 480.16,199.413 
  480.42,197.681 480.683,197.485 480.947,198.964 481.212,199.5 481.49,199.088 481.767,199.696 482.057,200.873 482.348,199.643 482.644,199.627 482.943,199.699 
  483.247,200.214 483.555,199.204 483.883,201.141 484.205,199.765 484.536,196.715 484.882,196.204 485.21,197.181 485.546,199.063 485.883,200.773 486.221,201.412 
  486.561,202.986 486.911,200.12 487.268,199.62 487.627,203.563 487.992,204.361 488.384,205.647 488.768,204.898 489.177,203.065 489.585,203.109 490.004,204.115 
  490.428,205.664 490.872,208.1 491.304,207.955 491.774,207.812 492.243,208.14 492.713,209.796 493.203,211.915 493.707,211.581 494.229,216.135 494.749,216.552 
  495.299,219.584 495.85,218.063 496.435,218.492 497.026,217.102 497.604,217.103 498.184,218.699 498.783,219.423 499.389,220.542 499.997,220.8 500.621,222.903 
  501.236,228.078 501.864,228.951 502.508,231.744 503.162,231.986 503.826,234.971 504.502,239.44 505.185,240.868 505.888,243.118 506.589,244.254 507.308,245.148 
  508.034,246.657 508.767,246.377 509.505,246.488 510.252,248.195 511.001,251.215 511.754,251.309 512.517,253.022 513.28,255.58 514.048,260.616 514.82,261.578 
  515.605,265.148 516.389,268.17 517.184,270.95 517.988,274.434 518.796,276.044 519.622,277.737 520.449,279.841 521.287,282.056 522.128,284.483 522.981,285.928 
  523.845,287.698 524.715,289.595 525.592,291.47 526.479,293.262 527.376,293.707 528.288,295.841 529.2,297.621 530.127,298.38 531.065,299.785 532.008,302.49 
  532.954,304.628 533.92,306.1 534.9,307.178 535.894,309.15 536.901,309.943 537.932,310.402 538.97,312.999 540.008,313.84 541.082,315.391 542.158,316.318 
  543.259,317.353 544.373,318.932 545.498,320.509 546.641,321.085 547.812,321.745 548.992,322.365 550.198,323.386 551.416,324.979 552.65,326.441 553.912,328.053 
  555.195,328.985 556.518,330.57 557.85,331.153 559.239,333.043 560.628,333.767 562.08,334.893 563.554,335.801 565.069,337.595 566.603,338.944 568.194,340.419 
  569.835,341.535 571.548,342.66 573.315,343.595 575.16,344.747 577.055,345.692 579.041,346.419 580.315,346.871 
  "/>
<polygon clip-path="url(#clip0300)" points="
477.574,78.051 562.315,78.051 562.315,32.691 477.574,32.691 
  " fill="#ffffff" fill-opacity="1"/>
<polyline clip-path="url(#clip0300)" style="stroke:#000000; stroke-width:1; stroke-opacity:1; fill:none" points="
  477.574,78.051 562.315,78.051 562.315,32.691 477.574,32.691 477.574,78.051 
  "/>
<polyline clip-path="url(#clip0300)" style="stroke:#009af9; stroke-width:3; stroke-opacity:1; fill:none" points="
  483.574,47.811 519.574,47.811 
  "/>
<g clip-path="url(#clip0300)">
<text style="fill:#000000; fill-opacity:1; font-family:Arial,Helvetica Neue,Helvetica,sans-serif; font-size:12; text-anchor:start;" transform="rotate(0, 525.574, 52.311)" x="525.574" y="52.311">u1(t)</text>
</g>
<polyline clip-path="url(#clip0300)" style="stroke:#e26f46; stroke-width:3; stroke-opacity:1; fill:none" points="
  483.574,62.931 519.574,62.931 
  "/>
<g clip-path="url(#clip0300)">
<text style="fill:#000000; fill-opacity:1; font-family:Arial,Helvetica Neue,Helvetica,sans-serif; font-size:12; text-anchor:start;" transform="rotate(0, 525.574, 67.431)" x="525.574" y="67.431">u2(t)</text>
</g>
</svg>
