<?xml version="1.0" encoding="utf-8"?>
<svg xmlns="http://www.w3.org/2000/svg" xmlns:xlink="http://www.w3.org/1999/xlink" width="600" height="400" viewBox="0 0 600 400">
<defs>
  <clipPath id="clip0300">
    <rect x="0" y="0" width="600" height="400"/>
  </clipPath>
</defs>
<polygon clip-path="url(#clip0300)" points="
0,400 600,400 600,0 0,0 
  " fill="#ffffff" fill-opacity="1"/>
<defs>
  <clipPath id="clip0301">
    <rect x="120" y="0" width="421" height="400"/>
  </clipPath>
</defs>
<polygon clip-path="url(#clip0300)" points="
50.3844,375.869 580.315,375.869 580.315,11.811 50.3844,11.811 
  " fill="#ffffff" fill-opacity="1"/>
<defs>
  <clipPath id="clip0302">
    <rect x="50" y="11" width="531" height="365"/>
  </clipPath>
</defs>
<polyline clip-path="url(#clip0302)" style="stroke:#000000; stroke-width:0.5; stroke-opacity:0.1; fill:none" points="
  115.376,375.869 115.376,11.811 
  "/>
<polyline clip-path="url(#clip0302)" style="stroke:#000000; stroke-width:0.5; stroke-opacity:0.1; fill:none" points="
  215.363,375.869 215.363,11.811 
  "/>
<polyline clip-path="url(#clip0302)" style="stroke:#000000; stroke-width:0.5; stroke-opacity:0.1; fill:none" points="
  315.35,375.869 315.35,11.811 
  "/>
<polyline clip-path="url(#clip0302)" style="stroke:#000000; stroke-width:0.5; stroke-opacity:0.1; fill:none" points="
  415.337,375.869 415.337,11.811 
  "/>
<polyline clip-path="url(#clip0302)" style="stroke:#000000; stroke-width:0.5; stroke-opacity:0.1; fill:none" points="
  515.323,375.869 515.323,11.811 
  "/>
<polyline clip-path="url(#clip0302)" style="stroke:#000000; stroke-width:0.5; stroke-opacity:0.1; fill:none" points="
  50.3844,365.239 580.315,365.239 
  "/>
<polyline clip-path="url(#clip0302)" style="stroke:#000000; stroke-width:0.5; stroke-opacity:0.1; fill:none" points="
  50.3844,256.483 580.315,256.483 
  "/>
<polyline clip-path="url(#clip0302)" style="stroke:#000000; stroke-width:0.5; stroke-opacity:0.1; fill:none" points="
  50.3844,147.727 580.315,147.727 
  "/>
<polyline clip-path="url(#clip0302)" style="stroke:#000000; stroke-width:0.5; stroke-opacity:0.1; fill:none" points="
  50.3844,38.9717 580.315,38.9717 
  "/>
<polyline clip-path="url(#clip0300)" style="stroke:#000000; stroke-width:1; stroke-opacity:1; fill:none" points="
  50.3844,375.869 580.315,375.869 
  "/>
<polyline clip-path="url(#clip0300)" style="stroke:#000000; stroke-width:1; stroke-opacity:1; fill:none" points="
  50.3844,375.869 50.3844,11.811 
  "/>
<polyline clip-path="url(#clip0300)" style="stroke:#000000; stroke-width:1; stroke-opacity:1; fill:none" points="
  115.376,375.869 115.376,370.408 
  "/>
<polyline clip-path="url(#clip0300)" style="stroke:#000000; stroke-width:1; stroke-opacity:1; fill:none" points="
  215.363,375.869 215.363,370.408 
  "/>
<polyline clip-path="url(#clip0300)" style="stroke:#000000; stroke-width:1; stroke-opacity:1; fill:none" points="
  315.35,375.869 315.35,370.408 
  "/>
<polyline clip-path="url(#clip0300)" style="stroke:#000000; stroke-width:1; stroke-opacity:1; fill:none" points="
  415.337,375.869 415.337,370.408 
  "/>
<polyline clip-path="url(#clip0300)" style="stroke:#000000; stroke-width:1; stroke-opacity:1; fill:none" points="
  515.323,375.869 515.323,370.408 
  "/>
<polyline clip-path="url(#clip0300)" style="stroke:#000000; stroke-width:1; stroke-opacity:1; fill:none" points="
  50.3844,365.239 58.3333,365.239 
  "/>
<polyline clip-path="url(#clip0300)" style="stroke:#000000; stroke-width:1; stroke-opacity:1; fill:none" points="
  50.3844,256.483 58.3333,256.483 
  "/>
<polyline clip-path="url(#clip0300)" style="stroke:#000000; stroke-width:1; stroke-opacity:1; fill:none" points="
  50.3844,147.727 58.3333,147.727 
  "/>
<polyline clip-path="url(#clip0300)" style="stroke:#000000; stroke-width:1; stroke-opacity:1; fill:none" points="
  50.3844,38.9717 58.3333,38.9717 
  "/>
<g clip-path="url(#clip0300)">
<text style="fill:#000000; fill-opacity:1; font-family:Arial,Helvetica Neue,Helvetica,sans-serif; font-size:12; text-anchor:middle;" transform="rotate(0, 115.376, 389.669)" x="115.376" y="389.669">-4</text>
</g>
<g clip-path="url(#clip0300)">
<text style="fill:#000000; fill-opacity:1; font-family:Arial,Helvetica Neue,Helvetica,sans-serif; font-size:12; text-anchor:middle;" transform="rotate(0, 215.363, 389.669)" x="215.363" y="389.669">-2</text>
</g>
<g clip-path="url(#clip0300)">
<text style="fill:#000000; fill-opacity:1; font-family:Arial,Helvetica Neue,Helvetica,sans-serif; font-size:12; text-anchor:middle;" transform="rotate(0, 315.35, 389.669)" x="315.35" y="389.669">0</text>
</g>
<g clip-path="url(#clip0300)">
<text style="fill:#000000; fill-opacity:1; font-family:Arial,Helvetica Neue,Helvetica,sans-serif; font-size:12; text-anchor:middle;" transform="rotate(0, 415.337, 389.669)" x="415.337" y="389.669">2</text>
</g>
<g clip-path="url(#clip0300)">
<text style="fill:#000000; fill-opacity:1; font-family:Arial,Helvetica Neue,Helvetica,sans-serif; font-size:12; text-anchor:middle;" transform="rotate(0, 515.323, 389.669)" x="515.323" y="389.669">4</text>
</g>
<g clip-path="url(#clip0300)">
<text style="fill:#000000; fill-opacity:1; font-family:Arial,Helvetica Neue,Helvetica,sans-serif; font-size:12; text-anchor:end;" transform="rotate(0, 44.3844, 369.739)" x="44.3844" y="369.739">0</text>
</g>
<g clip-path="url(#clip0300)">
<text style="fill:#000000; fill-opacity:1; font-family:Arial,Helvetica Neue,Helvetica,sans-serif; font-size:12; text-anchor:end;" transform="rotate(0, 44.3844, 260.983)" x="44.3844" y="260.983">1000</text>
</g>
<g clip-path="url(#clip0300)">
<text style="fill:#000000; fill-opacity:1; font-family:Arial,Helvetica Neue,Helvetica,sans-serif; font-size:12; text-anchor:end;" transform="rotate(0, 44.3844, 152.227)" x="44.3844" y="152.227">2000</text>
</g>
<g clip-path="url(#clip0300)">
<text style="fill:#000000; fill-opacity:1; font-family:Arial,Helvetica Neue,Helvetica,sans-serif; font-size:12; text-anchor:end;" transform="rotate(0, 44.3844, 43.4717)" x="44.3844" y="43.4717">3000</text>
</g>
<polyline clip-path="url(#clip0302)" style="stroke:#009af9; stroke-width:1; stroke-opacity:1; fill:none" points="
  65.3824,28.6399 70.3818,54.9587 75.3811,79.7107 80.3805,102.959 85.3798,124.766 90.3791,145.192 95.3785,164.297 100.378,182.138 105.377,198.772 110.377,214.255 
  115.376,228.642 120.375,241.984 125.375,254.333 130.374,265.74 135.373,276.254 140.373,285.922 145.372,294.79 150.371,302.904 155.371,310.308 160.37,317.043 
  165.369,323.15 170.369,328.671 175.368,333.642 180.367,338.102 185.367,342.086 190.366,345.629 195.365,348.764 200.365,351.523 205.364,353.936 210.363,356.034 
  215.363,357.844 220.362,359.392 225.361,360.705 230.361,361.807 235.36,362.719 240.359,363.465 245.359,364.064 250.358,364.534 255.358,364.894 260.357,365.161 
  265.356,365.348 270.356,365.469 275.355,365.538 280.354,365.565 285.354,365.56 290.353,365.531 295.352,365.486 300.352,365.43 305.351,365.369 310.35,365.304 
  315.35,365.239 320.349,365.174 325.348,365.108 330.348,365.039 335.347,364.964 340.346,364.879 345.346,364.777 350.345,364.652 355.344,364.494 360.344,364.295 
  365.343,364.043 370.342,363.725 375.342,363.328 380.341,362.838 385.341,362.236 390.34,361.507 395.339,360.631 400.339,359.588 405.338,358.356 410.337,356.913 
  415.337,355.233 420.336,353.293 425.335,351.065 430.335,348.521 435.334,345.632 440.333,342.366 445.333,338.693 450.332,334.578 455.331,329.988 460.331,324.886 
  465.33,319.235 470.329,312.997 475.329,306.132 480.328,298.598 485.327,290.353 490.327,281.354 495.326,271.556 500.325,260.912 505.325,249.374 510.324,236.894 
  515.323,223.421 520.323,208.905 525.322,193.291 530.322,176.526 535.321,158.554 540.32,139.319 545.32,118.763 550.319,96.8253 555.318,73.4464 560.318,48.5639 
  565.317,22.1145 
  "/>
<polyline clip-path="url(#clip0302)" style="stroke:#e26f46; stroke-width:1; stroke-opacity:1; fill:none" points="
  65.3824,28.6399 70.3818,54.9587 75.3811,79.7107 80.3805,102.959 85.3798,124.766 90.3791,145.192 95.3785,164.297 100.378,182.138 105.377,198.772 110.377,214.255 
  115.376,228.642 120.375,241.984 125.375,254.333 130.374,265.74 135.373,276.254 140.373,285.922 145.372,294.79 150.371,302.904 155.371,310.308 160.37,317.043 
  165.369,323.15 170.369,328.671 175.368,333.642 180.367,338.102 185.367,342.086 190.366,345.629 195.365,348.764 200.365,351.523 205.364,353.936 210.363,356.034 
  215.363,357.844 220.362,359.392 225.361,360.705 230.361,361.807 235.36,362.719 240.359,363.465 245.359,364.064 250.358,364.534 255.358,364.894 260.357,365.161 
  265.356,365.348 270.356,365.469 275.355,365.538 280.354,365.565 285.354,365.56 290.353,365.531 295.352,365.486 300.352,365.43 305.351,365.369 310.35,365.304 
  315.35,365.239 320.349,365.174 325.348,365.108 330.348,365.039 335.347,364.964 340.346,364.879 345.346,364.777 350.345,364.652 355.344,364.494 360.344,364.295 
  365.343,364.043 370.342,363.725 375.342,363.328 380.341,362.838 385.341,362.236 390.34,361.507 395.339,360.631 400.339,359.588 405.338,358.356 410.337,356.913 
  415.337,355.233 420.336,353.293 425.335,351.065 430.335,348.521 435.334,345.632 440.333,342.366 445.333,338.693 450.332,334.578 455.331,329.988 460.331,324.886 
  465.33,319.235 470.329,312.997 475.329,306.132 480.328,298.598 485.327,290.353 490.327,281.354 495.326,271.556 500.325,260.912 505.325,249.374 510.324,236.894 
  515.323,223.421 520.323,208.905 525.322,193.291 530.322,176.526 535.321,158.554 540.32,139.319 545.32,118.763 550.319,96.8253 555.318,73.4464 560.318,48.5639 
  565.317,22.1145 
  "/>
<polygon clip-path="url(#clip0300)" points="
489.608,78.051 562.315,78.051 562.315,32.691 489.608,32.691 
  " fill="#ffffff" fill-opacity="1"/>
<polyline clip-path="url(#clip0300)" style="stroke:#000000; stroke-width:1; stroke-opacity:1; fill:none" points="
  489.608,78.051 562.315,78.051 562.315,32.691 489.608,32.691 489.608,78.051 
  "/>
<polyline clip-path="url(#clip0300)" style="stroke:#009af9; stroke-width:1; stroke-opacity:1; fill:none" points="
  495.608,47.811 531.608,47.811 
  "/>
<g clip-path="url(#clip0300)">
<text style="fill:#000000; fill-opacity:1; font-family:Arial,Helvetica Neue,Helvetica,sans-serif; font-size:12; text-anchor:start;" transform="rotate(0, 537.608, 52.311)" x="537.608" y="52.311">y1</text>
</g>
<polyline clip-path="url(#clip0300)" style="stroke:#e26f46; stroke-width:1; stroke-opacity:1; fill:none" points="
  495.608,62.931 531.608,62.931 
  "/>
<g clip-path="url(#clip0300)">
<text style="fill:#000000; fill-opacity:1; font-family:Arial,Helvetica Neue,Helvetica,sans-serif; font-size:12; text-anchor:start;" transform="rotate(0, 537.608, 67.431)" x="537.608" y="67.431">y2</text>
</g>
</svg>
